<?xml version="1.0" encoding="UTF-8" standalone="no"?>
<!DOCTYPE svg PUBLIC "-//W3C//DTD SVG 1.1//EN"
 "http://www.w3.org/Graphics/SVG/1.1/DTD/svg11.dtd">
<!-- Generated by graphviz version 2.43.0 (0)
 -->
<!-- Title: Tree Pages: 1 -->
<svg width="1581pt" height="373pt"
 viewBox="0.00 0.00 1580.50 373.00" xmlns="http://www.w3.org/2000/svg" xmlns:xlink="http://www.w3.org/1999/xlink">
<g id="graph0" class="graph" transform="scale(1 1) rotate(0) translate(4 369)">
<title>Tree</title>
<polygon fill="white" stroke="transparent" points="-4,4 -4,-369 1576.5,-369 1576.5,4 -4,4"/>
<!-- 0 -->
<g id="node1" class="node">
<title>0</title>
<path fill="#f9e2d2" stroke="black" d="M878.5,-365C878.5,-365 710.5,-365 710.5,-365 704.5,-365 698.5,-359 698.5,-353 698.5,-353 698.5,-309 698.5,-309 698.5,-303 704.5,-297 710.5,-297 710.5,-297 878.5,-297 878.5,-297 884.5,-297 890.5,-303 890.5,-309 890.5,-309 890.5,-353 890.5,-353 890.5,-359 884.5,-365 878.5,-365"/>
<text text-anchor="start" x="751.5" y="-349.8" font-family="Helvetica,sans-Serif" font-size="14.00">x_1 ≤ 3.543</text>
<text text-anchor="start" x="706.5" y="-334.8" font-family="Helvetica,sans-Serif" font-size="14.00">squared_error = 116.479</text>
<text text-anchor="start" x="741.5" y="-319.8" font-family="Helvetica,sans-Serif" font-size="14.00">samples = 500</text>
<text text-anchor="start" x="740" y="-304.8" font-family="Helvetica,sans-Serif" font-size="14.00">value = 17.182</text>
</g>
<!-- 1 -->
<g id="node2" class="node">
<title>1</title>
<path fill="#fbe9dd" stroke="black" d="M673,-261C673,-261 514,-261 514,-261 508,-261 502,-255 502,-249 502,-249 502,-205 502,-205 502,-199 508,-193 514,-193 514,-193 673,-193 673,-193 679,-193 685,-199 685,-205 685,-205 685,-249 685,-249 685,-255 679,-261 673,-261"/>
<text text-anchor="start" x="548" y="-245.8" font-family="Helvetica,sans-Serif" font-size="14.00">x_1 ≤ &#45;2.498</text>
<text text-anchor="start" x="510" y="-230.8" font-family="Helvetica,sans-Serif" font-size="14.00">squared_error = 97.139</text>
<text text-anchor="start" x="540.5" y="-215.8" font-family="Helvetica,sans-Serif" font-size="14.00">samples = 429</text>
<text text-anchor="start" x="543.5" y="-200.8" font-family="Helvetica,sans-Serif" font-size="14.00">value = 15.24</text>
</g>
<!-- 0&#45;&gt;1 -->
<g id="edge1" class="edge">
<title>0&#45;&gt;1</title>
<path fill="none" stroke="black" d="M729.24,-296.88C709.66,-286.95 688.03,-275.97 667.9,-265.76"/>
<polygon fill="black" stroke="black" points="669.28,-262.53 658.78,-261.12 666.11,-268.77 669.28,-262.53"/>
<text text-anchor="middle" x="666.54" y="-281.19" font-family="Helvetica,sans-Serif" font-size="14.00">True</text>
</g>
<!-- 8 -->
<g id="node9" class="node">
<title>8</title>
<path fill="#f0b68d" stroke="black" d="M1073,-261C1073,-261 914,-261 914,-261 908,-261 902,-255 902,-249 902,-249 902,-205 902,-205 902,-199 908,-193 914,-193 914,-193 1073,-193 1073,-193 1079,-193 1085,-199 1085,-205 1085,-205 1085,-249 1085,-249 1085,-255 1079,-261 1073,-261"/>
<text text-anchor="start" x="950.5" y="-245.8" font-family="Helvetica,sans-Serif" font-size="14.00">x_2 ≤ 3.996</text>
<text text-anchor="start" x="910" y="-230.8" font-family="Helvetica,sans-Serif" font-size="14.00">squared_error = 72.901</text>
<text text-anchor="start" x="945" y="-215.8" font-family="Helvetica,sans-Serif" font-size="14.00">samples = 71</text>
<text text-anchor="start" x="939" y="-200.8" font-family="Helvetica,sans-Serif" font-size="14.00">value = 28.914</text>
</g>
<!-- 0&#45;&gt;8 -->
<g id="edge8" class="edge">
<title>0&#45;&gt;8</title>
<path fill="none" stroke="black" d="M859.11,-296.88C878.5,-286.95 899.91,-275.97 919.84,-265.76"/>
<polygon fill="black" stroke="black" points="921.57,-268.8 928.87,-261.12 918.38,-262.57 921.57,-268.8"/>
<text text-anchor="middle" x="921.21" y="-281.22" font-family="Helvetica,sans-Serif" font-size="14.00">False</text>
</g>
<!-- 2 -->
<g id="node3" class="node">
<title>2</title>
<path fill="#f4c8a9" stroke="black" d="M372,-157C372,-157 213,-157 213,-157 207,-157 201,-151 201,-145 201,-145 201,-101 201,-101 201,-95 207,-89 213,-89 213,-89 372,-89 372,-89 378,-89 384,-95 384,-101 384,-101 384,-145 384,-145 384,-151 378,-157 372,-157"/>
<text text-anchor="start" x="249.5" y="-141.8" font-family="Helvetica,sans-Serif" font-size="14.00">x_2 ≤ 3.302</text>
<text text-anchor="start" x="209" y="-126.8" font-family="Helvetica,sans-Serif" font-size="14.00">squared_error = 70.886</text>
<text text-anchor="start" x="239.5" y="-111.8" font-family="Helvetica,sans-Serif" font-size="14.00">samples = 133</text>
<text text-anchor="start" x="238" y="-96.8" font-family="Helvetica,sans-Serif" font-size="14.00">value = 24.106</text>
</g>
<!-- 1&#45;&gt;2 -->
<g id="edge2" class="edge">
<title>1&#45;&gt;2</title>
<path fill="none" stroke="black" d="M501.96,-194.98C467.82,-183.41 428.86,-170.21 393.87,-158.35"/>
<polygon fill="black" stroke="black" points="394.71,-154.94 384.12,-155.05 392.47,-161.57 394.71,-154.94"/>
</g>
<!-- 5 -->
<g id="node6" class="node">
<title>5</title>
<path fill="#fef8f4" stroke="black" d="M673,-157C673,-157 514,-157 514,-157 508,-157 502,-151 502,-145 502,-145 502,-101 502,-101 502,-95 508,-89 514,-89 514,-89 673,-89 673,-89 679,-89 685,-95 685,-101 685,-101 685,-145 685,-145 685,-151 679,-157 673,-157"/>
<text text-anchor="start" x="548" y="-141.8" font-family="Helvetica,sans-Serif" font-size="14.00">x_2 ≤ &#45;3.328</text>
<text text-anchor="start" x="510" y="-126.8" font-family="Helvetica,sans-Serif" font-size="14.00">squared_error = 57.741</text>
<text text-anchor="start" x="540.5" y="-111.8" font-family="Helvetica,sans-Serif" font-size="14.00">samples = 296</text>
<text text-anchor="start" x="539" y="-96.8" font-family="Helvetica,sans-Serif" font-size="14.00">value = 11.256</text>
</g>
<!-- 1&#45;&gt;5 -->
<g id="edge5" class="edge">
<title>1&#45;&gt;5</title>
<path fill="none" stroke="black" d="M593.5,-192.88C593.5,-184.78 593.5,-175.98 593.5,-167.47"/>
<polygon fill="black" stroke="black" points="597,-167.3 593.5,-157.3 590,-167.3 597,-167.3"/>
</g>
<!-- 3 -->
<g id="node4" class="node">
<title>3</title>
<path fill="#f6d2b9" stroke="black" d="M171,-53C171,-53 12,-53 12,-53 6,-53 0,-47 0,-41 0,-41 0,-12 0,-12 0,-6 6,0 12,0 12,0 171,0 171,0 177,0 183,-6 183,-12 183,-12 183,-41 183,-41 183,-47 177,-53 171,-53"/>
<text text-anchor="start" x="8" y="-37.8" font-family="Helvetica,sans-Serif" font-size="14.00">squared_error = 47.474</text>
<text text-anchor="start" x="38.5" y="-22.8" font-family="Helvetica,sans-Serif" font-size="14.00">samples = 102</text>
<text text-anchor="start" x="46" y="-7.8" font-family="Helvetica,sans-Serif" font-size="14.00">value = 21.4</text>
</g>
<!-- 2&#45;&gt;3 -->
<g id="edge3" class="edge">
<title>2&#45;&gt;3</title>
<path fill="none" stroke="black" d="M222.2,-88.95C200.41,-78.7 176.52,-67.47 155.2,-57.45"/>
<polygon fill="black" stroke="black" points="156.46,-54.17 145.92,-53.09 153.48,-60.51 156.46,-54.17"/>
</g>
<!-- 4 -->
<g id="node5" class="node">
<title>4</title>
<path fill="#eda775" stroke="black" d="M372,-53C372,-53 213,-53 213,-53 207,-53 201,-47 201,-41 201,-41 201,-12 201,-12 201,-6 207,0 213,0 213,0 372,0 372,0 378,0 384,-6 384,-12 384,-12 384,-41 384,-41 384,-47 378,-53 372,-53"/>
<text text-anchor="start" x="209" y="-37.8" font-family="Helvetica,sans-Serif" font-size="14.00">squared_error = 44.506</text>
<text text-anchor="start" x="244" y="-22.8" font-family="Helvetica,sans-Serif" font-size="14.00">samples = 31</text>
<text text-anchor="start" x="238" y="-7.8" font-family="Helvetica,sans-Serif" font-size="14.00">value = 33.012</text>
</g>
<!-- 2&#45;&gt;4 -->
<g id="edge4" class="edge">
<title>2&#45;&gt;4</title>
<path fill="none" stroke="black" d="M292.5,-88.95C292.5,-80.72 292.5,-71.85 292.5,-63.48"/>
<polygon fill="black" stroke="black" points="296,-63.24 292.5,-53.24 289,-63.24 296,-63.24"/>
</g>
<!-- 6 -->
<g id="node7" class="node">
<title>6</title>
<path fill="#f6d5bc" stroke="black" d="M573,-53C573,-53 414,-53 414,-53 408,-53 402,-47 402,-41 402,-41 402,-12 402,-12 402,-6 408,0 414,0 414,0 573,0 573,0 579,0 585,-6 585,-12 585,-12 585,-41 585,-41 585,-47 579,-53 573,-53"/>
<text text-anchor="start" x="410" y="-37.8" font-family="Helvetica,sans-Serif" font-size="14.00">squared_error = 20.786</text>
<text text-anchor="start" x="445" y="-22.8" font-family="Helvetica,sans-Serif" font-size="14.00">samples = 47</text>
<text text-anchor="start" x="439" y="-7.8" font-family="Helvetica,sans-Serif" font-size="14.00">value = 20.823</text>
</g>
<!-- 5&#45;&gt;6 -->
<g id="edge6" class="edge">
<title>5&#45;&gt;6</title>
<path fill="none" stroke="black" d="M558.52,-88.95C548.65,-79.62 537.91,-69.47 528.07,-60.16"/>
<polygon fill="black" stroke="black" points="530.41,-57.56 520.73,-53.24 525.6,-62.65 530.41,-57.56"/>
</g>
<!-- 7 -->
<g id="node8" class="node">
<title>7</title>
<path fill="#ffffff" stroke="black" d="M774,-53C774,-53 615,-53 615,-53 609,-53 603,-47 603,-41 603,-41 603,-12 603,-12 603,-6 609,0 615,0 615,0 774,0 774,0 780,0 786,-6 786,-12 786,-12 786,-41 786,-41 786,-47 780,-53 774,-53"/>
<text text-anchor="start" x="611" y="-37.8" font-family="Helvetica,sans-Serif" font-size="14.00">squared_error = 44.182</text>
<text text-anchor="start" x="641.5" y="-22.8" font-family="Helvetica,sans-Serif" font-size="14.00">samples = 249</text>
<text text-anchor="start" x="649" y="-7.8" font-family="Helvetica,sans-Serif" font-size="14.00">value = 9.45</text>
</g>
<!-- 5&#45;&gt;7 -->
<g id="edge7" class="edge">
<title>5&#45;&gt;7</title>
<path fill="none" stroke="black" d="M628.82,-88.95C638.8,-79.62 649.64,-69.47 659.59,-60.16"/>
<polygon fill="black" stroke="black" points="662.08,-62.62 666.99,-53.24 657.3,-57.51 662.08,-62.62"/>
</g>
<!-- 9 -->
<g id="node10" class="node">
<title>9</title>
<path fill="#f1bd97" stroke="black" d="M1073,-157C1073,-157 914,-157 914,-157 908,-157 902,-151 902,-145 902,-145 902,-101 902,-101 902,-95 908,-89 914,-89 914,-89 1073,-89 1073,-89 1079,-89 1085,-95 1085,-101 1085,-101 1085,-145 1085,-145 1085,-151 1079,-157 1073,-157"/>
<text text-anchor="start" x="948" y="-141.8" font-family="Helvetica,sans-Serif" font-size="14.00">x_2 ≤ &#45;3.101</text>
<text text-anchor="start" x="910" y="-126.8" font-family="Helvetica,sans-Serif" font-size="14.00">squared_error = 57.668</text>
<text text-anchor="start" x="945" y="-111.8" font-family="Helvetica,sans-Serif" font-size="14.00">samples = 62</text>
<text text-anchor="start" x="939" y="-96.8" font-family="Helvetica,sans-Serif" font-size="14.00">value = 27.159</text>
</g>
<!-- 8&#45;&gt;9 -->
<g id="edge9" class="edge">
<title>8&#45;&gt;9</title>
<path fill="none" stroke="black" d="M993.5,-192.88C993.5,-184.78 993.5,-175.98 993.5,-167.47"/>
<polygon fill="black" stroke="black" points="997,-167.3 993.5,-157.3 990,-167.3 997,-167.3"/>
</g>
<!-- 12 -->
<g id="node13" class="node">
<title>12</title>
<path fill="#e78946" stroke="black" d="M1373,-157C1373,-157 1214,-157 1214,-157 1208,-157 1202,-151 1202,-145 1202,-145 1202,-101 1202,-101 1202,-95 1208,-89 1214,-89 1214,-89 1373,-89 1373,-89 1379,-89 1385,-95 1385,-101 1385,-101 1385,-145 1385,-145 1385,-151 1379,-157 1373,-157"/>
<text text-anchor="start" x="1250.5" y="-141.8" font-family="Helvetica,sans-Serif" font-size="14.00">x_1 ≤ 4.319</text>
<text text-anchor="start" x="1210" y="-126.8" font-family="Helvetica,sans-Serif" font-size="14.00">squared_error = 10.333</text>
<text text-anchor="start" x="1249.5" y="-111.8" font-family="Helvetica,sans-Serif" font-size="14.00">samples = 9</text>
<text text-anchor="start" x="1239" y="-96.8" font-family="Helvetica,sans-Serif" font-size="14.00">value = 41.009</text>
</g>
<!-- 8&#45;&gt;12 -->
<g id="edge12" class="edge">
<title>8&#45;&gt;12</title>
<path fill="none" stroke="black" d="M1085.14,-194.84C1119,-183.33 1157.57,-170.22 1192.24,-158.43"/>
<polygon fill="black" stroke="black" points="1193.56,-161.68 1201.9,-155.14 1191.31,-155.05 1193.56,-161.68"/>
</g>
<!-- 10 -->
<g id="node11" class="node">
<title>10</title>
<path fill="#ea975c" stroke="black" d="M975,-53C975,-53 816,-53 816,-53 810,-53 804,-47 804,-41 804,-41 804,-12 804,-12 804,-6 810,0 816,0 816,0 975,0 975,0 981,0 987,-6 987,-12 987,-12 987,-41 987,-41 987,-47 981,-53 975,-53"/>
<text text-anchor="start" x="812" y="-37.8" font-family="Helvetica,sans-Serif" font-size="14.00">squared_error = 15.407</text>
<text text-anchor="start" x="847" y="-22.8" font-family="Helvetica,sans-Serif" font-size="14.00">samples = 14</text>
<text text-anchor="start" x="841" y="-7.8" font-family="Helvetica,sans-Serif" font-size="14.00">value = 37.323</text>
</g>
<!-- 9&#45;&gt;10 -->
<g id="edge10" class="edge">
<title>9&#45;&gt;10</title>
<path fill="none" stroke="black" d="M959.22,-88.95C949.64,-79.71 939.23,-69.67 929.66,-60.44"/>
<polygon fill="black" stroke="black" points="931.82,-57.66 922.19,-53.24 926.96,-62.7 931.82,-57.66"/>
</g>
<!-- 11 -->
<g id="node12" class="node">
<title>11</title>
<path fill="#f4c8a9" stroke="black" d="M1176,-53C1176,-53 1017,-53 1017,-53 1011,-53 1005,-47 1005,-41 1005,-41 1005,-12 1005,-12 1005,-6 1011,0 1017,0 1017,0 1176,0 1176,0 1182,0 1188,-6 1188,-12 1188,-12 1188,-41 1188,-41 1188,-47 1182,-53 1176,-53"/>
<text text-anchor="start" x="1013" y="-37.8" font-family="Helvetica,sans-Serif" font-size="14.00">squared_error = 31.075</text>
<text text-anchor="start" x="1048" y="-22.8" font-family="Helvetica,sans-Serif" font-size="14.00">samples = 48</text>
<text text-anchor="start" x="1042" y="-7.8" font-family="Helvetica,sans-Serif" font-size="14.00">value = 24.194</text>
</g>
<!-- 9&#45;&gt;11 -->
<g id="edge11" class="edge">
<title>9&#45;&gt;11</title>
<path fill="none" stroke="black" d="M1029.52,-88.95C1039.69,-79.62 1050.75,-69.47 1060.9,-60.16"/>
<polygon fill="black" stroke="black" points="1063.45,-62.58 1068.45,-53.24 1058.71,-57.42 1063.45,-62.58"/>
</g>
<!-- 13 -->
<g id="node14" class="node">
<title>13</title>
<path fill="#e99456" stroke="black" d="M1368.5,-53C1368.5,-53 1218.5,-53 1218.5,-53 1212.5,-53 1206.5,-47 1206.5,-41 1206.5,-41 1206.5,-12 1206.5,-12 1206.5,-6 1212.5,0 1218.5,0 1218.5,0 1368.5,0 1368.5,0 1374.5,0 1380.5,-6 1380.5,-12 1380.5,-12 1380.5,-41 1380.5,-41 1380.5,-47 1374.5,-53 1368.5,-53"/>
<text text-anchor="start" x="1214.5" y="-37.8" font-family="Helvetica,sans-Serif" font-size="14.00">squared_error = 3.358</text>
<text text-anchor="start" x="1249.5" y="-22.8" font-family="Helvetica,sans-Serif" font-size="14.00">samples = 4</text>
<text text-anchor="start" x="1239" y="-7.8" font-family="Helvetica,sans-Serif" font-size="14.00">value = 38.236</text>
</g>
<!-- 12&#45;&gt;13 -->
<g id="edge13" class="edge">
<title>12&#45;&gt;13</title>
<path fill="none" stroke="black" d="M1293.5,-88.95C1293.5,-80.72 1293.5,-71.85 1293.5,-63.48"/>
<polygon fill="black" stroke="black" points="1297,-63.24 1293.5,-53.24 1290,-63.24 1297,-63.24"/>
</g>
<!-- 14 -->
<g id="node15" class="node">
<title>14</title>
<path fill="#e58139" stroke="black" d="M1560.5,-53C1560.5,-53 1410.5,-53 1410.5,-53 1404.5,-53 1398.5,-47 1398.5,-41 1398.5,-41 1398.5,-12 1398.5,-12 1398.5,-6 1404.5,0 1410.5,0 1410.5,0 1560.5,0 1560.5,0 1566.5,0 1572.5,-6 1572.5,-12 1572.5,-12 1572.5,-41 1572.5,-41 1572.5,-47 1566.5,-53 1560.5,-53"/>
<text text-anchor="start" x="1406.5" y="-37.8" font-family="Helvetica,sans-Serif" font-size="14.00">squared_error = 4.843</text>
<text text-anchor="start" x="1441.5" y="-22.8" font-family="Helvetica,sans-Serif" font-size="14.00">samples = 5</text>
<text text-anchor="start" x="1431" y="-7.8" font-family="Helvetica,sans-Serif" font-size="14.00">value = 43.227</text>
</g>
<!-- 12&#45;&gt;14 -->
<g id="edge14" class="edge">
<title>12&#45;&gt;14</title>
<path fill="none" stroke="black" d="M1360.65,-88.95C1381.38,-78.75 1404.08,-67.57 1424.37,-57.59"/>
<polygon fill="black" stroke="black" points="1426.09,-60.64 1433.51,-53.09 1423,-54.36 1426.09,-60.64"/>
</g>
</g>
</svg>