<?xml version="1.0" encoding="UTF-8"?>
<svg xmlns="http://www.w3.org/2000/svg" xmlns:xlink="http://www.w3.org/1999/xlink"
     width="420.0" height="240" viewBox="-10 -10 440.0 260">
<defs>
</defs>
<g>
<circle cx="210.0" cy="30" r="30" stroke="black" stroke-width="2" fill="none" />
<text x="210.0" y="30" font-size="20" text-anchor="middle" dominant-baseline="middle" fill="black">1</text>
</g>
<g>
<circle cx="90.0" cy="120" r="30" stroke="black" stroke-width="2" fill="none" />
<text x="90.0" y="120" font-size="20" text-anchor="middle" dominant-baseline="middle" fill="black">2</text>
</g>
<g>
<circle cx="30.0" cy="210" r="30" stroke="black" stroke-width="2" fill="none" />
<text x="30.0" y="210" font-size="20" text-anchor="middle" dominant-baseline="middle" fill="black">3</text>
</g>
<path d="M73.35899411324313,144.9615088301353 L46.64100588675687,185.0384911698647 M46.64100588675687,185.0384911698647 L48.02775637731994,173.9444872453601 L56.34825932069838,179.4914892076124" fill="black" stroke="black" stroke-width="3" />
<g>
<circle cx="150.0" cy="210" r="30" stroke="black" stroke-width="2" fill="none" />
<text x="150.0" y="210" font-size="20" text-anchor="middle" dominant-baseline="middle" fill="black">4</text>
</g>
<path d="M106.64100588675687,144.9615088301353 L133.3589941132431,185.0384911698647 M133.3589941132431,185.0384911698647 L123.6517406793016,179.4914892076124 L131.97224362268003,173.9444872453601" fill="black" stroke="black" stroke-width="3" />
<path d="M186.0,48.0 L114.0,102.0 M114.0,102.0 L119.0,92.0 L125.0,100.0" fill="black" stroke="black" stroke-width="3" />
<g>
<circle cx="330.0" cy="120" r="30" stroke="black" stroke-width="2" fill="none" />
<text x="330.0" y="120" font-size="20" text-anchor="middle" dominant-baseline="middle" fill="black">5</text>
</g>
<g>
<circle cx="270.0" cy="210" r="30" stroke="black" stroke-width="2" fill="none" />
<text x="270.0" y="210" font-size="20" text-anchor="middle" dominant-baseline="middle" fill="black">6</text>
</g>
<path d="M313.3589941132431,144.9615088301353 L286.6410058867569,185.0384911698647 M286.6410058867569,185.0384911698647 L288.02775637732,173.9444872453601 L296.3482593206984,179.4914892076124" fill="black" stroke="black" stroke-width="3" />
<g>
<circle cx="390.0" cy="210" r="30" stroke="black" stroke-width="2" fill="none" />
<text x="390.0" y="210" font-size="20" text-anchor="middle" dominant-baseline="middle" fill="black">7</text>
</g>
<path d="M346.6410058867569,144.9615088301353 L373.3589941132431,185.0384911698647 M373.3589941132431,185.0384911698647 L363.6517406793016,179.4914892076124 L371.97224362268,173.9444872453601" fill="black" stroke="black" stroke-width="3" />
<path d="M234.0,48.0 L306.0,102.0 M306.0,102.0 L295.0,100.0 L301.0,92.0" fill="black" stroke="black" stroke-width="3" />
</svg>