<?xml version="1.0" encoding="UTF-8" standalone="no"?>
<!DOCTYPE svg PUBLIC "-//W3C//DTD SVG 1.1//EN"
 "http://www.w3.org/Graphics/SVG/1.1/DTD/svg11.dtd">
<!-- Generated by graphviz version 2.43.0 (0)
 -->
<!-- Title: Tree Pages: 1 -->
<svg width="577pt" height="361pt"
 viewBox="0.00 0.00 577.00 361.00" xmlns="http://www.w3.org/2000/svg" xmlns:xlink="http://www.w3.org/1999/xlink">
<g id="graph0" class="graph" transform="scale(1 1) rotate(0) translate(4 357)">
<title>Tree</title>
<polygon fill="white" stroke="transparent" points="-4,4 -4,-357 573,-357 573,4 -4,4"/>
<!-- 0 -->
<g id="node1" class="node">
<title>0</title>
<path fill="#afd7f4" stroke="black" d="M342,-353C342,-353 217,-353 217,-353 211,-353 205,-347 205,-341 205,-341 205,-301 205,-301 205,-295 211,-289 217,-289 217,-289 342,-289 342,-289 348,-289 354,-295 354,-301 354,-301 354,-341 354,-341 354,-347 348,-353 342,-353"/>
<text text-anchor="start" x="240" y="-338.8" font-family="Helvetica,sans-Serif" font-size="14.00">x</text>
<text text-anchor="start" x="249" y="-338.8" font-family="Helvetica,sans-Serif" baseline-shift="sub" font-size="14.00">7</text>
<text text-anchor="start" x="257" y="-338.8" font-family="Helvetica,sans-Serif" font-size="14.00"> ≤ 0.049</text>
<text text-anchor="start" x="235.5" y="-324.8" font-family="Helvetica,sans-Serif" font-size="14.00">gini = 0.468</text>
<text text-anchor="start" x="226.5" y="-310.8" font-family="Helvetica,sans-Serif" font-size="14.00">samples = 426</text>
<text text-anchor="start" x="213" y="-296.8" font-family="Helvetica,sans-Serif" font-size="14.00">value = [159, 267]</text>
</g>
<!-- 1 -->
<g id="node2" class="node">
<title>1</title>
<path fill="#43a2e6" stroke="black" d="M258.5,-253C258.5,-253 142.5,-253 142.5,-253 136.5,-253 130.5,-247 130.5,-241 130.5,-241 130.5,-201 130.5,-201 130.5,-195 136.5,-189 142.5,-189 142.5,-189 258.5,-189 258.5,-189 264.5,-189 270.5,-195 270.5,-201 270.5,-201 270.5,-241 270.5,-241 270.5,-247 264.5,-253 258.5,-253"/>
<text text-anchor="start" x="157" y="-238.8" font-family="Helvetica,sans-Serif" font-size="14.00">x</text>
<text text-anchor="start" x="166" y="-238.8" font-family="Helvetica,sans-Serif" baseline-shift="sub" font-size="14.00">23</text>
<text text-anchor="start" x="182" y="-238.8" font-family="Helvetica,sans-Serif" font-size="14.00"> ≤ 952.9</text>
<text text-anchor="start" x="156.5" y="-224.8" font-family="Helvetica,sans-Serif" font-size="14.00">gini = 0.095</text>
<text text-anchor="start" x="147.5" y="-210.8" font-family="Helvetica,sans-Serif" font-size="14.00">samples = 260</text>
<text text-anchor="start" x="138.5" y="-196.8" font-family="Helvetica,sans-Serif" font-size="14.00">value = [13, 247]</text>
</g>
<!-- 0&#45;&gt;1 -->
<g id="edge1" class="edge">
<title>0&#45;&gt;1</title>
<path fill="none" stroke="black" d="M254.5,-288.99C247.37,-280.14 239.51,-270.39 232.04,-261.12"/>
<polygon fill="black" stroke="black" points="234.61,-258.73 225.6,-253.14 229.16,-263.12 234.61,-258.73"/>
<text text-anchor="middle" x="222.94" y="-274.3" font-family="Helvetica,sans-Serif" font-size="14.00">True</text>
</g>
<!-- 4 -->
<g id="node5" class="node">
<title>4</title>
<path fill="#e99254" stroke="black" d="M416.5,-253C416.5,-253 300.5,-253 300.5,-253 294.5,-253 288.5,-247 288.5,-241 288.5,-241 288.5,-201 288.5,-201 288.5,-195 294.5,-189 300.5,-189 300.5,-189 416.5,-189 416.5,-189 422.5,-189 428.5,-195 428.5,-201 428.5,-201 428.5,-241 428.5,-241 428.5,-247 422.5,-253 416.5,-253"/>
<text text-anchor="start" x="315" y="-238.8" font-family="Helvetica,sans-Serif" font-size="14.00">x</text>
<text text-anchor="start" x="324" y="-238.8" font-family="Helvetica,sans-Serif" baseline-shift="sub" font-size="14.00">23</text>
<text text-anchor="start" x="340" y="-238.8" font-family="Helvetica,sans-Serif" font-size="14.00"> ≤ 785.8</text>
<text text-anchor="start" x="314.5" y="-224.8" font-family="Helvetica,sans-Serif" font-size="14.00">gini = 0.212</text>
<text text-anchor="start" x="305.5" y="-210.8" font-family="Helvetica,sans-Serif" font-size="14.00">samples = 166</text>
<text text-anchor="start" x="296.5" y="-196.8" font-family="Helvetica,sans-Serif" font-size="14.00">value = [146, 20]</text>
</g>
<!-- 0&#45;&gt;4 -->
<g id="edge4" class="edge">
<title>0&#45;&gt;4</title>
<path fill="none" stroke="black" d="M304.5,-288.99C311.63,-280.14 319.49,-270.39 326.96,-261.12"/>
<polygon fill="black" stroke="black" points="329.84,-263.12 333.4,-253.14 324.39,-258.73 329.84,-263.12"/>
<text text-anchor="middle" x="336.06" y="-274.3" font-family="Helvetica,sans-Serif" font-size="14.00">False</text>
</g>
<!-- 2 -->
<g id="node3" class="node">
<title>2</title>
<path fill="#3fa0e6" stroke="black" d="M119,-147.5C119,-147.5 12,-147.5 12,-147.5 6,-147.5 0,-141.5 0,-135.5 0,-135.5 0,-106.5 0,-106.5 0,-100.5 6,-94.5 12,-94.5 12,-94.5 119,-94.5 119,-94.5 125,-94.5 131,-100.5 131,-106.5 131,-106.5 131,-135.5 131,-135.5 131,-141.5 125,-147.5 119,-147.5"/>
<text text-anchor="start" x="21.5" y="-132.3" font-family="Helvetica,sans-Serif" font-size="14.00">gini = 0.054</text>
<text text-anchor="start" x="12.5" y="-117.3" font-family="Helvetica,sans-Serif" font-size="14.00">samples = 252</text>
<text text-anchor="start" x="8" y="-102.3" font-family="Helvetica,sans-Serif" font-size="14.00">value = [7, 245]</text>
</g>
<!-- 1&#45;&gt;2 -->
<g id="edge2" class="edge">
<title>1&#45;&gt;2</title>
<path fill="none" stroke="black" d="M157.79,-188.99C142.27,-177.73 124.73,-165 109.14,-153.68"/>
<polygon fill="black" stroke="black" points="110.85,-150.6 100.71,-147.56 106.74,-156.26 110.85,-150.6"/>
</g>
<!-- 3 -->
<g id="node4" class="node">
<title>3</title>
<path fill="#eeab7b" stroke="black" d="M250,-147.5C250,-147.5 161,-147.5 161,-147.5 155,-147.5 149,-141.5 149,-135.5 149,-135.5 149,-106.5 149,-106.5 149,-100.5 155,-94.5 161,-94.5 161,-94.5 250,-94.5 250,-94.5 256,-94.5 262,-100.5 262,-106.5 262,-106.5 262,-135.5 262,-135.5 262,-141.5 256,-147.5 250,-147.5"/>
<text text-anchor="start" x="161.5" y="-132.3" font-family="Helvetica,sans-Serif" font-size="14.00">gini = 0.375</text>
<text text-anchor="start" x="161.5" y="-117.3" font-family="Helvetica,sans-Serif" font-size="14.00">samples = 8</text>
<text text-anchor="start" x="157" y="-102.3" font-family="Helvetica,sans-Serif" font-size="14.00">value = [6, 2]</text>
</g>
<!-- 1&#45;&gt;3 -->
<g id="edge3" class="edge">
<title>1&#45;&gt;3</title>
<path fill="none" stroke="black" d="M202.08,-188.99C202.59,-179.09 203.15,-168.04 203.67,-157.82"/>
<polygon fill="black" stroke="black" points="207.18,-157.72 204.2,-147.56 200.19,-157.37 207.18,-157.72"/>
</g>
<!-- 5 -->
<g id="node6" class="node">
<title>5</title>
<path fill="#d0e8f9" stroke="black" d="M408,-153C408,-153 301,-153 301,-153 295,-153 289,-147 289,-141 289,-141 289,-101 289,-101 289,-95 295,-89 301,-89 301,-89 408,-89 408,-89 414,-89 420,-95 420,-101 420,-101 420,-141 420,-141 420,-147 414,-153 408,-153"/>
<text text-anchor="start" x="311" y="-138.8" font-family="Helvetica,sans-Serif" font-size="14.00">x</text>
<text text-anchor="start" x="320" y="-138.8" font-family="Helvetica,sans-Serif" baseline-shift="sub" font-size="14.00">21</text>
<text text-anchor="start" x="336" y="-138.8" font-family="Helvetica,sans-Serif" font-size="14.00"> ≤ 23.74</text>
<text text-anchor="start" x="310.5" y="-124.8" font-family="Helvetica,sans-Serif" font-size="14.00">gini = 0.491</text>
<text text-anchor="start" x="306" y="-110.8" font-family="Helvetica,sans-Serif" font-size="14.00">samples = 30</text>
<text text-anchor="start" x="297" y="-96.8" font-family="Helvetica,sans-Serif" font-size="14.00">value = [13, 17]</text>
</g>
<!-- 4&#45;&gt;5 -->
<g id="edge5" class="edge">
<title>4&#45;&gt;5</title>
<path fill="none" stroke="black" d="M357.23,-188.99C356.9,-180.86 356.54,-171.96 356.19,-163.38"/>
<polygon fill="black" stroke="black" points="359.68,-162.99 355.77,-153.14 352.68,-163.28 359.68,-162.99"/>
</g>
<!-- 8 -->
<g id="node9" class="node">
<title>8</title>
<path fill="#e6843d" stroke="black" d="M557,-147.5C557,-147.5 450,-147.5 450,-147.5 444,-147.5 438,-141.5 438,-135.5 438,-135.5 438,-106.5 438,-106.5 438,-100.5 444,-94.5 450,-94.5 450,-94.5 557,-94.5 557,-94.5 563,-94.5 569,-100.5 569,-106.5 569,-106.5 569,-135.5 569,-135.5 569,-141.5 563,-147.5 557,-147.5"/>
<text text-anchor="start" x="459.5" y="-132.3" font-family="Helvetica,sans-Serif" font-size="14.00">gini = 0.043</text>
<text text-anchor="start" x="450.5" y="-117.3" font-family="Helvetica,sans-Serif" font-size="14.00">samples = 136</text>
<text text-anchor="start" x="446" y="-102.3" font-family="Helvetica,sans-Serif" font-size="14.00">value = [133, 3]</text>
</g>
<!-- 4&#45;&gt;8 -->
<g id="edge8" class="edge">
<title>4&#45;&gt;8</title>
<path fill="none" stroke="black" d="M404.38,-188.99C421.19,-177.63 440.23,-164.76 457.09,-153.37"/>
<polygon fill="black" stroke="black" points="459.36,-156.06 465.69,-147.56 455.44,-150.26 459.36,-156.06"/>
</g>
<!-- 6 -->
<g id="node7" class="node">
<title>6</title>
<path fill="#399de5" stroke="black" d="M333.5,-53C333.5,-53 235.5,-53 235.5,-53 229.5,-53 223.5,-47 223.5,-41 223.5,-41 223.5,-12 223.5,-12 223.5,-6 229.5,0 235.5,0 235.5,0 333.5,0 333.5,0 339.5,0 345.5,-6 345.5,-12 345.5,-12 345.5,-41 345.5,-41 345.5,-47 339.5,-53 333.5,-53"/>
<text text-anchor="start" x="249.5" y="-37.8" font-family="Helvetica,sans-Serif" font-size="14.00">gini = 0.0</text>
<text text-anchor="start" x="236" y="-22.8" font-family="Helvetica,sans-Serif" font-size="14.00">samples = 14</text>
<text text-anchor="start" x="231.5" y="-7.8" font-family="Helvetica,sans-Serif" font-size="14.00">value = [0, 14]</text>
</g>
<!-- 5&#45;&gt;6 -->
<g id="edge6" class="edge">
<title>5&#45;&gt;6</title>
<path fill="none" stroke="black" d="M331,-88.94C324.25,-80.02 316.85,-70.25 309.99,-61.18"/>
<polygon fill="black" stroke="black" points="312.69,-58.95 303.87,-53.09 307.11,-63.18 312.69,-58.95"/>
</g>
<!-- 7 -->
<g id="node8" class="node">
<title>7</title>
<path fill="#eb9e67" stroke="black" d="M473.5,-53C473.5,-53 375.5,-53 375.5,-53 369.5,-53 363.5,-47 363.5,-41 363.5,-41 363.5,-12 363.5,-12 363.5,-6 369.5,0 375.5,0 375.5,0 473.5,0 473.5,0 479.5,0 485.5,-6 485.5,-12 485.5,-12 485.5,-41 485.5,-41 485.5,-47 479.5,-53 473.5,-53"/>
<text text-anchor="start" x="380.5" y="-37.8" font-family="Helvetica,sans-Serif" font-size="14.00">gini = 0.305</text>
<text text-anchor="start" x="376" y="-22.8" font-family="Helvetica,sans-Serif" font-size="14.00">samples = 16</text>
<text text-anchor="start" x="371.5" y="-7.8" font-family="Helvetica,sans-Serif" font-size="14.00">value = [13, 3]</text>
</g>
<!-- 5&#45;&gt;7 -->
<g id="edge7" class="edge">
<title>5&#45;&gt;7</title>
<path fill="none" stroke="black" d="M378,-88.94C384.75,-80.02 392.15,-70.25 399.01,-61.18"/>
<polygon fill="black" stroke="black" points="401.89,-63.18 405.13,-53.09 396.31,-58.95 401.89,-63.18"/>
</g>
</g>
</svg>