<svg width="899" height="174" viewBox="0 0 899 174" fill="none" xmlns="http://www.w3.org/2000/svg">
<g clip-path="url(#clip0_25_2)">
<rect x="0.5" y="0.5" width="173" height="173" rx="24.5" fill="#51BC71" stroke="black"/>
<path d="M52 78.5H123C136.531 78.5 147.5 89.469 147.5 103V127C147.5 140.531 136.531 151.5 123 151.5H52C38.469 151.5 27.5 140.531 27.5 127V103C27.5 89.469 38.469 78.5 52 78.5Z" fill="white" stroke="black"/>
<path d="M71.4531 114.239C70.8459 114.239 70.3239 114.161 69.8871 114.004C69.4503 113.852 69.0863 113.649 68.7951 113.397C68.5075 113.148 68.2784 112.882 68.108 112.598L69.1094 111.895C69.223 112.044 69.3668 112.214 69.5408 112.406C69.7148 112.602 69.9528 112.77 70.2546 112.912C70.56 113.058 70.9595 113.131 71.4531 113.131C72.1136 113.131 72.6587 112.971 73.0884 112.651C73.5181 112.332 73.733 111.831 73.733 111.149V109.487H73.6264C73.5341 109.636 73.4027 109.821 73.2322 110.041C73.0653 110.258 72.8239 110.451 72.5078 110.622C72.1953 110.789 71.7727 110.872 71.2401 110.872C70.5795 110.872 69.9865 110.716 69.4609 110.403C68.9389 110.091 68.5252 109.636 68.2198 109.04C67.918 108.443 67.767 107.719 67.767 106.866C67.767 106.028 67.9144 105.299 68.2092 104.677C68.5039 104.052 68.9141 103.569 69.4396 103.228C69.9652 102.884 70.5724 102.712 71.2614 102.712C71.794 102.712 72.2166 102.8 72.5291 102.978C72.8452 103.152 73.0866 103.351 73.2536 103.575C73.424 103.795 73.5554 103.976 73.6477 104.118H73.7756V102.818H74.9901V111.234C74.9901 111.938 74.8303 112.509 74.5107 112.95C74.1946 113.393 73.7685 113.718 73.2322 113.924C72.6996 114.134 72.1065 114.239 71.4531 114.239ZM71.4105 109.743C71.9148 109.743 72.3409 109.627 72.6889 109.397C73.0369 109.166 73.3015 108.834 73.4826 108.401C73.6637 107.967 73.7543 107.449 73.7543 106.845C73.7543 106.256 73.6655 105.735 73.4879 105.284C73.3104 104.833 73.0476 104.48 72.6996 104.224C72.3516 103.969 71.9219 103.841 71.4105 103.841C70.8778 103.841 70.4339 103.976 70.0788 104.246C69.7273 104.516 69.4627 104.878 69.2852 105.332C69.1112 105.787 69.0241 106.291 69.0241 106.845C69.0241 107.413 69.1129 107.916 69.2905 108.353C69.4716 108.786 69.7379 109.127 70.0895 109.375C70.4446 109.62 70.8849 109.743 71.4105 109.743ZM77.2912 111V102.818H78.5057V104.054H78.5909C78.7401 103.649 79.0099 103.321 79.4006 103.069C79.7912 102.816 80.2315 102.69 80.7216 102.69C80.8139 102.69 80.9293 102.692 81.0678 102.696C81.2063 102.699 81.3111 102.705 81.3821 102.712V103.99C81.3395 103.979 81.2418 103.963 81.0891 103.942C80.94 103.917 80.782 103.905 80.6151 103.905C80.2173 103.905 79.8622 103.988 79.5497 104.155C79.2408 104.319 78.9957 104.546 78.8146 104.837C78.6371 105.125 78.5483 105.453 78.5483 105.822V111H77.2912ZM85.9471 111.17C85.18 111.17 84.5195 110.989 83.9656 110.627C83.4116 110.265 82.9854 109.766 82.6871 109.13C82.3888 108.495 82.2397 107.768 82.2397 106.952C82.2397 106.121 82.3924 105.387 82.6978 104.752C83.0067 104.113 83.4364 103.614 83.9869 103.255C84.5408 102.893 85.1871 102.712 85.9258 102.712C86.5011 102.712 87.0195 102.818 87.4812 103.031C87.9428 103.244 88.321 103.543 88.6158 103.926C88.9105 104.31 89.0934 104.757 89.1644 105.268H87.9073C87.8114 104.896 87.5984 104.565 87.2681 104.278C86.9414 103.987 86.5011 103.841 85.9471 103.841C85.457 103.841 85.0273 103.969 84.658 104.224C84.2923 104.477 84.0064 104.833 83.8004 105.295C83.598 105.753 83.4968 106.291 83.4968 106.909C83.4968 107.541 83.5962 108.092 83.7951 108.56C83.9975 109.029 84.2816 109.393 84.6474 109.652C85.0167 109.912 85.4499 110.041 85.9471 110.041C86.2738 110.041 86.5703 109.984 86.8366 109.871C87.103 109.757 87.3285 109.594 87.5131 109.381C87.6978 109.168 87.8292 108.912 87.9073 108.614H89.1644C89.0934 109.097 88.9176 109.532 88.6371 109.919C88.3601 110.302 87.9925 110.608 87.5344 110.835C87.0799 111.059 86.5508 111.17 85.9471 111.17ZM91.0021 114.068V102.818H92.2166V104.118H92.3658C92.4581 103.976 92.5859 103.795 92.7493 103.575C92.9162 103.351 93.1541 103.152 93.4631 102.978C93.7756 102.8 94.1982 102.712 94.7308 102.712C95.4197 102.712 96.027 102.884 96.5526 103.228C97.0781 103.573 97.4883 104.061 97.783 104.693C98.0778 105.325 98.2251 106.071 98.2251 106.93C98.2251 107.797 98.0778 108.548 97.783 109.184C97.4883 109.816 97.0799 110.306 96.5579 110.654C96.0359 110.998 95.4339 111.17 94.7521 111.17C94.2266 111.17 93.8058 111.083 93.4897 110.909C93.1737 110.732 92.9304 110.531 92.7599 110.308C92.5895 110.08 92.4581 109.892 92.3658 109.743H92.2592V114.068H91.0021ZM92.2379 106.909C92.2379 107.527 92.3285 108.072 92.5096 108.544C92.6907 109.013 92.9553 109.381 93.3033 109.647C93.6513 109.91 94.0774 110.041 94.5817 110.041C95.1072 110.041 95.5458 109.903 95.8974 109.626C96.2525 109.345 96.5188 108.969 96.6964 108.496C96.8775 108.021 96.968 107.491 96.968 106.909C96.968 106.334 96.8793 105.815 96.7017 105.354C96.5277 104.888 96.2631 104.521 95.908 104.251C95.5565 103.978 95.1143 103.841 94.5817 103.841C94.0703 103.841 93.6406 103.971 93.2926 104.23C92.9446 104.485 92.6818 104.844 92.5043 105.306C92.3267 105.764 92.2379 106.298 92.2379 106.909ZM71.4744 129.17C70.7074 129.17 70.0469 128.989 69.4929 128.627C68.9389 128.265 68.5128 127.766 68.2145 127.13C67.9162 126.495 67.767 125.768 67.767 124.952C67.767 124.121 67.9197 123.387 68.2251 122.752C68.5341 122.113 68.9638 121.614 69.5142 121.255C70.0682 120.893 70.7145 120.712 71.4531 120.712C72.0284 120.712 72.5469 120.818 73.0085 121.031C73.4702 121.244 73.8484 121.543 74.1431 121.926C74.4379 122.31 74.6207 122.757 74.6918 123.268H73.4347C73.3388 122.896 73.1257 122.565 72.7955 122.278C72.4688 121.987 72.0284 121.841 71.4744 121.841C70.9844 121.841 70.5547 121.969 70.1854 122.224C69.8196 122.477 69.5337 122.833 69.3278 123.295C69.1254 123.753 69.0241 124.291 69.0241 124.909C69.0241 125.541 69.1236 126.092 69.3224 126.56C69.5249 127.029 69.8089 127.393 70.1747 127.652C70.544 127.912 70.9773 128.041 71.4744 128.041C71.8011 128.041 72.0977 127.984 72.364 127.871C72.6303 127.757 72.8558 127.594 73.0405 127.381C73.2251 127.168 73.3565 126.912 73.4347 126.614H74.6918C74.6207 127.097 74.445 127.532 74.1644 127.919C73.8874 128.302 73.5199 128.608 73.0618 128.835C72.6072 129.059 72.0781 129.17 71.4744 129.17ZM77.7866 118.091V129H76.5295V118.091H77.7866ZM80.089 129V120.818H81.3461V129H80.089ZM80.7282 119.455C80.4832 119.455 80.2719 119.371 80.0944 119.204C79.9204 119.037 79.8334 118.837 79.8334 118.602C79.8334 118.368 79.9204 118.167 80.0944 118C80.2719 117.833 80.4832 117.75 80.7282 117.75C80.9733 117.75 81.1828 117.833 81.3568 118C81.5344 118.167 81.6231 118.368 81.6231 118.602C81.6231 118.837 81.5344 119.037 81.3568 119.204C81.1828 119.371 80.9733 119.455 80.7282 119.455ZM87.079 129.17C86.2907 129.17 85.6106 128.996 85.0389 128.648C84.4707 128.297 84.0321 127.807 83.7232 127.178C83.4178 126.546 83.2651 125.811 83.2651 124.973C83.2651 124.135 83.4178 123.396 83.7232 122.757C84.0321 122.114 84.4618 121.614 85.0123 121.255C85.5662 120.893 86.2125 120.712 86.9512 120.712C87.3773 120.712 87.7981 120.783 88.2136 120.925C88.6291 121.067 89.0073 121.298 89.3482 121.617C89.6891 121.933 89.9608 122.352 90.1632 122.874C90.3656 123.396 90.4668 124.039 90.4668 124.803V125.335H84.16V124.249H89.1884C89.1884 123.787 89.0961 123.375 88.9114 123.013C88.7303 122.651 88.4711 122.365 88.1337 122.155C87.7999 121.946 87.4057 121.841 86.9512 121.841C86.4505 121.841 86.0172 121.965 85.6515 122.214C85.2892 122.459 85.0105 122.778 84.8152 123.173C84.6199 123.567 84.5222 123.989 84.5222 124.44V125.165C84.5222 125.783 84.6287 126.306 84.8418 126.736C85.0584 127.162 85.3585 127.487 85.742 127.711C86.1255 127.931 86.5712 128.041 87.079 128.041C87.4093 128.041 87.7076 127.995 87.9739 127.903C88.2438 127.807 88.4764 127.665 88.6717 127.477C88.867 127.285 89.0179 127.047 89.1245 126.763L90.339 127.104C90.2111 127.516 89.9963 127.878 89.6944 128.19C89.3926 128.499 89.0197 128.741 88.5758 128.915C88.1319 129.085 87.633 129.17 87.079 129.17ZM93.6362 124.078V129H92.3791V120.818H93.5936V122.097H93.7001C93.8919 121.681 94.1831 121.347 94.5737 121.095C94.9643 120.839 95.4686 120.712 96.0865 120.712C96.6404 120.712 97.1252 120.825 97.5407 121.053C97.9561 121.276 98.2793 121.617 98.5101 122.075C98.7409 122.53 98.8564 123.105 98.8564 123.801V129H97.5993V123.886C97.5993 123.244 97.4324 122.743 97.0985 122.384C96.7647 122.022 96.3066 121.841 95.7243 121.841C95.323 121.841 94.9643 121.928 94.6483 122.102C94.3358 122.276 94.089 122.53 93.9078 122.864C93.7267 123.197 93.6362 123.602 93.6362 124.078ZM104.712 120.818V121.884H100.472V120.818H104.712ZM101.707 118.858H102.965V126.656C102.965 127.011 103.016 127.278 103.119 127.455C103.226 127.629 103.361 127.746 103.524 127.807C103.691 127.864 103.867 127.892 104.051 127.892C104.19 127.892 104.303 127.885 104.392 127.871C104.481 127.853 104.552 127.839 104.605 127.828L104.861 128.957C104.776 128.989 104.657 129.021 104.504 129.053C104.351 129.089 104.158 129.107 103.923 129.107C103.568 129.107 103.22 129.03 102.879 128.877C102.542 128.725 102.261 128.492 102.038 128.18C101.818 127.867 101.707 127.473 101.707 126.997V118.858Z" fill="black"/>
<path d="M51.7614 51V36.4545H53.5227V43.6705H53.6932L60.2273 36.4545H62.5284L56.4205 43.017L62.5284 51H60.3977L55.3409 44.2386L53.5227 46.2841V51H51.7614ZM70.7724 46.5398V40.0909H72.4485V51H70.7724V49.1534H70.6587C70.4031 49.7074 70.0053 50.1785 69.4656 50.5668C68.9258 50.9503 68.244 51.142 67.4201 51.142C66.7383 51.142 66.1322 50.9929 65.6019 50.6946C65.0716 50.3916 64.6549 49.937 64.3519 49.331C64.0489 48.7202 63.8974 47.9508 63.8974 47.0227V40.0909H65.5735V46.9091C65.5735 47.7045 65.796 48.339 66.2411 48.8125C66.6909 49.286 67.2638 49.5227 67.9599 49.5227C68.3765 49.5227 68.8003 49.4162 69.2312 49.2031C69.6668 48.9901 70.0314 48.6634 70.3249 48.223C70.6232 47.7827 70.7724 47.2216 70.7724 46.5398ZM75.7457 51V36.4545H77.4219V41.8239H77.5639C77.687 41.6345 77.8575 41.393 78.0753 41.0994C78.2978 40.8011 78.6151 40.536 79.027 40.304C79.4437 40.0672 80.0071 39.9489 80.7173 39.9489C81.6359 39.9489 82.4455 40.1785 83.1463 40.6378C83.8471 41.0971 84.3939 41.7481 84.7869 42.5909C85.1799 43.4337 85.3764 44.428 85.3764 45.5739C85.3764 46.7292 85.1799 47.7306 84.7869 48.5781C84.3939 49.4209 83.8494 50.0743 83.1534 50.5384C82.4574 50.9976 81.6548 51.2273 80.7457 51.2273C80.045 51.2273 79.4839 51.1113 79.0625 50.8793C78.6411 50.6425 78.3168 50.375 78.0895 50.0767C77.8622 49.7737 77.687 49.5227 77.5639 49.3239H77.3651V51H75.7457ZM77.3935 45.5455C77.3935 46.3693 77.5142 47.0961 77.7557 47.7259C77.9972 48.3509 78.3499 48.8409 78.8139 49.196C79.2779 49.5464 79.8461 49.7216 80.5185 49.7216C81.2192 49.7216 81.804 49.5369 82.2727 49.1676C82.7462 48.7936 83.1013 48.2917 83.3381 47.6619C83.5795 47.0275 83.7003 46.322 83.7003 45.5455C83.7003 44.7784 83.5819 44.0871 83.3452 43.4716C83.1132 42.8513 82.7604 42.3613 82.2869 42.0014C81.8182 41.6368 81.2287 41.4545 80.5185 41.4545C79.8366 41.4545 79.2637 41.6274 78.7997 41.973C78.3357 42.3139 77.9853 42.7921 77.7486 43.4077C77.5118 44.0185 77.3935 44.7311 77.3935 45.5455ZM92.5142 51.2273C91.4631 51.2273 90.5563 50.9953 89.794 50.5312C89.0365 50.0625 88.4517 49.4091 88.0398 48.571C87.6326 47.7282 87.429 46.7481 87.429 45.6307C87.429 44.5133 87.6326 43.5284 88.0398 42.6761C88.4517 41.8191 89.0246 41.1515 89.7585 40.6733C90.4972 40.1903 91.3589 39.9489 92.3438 39.9489C92.9119 39.9489 93.473 40.0436 94.027 40.233C94.581 40.4223 95.0852 40.7301 95.5398 41.1562C95.9943 41.5777 96.3565 42.1364 96.6264 42.8324C96.8963 43.5284 97.0312 44.3854 97.0312 45.4034V46.1136H88.6222V44.6648H95.3267C95.3267 44.0492 95.2036 43.5 94.9574 43.017C94.7159 42.5341 94.3703 42.1529 93.9205 41.8736C93.4754 41.5942 92.9498 41.4545 92.3438 41.4545C91.6761 41.4545 91.0985 41.6203 90.6108 41.9517C90.1278 42.2784 89.7562 42.7045 89.4957 43.2301C89.2353 43.7557 89.1051 44.3191 89.1051 44.9205V45.8864C89.1051 46.7102 89.2472 47.4086 89.5312 47.9815C89.8201 48.5497 90.2202 48.983 90.7315 49.2812C91.2429 49.5748 91.8371 49.7216 92.5142 49.7216C92.9545 49.7216 93.3523 49.66 93.7074 49.5369C94.0672 49.4091 94.3774 49.2197 94.6378 48.9688C94.8982 48.7131 95.0994 48.3958 95.2415 48.017L96.8608 48.4716C96.6903 49.0208 96.4039 49.5038 96.0014 49.9205C95.599 50.3324 95.1018 50.6544 94.5099 50.8864C93.9181 51.1136 93.2528 51.2273 92.5142 51.2273ZM101.257 36.4545V51H99.581V36.4545H101.257ZM108.901 51.2273C107.85 51.2273 106.943 50.9953 106.181 50.5312C105.423 50.0625 104.838 49.4091 104.426 48.571C104.019 47.7282 103.816 46.7481 103.816 45.6307C103.816 44.5133 104.019 43.5284 104.426 42.6761C104.838 41.8191 105.411 41.1515 106.145 40.6733C106.884 40.1903 107.746 39.9489 108.73 39.9489C109.299 39.9489 109.86 40.0436 110.414 40.233C110.968 40.4223 111.472 40.7301 111.926 41.1562C112.381 41.5777 112.743 42.1364 113.013 42.8324C113.283 43.5284 113.418 44.3854 113.418 45.4034V46.1136H105.009V44.6648H111.713C111.713 44.0492 111.59 43.5 111.344 43.017C111.103 42.5341 110.757 42.1529 110.307 41.8736C109.862 41.5942 109.337 41.4545 108.73 41.4545C108.063 41.4545 107.485 41.6203 106.998 41.9517C106.515 42.2784 106.143 42.7045 105.882 43.2301C105.622 43.7557 105.492 44.3191 105.492 44.9205V45.8864C105.492 46.7102 105.634 47.4086 105.918 47.9815C106.207 48.5497 106.607 48.983 107.118 49.2812C107.63 49.5748 108.224 49.7216 108.901 49.7216C109.341 49.7216 109.739 49.66 110.094 49.5369C110.454 49.4091 110.764 49.2197 111.025 48.9688C111.285 48.7131 111.486 48.3958 111.628 48.017L113.248 48.4716C113.077 49.0208 112.791 49.5038 112.388 49.9205C111.986 50.3324 111.489 50.6544 110.897 50.8864C110.305 51.1136 109.64 51.2273 108.901 51.2273ZM120.712 40.0909V41.5114H115.059V40.0909H120.712ZM116.706 37.4773H118.382V47.875C118.382 48.3485 118.451 48.7036 118.588 48.9403C118.73 49.1723 118.91 49.3286 119.128 49.4091C119.351 49.4848 119.585 49.5227 119.831 49.5227C120.016 49.5227 120.167 49.5133 120.286 49.4943C120.404 49.4706 120.499 49.4517 120.57 49.4375L120.911 50.9432C120.797 50.9858 120.639 51.0284 120.435 51.071C120.231 51.1184 119.973 51.142 119.661 51.142C119.187 51.142 118.723 51.0402 118.269 50.8366C117.819 50.633 117.445 50.3229 117.147 49.9062C116.853 49.4896 116.706 48.964 116.706 48.3295V37.4773Z" fill="white"/>
<rect x="260.5" y="0.5" width="173" height="173" rx="24.5" fill="#5193BC" stroke="black"/>
<rect x="493.5" y="46.5" width="173" height="86" rx="24.5" fill="#5193BC" stroke="black"/>
<rect x="725.5" y="25.5" width="173" height="86" rx="24.5" fill="white" stroke="black"/>
<rect x="720.5" y="30.5" width="173" height="86" rx="24.5" fill="white" stroke="black"/>
<rect x="715.5" y="35.5" width="173" height="86" rx="24.5" fill="white" stroke="black"/>
<path d="M735 40.5H859C859.212 40.5 859.423 40.5025 859.633 40.5078C872.871 40.8435 883.5 51.6806 883.5 65V102C883.5 115.531 872.531 126.5 859 126.5H735C721.469 126.5 710.5 115.531 710.5 102V65C710.5 51.469 721.469 40.5 735 40.5Z" fill="white" stroke="black"/>
<path d="M730 45.5H854C854.212 45.5 854.423 45.5025 854.633 45.5078C867.871 45.8435 878.5 56.6806 878.5 70V107C878.5 120.531 867.531 131.5 854 131.5H730C716.469 131.5 705.5 120.531 705.5 107V70C705.5 56.469 716.469 45.5 730 45.5Z" fill="white" stroke="black"/>
<path d="M312 78.5H383C396.531 78.5 407.5 89.469 407.5 103V127C407.5 140.531 396.531 151.5 383 151.5H312C298.469 151.5 287.5 140.531 287.5 127V103C287.5 89.469 298.469 78.5 312 78.5Z" fill="white" stroke="black"/>
<path d="M331.453 114.239C330.846 114.239 330.324 114.161 329.887 114.004C329.45 113.852 329.086 113.649 328.795 113.397C328.507 113.148 328.278 112.882 328.108 112.598L329.109 111.895C329.223 112.044 329.367 112.214 329.541 112.406C329.715 112.602 329.953 112.77 330.255 112.912C330.56 113.058 330.96 113.131 331.453 113.131C332.114 113.131 332.659 112.971 333.088 112.651C333.518 112.332 333.733 111.831 333.733 111.149V109.487H333.626C333.534 109.636 333.403 109.821 333.232 110.041C333.065 110.258 332.824 110.451 332.508 110.622C332.195 110.789 331.773 110.872 331.24 110.872C330.58 110.872 329.987 110.716 329.461 110.403C328.939 110.091 328.525 109.636 328.22 109.04C327.918 108.443 327.767 107.719 327.767 106.866C327.767 106.028 327.914 105.299 328.209 104.677C328.504 104.052 328.914 103.569 329.44 103.228C329.965 102.884 330.572 102.712 331.261 102.712C331.794 102.712 332.217 102.8 332.529 102.978C332.845 103.152 333.087 103.351 333.254 103.575C333.424 103.795 333.555 103.976 333.648 104.118H333.776V102.818H334.99V111.234C334.99 111.938 334.83 112.509 334.511 112.95C334.195 113.393 333.768 113.718 333.232 113.924C332.7 114.134 332.107 114.239 331.453 114.239ZM331.411 109.743C331.915 109.743 332.341 109.627 332.689 109.397C333.037 109.166 333.301 108.834 333.483 108.401C333.664 107.967 333.754 107.449 333.754 106.845C333.754 106.256 333.665 105.735 333.488 105.284C333.31 104.833 333.048 104.48 332.7 104.224C332.352 103.969 331.922 103.841 331.411 103.841C330.878 103.841 330.434 103.976 330.079 104.246C329.727 104.516 329.463 104.878 329.285 105.332C329.111 105.787 329.024 106.291 329.024 106.845C329.024 107.413 329.113 107.916 329.29 108.353C329.472 108.786 329.738 109.127 330.089 109.375C330.445 109.62 330.885 109.743 331.411 109.743ZM337.291 111V102.818H338.506V104.054H338.591C338.74 103.649 339.01 103.321 339.401 103.069C339.791 102.816 340.232 102.69 340.722 102.69C340.814 102.69 340.929 102.692 341.068 102.696C341.206 102.699 341.311 102.705 341.382 102.712V103.99C341.339 103.979 341.242 103.963 341.089 103.942C340.94 103.917 340.782 103.905 340.615 103.905C340.217 103.905 339.862 103.988 339.55 104.155C339.241 104.319 338.996 104.546 338.815 104.837C338.637 105.125 338.548 105.453 338.548 105.822V111H337.291ZM345.947 111.17C345.18 111.17 344.52 110.989 343.966 110.627C343.412 110.265 342.985 109.766 342.687 109.13C342.389 108.495 342.24 107.768 342.24 106.952C342.24 106.121 342.392 105.387 342.698 104.752C343.007 104.113 343.436 103.614 343.987 103.255C344.541 102.893 345.187 102.712 345.926 102.712C346.501 102.712 347.02 102.818 347.481 103.031C347.943 103.244 348.321 103.543 348.616 103.926C348.911 104.31 349.093 104.757 349.164 105.268H347.907C347.811 104.896 347.598 104.565 347.268 104.278C346.941 103.987 346.501 103.841 345.947 103.841C345.457 103.841 345.027 103.969 344.658 104.224C344.292 104.477 344.006 104.833 343.8 105.295C343.598 105.753 343.497 106.291 343.497 106.909C343.497 107.541 343.596 108.092 343.795 108.56C343.998 109.029 344.282 109.393 344.647 109.652C345.017 109.912 345.45 110.041 345.947 110.041C346.274 110.041 346.57 109.984 346.837 109.871C347.103 109.757 347.328 109.594 347.513 109.381C347.698 109.168 347.829 108.912 347.907 108.614H349.164C349.093 109.097 348.918 109.532 348.637 109.919C348.36 110.302 347.993 110.608 347.534 110.835C347.08 111.059 346.551 111.17 345.947 111.17ZM351.002 114.068V102.818H352.217V104.118H352.366C352.458 103.976 352.586 103.795 352.749 103.575C352.916 103.351 353.154 103.152 353.463 102.978C353.776 102.8 354.198 102.712 354.731 102.712C355.42 102.712 356.027 102.884 356.553 103.228C357.078 103.573 357.488 104.061 357.783 104.693C358.078 105.325 358.225 106.071 358.225 106.93C358.225 107.797 358.078 108.548 357.783 109.184C357.488 109.816 357.08 110.306 356.558 110.654C356.036 110.998 355.434 111.17 354.752 111.17C354.227 111.17 353.806 111.083 353.49 110.909C353.174 110.732 352.93 110.531 352.76 110.308C352.589 110.08 352.458 109.892 352.366 109.743H352.259V114.068H351.002ZM352.238 106.909C352.238 107.527 352.328 108.072 352.51 108.544C352.691 109.013 352.955 109.381 353.303 109.647C353.651 109.91 354.077 110.041 354.582 110.041C355.107 110.041 355.546 109.903 355.897 109.626C356.252 109.345 356.519 108.969 356.696 108.496C356.877 108.021 356.968 107.491 356.968 106.909C356.968 106.334 356.879 105.815 356.702 105.354C356.528 104.888 356.263 104.521 355.908 104.251C355.556 103.978 355.114 103.841 354.582 103.841C354.07 103.841 353.641 103.971 353.293 104.23C352.945 104.485 352.682 104.844 352.504 105.306C352.327 105.764 352.238 106.298 352.238 106.909ZM333.946 122.651L332.817 122.97C332.746 122.782 332.641 122.599 332.502 122.422C332.368 122.24 332.183 122.091 331.949 121.974C331.714 121.857 331.414 121.798 331.048 121.798C330.548 121.798 330.13 121.914 329.797 122.145C329.466 122.372 329.301 122.661 329.301 123.013C329.301 123.325 329.415 123.572 329.642 123.753C329.869 123.934 330.224 124.085 330.707 124.206L331.922 124.504C332.653 124.682 333.199 124.953 333.557 125.319C333.916 125.681 334.095 126.148 334.095 126.72C334.095 127.189 333.96 127.608 333.69 127.977C333.424 128.347 333.051 128.638 332.572 128.851C332.092 129.064 331.535 129.17 330.899 129.17C330.065 129.17 329.374 128.989 328.827 128.627C328.28 128.265 327.934 127.736 327.788 127.04L328.982 126.741C329.095 127.182 329.31 127.512 329.626 127.732C329.946 127.952 330.363 128.062 330.878 128.062C331.464 128.062 331.929 127.938 332.273 127.69C332.621 127.437 332.795 127.136 332.795 126.784C332.795 126.5 332.696 126.262 332.497 126.07C332.298 125.875 331.993 125.729 331.581 125.634L330.217 125.314C329.468 125.136 328.918 124.861 328.566 124.488C328.218 124.112 328.044 123.641 328.044 123.077C328.044 122.615 328.174 122.207 328.433 121.852C328.696 121.496 329.053 121.218 329.504 121.015C329.958 120.813 330.473 120.712 331.048 120.712C331.858 120.712 332.494 120.889 332.955 121.244C333.42 121.599 333.751 122.068 333.946 122.651ZM339.418 129.17C338.63 129.17 337.949 128.996 337.378 128.648C336.81 128.297 336.371 127.807 336.062 127.178C335.757 126.546 335.604 125.811 335.604 124.973C335.604 124.135 335.757 123.396 336.062 122.757C336.371 122.114 336.801 121.614 337.351 121.255C337.905 120.893 338.551 120.712 339.29 120.712C339.716 120.712 340.137 120.783 340.552 120.925C340.968 121.067 341.346 121.298 341.687 121.617C342.028 121.933 342.3 122.352 342.502 122.874C342.704 123.396 342.806 124.039 342.806 124.803V125.335H336.499V124.249H341.527C341.527 123.787 341.435 123.375 341.25 123.013C341.069 122.651 340.81 122.365 340.473 122.155C340.139 121.946 339.745 121.841 339.29 121.841C338.789 121.841 338.356 121.965 337.99 122.214C337.628 122.459 337.349 122.778 337.154 123.173C336.959 123.567 336.861 123.989 336.861 124.44V125.165C336.861 125.783 336.968 126.306 337.181 126.736C337.397 127.162 337.697 127.487 338.081 127.711C338.464 127.931 338.91 128.041 339.418 128.041C339.748 128.041 340.046 127.995 340.313 127.903C340.583 127.807 340.815 127.665 341.011 127.477C341.206 127.285 341.357 127.047 341.463 126.763L342.678 127.104C342.55 127.516 342.335 127.878 342.033 128.19C341.731 128.499 341.359 128.741 340.915 128.915C340.471 129.085 339.972 129.17 339.418 129.17ZM344.718 129V120.818H345.932V122.054H346.018C346.167 121.649 346.437 121.321 346.827 121.069C347.218 120.816 347.658 120.69 348.148 120.69C348.241 120.69 348.356 120.692 348.495 120.696C348.633 120.699 348.738 120.705 348.809 120.712V121.99C348.766 121.979 348.669 121.963 348.516 121.942C348.367 121.917 348.209 121.905 348.042 121.905C347.644 121.905 347.289 121.988 346.976 122.155C346.668 122.319 346.422 122.546 346.241 122.837C346.064 123.125 345.975 123.453 345.975 123.822V129H344.718ZM357.238 120.818L354.213 129H352.934L349.909 120.818H351.272L353.531 127.338H353.616L355.875 120.818H357.238ZM362.035 129.17C361.247 129.17 360.567 128.996 359.995 128.648C359.427 128.297 358.988 127.807 358.679 127.178C358.374 126.546 358.221 125.811 358.221 124.973C358.221 124.135 358.374 123.396 358.679 122.757C358.988 122.114 359.418 121.614 359.968 121.255C360.522 120.893 361.169 120.712 361.907 120.712C362.333 120.712 362.754 120.783 363.17 120.925C363.585 121.067 363.963 121.298 364.304 121.617C364.645 121.933 364.917 122.352 365.119 122.874C365.322 123.396 365.423 124.039 365.423 124.803V125.335H359.116V124.249H364.144C364.144 123.787 364.052 123.375 363.867 123.013C363.686 122.651 363.427 122.365 363.09 122.155C362.756 121.946 362.362 121.841 361.907 121.841C361.407 121.841 360.973 121.965 360.608 122.214C360.245 122.459 359.967 122.778 359.771 123.173C359.576 123.567 359.478 123.989 359.478 124.44V125.165C359.478 125.783 359.585 126.306 359.798 126.736C360.014 127.162 360.315 127.487 360.698 127.711C361.082 127.931 361.527 128.041 362.035 128.041C362.365 128.041 362.664 127.995 362.93 127.903C363.2 127.807 363.432 127.665 363.628 127.477C363.823 127.285 363.974 127.047 364.081 126.763L365.295 127.104C365.167 127.516 364.952 127.878 364.65 128.19C364.349 128.499 363.976 128.741 363.532 128.915C363.088 129.085 362.589 129.17 362.035 129.17ZM367.335 129V120.818H368.55V122.054H368.635C368.784 121.649 369.054 121.321 369.445 121.069C369.835 120.816 370.275 120.69 370.766 120.69C370.858 120.69 370.973 120.692 371.112 120.696C371.25 120.699 371.355 120.705 371.426 120.712V121.99C371.383 121.979 371.286 121.963 371.133 121.942C370.984 121.917 370.826 121.905 370.659 121.905C370.261 121.905 369.906 121.988 369.594 122.155C369.285 122.319 369.04 122.546 368.859 122.837C368.681 123.125 368.592 123.453 368.592 123.822V129H367.335Z" fill="black"/>
<path d="M317.466 45H315.705C315.6 44.4934 315.418 44.0483 315.158 43.6648C314.902 43.2812 314.589 42.9593 314.22 42.6989C313.856 42.4337 313.451 42.2348 313.006 42.1023C312.561 41.9697 312.097 41.9034 311.614 41.9034C310.733 41.9034 309.935 42.1259 309.22 42.571C308.51 43.0161 307.944 43.6719 307.523 44.5384C307.106 45.4048 306.898 46.4678 306.898 47.7273C306.898 48.9867 307.106 50.0497 307.523 50.9162C307.944 51.7827 308.51 52.4384 309.22 52.8835C309.935 53.3286 310.733 53.5511 311.614 53.5511C312.097 53.5511 312.561 53.4848 313.006 53.3523C313.451 53.2197 313.856 53.0232 314.22 52.7628C314.589 52.4976 314.902 52.1733 315.158 51.7898C315.418 51.4015 315.6 50.9564 315.705 50.4545H317.466C317.333 51.1979 317.092 51.8632 316.741 52.4503C316.391 53.0374 315.955 53.5369 315.435 53.9489C314.914 54.3561 314.329 54.6662 313.68 54.8793C313.036 55.0923 312.348 55.1989 311.614 55.1989C310.373 55.1989 309.27 54.8958 308.304 54.2898C307.338 53.6837 306.578 52.822 306.024 51.7045C305.47 50.5871 305.193 49.2614 305.193 47.7273C305.193 46.1932 305.47 44.8674 306.024 43.75C306.578 42.6326 307.338 41.7708 308.304 41.1648C309.27 40.5587 310.373 40.2557 311.614 40.2557C312.348 40.2557 313.036 40.3622 313.68 40.5753C314.329 40.7884 314.914 41.1009 315.435 41.5128C315.955 41.92 316.391 42.4171 316.741 43.0043C317.092 43.5866 317.333 44.2519 317.466 45ZM320.312 55V40.4545H325.227C326.363 40.4545 327.296 40.6487 328.025 41.0369C328.754 41.4205 329.294 41.9484 329.645 42.6207C329.995 43.2931 330.17 44.0578 330.17 44.9148C330.17 45.7718 329.995 46.5317 329.645 47.1946C329.294 47.8575 328.757 48.3783 328.032 48.7571C327.308 49.1312 326.382 49.3182 325.255 49.3182H321.278V47.7273H325.199C325.975 47.7273 326.6 47.6136 327.074 47.3864C327.552 47.1591 327.897 46.8371 328.11 46.4205C328.328 45.9991 328.437 45.4972 328.437 44.9148C328.437 44.3324 328.328 43.8234 328.11 43.3878C327.893 42.9522 327.545 42.616 327.066 42.3793C326.588 42.1378 325.956 42.017 325.17 42.017H322.074V55H320.312ZM327.159 48.4659L330.738 55H328.693L325.17 48.4659H327.159ZM334.866 40.4545V55H333.105V40.4545H334.866ZM351.523 46.5341L350.017 46.9602C349.923 46.7093 349.783 46.4654 349.598 46.2287C349.418 45.9872 349.172 45.7884 348.86 45.6321C348.547 45.4759 348.147 45.3977 347.659 45.3977C346.992 45.3977 346.435 45.5516 345.99 45.8594C345.55 46.1624 345.33 46.5483 345.33 47.017C345.33 47.4337 345.481 47.7628 345.784 48.0043C346.087 48.2457 346.561 48.447 347.205 48.608L348.824 49.0057C349.8 49.2424 350.526 49.6046 351.005 50.0923C351.483 50.5753 351.722 51.1979 351.722 51.9602C351.722 52.5852 351.542 53.1439 351.182 53.6364C350.827 54.1288 350.33 54.517 349.691 54.8011C349.051 55.0852 348.308 55.2273 347.461 55.2273C346.348 55.2273 345.427 54.9858 344.698 54.5028C343.969 54.0199 343.507 53.3144 343.313 52.3864L344.904 51.9886C345.055 52.5758 345.342 53.0161 345.763 53.3097C346.189 53.6032 346.746 53.75 347.432 53.75C348.213 53.75 348.834 53.5843 349.293 53.2528C349.757 52.9167 349.989 52.5142 349.989 52.0455C349.989 51.6667 349.856 51.3494 349.591 51.0938C349.326 50.8333 348.919 50.6392 348.37 50.5114L346.551 50.0852C345.552 49.8485 344.819 49.4815 344.35 48.9844C343.886 48.4825 343.654 47.8551 343.654 47.1023C343.654 46.4867 343.827 45.9422 344.172 45.4688C344.523 44.9953 344.998 44.6236 345.6 44.3537C346.206 44.0838 346.892 43.9489 347.659 43.9489C348.739 43.9489 349.587 44.1856 350.202 44.6591C350.822 45.1326 351.263 45.7576 351.523 46.5341ZM355.921 48.4375V55H354.245V40.4545H355.921V45.7955H356.063C356.319 45.232 356.702 44.7846 357.214 44.4531C357.73 44.117 358.416 43.9489 359.273 43.9489C360.017 43.9489 360.668 44.098 361.227 44.3963C361.785 44.6899 362.219 45.142 362.526 45.7528C362.839 46.3589 362.995 47.1307 362.995 48.0682V55H361.319V48.1818C361.319 47.3153 361.094 46.6454 360.644 46.1719C360.199 45.6937 359.581 45.4545 358.79 45.4545C358.241 45.4545 357.749 45.5705 357.313 45.8026C356.882 46.0346 356.541 46.3731 356.29 46.8182C356.044 47.2633 355.921 47.803 355.921 48.4375ZM366.061 55V44.0909H367.738V55H366.061ZM366.914 42.2727C366.587 42.2727 366.305 42.1615 366.069 41.9389C365.837 41.7164 365.721 41.4489 365.721 41.1364C365.721 40.8239 365.837 40.5563 366.069 40.3338C366.305 40.1113 366.587 40 366.914 40C367.24 40 367.52 40.1113 367.752 40.3338C367.989 40.5563 368.107 40.8239 368.107 41.1364C368.107 41.4489 367.989 41.7164 367.752 41.9389C367.52 42.1615 367.24 42.2727 366.914 42.2727ZM370.808 55V44.0909H372.427V45.7955H372.569C372.796 45.2131 373.163 44.7609 373.67 44.4389C374.176 44.1122 374.785 43.9489 375.495 43.9489C376.215 43.9489 376.814 44.1122 377.292 44.4389C377.775 44.7609 378.151 45.2131 378.421 45.7955H378.535C378.814 45.232 379.233 44.7846 379.792 44.4531C380.351 44.117 381.021 43.9489 381.802 43.9489C382.777 43.9489 383.575 44.2543 384.195 44.8651C384.816 45.4711 385.126 46.4157 385.126 47.6989V55H383.45V47.6989C383.45 46.8939 383.229 46.3187 382.789 45.973C382.349 45.6274 381.83 45.4545 381.234 45.4545C380.467 45.4545 379.872 45.6866 379.451 46.1506C379.03 46.6098 378.819 47.1922 378.819 47.8977V55H377.114V47.5284C377.114 46.9081 376.913 46.4086 376.511 46.0298C376.108 45.6463 375.59 45.4545 374.955 45.4545C374.52 45.4545 374.112 45.5705 373.734 45.8026C373.36 46.0346 373.057 46.3565 372.825 46.7685C372.597 47.1757 372.484 47.6468 372.484 48.1818V55H370.808Z" fill="white"/>
<path d="M546.843 77H545.081C544.977 76.4934 544.795 76.0483 544.535 75.6648C544.279 75.2812 543.966 74.9593 543.597 74.6989C543.233 74.4337 542.828 74.2348 542.383 74.1023C541.938 73.9697 541.474 73.9034 540.991 73.9034C540.11 73.9034 539.312 74.1259 538.597 74.571C537.887 75.0161 537.321 75.6719 536.9 76.5384C536.483 77.4048 536.275 78.4678 536.275 79.7273C536.275 80.9867 536.483 82.0497 536.9 82.9162C537.321 83.7827 537.887 84.4384 538.597 84.8835C539.312 85.3286 540.11 85.5511 540.991 85.5511C541.474 85.5511 541.938 85.4848 542.383 85.3523C542.828 85.2197 543.233 85.0232 543.597 84.7628C543.966 84.4976 544.279 84.1733 544.535 83.7898C544.795 83.4015 544.977 82.9564 545.081 82.4545H546.843C546.71 83.1979 546.469 83.8632 546.118 84.4503C545.768 85.0374 545.332 85.5369 544.812 85.9489C544.291 86.3561 543.706 86.6662 543.057 86.8793C542.413 87.0923 541.724 87.1989 540.991 87.1989C539.75 87.1989 538.647 86.8958 537.681 86.2898C536.715 85.6837 535.955 84.822 535.401 83.7045C534.847 82.5871 534.57 81.2614 534.57 79.7273C534.57 78.1932 534.847 76.8674 535.401 75.75C535.955 74.6326 536.715 73.7708 537.681 73.1648C538.647 72.5587 539.75 72.2557 540.991 72.2557C541.724 72.2557 542.413 72.3622 543.057 72.5753C543.706 72.7884 544.291 73.1009 544.812 73.5128C545.332 73.92 545.768 74.4171 546.118 75.0043C546.469 75.5866 546.71 76.2519 546.843 77ZM553.894 87.2273C552.909 87.2273 552.045 86.9929 551.301 86.5241C550.563 86.0554 549.985 85.3996 549.568 84.5568C549.156 83.714 548.95 82.7292 548.95 81.6023C548.95 80.4659 549.156 79.474 549.568 78.6264C549.985 77.7789 550.563 77.1207 551.301 76.652C552.045 76.1832 552.909 75.9489 553.894 75.9489C554.878 75.9489 555.74 76.1832 556.479 76.652C557.222 77.1207 557.8 77.7789 558.212 78.6264C558.628 79.474 558.837 80.4659 558.837 81.6023C558.837 82.7292 558.628 83.714 558.212 84.5568C557.8 85.3996 557.222 86.0554 556.479 86.5241C555.74 86.9929 554.878 87.2273 553.894 87.2273ZM553.894 85.7216C554.642 85.7216 555.257 85.5298 555.74 85.1463C556.223 84.7628 556.581 84.2585 556.813 83.6335C557.045 83.0085 557.161 82.3314 557.161 81.6023C557.161 80.8731 557.045 80.1937 556.813 79.5639C556.581 78.9342 556.223 78.4252 555.74 78.0369C555.257 77.6487 554.642 77.4545 553.894 77.4545C553.146 77.4545 552.53 77.6487 552.047 78.0369C551.564 78.4252 551.207 78.9342 550.975 79.5639C550.743 80.1937 550.627 80.8731 550.627 81.6023C550.627 82.3314 550.743 83.0085 550.975 83.6335C551.207 84.2585 551.564 84.7628 552.047 85.1463C552.53 85.5298 553.146 85.7216 553.894 85.7216ZM563.072 80.4375V87H561.395V76.0909H563.015V77.7955H563.157C563.412 77.2415 563.801 76.7964 564.322 76.4602C564.842 76.1193 565.515 75.9489 566.339 75.9489C567.077 75.9489 567.724 76.1004 568.278 76.4034C568.831 76.7017 569.262 77.1562 569.57 77.767C569.878 78.3731 570.032 79.1402 570.032 80.0682V87H568.356V80.1818C568.356 79.3248 568.133 78.6572 567.688 78.179C567.243 77.696 566.632 77.4545 565.856 77.4545C565.321 77.4545 564.842 77.5705 564.421 77.8026C564.004 78.0346 563.675 78.3731 563.434 78.8182C563.192 79.2633 563.072 79.803 563.072 80.4375ZM577.839 76.0909V77.5114H572.186V76.0909H577.839ZM573.833 73.4773H575.509V83.875C575.509 84.3485 575.578 84.7036 575.715 84.9403C575.857 85.1723 576.037 85.3286 576.255 85.4091C576.478 85.4848 576.712 85.5227 576.958 85.5227C577.143 85.5227 577.294 85.5133 577.413 85.4943C577.531 85.4706 577.626 85.4517 577.697 85.4375L578.038 86.9432C577.924 86.9858 577.766 87.0284 577.562 87.071C577.358 87.1184 577.1 87.142 576.788 87.142C576.314 87.142 575.85 87.0402 575.396 86.8366C574.946 86.633 574.572 86.3229 574.274 85.9062C573.98 85.4896 573.833 84.964 573.833 84.3295V73.4773ZM583.57 87.2557C582.879 87.2557 582.252 87.1255 581.688 86.8651C581.125 86.5999 580.677 86.2188 580.346 85.7216C580.015 85.2197 579.849 84.6136 579.849 83.9034C579.849 83.2784 579.972 82.7718 580.218 82.3835C580.464 81.9905 580.794 81.6828 581.205 81.4602C581.617 81.2377 582.072 81.072 582.569 80.9631C583.071 80.8494 583.575 80.7595 584.082 80.6932C584.745 80.608 585.282 80.544 585.694 80.5014C586.111 80.4541 586.414 80.3759 586.603 80.267C586.797 80.1581 586.894 79.9687 586.894 79.6989V79.642C586.894 78.9413 586.703 78.3968 586.319 78.0085C585.94 77.6203 585.365 77.4261 584.593 77.4261C583.793 77.4261 583.166 77.6013 582.711 77.9517C582.257 78.3021 581.937 78.6761 581.752 79.0739L580.161 78.5057C580.445 77.8428 580.824 77.3267 581.298 76.9574C581.776 76.5833 582.297 76.3229 582.86 76.1761C583.428 76.0246 583.987 75.9489 584.536 75.9489C584.887 75.9489 585.289 75.9915 585.744 76.0767C586.203 76.1572 586.646 76.3253 587.072 76.581C587.503 76.8366 587.86 77.2225 588.144 77.7386C588.428 78.2547 588.57 78.946 588.57 79.8125V87H586.894V85.5227H586.809C586.695 85.7595 586.506 86.0128 586.241 86.2827C585.976 86.5526 585.623 86.7822 585.183 86.9716C584.742 87.161 584.205 87.2557 583.57 87.2557ZM583.826 85.75C584.489 85.75 585.048 85.6198 585.502 85.3594C585.962 85.099 586.307 84.7628 586.539 84.3509C586.776 83.9389 586.894 83.5057 586.894 83.0511V81.517C586.823 81.6023 586.667 81.6804 586.426 81.7514C586.189 81.8177 585.914 81.8769 585.602 81.929C585.294 81.9763 584.993 82.0189 584.7 82.0568C584.411 82.09 584.177 82.1184 583.997 82.142C583.561 82.1989 583.154 82.2912 582.775 82.419C582.401 82.5421 582.098 82.7292 581.866 82.9801C581.639 83.2263 581.525 83.5625 581.525 83.9886C581.525 84.571 581.74 85.0114 582.171 85.3097C582.607 85.6032 583.159 85.75 583.826 85.75ZM591.63 87V76.0909H593.306V87H591.63ZM592.482 74.2727C592.155 74.2727 591.874 74.1615 591.637 73.9389C591.405 73.7164 591.289 73.4489 591.289 73.1364C591.289 72.8239 591.405 72.5563 591.637 72.3338C591.874 72.1113 592.155 72 592.482 72C592.809 72 593.088 72.1113 593.32 72.3338C593.557 72.5563 593.675 72.8239 593.675 73.1364C593.675 73.4489 593.557 73.7164 593.32 73.9389C593.088 74.1615 592.809 74.2727 592.482 74.2727ZM598.052 80.4375V87H596.376V76.0909H597.995V77.7955H598.137C598.393 77.2415 598.781 76.7964 599.302 76.4602C599.823 76.1193 600.495 75.9489 601.319 75.9489C602.058 75.9489 602.704 76.1004 603.258 76.4034C603.812 76.7017 604.243 77.1562 604.551 77.767C604.858 78.3731 605.012 79.1402 605.012 80.0682V87H603.336V80.1818C603.336 79.3248 603.114 78.6572 602.669 78.179C602.223 77.696 601.613 77.4545 600.836 77.4545C600.301 77.4545 599.823 77.5705 599.401 77.8026C598.985 78.0346 598.656 78.3731 598.414 78.8182C598.173 79.2633 598.052 79.803 598.052 80.4375ZM612.649 87.2273C611.598 87.2273 610.691 86.9953 609.929 86.5312C609.171 86.0625 608.586 85.4091 608.175 84.571C607.767 83.7282 607.564 82.7481 607.564 81.6307C607.564 80.5133 607.767 79.5284 608.175 78.6761C608.586 77.8191 609.159 77.1515 609.893 76.6733C610.632 76.1903 611.494 75.9489 612.479 75.9489C613.047 75.9489 613.608 76.0436 614.162 76.233C614.716 76.4223 615.22 76.7301 615.675 77.1562C616.129 77.5777 616.491 78.1364 616.761 78.8324C617.031 79.5284 617.166 80.3854 617.166 81.4034V82.1136H608.757V80.6648H615.461C615.461 80.0492 615.338 79.5 615.092 79.017C614.851 78.5341 614.505 78.1529 614.055 77.8736C613.61 77.5942 613.085 77.4545 612.479 77.4545C611.811 77.4545 611.233 77.6203 610.746 77.9517C610.263 78.2784 609.891 78.7045 609.631 79.2301C609.37 79.7557 609.24 80.3191 609.24 80.9205V81.8864C609.24 82.7102 609.382 83.4086 609.666 83.9815C609.955 84.5497 610.355 84.983 610.866 85.2812C611.378 85.5748 611.972 85.7216 612.649 85.7216C613.089 85.7216 613.487 85.66 613.842 85.5369C614.202 85.4091 614.512 85.2197 614.773 84.9688C615.033 84.7131 615.234 84.3958 615.376 84.017L616.996 84.4716C616.825 85.0208 616.539 85.5038 616.136 85.9205C615.734 86.3324 615.237 86.6544 614.645 86.8864C614.053 87.1136 613.388 87.2273 612.649 87.2273ZM619.716 87V76.0909H621.335V77.7386H621.449C621.648 77.1989 622.007 76.7609 622.528 76.4247C623.049 76.0885 623.636 75.9205 624.29 75.9205C624.413 75.9205 624.567 75.9228 624.751 75.9276C624.936 75.9323 625.076 75.9394 625.17 75.9489V77.6534C625.113 77.6392 624.983 77.6179 624.78 77.5895C624.581 77.5563 624.37 77.5398 624.148 77.5398C623.617 77.5398 623.144 77.651 622.727 77.8736C622.315 78.0914 621.988 78.3944 621.747 78.7827C621.51 79.1662 621.392 79.6042 621.392 80.0966V87H619.716ZM545.136 111V100.091H546.755V101.739H546.869C547.067 101.199 547.427 100.761 547.948 100.425C548.469 100.089 549.056 99.9205 549.71 99.9205C549.833 99.9205 549.987 99.9228 550.171 99.9276C550.356 99.9323 550.496 99.9394 550.59 99.9489V101.653C550.533 101.639 550.403 101.618 550.2 101.589C550.001 101.556 549.79 101.54 549.567 101.54C549.037 101.54 548.564 101.651 548.147 101.874C547.735 102.091 547.408 102.394 547.167 102.783C546.93 103.166 546.812 103.604 546.812 104.097V111H545.136ZM559.452 106.54V100.091H561.128V111H559.452V109.153H559.338C559.083 109.707 558.685 110.179 558.145 110.567C557.605 110.95 556.924 111.142 556.1 111.142C555.418 111.142 554.812 110.993 554.282 110.695C553.751 110.392 553.335 109.937 553.032 109.331C552.729 108.72 552.577 107.951 552.577 107.023V100.091H554.253V106.909C554.253 107.705 554.476 108.339 554.921 108.812C555.371 109.286 555.944 109.523 556.64 109.523C557.056 109.523 557.48 109.416 557.911 109.203C558.346 108.99 558.711 108.663 559.005 108.223C559.303 107.783 559.452 107.222 559.452 106.54ZM565.874 104.438V111H564.198V100.091H565.817V101.795H565.96C566.215 101.241 566.603 100.796 567.124 100.46C567.645 100.119 568.317 99.9489 569.141 99.9489C569.88 99.9489 570.526 100.1 571.08 100.403C571.634 100.702 572.065 101.156 572.373 101.767C572.681 102.373 572.835 103.14 572.835 104.068V111H571.158V104.182C571.158 103.325 570.936 102.657 570.491 102.179C570.046 101.696 569.435 101.455 568.658 101.455C568.123 101.455 567.645 101.571 567.224 101.803C566.807 102.035 566.478 102.373 566.237 102.818C565.995 103.263 565.874 103.803 565.874 104.438ZM580.642 100.091V101.511H574.988V100.091H580.642ZM576.636 97.4773H578.312V107.875C578.312 108.348 578.381 108.704 578.518 108.94C578.66 109.172 578.84 109.329 579.058 109.409C579.28 109.485 579.515 109.523 579.761 109.523C579.946 109.523 580.097 109.513 580.216 109.494C580.334 109.471 580.429 109.452 580.5 109.438L580.841 110.943C580.727 110.986 580.568 111.028 580.365 111.071C580.161 111.118 579.903 111.142 579.591 111.142C579.117 111.142 578.653 111.04 578.199 110.837C577.749 110.633 577.375 110.323 577.076 109.906C576.783 109.49 576.636 108.964 576.636 108.33V97.4773ZM583.163 111V100.091H584.839V111H583.163ZM584.015 98.2727C583.689 98.2727 583.407 98.1615 583.17 97.9389C582.938 97.7164 582.822 97.4489 582.822 97.1364C582.822 96.8239 582.938 96.5563 583.17 96.3338C583.407 96.1113 583.689 96 584.015 96C584.342 96 584.621 96.1113 584.853 96.3338C585.09 96.5563 585.208 96.8239 585.208 97.1364C585.208 97.4489 585.09 97.7164 584.853 97.9389C584.621 98.1615 584.342 98.2727 584.015 98.2727ZM587.909 111V100.091H589.528V101.795H589.67C589.898 101.213 590.265 100.761 590.771 100.439C591.278 100.112 591.886 99.9489 592.597 99.9489C593.316 99.9489 593.915 100.112 594.393 100.439C594.876 100.761 595.253 101.213 595.523 101.795H595.636C595.916 101.232 596.335 100.785 596.893 100.453C597.452 100.117 598.122 99.9489 598.903 99.9489C599.879 99.9489 600.677 100.254 601.297 100.865C601.917 101.471 602.227 102.416 602.227 103.699V111H600.551V103.699C600.551 102.894 600.331 102.319 599.891 101.973C599.45 101.627 598.932 101.455 598.335 101.455C597.568 101.455 596.974 101.687 596.553 102.151C596.131 102.61 595.92 103.192 595.92 103.898V111H594.216V103.528C594.216 102.908 594.015 102.409 593.612 102.03C593.21 101.646 592.691 101.455 592.057 101.455C591.621 101.455 591.214 101.571 590.835 101.803C590.461 102.035 590.158 102.357 589.926 102.768C589.699 103.176 589.585 103.647 589.585 104.182V111H587.909ZM609.866 111.227C608.815 111.227 607.908 110.995 607.146 110.531C606.388 110.062 605.803 109.409 605.391 108.571C604.984 107.728 604.781 106.748 604.781 105.631C604.781 104.513 604.984 103.528 605.391 102.676C605.803 101.819 606.376 101.152 607.11 100.673C607.849 100.19 608.71 99.9489 609.695 99.9489C610.263 99.9489 610.825 100.044 611.379 100.233C611.933 100.422 612.437 100.73 612.891 101.156C613.346 101.578 613.708 102.136 613.978 102.832C614.248 103.528 614.383 104.385 614.383 105.403V106.114H605.974V104.665H612.678C612.678 104.049 612.555 103.5 612.309 103.017C612.067 102.534 611.722 102.153 611.272 101.874C610.827 101.594 610.301 101.455 609.695 101.455C609.028 101.455 608.45 101.62 607.962 101.952C607.479 102.278 607.108 102.705 606.847 103.23C606.587 103.756 606.457 104.319 606.457 104.92V105.886C606.457 106.71 606.599 107.409 606.883 107.982C607.172 108.55 607.572 108.983 608.083 109.281C608.594 109.575 609.189 109.722 609.866 109.722C610.306 109.722 610.704 109.66 611.059 109.537C611.419 109.409 611.729 109.22 611.989 108.969C612.25 108.713 612.451 108.396 612.593 108.017L614.212 108.472C614.042 109.021 613.755 109.504 613.353 109.92C612.951 110.332 612.453 110.654 611.862 110.886C611.27 111.114 610.604 111.227 609.866 111.227Z" fill="white"/>
<path d="M260.707 90.7071C261.098 90.3166 261.098 89.6834 260.707 89.2929L254.343 82.9289C253.953 82.5384 253.319 82.5384 252.929 82.9289C252.538 83.3195 252.538 83.9526 252.929 84.3431L258.586 90L252.929 95.6569C252.538 96.0474 252.538 96.6805 252.929 97.0711C253.319 97.4616 253.953 97.4616 254.343 97.0711L260.707 90.7071ZM174 90V91H260V90V89H174V90Z" fill="black"/>
<path d="M493.707 90.7071C494.098 90.3166 494.098 89.6834 493.707 89.2929L487.343 82.9289C486.953 82.5384 486.319 82.5384 485.929 82.9289C485.538 83.3195 485.538 83.9526 485.929 84.3431L491.586 90L485.929 95.6569C485.538 96.0474 485.538 96.6805 485.929 97.0711C486.319 97.4616 486.953 97.4616 487.343 97.0711L493.707 90.7071ZM434 90V91H493V90V89H434V90Z" fill="black"/>
<path d="M705.707 90.7071C706.098 90.3166 706.098 89.6834 705.707 89.2929L699.343 82.9289C698.953 82.5384 698.319 82.5384 697.929 82.9289C697.538 83.3195 697.538 83.9526 697.929 84.3431L703.586 90L697.929 95.6569C697.538 96.0474 697.538 96.6805 697.929 97.0711C698.319 97.4616 698.953 97.4616 699.343 97.0711L705.707 90.7071ZM666 90V91H705V90V89H666V90Z" fill="black"/>
<path d="M214.361 57.5H213.04C212.962 57.12 212.825 56.7862 212.629 56.4986C212.438 56.2109 212.203 55.9695 211.926 55.7741C211.653 55.5753 211.349 55.4261 211.015 55.3267C210.682 55.2273 210.334 55.1776 209.971 55.1776C209.311 55.1776 208.713 55.3445 208.176 55.6783C207.644 56.0121 207.219 56.5039 206.903 57.1538C206.591 57.8036 206.435 58.6009 206.435 59.5455C206.435 60.4901 206.591 61.2873 206.903 61.9371C207.219 62.587 207.644 63.0788 208.176 63.4126C208.713 63.7464 209.311 63.9134 209.971 63.9134C210.334 63.9134 210.682 63.8636 211.015 63.7642C211.349 63.6648 211.653 63.5174 211.926 63.3221C212.203 63.1232 212.438 62.88 212.629 62.5923C212.825 62.3011 212.962 61.9673 213.04 61.5909H214.361C214.261 62.1484 214.08 62.6474 213.817 63.0877C213.555 63.5281 213.228 63.9027 212.837 64.2116C212.447 64.517 212.008 64.7496 211.522 64.9094C211.039 65.0692 210.522 65.1491 209.971 65.1491C209.041 65.1491 208.214 64.9219 207.489 64.4673C206.765 64.0128 206.195 63.3665 205.779 62.5284C205.364 61.6903 205.156 60.696 205.156 59.5455C205.156 58.3949 205.364 57.4006 205.779 56.5625C206.195 55.7244 206.765 55.0781 207.489 54.6236C208.214 54.169 209.041 53.9418 209.971 53.9418C210.522 53.9418 211.039 54.0217 211.522 54.1815C212.008 54.3413 212.447 54.5756 212.837 54.8846C213.228 55.19 213.555 55.5629 213.817 56.0032C214.08 56.44 214.261 56.9389 214.361 57.5ZM216.495 65V54.0909H220.181C221.034 54.0909 221.733 54.2365 222.28 54.5277C222.827 54.8153 223.232 55.2113 223.495 55.7156C223.757 56.2198 223.889 56.7933 223.889 57.4361C223.889 58.0788 223.757 58.6488 223.495 59.146C223.232 59.6431 222.829 60.0337 222.285 60.3178C221.742 60.5984 221.048 60.7386 220.203 60.7386H217.22V59.5455H220.16C220.742 59.5455 221.211 59.4602 221.566 59.2898C221.925 59.1193 222.184 58.8778 222.344 58.5653C222.507 58.2493 222.589 57.8729 222.589 57.4361C222.589 56.9993 222.507 56.6175 222.344 56.2908C222.181 55.9641 221.92 55.712 221.561 55.5344C221.202 55.3533 220.728 55.2628 220.139 55.2628H217.816V65H216.495ZM221.63 60.0994L224.315 65H222.781L220.139 60.0994H221.63ZM227.411 54.0909V65H226.09V54.0909H227.411ZM187.065 86.0682V74.8182H188.279V76.1179H188.428C188.521 75.9759 188.648 75.7947 188.812 75.5746C188.979 75.3509 189.217 75.152 189.526 74.978C189.838 74.8004 190.261 74.7116 190.793 74.7116C191.482 74.7116 192.089 74.8839 192.615 75.2283C193.141 75.5728 193.551 76.0611 193.846 76.6932C194.14 77.3253 194.288 78.071 194.288 78.9304C194.288 79.7969 194.14 80.5479 193.846 81.1836C193.551 81.8157 193.142 82.3058 192.62 82.6538C192.098 82.9982 191.496 83.1705 190.815 83.1705C190.289 83.1705 189.868 83.0835 189.552 82.9094C189.236 82.7319 188.993 82.5312 188.822 82.3075C188.652 82.0803 188.521 81.892 188.428 81.7429H188.322V86.0682H187.065ZM188.3 78.9091C188.3 79.527 188.391 80.0721 188.572 80.5444C188.753 81.0131 189.018 81.3807 189.366 81.647C189.714 81.9098 190.14 82.0412 190.644 82.0412C191.17 82.0412 191.608 81.9027 191.96 81.6257C192.315 81.3452 192.581 80.9687 192.759 80.4964C192.94 80.0206 193.031 79.4915 193.031 78.9091C193.031 78.3338 192.942 77.8153 192.764 77.3537C192.59 76.8885 192.326 76.521 191.971 76.2511C191.619 75.9776 191.177 75.8409 190.644 75.8409C190.133 75.8409 189.703 75.9705 189.355 76.2298C189.007 76.4854 188.744 76.8441 188.567 77.3058C188.389 77.7638 188.3 78.2983 188.3 78.9091ZM196.205 83V74.8182H197.42V76.054H197.505C197.654 75.6491 197.924 75.3207 198.315 75.0685C198.705 74.8164 199.146 74.6903 199.636 74.6903C199.728 74.6903 199.843 74.6921 199.982 74.6957C200.12 74.6992 200.225 74.7045 200.296 74.7116V75.9901C200.254 75.9794 200.156 75.9634 200.003 75.9421C199.854 75.9173 199.696 75.9048 199.529 75.9048C199.131 75.9048 198.776 75.9883 198.464 76.1552C198.155 76.3185 197.91 76.5458 197.729 76.837C197.551 77.1246 197.462 77.4531 197.462 77.8224V83H196.205ZM204.861 83.1705C204.123 83.1705 203.474 82.9947 202.917 82.6431C202.363 82.2915 201.93 81.7997 201.617 81.1676C201.308 80.5355 201.154 79.7969 201.154 78.9517C201.154 78.0994 201.308 77.3555 201.617 76.7198C201.93 76.0842 202.363 75.5906 202.917 75.239C203.474 74.8874 204.123 74.7116 204.861 74.7116C205.6 74.7116 206.246 74.8874 206.8 75.239C207.358 75.5906 207.791 76.0842 208.1 76.7198C208.412 77.3555 208.569 78.0994 208.569 78.9517C208.569 79.7969 208.412 80.5355 208.1 81.1676C207.791 81.7997 207.358 82.2915 206.8 82.6431C206.246 82.9947 205.6 83.1705 204.861 83.1705ZM204.861 82.0412C205.422 82.0412 205.884 81.8974 206.246 81.6097C206.608 81.3221 206.876 80.9439 207.05 80.4751C207.224 80.0064 207.311 79.4986 207.311 78.9517C207.311 78.4048 207.224 77.8952 207.05 77.4229C206.876 76.9506 206.608 76.5689 206.246 76.2777C205.884 75.9865 205.422 75.8409 204.861 75.8409C204.3 75.8409 203.838 75.9865 203.476 76.2777C203.114 76.5689 202.846 76.9506 202.672 77.4229C202.498 77.8952 202.411 78.4048 202.411 78.9517C202.411 79.4986 202.498 80.0064 202.672 80.4751C202.846 80.9439 203.114 81.3221 203.476 81.6097C203.838 81.8974 204.3 82.0412 204.861 82.0412ZM214.046 74.8182V75.8835H209.806V74.8182H214.046ZM211.041 72.858H212.299V80.6562C212.299 81.0114 212.35 81.2777 212.453 81.4553C212.56 81.6293 212.695 81.7464 212.858 81.8068C213.025 81.8636 213.201 81.892 213.385 81.892C213.524 81.892 213.637 81.8849 213.726 81.8707C213.815 81.853 213.886 81.8388 213.939 81.8281L214.195 82.9574C214.11 82.9893 213.991 83.0213 213.838 83.0533C213.685 83.0888 213.492 83.1065 213.257 83.1065C212.902 83.1065 212.554 83.0302 212.213 82.8775C211.876 82.7248 211.595 82.4922 211.372 82.1797C211.152 81.8672 211.041 81.473 211.041 80.9972V72.858ZM219.173 83.1705C218.434 83.1705 217.786 82.9947 217.228 82.6431C216.674 82.2915 216.241 81.7997 215.929 81.1676C215.62 80.5355 215.465 79.7969 215.465 78.9517C215.465 78.0994 215.62 77.3555 215.929 76.7198C216.241 76.0842 216.674 75.5906 217.228 75.239C217.786 74.8874 218.434 74.7116 219.173 74.7116C219.911 74.7116 220.558 74.8874 221.112 75.239C221.669 75.5906 222.102 76.0842 222.411 76.7198C222.724 77.3555 222.88 78.0994 222.88 78.9517C222.88 79.7969 222.724 80.5355 222.411 81.1676C222.102 81.7997 221.669 82.2915 221.112 82.6431C220.558 82.9947 219.911 83.1705 219.173 83.1705ZM219.173 82.0412C219.734 82.0412 220.195 81.8974 220.558 81.6097C220.92 81.3221 221.188 80.9439 221.362 80.4751C221.536 80.0064 221.623 79.4986 221.623 78.9517C221.623 78.4048 221.536 77.8952 221.362 77.4229C221.188 76.9506 220.92 76.5689 220.558 76.2777C220.195 75.9865 219.734 75.8409 219.173 75.8409C218.612 75.8409 218.15 75.9865 217.788 76.2777C217.426 76.5689 217.157 76.9506 216.983 77.4229C216.809 77.8952 216.722 78.4048 216.722 78.9517C216.722 79.4986 216.809 80.0064 216.983 80.4751C217.157 80.9439 217.426 81.3221 217.788 81.6097C218.15 81.8974 218.612 82.0412 219.173 82.0412ZM224.969 83V72.0909H226.227V76.1179H226.333C226.425 75.9759 226.553 75.7947 226.717 75.5746C226.884 75.3509 227.121 75.152 227.43 74.978C227.743 74.8004 228.165 74.7116 228.698 74.7116C229.387 74.7116 229.994 74.8839 230.52 75.2283C231.045 75.5728 231.456 76.0611 231.75 76.6932C232.045 77.3253 232.192 78.071 232.192 78.9304C232.192 79.7969 232.045 80.5479 231.75 81.1836C231.456 81.8157 231.047 82.3058 230.525 82.6538C230.003 82.9982 229.401 83.1705 228.719 83.1705C228.194 83.1705 227.773 83.0835 227.457 82.9094C227.141 82.7319 226.898 82.5312 226.727 82.3075C226.557 82.0803 226.425 81.892 226.333 81.7429H226.184V83H224.969ZM226.205 78.9091C226.205 79.527 226.296 80.0721 226.477 80.5444C226.658 81.0131 226.923 81.3807 227.271 81.647C227.619 81.9098 228.045 82.0412 228.549 82.0412C229.075 82.0412 229.513 81.9027 229.865 81.6257C230.22 81.3452 230.486 80.9687 230.664 80.4964C230.845 80.0206 230.935 79.4915 230.935 78.9091C230.935 78.3338 230.847 77.8153 230.669 77.3537C230.495 76.8885 230.23 76.521 229.875 76.2511C229.524 75.9776 229.082 75.8409 228.549 75.8409C228.038 75.8409 227.608 75.9705 227.26 76.2298C226.912 76.4854 226.649 76.8441 226.472 77.3058C226.294 77.7638 226.205 78.2983 226.205 78.9091ZM239.272 79.6548V74.8182H240.529V83H239.272V81.6151H239.186C238.995 82.0305 238.696 82.3839 238.292 82.6751C237.887 82.9627 237.375 83.1065 236.757 83.1065C236.246 83.1065 235.792 82.9947 235.394 82.771C234.996 82.5437 234.684 82.2028 234.456 81.7482C234.229 81.2901 234.115 80.7131 234.115 80.017V74.8182H235.373V79.9318C235.373 80.5284 235.539 81.0043 235.873 81.3594C236.211 81.7145 236.64 81.892 237.162 81.892C237.475 81.892 237.793 81.8121 238.116 81.6523C238.442 81.4925 238.716 81.2475 238.936 80.9173C239.16 80.587 239.272 80.1662 239.272 79.6548ZM246.475 74.8182V75.8835H242.064V74.8182H246.475ZM243.385 83V73.6889C243.385 73.2202 243.495 72.8295 243.715 72.517C243.936 72.2045 244.222 71.9702 244.573 71.8139C244.925 71.6577 245.296 71.5795 245.686 71.5795C245.995 71.5795 246.247 71.6044 246.443 71.6541C246.638 71.7038 246.784 71.75 246.88 71.7926L246.517 72.8793C246.453 72.858 246.365 72.8313 246.251 72.7994C246.141 72.7674 245.995 72.7514 245.814 72.7514C245.399 72.7514 245.099 72.8562 244.914 73.0657C244.733 73.2752 244.642 73.5824 244.642 73.9872V83H243.385Z" fill="black"/>
<path d="M753.618 84H751.857C751.753 83.4934 751.57 83.0483 751.31 82.6648C751.054 82.2812 750.742 81.9593 750.373 81.6989C750.008 81.4337 749.603 81.2348 749.158 81.1023C748.713 80.9697 748.249 80.9034 747.766 80.9034C746.885 80.9034 746.087 81.1259 745.373 81.571C744.662 82.0161 744.096 82.6719 743.675 83.5384C743.258 84.4048 743.05 85.4678 743.05 86.7273C743.05 87.9867 743.258 89.0497 743.675 89.9162C744.096 90.7827 744.662 91.4384 745.373 91.8835C746.087 92.3286 746.885 92.5511 747.766 92.5511C748.249 92.5511 748.713 92.4848 749.158 92.3523C749.603 92.2197 750.008 92.0232 750.373 91.7628C750.742 91.4976 751.054 91.1733 751.31 90.7898C751.57 90.4015 751.753 89.9564 751.857 89.4545H753.618C753.486 90.1979 753.244 90.8632 752.894 91.4503C752.543 92.0374 752.108 92.5369 751.587 92.9489C751.066 93.3561 750.481 93.6662 749.833 93.8793C749.189 94.0923 748.5 94.1989 747.766 94.1989C746.525 94.1989 745.422 93.8958 744.456 93.2898C743.49 92.6837 742.73 91.822 742.176 90.7045C741.623 89.5871 741.346 88.2614 741.346 86.7273C741.346 85.1932 741.623 83.8674 742.176 82.75C742.73 81.6326 743.49 80.7708 744.456 80.1648C745.422 79.5587 746.525 79.2557 747.766 79.2557C748.5 79.2557 749.189 79.3622 749.833 79.5753C750.481 79.7884 751.066 80.1009 751.587 80.5128C752.108 80.92 752.543 81.4171 752.894 82.0043C753.244 82.5866 753.486 83.2519 753.618 84ZM760.669 94.2273C759.684 94.2273 758.82 93.9929 758.077 93.5241C757.338 93.0554 756.76 92.3996 756.344 91.5568C755.932 90.714 755.726 89.7292 755.726 88.6023C755.726 87.4659 755.932 86.474 756.344 85.6264C756.76 84.7789 757.338 84.1207 758.077 83.652C758.82 83.1832 759.684 82.9489 760.669 82.9489C761.654 82.9489 762.516 83.1832 763.254 83.652C763.998 84.1207 764.575 84.7789 764.987 85.6264C765.404 86.474 765.612 87.4659 765.612 88.6023C765.612 89.7292 765.404 90.714 764.987 91.5568C764.575 92.3996 763.998 93.0554 763.254 93.5241C762.516 93.9929 761.654 94.2273 760.669 94.2273ZM760.669 92.7216C761.417 92.7216 762.033 92.5298 762.516 92.1463C762.999 91.7628 763.356 91.2585 763.588 90.6335C763.82 90.0085 763.936 89.3314 763.936 88.6023C763.936 87.8731 763.82 87.1937 763.588 86.5639C763.356 85.9342 762.999 85.4252 762.516 85.0369C762.033 84.6487 761.417 84.4545 760.669 84.4545C759.921 84.4545 759.305 84.6487 758.822 85.0369C758.339 85.4252 757.982 85.9342 757.75 86.5639C757.518 87.1937 757.402 87.8731 757.402 88.6023C757.402 89.3314 757.518 90.0085 757.75 90.6335C757.982 91.2585 758.339 91.7628 758.822 92.1463C759.305 92.5298 759.921 92.7216 760.669 92.7216ZM769.847 87.4375V94H768.171V83.0909H769.79V84.7955H769.932C770.188 84.2415 770.576 83.7964 771.097 83.4602C771.618 83.1193 772.29 82.9489 773.114 82.9489C773.853 82.9489 774.499 83.1004 775.053 83.4034C775.607 83.7017 776.038 84.1562 776.346 84.767C776.653 85.3731 776.807 86.1402 776.807 87.0682V94H775.131V87.1818C775.131 86.3248 774.908 85.6572 774.463 85.179C774.018 84.696 773.408 84.4545 772.631 84.4545C772.096 84.4545 771.618 84.5705 771.196 84.8026C770.78 85.0346 770.451 85.3731 770.209 85.8182C769.968 86.2633 769.847 86.803 769.847 87.4375ZM784.614 83.0909V84.5114H778.961V83.0909H784.614ZM780.609 80.4773H782.285V90.875C782.285 91.3485 782.353 91.7036 782.491 91.9403C782.633 92.1723 782.813 92.3286 783.031 92.4091C783.253 92.4848 783.487 92.5227 783.734 92.5227C783.918 92.5227 784.07 92.5133 784.188 92.4943C784.307 92.4706 784.401 92.4517 784.472 92.4375L784.813 93.9432C784.7 93.9858 784.541 94.0284 784.337 94.071C784.134 94.1184 783.876 94.142 783.563 94.142C783.09 94.142 782.626 94.0402 782.171 93.8366C781.721 93.633 781.347 93.3229 781.049 92.9062C780.755 92.4896 780.609 91.964 780.609 91.3295V80.4773ZM790.346 94.2557C789.655 94.2557 789.027 94.1255 788.464 93.8651C787.9 93.5999 787.453 93.2188 787.121 92.7216C786.79 92.2197 786.624 91.6136 786.624 90.9034C786.624 90.2784 786.747 89.7718 786.994 89.3835C787.24 88.9905 787.569 88.6828 787.981 88.4602C788.393 88.2377 788.847 88.072 789.344 87.9631C789.846 87.8494 790.351 87.7595 790.857 87.6932C791.52 87.608 792.058 87.544 792.469 87.5014C792.886 87.4541 793.189 87.3759 793.379 87.267C793.573 87.1581 793.67 86.9687 793.67 86.6989V86.642C793.67 85.9413 793.478 85.3968 793.094 85.0085C792.716 84.6203 792.14 84.4261 791.369 84.4261C790.568 84.4261 789.941 84.6013 789.487 84.9517C789.032 85.3021 788.712 85.6761 788.528 86.0739L786.937 85.5057C787.221 84.8428 787.6 84.3267 788.073 83.9574C788.551 83.5833 789.072 83.3229 789.636 83.1761C790.204 83.0246 790.763 82.9489 791.312 82.9489C791.662 82.9489 792.065 82.9915 792.519 83.0767C792.978 83.1572 793.421 83.3253 793.847 83.581C794.278 83.8366 794.636 84.2225 794.92 84.7386C795.204 85.2547 795.346 85.946 795.346 86.8125V94H793.67V92.5227H793.585C793.471 92.7595 793.281 93.0128 793.016 93.2827C792.751 93.5526 792.398 93.7822 791.958 93.9716C791.518 94.161 790.98 94.2557 790.346 94.2557ZM790.602 92.75C791.264 92.75 791.823 92.6198 792.278 92.3594C792.737 92.099 793.083 91.7628 793.315 91.3509C793.551 90.9389 793.67 90.5057 793.67 90.0511V88.517C793.599 88.6023 793.442 88.6804 793.201 88.7514C792.964 88.8177 792.69 88.8769 792.377 88.929C792.069 88.9763 791.769 89.0189 791.475 89.0568C791.186 89.09 790.952 89.1184 790.772 89.142C790.336 89.1989 789.929 89.2912 789.55 89.419C789.176 89.5421 788.873 89.7292 788.641 89.9801C788.414 90.2263 788.3 90.5625 788.3 90.9886C788.3 91.571 788.516 92.0114 788.947 92.3097C789.382 92.6032 789.934 92.75 790.602 92.75ZM798.405 94V83.0909H800.081V94H798.405ZM799.257 81.2727C798.931 81.2727 798.649 81.1615 798.412 80.9389C798.18 80.7164 798.064 80.4489 798.064 80.1364C798.064 79.8239 798.18 79.5563 798.412 79.3338C798.649 79.1113 798.931 79 799.257 79C799.584 79 799.864 79.1113 800.096 79.3338C800.332 79.5563 800.451 79.8239 800.451 80.1364C800.451 80.4489 800.332 80.7164 800.096 80.9389C799.864 81.1615 799.584 81.2727 799.257 81.2727ZM804.827 87.4375V94H803.151V83.0909H804.771V84.7955H804.913C805.168 84.2415 805.557 83.7964 806.077 83.4602C806.598 83.1193 807.271 82.9489 808.094 82.9489C808.833 82.9489 809.479 83.1004 810.033 83.4034C810.587 83.7017 811.018 84.1562 811.326 84.767C811.634 85.3731 811.788 86.1402 811.788 87.0682V94H810.112V87.1818C810.112 86.3248 809.889 85.6572 809.444 85.179C808.999 84.696 808.388 84.4545 807.612 84.4545C807.076 84.4545 806.598 84.5705 806.177 84.8026C805.76 85.0346 805.431 85.3731 805.19 85.8182C804.948 86.2633 804.827 86.803 804.827 87.4375ZM819.424 94.2273C818.373 94.2273 817.467 93.9953 816.704 93.5312C815.947 93.0625 815.362 92.4091 814.95 91.571C814.543 90.7282 814.339 89.7481 814.339 88.6307C814.339 87.5133 814.543 86.5284 814.95 85.6761C815.362 84.8191 815.935 84.1515 816.669 83.6733C817.407 83.1903 818.269 82.9489 819.254 82.9489C819.822 82.9489 820.383 83.0436 820.937 83.233C821.491 83.4223 821.995 83.7301 822.45 84.1562C822.904 84.5777 823.267 85.1364 823.537 85.8324C823.806 86.5284 823.941 87.3854 823.941 88.4034V89.1136H815.532V87.6648H822.237C822.237 87.0492 822.114 86.5 821.868 86.017C821.626 85.5341 821.28 85.1529 820.831 84.8736C820.386 84.5942 819.86 84.4545 819.254 84.4545C818.586 84.4545 818.009 84.6203 817.521 84.9517C817.038 85.2784 816.666 85.7045 816.406 86.2301C816.145 86.7557 816.015 87.3191 816.015 87.9205V88.8864C816.015 89.7102 816.157 90.4086 816.441 90.9815C816.73 91.5497 817.13 91.983 817.642 92.2812C818.153 92.5748 818.747 92.7216 819.424 92.7216C819.865 92.7216 820.262 92.66 820.618 92.5369C820.977 92.4091 821.288 92.2197 821.548 91.9688C821.808 91.7131 822.01 91.3958 822.152 91.017L823.771 91.4716C823.6 92.0208 823.314 92.5038 822.912 92.9205C822.509 93.3324 822.012 93.6544 821.42 93.8864C820.828 94.1136 820.163 94.2273 819.424 94.2273ZM826.491 94V83.0909H828.11V84.7386H828.224C828.423 84.1989 828.783 83.7609 829.304 83.4247C829.824 83.0885 830.412 82.9205 831.065 82.9205C831.188 82.9205 831.342 82.9228 831.527 82.9276C831.711 82.9323 831.851 82.9394 831.946 82.9489V84.6534C831.889 84.6392 831.759 84.6179 831.555 84.5895C831.356 84.5563 831.145 84.5398 830.923 84.5398C830.393 84.5398 829.919 84.651 829.502 84.8736C829.091 85.0914 828.764 85.3944 828.522 85.7827C828.286 86.1662 828.167 86.6042 828.167 87.0966V94H826.491ZM841.66 85.5341L840.154 85.9602C840.059 85.7093 839.92 85.4654 839.735 85.2287C839.555 84.9872 839.309 84.7884 838.996 84.6321C838.684 84.4759 838.284 84.3977 837.796 84.3977C837.129 84.3977 836.572 84.5516 836.127 84.8594C835.687 85.1624 835.467 85.5483 835.467 86.017C835.467 86.4337 835.618 86.7628 835.921 87.0043C836.224 87.2457 836.698 87.447 837.342 87.608L838.961 88.0057C839.936 88.2424 840.663 88.6046 841.141 89.0923C841.62 89.5753 841.859 90.1979 841.859 90.9602C841.859 91.5852 841.679 92.1439 841.319 92.6364C840.964 93.1288 840.467 93.517 839.827 93.8011C839.188 94.0852 838.445 94.2273 837.597 94.2273C836.485 94.2273 835.564 93.9858 834.835 93.5028C834.105 93.0199 833.644 92.3144 833.45 91.3864L835.04 90.9886C835.192 91.5758 835.478 92.0161 835.9 92.3097C836.326 92.6032 836.882 92.75 837.569 92.75C838.35 92.75 838.97 92.5843 839.43 92.2528C839.894 91.9167 840.126 91.5142 840.126 91.0455C840.126 90.6667 839.993 90.3494 839.728 90.0938C839.463 89.8333 839.056 89.6392 838.506 89.5114L836.688 89.0852C835.689 88.8485 834.955 88.4815 834.487 87.9844C834.022 87.4825 833.79 86.8551 833.79 86.1023C833.79 85.4867 833.963 84.9422 834.309 84.4688C834.659 83.9953 835.135 83.6236 835.737 83.3537C836.343 83.0838 837.029 82.9489 837.796 82.9489C838.876 82.9489 839.723 83.1856 840.339 83.6591C840.959 84.1326 841.399 84.7576 841.66 85.5341Z" fill="black"/>
</g>
<defs>
<clipPath id="clip0_25_2">
<rect width="899" height="174" fill="white"/>
</clipPath>
</defs>
</svg>
