<?xml version="1.0" encoding="UTF-8"?>
<svg xmlns="http://www.w3.org/2000/svg" xmlns:xlink="http://www.w3.org/1999/xlink"
     width="900.0" height="330" viewBox="-10 -10 920.0 350">
<defs>
</defs>
<g>
<circle cx="450.0" cy="30" r="30" stroke="black" stroke-width="2" fill="none" />
<text x="450.0" y="30" font-size="20" text-anchor="middle" dominant-baseline="middle" fill="black">10</text>
</g>
<g>
<circle cx="210.0" cy="120" r="30" stroke="black" stroke-width="2" fill="none" />
<text x="210.0" y="120" font-size="20" text-anchor="middle" dominant-baseline="middle" fill="black">5</text>
</g>
<g>
<circle cx="90.0" cy="210" r="30" stroke="black" stroke-width="2" fill="none" />
<text x="90.0" y="210" font-size="20" text-anchor="middle" dominant-baseline="middle" fill="black">3</text>
</g>
<path d="M186.0,138.0 L114.0,192.0 M114.0,192.0 L119.0,182.0 L125.0,190.0" fill="black" stroke="black" stroke-width="3" />
<g>
<circle cx="330.0" cy="210" r="30" stroke="black" stroke-width="2" fill="none" />
<text x="330.0" y="210" font-size="20" text-anchor="middle" dominant-baseline="middle" fill="black">7</text>
</g>
<g>
<circle cx="270.0" cy="300" r="30" stroke="black" stroke-width="2" fill="none" />
<text x="270.0" y="300" font-size="20" text-anchor="middle" dominant-baseline="middle" fill="black">6</text>
</g>
<path d="M313.3589941132431,234.9615088301353 L286.6410058867569,275.0384911698647 M286.6410058867569,275.0384911698647 L288.02775637732,263.94448724536016 L296.3482593206984,269.4914892076124" fill="black" stroke="black" stroke-width="3" />
<g>
<circle cx="390.0" cy="300" r="30" stroke="black" stroke-width="2" fill="none" />
<text x="390.0" y="300" font-size="20" text-anchor="middle" dominant-baseline="middle" fill="black">8</text>
</g>
<path d="M346.6410058867569,234.9615088301353 L373.3589941132431,275.0384911698647 M373.3589941132431,275.0384911698647 L363.6517406793016,269.4914892076124 L371.97224362268,263.94448724536016" fill="black" stroke="black" stroke-width="3" />
<path d="M234.0,138.0 L306.0,192.0 M306.0,192.0 L295.0,190.0 L301.0,182.0" fill="black" stroke="black" stroke-width="3" />
<path d="M421.91012467292865,40.53370324765175 L238.08987532707133,109.46629675234826 M238.08987532707133,109.46629675234826 L245.69754989481982,101.27341644861912 L249.20878431070372,110.63670822430956" fill="black" stroke="black" stroke-width="3" />
<g>
<circle cx="690.0" cy="120" r="30" stroke="black" stroke-width="2" fill="none" />
<text x="690.0" y="120" font-size="20" text-anchor="middle" dominant-baseline="middle" fill="black">15</text>
</g>
<g>
<circle cx="570.0" cy="210" r="30" stroke="black" stroke-width="2" fill="none" />
<text x="570.0" y="210" font-size="20" text-anchor="middle" dominant-baseline="middle" fill="black">12</text>
</g>
<path d="M666.0,138.0 L594.0,192.0 M594.0,192.0 L599.0,182.0 L605.0,190.0" fill="black" stroke="black" stroke-width="3" />
<g>
<circle cx="810.0" cy="210" r="30" stroke="black" stroke-width="2" fill="none" />
<text x="810.0" y="210" font-size="20" text-anchor="middle" dominant-baseline="middle" fill="black">18</text>
</g>
<path d="M714.0,138.0 L786.0,192.0 M786.0,192.0 L775.0,190.0 L781.0,182.0" fill="black" stroke="black" stroke-width="3" />
<path d="M478.08987532707135,40.53370324765175 L661.9101246729286,109.46629675234826 M661.9101246729286,109.46629675234826 L650.7912156892962,110.63670822430956 L654.3024501051802,101.27341644861912" fill="black" stroke="black" stroke-width="3" />
</svg>