<svg width="410" height="244" viewBox="0 0 410 244" fill="none" xmlns="http://www.w3.org/2000/svg">
<rect x="7.5" y="11.5" width="394" height="47" rx="23.5" fill="#82D27B" stroke="black"/>
<rect x="7.5" y="183.5" width="394" height="47" rx="23.5" fill="#7BB0D2" stroke="black"/>
<path d="M191.3 43.2C189.793 43.2 188.48 42.9 187.36 42.3C186.24 41.6867 185.373 40.8533 184.76 39.8C184.16 38.7467 183.86 37.5467 183.86 36.2C183.86 35.1867 184.04 34.2333 184.4 33.34C184.773 32.4467 185.3 31.66 185.98 30.98C186.673 30.3 187.5 29.7667 188.46 29.38C189.42 28.9933 190.487 28.8 191.66 28.8C192.58 28.8 193.42 28.8933 194.18 29.08C194.94 29.2667 195.7 29.5467 196.46 29.92V32.6H195.78C195.54 31.6533 195.027 30.9333 194.24 30.44C193.453 29.9467 192.487 29.7 191.34 29.7C190.18 29.7 189.193 29.9667 188.38 30.5C187.567 31.02 186.947 31.7267 186.52 32.62C186.093 33.5133 185.88 34.5333 185.88 35.68C185.88 36.4933 186 37.2933 186.24 38.08C186.493 38.8667 186.86 39.58 187.34 40.22C187.82 40.86 188.413 41.3667 189.12 41.74C189.84 42.1133 190.667 42.3 191.6 42.3C192.253 42.3 192.827 42.2267 193.32 42.08C193.827 41.92 194.26 41.6 194.62 41.12C194.993 40.64 195.313 39.9267 195.58 38.98H196.26V42.16C195.313 42.5333 194.427 42.8 193.6 42.96C192.773 43.12 192.007 43.2 191.3 43.2ZM203.536 43.2C202.469 43.2 201.529 42.9733 200.716 42.52C199.903 42.0667 199.269 41.4333 198.816 40.62C198.363 39.8067 198.136 38.8667 198.136 37.8C198.136 36.76 198.363 35.8333 198.816 35.02C199.269 34.2067 199.896 33.5667 200.696 33.1C201.509 32.6333 202.456 32.4 203.536 32.4C204.616 32.4 205.563 32.6267 206.376 33.08C207.189 33.5333 207.823 34.1667 208.276 34.98C208.729 35.78 208.956 36.7133 208.956 37.78C208.956 38.82 208.729 39.7467 208.276 40.56C207.823 41.3733 207.189 42.02 206.376 42.5C205.576 42.9667 204.629 43.2 203.536 43.2ZM203.896 42.32C204.816 42.32 205.563 41.9867 206.136 41.32C206.723 40.64 207.016 39.64 207.016 38.32C207.016 37.4 206.863 36.56 206.556 35.8C206.263 35.0267 205.829 34.4133 205.256 33.96C204.696 33.5067 204.009 33.28 203.196 33.28C202.276 33.28 201.523 33.62 200.936 34.3C200.363 34.9667 200.076 35.9667 200.076 37.3C200.076 38.2067 200.223 39.0467 200.516 39.82C200.823 40.58 201.256 41.1867 201.816 41.64C202.389 42.0933 203.083 42.32 203.896 42.32ZM215.198 43.2C214.304 43.2 213.504 42.98 212.798 42.54C212.091 42.1 211.538 41.4933 211.138 40.72C210.751 39.9333 210.558 39.04 210.558 38.04C210.558 36.96 210.791 36 211.258 35.16C211.738 34.3067 212.384 33.6333 213.198 33.14C214.011 32.6467 214.924 32.4 215.938 32.4C216.431 32.4 216.904 32.4533 217.358 32.56C217.824 32.6667 218.264 32.86 218.678 33.14V29.7C218.678 29.2467 218.564 28.94 218.338 28.78C218.124 28.62 217.718 28.5067 217.118 28.44V27.88L220.198 27H220.478V40.42C220.478 40.8333 220.564 41.14 220.738 41.34C220.924 41.5267 221.338 41.6533 221.978 41.72L222.078 41.74V42.32L219.018 43.04H218.738V41.66H218.558C218.171 42.06 217.798 42.3733 217.438 42.6C217.078 42.8267 216.718 42.98 216.358 43.06C215.998 43.1533 215.611 43.2 215.198 43.2ZM216.138 41.8C216.618 41.8 217.064 41.7267 217.478 41.58C217.904 41.4333 218.304 41.1733 218.678 40.8V36.16C218.678 35.48 218.538 34.9267 218.258 34.5C217.978 34.0733 217.618 33.76 217.178 33.56C216.751 33.36 216.291 33.26 215.798 33.26C214.704 33.26 213.871 33.6067 213.298 34.3C212.724 34.9933 212.438 35.9867 212.438 37.28C212.438 38.16 212.591 38.9467 212.898 39.64C213.218 40.32 213.651 40.8533 214.198 41.24C214.758 41.6133 215.404 41.8 216.138 41.8ZM228.174 43.2C227.187 43.2 226.321 42.9733 225.574 42.52C224.827 42.0533 224.247 41.42 223.834 40.62C223.421 39.82 223.214 38.92 223.214 37.92C223.214 36.8533 223.447 35.9067 223.914 35.08C224.394 34.2533 225.034 33.6 225.834 33.12C226.634 32.64 227.521 32.4 228.494 32.4C229.534 32.4 230.374 32.7 231.014 33.3C231.654 33.9 231.974 34.7733 231.974 35.92C231.974 36 231.974 36.0867 231.974 36.18C231.974 36.26 231.961 36.3733 231.934 36.52L231.894 36.8H224.734V36H229.994C230.034 35.76 230.054 35.5333 230.054 35.32C230.054 34.6933 229.881 34.1933 229.534 33.82C229.201 33.4467 228.721 33.26 228.094 33.26C227.174 33.26 226.434 33.62 225.874 34.34C225.314 35.0467 225.034 35.9867 225.034 37.16C225.034 38.0267 225.201 38.8067 225.534 39.5C225.867 40.1933 226.341 40.74 226.954 41.14C227.567 41.5267 228.294 41.72 229.134 41.72C229.587 41.72 230.034 41.6467 230.474 41.5C230.914 41.34 231.367 41.0867 231.834 40.74L232.234 41.12C231.621 41.8533 230.994 42.3867 230.354 42.72C229.714 43.04 228.987 43.2 228.174 43.2Z" fill="black"/>
<rect x="271.5" y="80.5" width="121" height="81" rx="24.5" fill="#D9D9D9" stroke="black"/>
<rect x="9.5" y="80.5" width="120" height="81" rx="24.5" fill="#D9D9D9" stroke="black"/>
<rect x="139.5" y="80.5" width="121" height="81" rx="24.5" fill="#D9D9D9" stroke="black"/>
<path d="M58.44 129.2C57.5467 129.2 56.7467 128.98 56.04 128.54C55.3333 128.1 54.78 127.493 54.38 126.72C53.9933 125.933 53.8 125.04 53.8 124.04C53.8 122.96 54.0333 122 54.5 121.16C54.98 120.307 55.6267 119.633 56.44 119.14C57.2533 118.647 58.1667 118.4 59.18 118.4C59.6733 118.4 60.1467 118.453 60.6 118.56C61.0667 118.667 61.5067 118.86 61.92 119.14V115.7C61.92 115.247 61.8067 114.94 61.58 114.78C61.3667 114.62 60.96 114.507 60.36 114.44V113.88L63.44 113H63.72V126.42C63.72 126.833 63.8067 127.14 63.98 127.34C64.1667 127.527 64.58 127.653 65.22 127.72L65.32 127.74V128.32L62.26 129.04H61.98V127.66H61.8C61.4133 128.06 61.04 128.373 60.68 128.6C60.32 128.827 59.96 128.98 59.6 129.06C59.24 129.153 58.8533 129.2 58.44 129.2ZM59.38 127.8C59.86 127.8 60.3067 127.727 60.72 127.58C61.1467 127.433 61.5467 127.173 61.92 126.8V122.16C61.92 121.48 61.78 120.927 61.5 120.5C61.22 120.073 60.86 119.76 60.42 119.56C59.9933 119.36 59.5333 119.26 59.04 119.26C57.9467 119.26 57.1133 119.607 56.54 120.3C55.9667 120.993 55.68 121.987 55.68 123.28C55.68 124.16 55.8333 124.947 56.14 125.64C56.46 126.32 56.8933 126.853 57.44 127.24C58 127.613 58.6467 127.8 59.38 127.8ZM71.4163 129.2C70.4296 129.2 69.5629 128.973 68.8163 128.52C68.0696 128.053 67.4896 127.42 67.0763 126.62C66.6629 125.82 66.4563 124.92 66.4563 123.92C66.4563 122.853 66.6896 121.907 67.1563 121.08C67.6363 120.253 68.2763 119.6 69.0763 119.12C69.8763 118.64 70.7629 118.4 71.7363 118.4C72.7763 118.4 73.6163 118.7 74.2563 119.3C74.8963 119.9 75.2163 120.773 75.2163 121.92C75.2163 122 75.2163 122.087 75.2163 122.18C75.2163 122.26 75.2029 122.373 75.1763 122.52L75.1363 122.8H67.9763V122H73.2363C73.2763 121.76 73.2963 121.533 73.2963 121.32C73.2963 120.693 73.1229 120.193 72.7763 119.82C72.4429 119.447 71.9629 119.26 71.3363 119.26C70.4163 119.26 69.6763 119.62 69.1163 120.34C68.5563 121.047 68.2763 121.987 68.2763 123.16C68.2763 124.027 68.4429 124.807 68.7763 125.5C69.1096 126.193 69.5829 126.74 70.1963 127.14C70.8096 127.527 71.5363 127.72 72.3763 127.72C72.8296 127.72 73.2763 127.647 73.7163 127.5C74.1563 127.34 74.6096 127.087 75.0763 126.74L75.4763 127.12C74.8629 127.853 74.2363 128.387 73.5963 128.72C72.9563 129.04 72.2296 129.2 71.4163 129.2ZM81.0706 129.16L77.7306 120.76C77.5306 120.267 77.324 119.913 77.1106 119.7C76.9106 119.473 76.644 119.34 76.3106 119.3L75.9306 119.26V118.6H80.8306V119.26L80.3706 119.3C79.9706 119.34 79.6973 119.493 79.5506 119.76C79.4173 120.013 79.424 120.347 79.5706 120.76L82.2706 128H81.7106L84.5106 120.76C84.6973 120.293 84.724 119.947 84.5906 119.72C84.4706 119.493 84.1706 119.353 83.6906 119.3L83.2706 119.26V118.6H87.4706V119.26L87.3306 119.28C86.8373 119.36 86.464 119.513 86.2106 119.74C85.9706 119.953 85.7506 120.293 85.5506 120.76L82.0706 129.16H81.0706Z" fill="black"/>
<path d="M173.04 129.2C172.533 129.2 172.013 129.133 171.48 129C170.96 128.88 170.48 128.707 170.04 128.48V125.84H170.7C170.833 126.72 171.133 127.367 171.6 127.78C172.08 128.193 172.647 128.4 173.3 128.4C173.913 128.4 174.393 128.24 174.74 127.92C175.087 127.6 175.26 127.193 175.26 126.7C175.26 126.247 175.12 125.893 174.84 125.64C174.573 125.373 174.207 125.12 173.74 124.88L172.36 124.14C171.507 123.687 170.927 123.24 170.62 122.8C170.327 122.36 170.18 121.887 170.18 121.38C170.18 120.78 170.34 120.26 170.66 119.82C170.993 119.38 171.447 119.033 172.02 118.78C172.593 118.527 173.24 118.4 173.96 118.4C174.48 118.4 174.953 118.453 175.38 118.56C175.807 118.667 176.193 118.8 176.54 118.96V121.28H175.9C175.833 120.933 175.713 120.607 175.54 120.3C175.367 119.98 175.127 119.72 174.82 119.52C174.513 119.307 174.113 119.2 173.62 119.2C173.033 119.2 172.58 119.353 172.26 119.66C171.94 119.967 171.78 120.34 171.78 120.78C171.78 121.127 171.893 121.44 172.12 121.72C172.36 122 172.74 122.28 173.26 122.56L174.58 123.24C175.327 123.613 175.887 124 176.26 124.4C176.647 124.8 176.84 125.347 176.84 126.04C176.84 126.72 176.66 127.293 176.3 127.76C175.94 128.227 175.467 128.587 174.88 128.84C174.307 129.08 173.693 129.2 173.04 129.2ZM182.25 129.2C181.423 129.2 180.763 128.987 180.27 128.56C179.79 128.133 179.55 127.44 179.55 126.48V119.86H178.29V119.18C179.29 118.62 180.09 117.867 180.69 116.92H181.37V118.56V119.14V125.9C181.37 126.42 181.456 126.813 181.63 127.08C181.803 127.347 182.036 127.527 182.33 127.62C182.636 127.7 182.97 127.74 183.33 127.74C183.743 127.74 184.123 127.68 184.47 127.56C184.816 127.427 185.13 127.28 185.41 127.12L185.77 127.54C185.343 127.98 184.83 128.367 184.23 128.7C183.63 129.033 182.97 129.2 182.25 129.2ZM180.49 119.86V118.6H185.55V118.96L185.03 119.86H180.49ZM188.978 129.2C188.378 129.2 187.905 129.1 187.558 128.9C187.212 128.7 186.965 128.447 186.818 128.14C186.672 127.833 186.598 127.527 186.598 127.22C186.598 126.753 186.758 126.287 187.078 125.82C187.412 125.353 187.952 124.893 188.698 124.44C189.458 123.973 190.478 123.513 191.758 123.06L192.258 122.88L192.318 121.02C192.332 120.527 192.178 120.12 191.858 119.8C191.538 119.467 191.098 119.3 190.538 119.3C190.072 119.3 189.672 119.453 189.338 119.76C189.018 120.053 188.785 120.513 188.638 121.14C188.612 121.273 188.465 121.4 188.198 121.52C187.945 121.64 187.612 121.7 187.198 121.7C186.972 121.7 186.798 121.673 186.678 121.62C186.558 121.553 186.525 121.427 186.578 121.24C186.792 120.72 187.145 120.247 187.638 119.82C188.132 119.393 188.692 119.053 189.318 118.8C189.945 118.533 190.565 118.4 191.178 118.4C192.045 118.4 192.752 118.607 193.298 119.02C193.858 119.433 194.125 120.013 194.098 120.76L193.898 126.82C193.885 127.34 194.012 127.673 194.278 127.82C194.558 127.967 195.085 128.067 195.858 128.12V128.62L195.158 128.8C194.732 128.92 194.392 129.007 194.138 129.06C193.898 129.113 193.712 129.14 193.578 129.14C193.218 129.14 192.945 129.06 192.758 128.9C192.585 128.74 192.458 128.553 192.378 128.34C192.312 128.127 192.265 127.953 192.238 127.82H192.078C191.505 128.38 190.972 128.753 190.478 128.94C189.985 129.113 189.485 129.2 188.978 129.2ZM190.078 127.84C190.558 127.84 190.952 127.767 191.258 127.62C191.578 127.46 191.865 127.293 192.118 127.12L192.238 123.64L192.078 123.7C191.105 124.033 190.365 124.38 189.858 124.74C189.365 125.087 189.025 125.427 188.838 125.76C188.665 126.08 188.578 126.367 188.578 126.62C188.578 127.433 189.078 127.84 190.078 127.84ZM200.353 134.14C199.219 134.14 198.306 133.913 197.613 133.46C196.933 133.007 196.593 132.42 196.593 131.7C196.593 131.42 196.666 131.1 196.813 130.74C196.973 130.393 197.279 129.993 197.733 129.54L198.833 128.44L199.653 128.56C199.186 129.093 198.826 129.527 198.573 129.86C198.333 130.193 198.213 130.553 198.213 130.94C198.213 131.54 198.493 131.993 199.053 132.3C199.613 132.607 200.373 132.76 201.333 132.76C202.479 132.76 203.373 132.547 204.013 132.12C204.653 131.693 204.973 131.133 204.973 130.44C204.973 130 204.826 129.68 204.533 129.48C204.239 129.28 203.719 129.153 202.973 129.1L199.233 128.82C198.566 128.767 198.033 128.613 197.633 128.36C197.246 128.093 197.053 127.753 197.053 127.34C197.053 126.993 197.173 126.707 197.413 126.48C197.653 126.253 197.959 125.967 198.333 125.62L198.953 125.02H199.853L199.253 125.7C199.039 125.927 198.899 126.093 198.833 126.2C198.779 126.293 198.753 126.393 198.753 126.5C198.753 126.673 198.826 126.813 198.973 126.92C199.119 127.013 199.366 127.073 199.713 127.1L203.473 127.42C205.179 127.553 206.033 128.32 206.033 129.72C206.033 130.547 205.773 131.293 205.253 131.96C204.746 132.627 204.059 133.153 203.193 133.54C202.339 133.94 201.393 134.14 200.353 134.14ZM200.753 125.48C199.993 125.48 199.319 125.333 198.733 125.04C198.146 124.733 197.686 124.313 197.353 123.78C197.019 123.247 196.853 122.633 196.853 121.94C196.853 121.26 197.019 120.653 197.353 120.12C197.699 119.587 198.166 119.167 198.753 118.86C199.353 118.553 200.033 118.4 200.793 118.4L201.693 118.56C202.573 118.707 203.293 119.08 203.853 119.68C204.413 120.267 204.693 121.007 204.693 121.9C204.693 122.58 204.519 123.193 204.173 123.74C203.839 124.273 203.373 124.7 202.773 125.02C202.186 125.327 201.513 125.48 200.753 125.48ZM200.953 124.64C201.579 124.64 202.066 124.433 202.413 124.02C202.759 123.593 202.933 122.993 202.933 122.22C202.933 121.647 202.839 121.14 202.653 120.7C202.466 120.247 202.199 119.893 201.853 119.64C201.506 119.373 201.086 119.24 200.593 119.24C199.966 119.24 199.479 119.453 199.133 119.88C198.786 120.293 198.613 120.893 198.613 121.68C198.613 122.24 198.699 122.747 198.873 123.2C199.059 123.64 199.326 123.993 199.673 124.26C200.033 124.513 200.459 124.64 200.953 124.64ZM200.793 118.76V118.4L205.693 117.46H206.133V118.76H200.793ZM206.864 129V128.34L207.404 128.26C207.831 128.193 208.111 128.073 208.244 127.9C208.391 127.727 208.464 127.433 208.464 127.02V121.18C208.464 120.727 208.351 120.42 208.124 120.26C207.911 120.1 207.504 119.987 206.904 119.92V119.36L209.984 118.48H210.264V127.02C210.264 127.433 210.331 127.727 210.464 127.9C210.611 128.073 210.898 128.193 211.324 128.26L211.864 128.34V129H206.864ZM209.164 116.94C208.831 116.94 208.551 116.833 208.324 116.62C208.098 116.393 207.984 116.107 207.984 115.76C207.984 115.413 208.098 115.133 208.324 114.92C208.551 114.707 208.831 114.6 209.164 114.6C209.484 114.6 209.758 114.707 209.984 114.92C210.211 115.133 210.324 115.413 210.324 115.76C210.324 116.107 210.211 116.393 209.984 116.62C209.758 116.833 209.484 116.94 209.164 116.94ZM212.802 129V128.34L213.342 128.26C213.768 128.193 214.048 128.073 214.182 127.9C214.328 127.727 214.402 127.433 214.402 127.02V121.18C214.402 120.727 214.288 120.42 214.062 120.26C213.848 120.1 213.442 119.987 212.842 119.92V119.36L215.862 118.48H216.142V119.94H216.262C216.902 119.38 217.495 118.987 218.042 118.76C218.588 118.52 219.228 118.4 219.962 118.4C220.908 118.4 221.648 118.64 222.182 119.12C222.728 119.587 223.002 120.253 223.002 121.12V127.02C223.002 127.433 223.068 127.727 223.202 127.9C223.348 128.073 223.635 128.193 224.062 128.26L224.602 128.34V129H219.602V128.34L220.142 128.26C220.568 128.193 220.848 128.073 220.982 127.9C221.128 127.727 221.202 127.433 221.202 127.02V121.78C221.202 121.273 221.108 120.873 220.922 120.58C220.735 120.273 220.468 120.053 220.122 119.92C219.788 119.773 219.368 119.7 218.862 119.7C218.328 119.7 217.855 119.787 217.442 119.96C217.042 120.133 216.628 120.4 216.202 120.76V127.02C216.202 127.433 216.268 127.727 216.402 127.9C216.548 128.073 216.835 128.193 217.262 128.26L217.802 128.34V129H212.802ZM229.318 134.14C228.184 134.14 227.271 133.913 226.578 133.46C225.898 133.007 225.558 132.42 225.558 131.7C225.558 131.42 225.631 131.1 225.778 130.74C225.938 130.393 226.244 129.993 226.698 129.54L227.798 128.44L228.618 128.56C228.151 129.093 227.791 129.527 227.538 129.86C227.298 130.193 227.178 130.553 227.178 130.94C227.178 131.54 227.458 131.993 228.018 132.3C228.578 132.607 229.338 132.76 230.298 132.76C231.444 132.76 232.338 132.547 232.978 132.12C233.618 131.693 233.938 131.133 233.938 130.44C233.938 130 233.791 129.68 233.498 129.48C233.204 129.28 232.684 129.153 231.938 129.1L228.198 128.82C227.531 128.767 226.998 128.613 226.598 128.36C226.211 128.093 226.018 127.753 226.018 127.34C226.018 126.993 226.138 126.707 226.378 126.48C226.618 126.253 226.924 125.967 227.298 125.62L227.918 125.02H228.818L228.218 125.7C228.004 125.927 227.864 126.093 227.798 126.2C227.744 126.293 227.718 126.393 227.718 126.5C227.718 126.673 227.791 126.813 227.938 126.92C228.084 127.013 228.331 127.073 228.678 127.1L232.438 127.42C234.144 127.553 234.998 128.32 234.998 129.72C234.998 130.547 234.738 131.293 234.218 131.96C233.711 132.627 233.024 133.153 232.158 133.54C231.304 133.94 230.358 134.14 229.318 134.14ZM229.718 125.48C228.958 125.48 228.284 125.333 227.698 125.04C227.111 124.733 226.651 124.313 226.318 123.78C225.984 123.247 225.818 122.633 225.818 121.94C225.818 121.26 225.984 120.653 226.318 120.12C226.664 119.587 227.131 119.167 227.718 118.86C228.318 118.553 228.998 118.4 229.758 118.4L230.658 118.56C231.538 118.707 232.258 119.08 232.818 119.68C233.378 120.267 233.658 121.007 233.658 121.9C233.658 122.58 233.484 123.193 233.138 123.74C232.804 124.273 232.338 124.7 231.738 125.02C231.151 125.327 230.478 125.48 229.718 125.48ZM229.918 124.64C230.544 124.64 231.031 124.433 231.378 124.02C231.724 123.593 231.898 122.993 231.898 122.22C231.898 121.647 231.804 121.14 231.618 120.7C231.431 120.247 231.164 119.893 230.817 119.64C230.471 119.373 230.051 119.24 229.558 119.24C228.931 119.24 228.444 119.453 228.098 119.88C227.751 120.293 227.577 120.893 227.577 121.68C227.577 122.24 227.664 122.747 227.838 123.2C228.024 123.64 228.291 123.993 228.638 124.26C228.998 124.513 229.424 124.64 229.918 124.64ZM229.758 118.76V118.4L234.658 117.46H235.098V118.76H229.758Z" fill="black"/>
<path d="M63.68 214V213.34L64.38 213.28C64.9 213.24 65.26 213.12 65.46 212.92C65.66 212.72 65.76 212.387 65.76 211.92V202.08C65.76 201.613 65.66 201.28 65.46 201.08C65.26 200.88 64.9 200.76 64.38 200.72L63.68 200.66V200H70.18C71.8467 200 73.2667 200.26 74.44 200.78C75.6133 201.3 76.5133 202.067 77.14 203.08C77.7667 204.08 78.08 205.32 78.08 206.8C78.08 208.28 77.7533 209.56 77.1 210.64C76.46 211.707 75.5533 212.533 74.38 213.12C73.2067 213.707 71.8267 214 70.24 214H63.68ZM70.36 213.14C72.12 213.14 73.5067 212.647 74.52 211.66C75.5467 210.66 76.06 209.227 76.06 207.36C76.06 206.027 75.8 204.873 75.28 203.9C74.7733 202.913 74.0667 202.153 73.16 201.62C72.2533 201.073 71.2267 200.8 70.08 200.8C69.7067 200.8 69.3333 200.813 68.96 200.84C68.5867 200.853 68.1467 200.88 67.64 200.92V211.88C67.64 212.227 67.7133 212.493 67.86 212.68C68.0067 212.853 68.2733 212.973 68.66 213.04C69.06 213.107 69.6267 213.14 70.36 213.14ZM82.2166 214.2C81.6166 214.2 81.1432 214.1 80.7966 213.9C80.4499 213.7 80.2032 213.447 80.0566 213.14C79.9099 212.833 79.8366 212.527 79.8366 212.22C79.8366 211.753 79.9966 211.287 80.3166 210.82C80.6499 210.353 81.1899 209.893 81.9366 209.44C82.6966 208.973 83.7166 208.513 84.9966 208.06L85.4966 207.88L85.5566 206.02C85.5699 205.527 85.4166 205.12 85.0966 204.8C84.7766 204.467 84.3366 204.3 83.7766 204.3C83.3099 204.3 82.9099 204.453 82.5766 204.76C82.2566 205.053 82.0232 205.513 81.8766 206.14C81.8499 206.273 81.7032 206.4 81.4366 206.52C81.1832 206.64 80.8499 206.7 80.4366 206.7C80.2099 206.7 80.0366 206.673 79.9166 206.62C79.7966 206.553 79.7632 206.427 79.8166 206.24C80.0299 205.72 80.3832 205.247 80.8766 204.82C81.3699 204.393 81.9299 204.053 82.5566 203.8C83.1832 203.533 83.8032 203.4 84.4166 203.4C85.2832 203.4 85.9899 203.607 86.5366 204.02C87.0966 204.433 87.3632 205.013 87.3366 205.76L87.1366 211.82C87.1232 212.34 87.2499 212.673 87.5166 212.82C87.7966 212.967 88.3232 213.067 89.0966 213.12V213.62L88.3966 213.8C87.9699 213.92 87.6299 214.007 87.3766 214.06C87.1366 214.113 86.9499 214.14 86.8166 214.14C86.4566 214.14 86.1832 214.06 85.9966 213.9C85.8232 213.74 85.6966 213.553 85.6166 213.34C85.5499 213.127 85.5032 212.953 85.4766 212.82H85.3166C84.7432 213.38 84.2099 213.753 83.7166 213.94C83.2232 214.113 82.7232 214.2 82.2166 214.2ZM83.3166 212.84C83.7966 212.84 84.1899 212.767 84.4966 212.62C84.8166 212.46 85.1032 212.293 85.3566 212.12L85.4766 208.64L85.3166 208.7C84.3432 209.033 83.6032 209.38 83.0966 209.74C82.6032 210.087 82.2632 210.427 82.0766 210.76C81.9032 211.08 81.8166 211.367 81.8166 211.62C81.8166 212.433 82.3166 212.84 83.3166 212.84ZM93.6909 214.2C92.8643 214.2 92.2043 213.987 91.7109 213.56C91.2309 213.133 90.9909 212.44 90.9909 211.48V204.86H89.7309V204.18C90.7309 203.62 91.5309 202.867 92.1309 201.92H92.8109V203.56V204.14V210.9C92.8109 211.42 92.8976 211.813 93.0709 212.08C93.2443 212.347 93.4776 212.527 93.7709 212.62C94.0776 212.7 94.4109 212.74 94.7709 212.74C95.1843 212.74 95.5643 212.68 95.9109 212.56C96.2576 212.427 96.5709 212.28 96.8509 212.12L97.2109 212.54C96.7843 212.98 96.2709 213.367 95.6709 213.7C95.0709 214.033 94.4109 214.2 93.6909 214.2ZM91.9309 204.86V203.6H96.9909V203.96L96.4709 204.86H91.9309ZM100.42 214.2C99.8197 214.2 99.3464 214.1 98.9997 213.9C98.653 213.7 98.4064 213.447 98.2597 213.14C98.113 212.833 98.0397 212.527 98.0397 212.22C98.0397 211.753 98.1997 211.287 98.5197 210.82C98.853 210.353 99.393 209.893 100.14 209.44C100.9 208.973 101.92 208.513 103.2 208.06L103.7 207.88L103.76 206.02C103.773 205.527 103.62 205.12 103.3 204.8C102.98 204.467 102.54 204.3 101.98 204.3C101.513 204.3 101.113 204.453 100.78 204.76C100.46 205.053 100.226 205.513 100.08 206.14C100.053 206.273 99.9064 206.4 99.6397 206.52C99.3864 206.64 99.053 206.7 98.6397 206.7C98.413 206.7 98.2397 206.673 98.1197 206.62C97.9997 206.553 97.9664 206.427 98.0197 206.24C98.233 205.72 98.5864 205.247 99.0797 204.82C99.573 204.393 100.133 204.053 100.76 203.8C101.386 203.533 102.006 203.4 102.62 203.4C103.486 203.4 104.193 203.607 104.74 204.02C105.3 204.433 105.566 205.013 105.54 205.76L105.34 211.82C105.326 212.34 105.453 212.673 105.72 212.82C106 212.967 106.526 213.067 107.3 213.12V213.62L106.6 213.8C106.173 213.92 105.833 214.007 105.58 214.06C105.34 214.113 105.153 214.14 105.02 214.14C104.66 214.14 104.386 214.06 104.2 213.9C104.026 213.74 103.9 213.553 103.82 213.34C103.753 213.127 103.706 212.953 103.68 212.82H103.52C102.946 213.38 102.413 213.753 101.92 213.94C101.426 214.113 100.926 214.2 100.42 214.2ZM101.52 212.84C102 212.84 102.393 212.767 102.7 212.62C103.02 212.46 103.306 212.293 103.56 212.12L103.68 208.64L103.52 208.7C102.546 209.033 101.806 209.38 101.3 209.74C100.806 210.087 100.466 210.427 100.28 210.76C100.106 211.08 100.02 211.367 100.02 211.62C100.02 212.433 100.52 212.84 101.52 212.84ZM123.487 214L116.747 207.12C116.333 206.68 115.947 206.267 115.587 205.88C115.227 205.493 114.933 205.087 114.707 204.66C114.493 204.233 114.387 203.76 114.387 203.24C114.387 202.547 114.553 201.947 114.887 201.44C115.233 200.92 115.707 200.52 116.307 200.24C116.907 199.947 117.6 199.8 118.387 199.8C118.92 199.8 119.453 199.9 119.987 200.1C120.52 200.3 120.967 200.607 121.327 201.02C121.687 201.42 121.867 201.933 121.867 202.56C121.867 203.147 121.707 203.667 121.387 204.12C121.067 204.573 120.627 204.98 120.067 205.34C119.52 205.7 118.88 206.053 118.147 206.4L117.627 206C118.333 205.6 118.927 205.14 119.407 204.62C119.887 204.087 120.127 203.433 120.127 202.66C120.127 202.1 119.967 201.62 119.647 201.22C119.327 200.82 118.82 200.62 118.127 200.62C117.46 200.62 116.933 200.813 116.547 201.2C116.173 201.587 115.987 202.087 115.987 202.7C115.987 203.313 116.173 203.853 116.547 204.32C116.92 204.787 117.393 205.32 117.967 205.92L123.807 211.9C124.14 212.233 124.427 212.5 124.667 212.7C124.907 212.9 125.167 213.047 125.447 213.14C125.727 213.233 126.08 213.3 126.507 213.34V214H123.487ZM117.347 214.2C116.347 214.2 115.507 214.04 114.827 213.72C114.16 213.387 113.653 212.947 113.307 212.4C112.973 211.84 112.807 211.213 112.807 210.52C112.807 209.493 113.147 208.627 113.827 207.92C114.52 207.213 115.393 206.693 116.447 206.36L116.987 206.68C116.267 207.053 115.68 207.507 115.227 208.04C114.773 208.573 114.547 209.28 114.547 210.16C114.547 210.733 114.687 211.267 114.967 211.76C115.247 212.24 115.633 212.627 116.127 212.92C116.633 213.213 117.207 213.36 117.847 213.36C118.247 213.36 118.653 213.3 119.067 213.18C119.493 213.06 119.913 212.84 120.327 212.52C120.753 212.187 121.167 211.713 121.567 211.1C121.98 210.487 122.373 209.68 122.747 208.68C123 208.013 123.1 207.513 123.047 207.18C123.007 206.833 122.713 206.647 122.167 206.62L121.947 206.6V205.94H126.167V206.6C125.74 206.627 125.38 206.693 125.087 206.8C124.793 206.907 124.533 207.107 124.307 207.4C124.08 207.68 123.853 208.12 123.627 208.72C123.2 209.853 122.747 210.78 122.267 211.5C121.787 212.207 121.287 212.76 120.767 213.16C120.247 213.547 119.7 213.82 119.127 213.98C118.553 214.127 117.96 214.2 117.347 214.2ZM133.799 214.2C133.199 214.2 132.725 214.1 132.379 213.9C132.032 213.7 131.785 213.447 131.639 213.14C131.492 212.833 131.419 212.527 131.419 212.22C131.419 211.753 131.579 211.287 131.899 210.82C132.232 210.353 132.772 209.893 133.519 209.44C134.279 208.973 135.299 208.513 136.579 208.06L137.079 207.88L137.139 206.02C137.152 205.527 136.999 205.12 136.679 204.8C136.359 204.467 135.919 204.3 135.359 204.3C134.892 204.3 134.492 204.453 134.159 204.76C133.839 205.053 133.605 205.513 133.459 206.14C133.432 206.273 133.285 206.4 133.019 206.52C132.765 206.64 132.432 206.7 132.019 206.7C131.792 206.7 131.619 206.673 131.499 206.62C131.379 206.553 131.345 206.427 131.399 206.24C131.612 205.72 131.965 205.247 132.459 204.82C132.952 204.393 133.512 204.053 134.139 203.8C134.765 203.533 135.385 203.4 135.999 203.4C136.865 203.4 137.572 203.607 138.119 204.02C138.679 204.433 138.945 205.013 138.919 205.76L138.719 211.82C138.705 212.34 138.832 212.673 139.099 212.82C139.379 212.967 139.905 213.067 140.679 213.12V213.62L139.979 213.8C139.552 213.92 139.212 214.007 138.959 214.06C138.719 214.113 138.532 214.14 138.399 214.14C138.039 214.14 137.765 214.06 137.579 213.9C137.405 213.74 137.279 213.553 137.199 213.34C137.132 213.127 137.085 212.953 137.059 212.82H136.899C136.325 213.38 135.792 213.753 135.299 213.94C134.805 214.113 134.305 214.2 133.799 214.2ZM134.899 212.84C135.379 212.84 135.772 212.767 136.079 212.62C136.399 212.46 136.685 212.293 136.939 212.12L137.059 208.64L136.899 208.7C135.925 209.033 135.185 209.38 134.679 209.74C134.185 210.087 133.845 210.427 133.659 210.76C133.485 211.08 133.399 211.367 133.399 211.62C133.399 212.433 133.899 212.84 134.899 212.84ZM141.333 214V213.34L141.873 213.26C142.3 213.193 142.58 213.08 142.713 212.92C142.86 212.747 142.933 212.447 142.933 212.02V206.18C142.933 205.74 142.826 205.44 142.613 205.28C142.4 205.107 141.986 204.987 141.373 204.92V204.36L144.393 203.48H144.673V205.08H144.853C145.173 204.627 145.573 204.24 146.053 203.92C146.533 203.6 147.1 203.44 147.753 203.44C148.233 203.44 148.593 203.54 148.833 203.74C149.086 203.927 149.213 204.187 149.213 204.52C149.213 204.747 149.126 204.947 148.953 205.12C148.78 205.293 148.58 205.413 148.353 205.48C148.126 205.533 147.906 205.5 147.693 205.38L146.793 204.86C146.62 204.753 146.42 204.753 146.193 204.86C145.966 204.967 145.746 205.113 145.533 205.3C145.32 205.487 145.14 205.673 144.993 205.86C144.846 206.047 144.76 206.173 144.733 206.24V212.02C144.733 212.447 144.813 212.747 144.973 212.92C145.133 213.08 145.453 213.187 145.933 213.24L146.733 213.34V214H141.333ZM153.789 214.2C152.962 214.2 152.302 213.987 151.809 213.56C151.329 213.133 151.089 212.44 151.089 211.48V204.86H149.829V204.18C150.829 203.62 151.629 202.867 152.229 201.92H152.909V203.56V204.14V210.9C152.909 211.42 152.995 211.813 153.169 212.08C153.342 212.347 153.575 212.527 153.869 212.62C154.175 212.7 154.509 212.74 154.869 212.74C155.282 212.74 155.662 212.68 156.009 212.56C156.355 212.427 156.669 212.28 156.949 212.12L157.309 212.54C156.882 212.98 156.369 213.367 155.769 213.7C155.169 214.033 154.509 214.2 153.789 214.2ZM152.029 204.86V203.6H157.089V203.96L156.569 204.86H152.029ZM157.817 214V213.34L158.357 213.26C158.784 213.193 159.064 213.073 159.197 212.9C159.344 212.727 159.417 212.433 159.417 212.02V206.18C159.417 205.727 159.304 205.42 159.077 205.26C158.864 205.1 158.457 204.987 157.857 204.92V204.36L160.937 203.48H161.217V212.02C161.217 212.433 161.284 212.727 161.417 212.9C161.564 213.073 161.851 213.193 162.277 213.26L162.817 213.34V214H157.817ZM160.117 201.94C159.784 201.94 159.504 201.833 159.277 201.62C159.051 201.393 158.937 201.107 158.937 200.76C158.937 200.413 159.051 200.133 159.277 199.92C159.504 199.707 159.784 199.6 160.117 199.6C160.437 199.6 160.711 199.707 160.937 199.92C161.164 200.133 161.277 200.413 161.277 200.76C161.277 201.107 161.164 201.393 160.937 201.62C160.711 201.833 160.437 201.94 160.117 201.94ZM163.875 214V213.34L164.415 213.26C164.828 213.193 165.108 213.087 165.255 212.94C165.402 212.793 165.475 212.533 165.475 212.16V204.86H163.695V204.48L164.195 203.6H165.475V203.34C165.475 202.607 165.622 201.913 165.915 201.26C166.222 200.607 166.628 200.027 167.135 199.52C167.655 199.013 168.228 198.62 168.855 198.34C169.495 198.06 170.148 197.92 170.815 197.92C171.335 197.92 171.802 198.02 172.215 198.22C172.642 198.42 172.855 198.687 172.855 199.02C172.855 199.26 172.728 199.467 172.475 199.64C172.235 199.813 171.982 199.84 171.715 199.72L170.215 199.02C170.055 198.953 169.902 198.92 169.755 198.92C169.422 198.92 169.062 199.073 168.675 199.38C168.288 199.687 167.955 200.12 167.675 200.68C167.408 201.227 167.275 201.867 167.275 202.6V203.6H170.675V203.96L170.155 204.86H167.275V211.9C167.275 212.353 167.362 212.68 167.535 212.88C167.722 213.08 168.055 213.2 168.535 213.24L169.275 213.34V214H163.875ZM173.701 214.2C173.101 214.2 172.628 214.1 172.281 213.9C171.934 213.7 171.688 213.447 171.541 213.14C171.394 212.833 171.321 212.527 171.321 212.22C171.321 211.753 171.481 211.287 171.801 210.82C172.134 210.353 172.674 209.893 173.421 209.44C174.181 208.973 175.201 208.513 176.481 208.06L176.981 207.88L177.041 206.02C177.054 205.527 176.901 205.12 176.581 204.8C176.261 204.467 175.821 204.3 175.261 204.3C174.794 204.3 174.394 204.453 174.061 204.76C173.741 205.053 173.508 205.513 173.361 206.14C173.334 206.273 173.188 206.4 172.921 206.52C172.668 206.64 172.334 206.7 171.921 206.7C171.694 206.7 171.521 206.673 171.401 206.62C171.281 206.553 171.248 206.427 171.301 206.24C171.514 205.72 171.868 205.247 172.361 204.82C172.854 204.393 173.414 204.053 174.041 203.8C174.668 203.533 175.288 203.4 175.901 203.4C176.768 203.4 177.474 203.607 178.021 204.02C178.581 204.433 178.848 205.013 178.821 205.76L178.621 211.82C178.608 212.34 178.734 212.673 179.001 212.82C179.281 212.967 179.808 213.067 180.581 213.12V213.62L179.881 213.8C179.454 213.92 179.114 214.007 178.861 214.06C178.621 214.113 178.434 214.14 178.301 214.14C177.941 214.14 177.668 214.06 177.481 213.9C177.308 213.74 177.181 213.553 177.101 213.34C177.034 213.127 176.988 212.953 176.961 212.82H176.801C176.228 213.38 175.694 213.753 175.201 213.94C174.708 214.113 174.208 214.2 173.701 214.2ZM174.801 212.84C175.281 212.84 175.674 212.767 175.981 212.62C176.301 212.46 176.588 212.293 176.841 212.12L176.961 208.64L176.801 208.7C175.828 209.033 175.088 209.38 174.581 209.74C174.088 210.087 173.748 210.427 173.561 210.76C173.388 211.08 173.301 211.367 173.301 211.62C173.301 212.433 173.801 212.84 174.801 212.84ZM186.495 214.2C185.522 214.2 184.655 213.973 183.895 213.52C183.149 213.053 182.562 212.427 182.135 211.64C181.709 210.84 181.495 209.94 181.495 208.94C181.495 207.873 181.729 206.927 182.195 206.1C182.675 205.26 183.329 204.6 184.155 204.12C184.982 203.64 185.915 203.4 186.955 203.4C187.649 203.4 188.249 203.493 188.755 203.68C189.275 203.867 189.675 204.093 189.955 204.36C190.249 204.627 190.395 204.88 190.395 205.12C190.395 205.333 190.289 205.513 190.075 205.66C189.862 205.807 189.622 205.9 189.355 205.94C189.102 205.967 188.915 205.927 188.795 205.82L187.575 204.72C187.402 204.56 187.215 204.453 187.015 204.4C186.829 204.333 186.609 204.3 186.355 204.3C185.742 204.3 185.202 204.473 184.735 204.82C184.282 205.167 183.929 205.64 183.675 206.24C183.435 206.827 183.315 207.493 183.315 208.24C183.315 209.12 183.482 209.9 183.815 210.58C184.162 211.26 184.635 211.8 185.235 212.2C185.849 212.587 186.542 212.78 187.315 212.78C187.782 212.78 188.242 212.7 188.695 212.54C189.149 212.38 189.622 212.113 190.115 211.74L190.515 212.12C189.889 212.853 189.249 213.387 188.595 213.72C187.942 214.04 187.242 214.2 186.495 214.2ZM195.527 214.2C194.7 214.2 194.04 213.987 193.547 213.56C193.067 213.133 192.827 212.44 192.827 211.48V204.86H191.567V204.18C192.567 203.62 193.367 202.867 193.967 201.92H194.647V203.56V204.14V210.9C194.647 211.42 194.734 211.813 194.907 212.08C195.08 212.347 195.314 212.527 195.607 212.62C195.914 212.7 196.247 212.74 196.607 212.74C197.02 212.74 197.4 212.68 197.747 212.56C198.094 212.427 198.407 212.28 198.687 212.12L199.047 212.54C198.62 212.98 198.107 213.367 197.507 213.7C196.907 214.033 196.247 214.2 195.527 214.2ZM193.767 204.86V203.6H198.827V203.96L198.307 204.86H193.767ZM203.056 214.2C202.549 214.2 202.029 214.133 201.496 214C200.976 213.88 200.496 213.707 200.056 213.48V210.84H200.716C200.849 211.72 201.149 212.367 201.616 212.78C202.096 213.193 202.662 213.4 203.316 213.4C203.929 213.4 204.409 213.24 204.756 212.92C205.102 212.6 205.276 212.193 205.276 211.7C205.276 211.247 205.136 210.893 204.856 210.64C204.589 210.373 204.222 210.12 203.756 209.88L202.376 209.14C201.522 208.687 200.942 208.24 200.636 207.8C200.342 207.36 200.196 206.887 200.196 206.38C200.196 205.78 200.356 205.26 200.676 204.82C201.009 204.38 201.462 204.033 202.036 203.78C202.609 203.527 203.256 203.4 203.976 203.4C204.496 203.4 204.969 203.453 205.396 203.56C205.822 203.667 206.209 203.8 206.556 203.96V206.28H205.916C205.849 205.933 205.729 205.607 205.556 205.3C205.382 204.98 205.142 204.72 204.836 204.52C204.529 204.307 204.129 204.2 203.636 204.2C203.049 204.2 202.596 204.353 202.276 204.66C201.956 204.967 201.796 205.34 201.796 205.78C201.796 206.127 201.909 206.44 202.136 206.72C202.376 207 202.756 207.28 203.276 207.56L204.596 208.24C205.342 208.613 205.902 209 206.276 209.4C206.662 209.8 206.856 210.347 206.856 211.04C206.856 211.72 206.676 212.293 206.316 212.76C205.956 213.227 205.482 213.587 204.896 213.84C204.322 214.08 203.709 214.2 203.056 214.2ZM212.798 214V213.34L213.338 213.26C213.764 213.193 214.044 213.073 214.178 212.9C214.324 212.727 214.398 212.433 214.398 212.02V206.18C214.398 205.727 214.284 205.42 214.058 205.26C213.844 205.1 213.438 204.987 212.838 204.92V204.36L215.858 203.48H216.138V204.94H216.258C216.884 204.38 217.458 203.987 217.978 203.76C218.511 203.52 219.104 203.4 219.758 203.4C220.384 203.4 220.918 203.533 221.358 203.8C221.811 204.053 222.111 204.453 222.258 205H222.378C223.058 204.413 223.664 204 224.198 203.76C224.731 203.52 225.318 203.4 225.958 203.4C226.491 203.4 226.951 203.487 227.338 203.66C227.738 203.833 228.044 204.1 228.258 204.46C228.484 204.807 228.598 205.273 228.598 205.86V212.02C228.598 212.433 228.664 212.727 228.798 212.9C228.944 213.073 229.231 213.193 229.658 213.26L230.198 213.34V214H225.198V213.34L225.738 213.26C226.164 213.193 226.444 213.073 226.578 212.9C226.724 212.727 226.798 212.433 226.798 212.02V206.58C226.798 206.047 226.718 205.647 226.558 205.38C226.398 205.113 226.184 204.933 225.918 204.84C225.651 204.747 225.344 204.7 224.998 204.7C224.504 204.7 224.058 204.787 223.658 204.96C223.271 205.12 222.851 205.393 222.398 205.78V212.02C222.398 212.433 222.464 212.727 222.598 212.9C222.744 213.073 223.031 213.193 223.458 213.26L223.998 213.34V214H218.998V213.34L219.538 213.26C219.964 213.193 220.244 213.073 220.378 212.9C220.524 212.727 220.598 212.433 220.598 212.02V206.58C220.598 206.047 220.518 205.647 220.358 205.38C220.198 205.113 219.984 204.933 219.718 204.84C219.451 204.747 219.144 204.7 218.798 204.7C218.304 204.7 217.851 204.787 217.438 204.96C217.038 205.133 216.624 205.4 216.198 205.76V212.02C216.198 212.433 216.264 212.727 216.398 212.9C216.544 213.073 216.831 213.193 217.258 213.26L217.798 213.34V214H212.798ZM233.799 214.2C233.199 214.2 232.725 214.1 232.379 213.9C232.032 213.7 231.785 213.447 231.639 213.14C231.492 212.833 231.419 212.527 231.419 212.22C231.419 211.753 231.579 211.287 231.899 210.82C232.232 210.353 232.772 209.893 233.519 209.44C234.279 208.973 235.299 208.513 236.579 208.06L237.079 207.88L237.139 206.02C237.152 205.527 236.999 205.12 236.679 204.8C236.359 204.467 235.919 204.3 235.359 204.3C234.892 204.3 234.492 204.453 234.159 204.76C233.839 205.053 233.605 205.513 233.459 206.14C233.432 206.273 233.285 206.4 233.019 206.52C232.765 206.64 232.432 206.7 232.019 206.7C231.792 206.7 231.619 206.673 231.499 206.62C231.379 206.553 231.345 206.427 231.399 206.24C231.612 205.72 231.965 205.247 232.459 204.82C232.952 204.393 233.512 204.053 234.139 203.8C234.765 203.533 235.385 203.4 235.999 203.4C236.865 203.4 237.572 203.607 238.119 204.02C238.679 204.433 238.945 205.013 238.919 205.76L238.719 211.82C238.705 212.34 238.832 212.673 239.099 212.82C239.379 212.967 239.905 213.067 240.679 213.12V213.62L239.979 213.8C239.552 213.92 239.212 214.007 238.959 214.06C238.719 214.113 238.532 214.14 238.399 214.14C238.039 214.14 237.765 214.06 237.579 213.9C237.405 213.74 237.279 213.553 237.199 213.34C237.132 213.127 237.085 212.953 237.059 212.82H236.899C236.325 213.38 235.792 213.753 235.299 213.94C234.805 214.113 234.305 214.2 233.799 214.2ZM234.899 212.84C235.379 212.84 235.772 212.767 236.079 212.62C236.399 212.46 236.685 212.293 236.939 212.12L237.059 208.64L236.899 208.7C235.925 209.033 235.185 209.38 234.679 209.74C234.185 210.087 233.845 210.427 233.659 210.76C233.485 211.08 233.399 211.367 233.399 211.62C233.399 212.433 233.899 212.84 234.899 212.84ZM241.333 214V213.34L241.873 213.26C242.3 213.193 242.58 213.073 242.713 212.9C242.86 212.727 242.933 212.433 242.933 212.02V206.18C242.933 205.727 242.82 205.42 242.593 205.26C242.38 205.1 241.973 204.987 241.373 204.92V204.36L244.393 203.48H244.673V204.94H244.793C245.433 204.38 246.026 203.987 246.573 203.76C247.12 203.52 247.76 203.4 248.493 203.4C249.44 203.4 250.18 203.64 250.713 204.12C251.26 204.587 251.533 205.253 251.533 206.12V212.02C251.533 212.433 251.6 212.727 251.733 212.9C251.88 213.073 252.166 213.193 252.593 213.26L253.133 213.34V214H248.133V213.34L248.673 213.26C249.1 213.193 249.38 213.073 249.513 212.9C249.66 212.727 249.733 212.433 249.733 212.02V206.78C249.733 206.273 249.64 205.873 249.453 205.58C249.266 205.273 249 205.053 248.653 204.92C248.32 204.773 247.9 204.7 247.393 204.7C246.86 204.7 246.386 204.787 245.973 204.96C245.573 205.133 245.16 205.4 244.733 205.76V212.02C244.733 212.433 244.8 212.727 244.933 212.9C245.08 213.073 245.366 213.193 245.793 213.26L246.333 213.34V214H241.333ZM256.709 214.2C256.109 214.2 255.635 214.1 255.289 213.9C254.942 213.7 254.695 213.447 254.549 213.14C254.402 212.833 254.329 212.527 254.329 212.22C254.329 211.753 254.489 211.287 254.809 210.82C255.142 210.353 255.682 209.893 256.429 209.44C257.189 208.973 258.209 208.513 259.489 208.06L259.989 207.88L260.049 206.02C260.062 205.527 259.909 205.12 259.589 204.8C259.269 204.467 258.829 204.3 258.269 204.3C257.802 204.3 257.402 204.453 257.069 204.76C256.749 205.053 256.515 205.513 256.369 206.14C256.342 206.273 256.195 206.4 255.929 206.52C255.675 206.64 255.342 206.7 254.929 206.7C254.702 206.7 254.529 206.673 254.409 206.62C254.289 206.553 254.255 206.427 254.309 206.24C254.522 205.72 254.875 205.247 255.369 204.82C255.862 204.393 256.422 204.053 257.049 203.8C257.675 203.533 258.295 203.4 258.909 203.4C259.775 203.4 260.482 203.607 261.029 204.02C261.589 204.433 261.855 205.013 261.829 205.76L261.629 211.82C261.615 212.34 261.742 212.673 262.009 212.82C262.289 212.967 262.815 213.067 263.589 213.12V213.62L262.889 213.8C262.462 213.92 262.122 214.007 261.869 214.06C261.629 214.113 261.442 214.14 261.309 214.14C260.949 214.14 260.675 214.06 260.489 213.9C260.315 213.74 260.189 213.553 260.109 213.34C260.042 213.127 259.995 212.953 259.969 212.82H259.809C259.235 213.38 258.702 213.753 258.209 213.94C257.715 214.113 257.215 214.2 256.709 214.2ZM257.809 212.84C258.289 212.84 258.682 212.767 258.989 212.62C259.309 212.46 259.595 212.293 259.849 212.12L259.969 208.64L259.809 208.7C258.835 209.033 258.095 209.38 257.589 209.74C257.095 210.087 256.755 210.427 256.569 210.76C256.395 211.08 256.309 211.367 256.309 211.62C256.309 212.433 256.809 212.84 257.809 212.84ZM268.083 219.14C266.95 219.14 266.036 218.913 265.343 218.46C264.663 218.007 264.323 217.42 264.323 216.7C264.323 216.42 264.396 216.1 264.543 215.74C264.703 215.393 265.01 214.993 265.463 214.54L266.563 213.44L267.383 213.56C266.916 214.093 266.556 214.527 266.303 214.86C266.063 215.193 265.943 215.553 265.943 215.94C265.943 216.54 266.223 216.993 266.783 217.3C267.343 217.607 268.103 217.76 269.063 217.76C270.21 217.76 271.103 217.547 271.743 217.12C272.383 216.693 272.703 216.133 272.703 215.44C272.703 215 272.556 214.68 272.263 214.48C271.97 214.28 271.45 214.153 270.703 214.1L266.963 213.82C266.296 213.767 265.763 213.613 265.363 213.36C264.976 213.093 264.783 212.753 264.783 212.34C264.783 211.993 264.903 211.707 265.143 211.48C265.383 211.253 265.69 210.967 266.063 210.62L266.683 210.02H267.583L266.983 210.7C266.77 210.927 266.63 211.093 266.563 211.2C266.51 211.293 266.483 211.393 266.483 211.5C266.483 211.673 266.556 211.813 266.703 211.92C266.85 212.013 267.096 212.073 267.443 212.1L271.203 212.42C272.91 212.553 273.763 213.32 273.763 214.72C273.763 215.547 273.503 216.293 272.983 216.96C272.476 217.627 271.79 218.153 270.923 218.54C270.07 218.94 269.123 219.14 268.083 219.14ZM268.483 210.48C267.723 210.48 267.05 210.333 266.463 210.04C265.876 209.733 265.416 209.313 265.083 208.78C264.75 208.247 264.583 207.633 264.583 206.94C264.583 206.26 264.75 205.653 265.083 205.12C265.43 204.587 265.896 204.167 266.483 203.86C267.083 203.553 267.763 203.4 268.523 203.4L269.423 203.56C270.303 203.707 271.023 204.08 271.583 204.68C272.143 205.267 272.423 206.007 272.423 206.9C272.423 207.58 272.25 208.193 271.903 208.74C271.57 209.273 271.103 209.7 270.503 210.02C269.916 210.327 269.243 210.48 268.483 210.48ZM268.683 209.64C269.31 209.64 269.796 209.433 270.143 209.02C270.49 208.593 270.663 207.993 270.663 207.22C270.663 206.647 270.57 206.14 270.383 205.7C270.196 205.247 269.93 204.893 269.583 204.64C269.236 204.373 268.816 204.24 268.323 204.24C267.696 204.24 267.21 204.453 266.863 204.88C266.516 205.293 266.343 205.893 266.343 206.68C266.343 207.24 266.43 207.747 266.603 208.2C266.79 208.64 267.056 208.993 267.403 209.26C267.763 209.513 268.19 209.64 268.683 209.64ZM268.523 203.76V203.4L273.423 202.46H273.863V203.76H268.523ZM279.639 214.2C278.652 214.2 277.786 213.973 277.039 213.52C276.292 213.053 275.712 212.42 275.299 211.62C274.886 210.82 274.679 209.92 274.679 208.92C274.679 207.853 274.912 206.907 275.379 206.08C275.859 205.253 276.499 204.6 277.299 204.12C278.099 203.64 278.986 203.4 279.959 203.4C280.999 203.4 281.839 203.7 282.479 204.3C283.119 204.9 283.439 205.773 283.439 206.92C283.439 207 283.439 207.087 283.439 207.18C283.439 207.26 283.426 207.373 283.399 207.52L283.359 207.8H276.199V207H281.459C281.499 206.76 281.519 206.533 281.519 206.32C281.519 205.693 281.346 205.193 280.999 204.82C280.666 204.447 280.186 204.26 279.559 204.26C278.639 204.26 277.899 204.62 277.339 205.34C276.779 206.047 276.499 206.987 276.499 208.16C276.499 209.027 276.666 209.807 276.999 210.5C277.332 211.193 277.806 211.74 278.419 212.14C279.032 212.527 279.759 212.72 280.599 212.72C281.052 212.72 281.499 212.647 281.939 212.5C282.379 212.34 282.832 212.087 283.299 211.74L283.699 212.12C283.086 212.853 282.459 213.387 281.819 213.72C281.179 214.04 280.452 214.2 279.639 214.2ZM284.927 214V213.34L285.467 213.26C285.893 213.193 286.173 213.073 286.307 212.9C286.453 212.727 286.527 212.433 286.527 212.02V206.18C286.527 205.727 286.413 205.42 286.187 205.26C285.973 205.1 285.567 204.987 284.967 204.92V204.36L287.987 203.48H288.267V204.94H288.387C289.013 204.38 289.587 203.987 290.107 203.76C290.64 203.52 291.233 203.4 291.887 203.4C292.513 203.4 293.047 203.533 293.487 203.8C293.94 204.053 294.24 204.453 294.387 205H294.507C295.187 204.413 295.793 204 296.327 203.76C296.86 203.52 297.447 203.4 298.087 203.4C298.62 203.4 299.08 203.487 299.467 203.66C299.867 203.833 300.173 204.1 300.387 204.46C300.613 204.807 300.727 205.273 300.727 205.86V212.02C300.727 212.433 300.793 212.727 300.927 212.9C301.073 213.073 301.36 213.193 301.787 213.26L302.327 213.34V214H297.327V213.34L297.867 213.26C298.293 213.193 298.573 213.073 298.707 212.9C298.853 212.727 298.927 212.433 298.927 212.02V206.58C298.927 206.047 298.847 205.647 298.687 205.38C298.527 205.113 298.313 204.933 298.047 204.84C297.78 204.747 297.473 204.7 297.127 204.7C296.633 204.7 296.187 204.787 295.787 204.96C295.4 205.12 294.98 205.393 294.527 205.78V212.02C294.527 212.433 294.593 212.727 294.727 212.9C294.873 213.073 295.16 213.193 295.587 213.26L296.127 213.34V214H291.127V213.34L291.667 213.26C292.093 213.193 292.373 213.073 292.507 212.9C292.653 212.727 292.727 212.433 292.727 212.02V206.58C292.727 206.047 292.647 205.647 292.487 205.38C292.327 205.113 292.113 204.933 291.847 204.84C291.58 204.747 291.273 204.7 290.927 204.7C290.433 204.7 289.98 204.787 289.567 204.96C289.167 205.133 288.753 205.4 288.327 205.76V212.02C288.327 212.433 288.393 212.727 288.527 212.9C288.673 213.073 288.96 213.193 289.387 213.26L289.927 213.34V214H284.927ZM308.448 214.2C307.461 214.2 306.594 213.973 305.848 213.52C305.101 213.053 304.521 212.42 304.108 211.62C303.694 210.82 303.488 209.92 303.488 208.92C303.488 207.853 303.721 206.907 304.188 206.08C304.668 205.253 305.308 204.6 306.108 204.12C306.908 203.64 307.794 203.4 308.768 203.4C309.808 203.4 310.648 203.7 311.288 204.3C311.928 204.9 312.248 205.773 312.248 206.92C312.248 207 312.248 207.087 312.248 207.18C312.248 207.26 312.234 207.373 312.208 207.52L312.168 207.8H305.008V207H310.268C310.308 206.76 310.328 206.533 310.328 206.32C310.328 205.693 310.154 205.193 309.808 204.82C309.474 204.447 308.994 204.26 308.368 204.26C307.448 204.26 306.708 204.62 306.148 205.34C305.588 206.047 305.308 206.987 305.308 208.16C305.308 209.027 305.474 209.807 305.808 210.5C306.141 211.193 306.614 211.74 307.228 212.14C307.841 212.527 308.568 212.72 309.408 212.72C309.861 212.72 310.308 212.647 310.748 212.5C311.188 212.34 311.641 212.087 312.108 211.74L312.508 212.12C311.894 212.853 311.268 213.387 310.628 213.72C309.988 214.04 309.261 214.2 308.448 214.2ZM313.735 214V213.34L314.275 213.26C314.702 213.193 314.982 213.073 315.115 212.9C315.262 212.727 315.335 212.433 315.335 212.02V206.18C315.335 205.727 315.222 205.42 314.995 205.26C314.782 205.1 314.375 204.987 313.775 204.92V204.36L316.795 203.48H317.075V204.94H317.195C317.835 204.38 318.429 203.987 318.975 203.76C319.522 203.52 320.162 203.4 320.895 203.4C321.842 203.4 322.582 203.64 323.115 204.12C323.662 204.587 323.935 205.253 323.935 206.12V212.02C323.935 212.433 324.002 212.727 324.135 212.9C324.282 213.073 324.569 213.193 324.995 213.26L325.535 213.34V214H320.535V213.34L321.075 213.26C321.502 213.193 321.782 213.073 321.915 212.9C322.062 212.727 322.135 212.433 322.135 212.02V206.78C322.135 206.273 322.042 205.873 321.855 205.58C321.669 205.273 321.402 205.053 321.055 204.92C320.722 204.773 320.302 204.7 319.795 204.7C319.262 204.7 318.789 204.787 318.375 204.96C317.975 205.133 317.562 205.4 317.135 205.76V212.02C317.135 212.433 317.202 212.727 317.335 212.9C317.482 213.073 317.769 213.193 318.195 213.26L318.735 213.34V214H313.735ZM330.351 214.2C329.524 214.2 328.864 213.987 328.371 213.56C327.891 213.133 327.651 212.44 327.651 211.48V204.86H326.391V204.18C327.391 203.62 328.191 202.867 328.791 201.92H329.471V203.56V204.14V210.9C329.471 211.42 329.558 211.813 329.731 212.08C329.904 212.347 330.138 212.527 330.431 212.62C330.738 212.7 331.071 212.74 331.431 212.74C331.844 212.74 332.224 212.68 332.571 212.56C332.918 212.427 333.231 212.28 333.511 212.12L333.871 212.54C333.444 212.98 332.931 213.367 332.331 213.7C331.731 214.033 331.071 214.2 330.351 214.2ZM328.591 204.86V203.6H333.651V203.96L333.131 204.86H328.591Z" fill="black"/>
<path d="M276.34 133.94V133.28L276.88 133.2C277.293 133.133 277.573 133.027 277.72 132.88C277.867 132.733 277.94 132.473 277.94 132.1V121.18C277.94 120.727 277.827 120.42 277.6 120.26C277.387 120.1 276.98 119.987 276.38 119.92V119.36L279.4 118.48H279.68V119.94H279.82C280.193 119.567 280.553 119.267 280.9 119.04C281.26 118.813 281.62 118.653 281.98 118.56C282.353 118.453 282.76 118.4 283.2 118.4C284.12 118.4 284.927 118.62 285.62 119.06C286.327 119.5 286.873 120.107 287.26 120.88C287.66 121.64 287.86 122.527 287.86 123.54C287.86 124.633 287.613 125.607 287.12 126.46C286.64 127.313 285.987 127.987 285.16 128.48C284.333 128.96 283.393 129.2 282.34 129.2C281.86 129.2 281.4 129.147 280.96 129.04C280.533 128.933 280.127 128.767 279.74 128.54V131.84C279.74 132.28 279.82 132.6 279.98 132.8C280.153 133 280.493 133.127 281 133.18L281.74 133.28V133.94H276.34ZM282.58 128.34C283.66 128.34 284.493 127.987 285.08 127.28C285.68 126.56 285.98 125.547 285.98 124.24C285.98 123.373 285.827 122.607 285.52 121.94C285.227 121.273 284.807 120.753 284.26 120.38C283.727 119.993 283.093 119.8 282.36 119.8C281.827 119.8 281.34 119.88 280.9 120.04C280.473 120.2 280.087 120.44 279.74 120.76V125.38C279.74 125.98 279.853 126.507 280.08 126.96C280.32 127.4 280.653 127.74 281.08 127.98C281.507 128.22 282.007 128.34 282.58 128.34ZM289.196 129V128.34L289.736 128.26C290.163 128.193 290.443 128.08 290.576 127.92C290.723 127.747 290.796 127.447 290.796 127.02V121.18C290.796 120.74 290.69 120.44 290.476 120.28C290.263 120.107 289.85 119.987 289.236 119.92V119.36L292.256 118.48H292.536V120.08H292.716C293.036 119.627 293.436 119.24 293.916 118.92C294.396 118.6 294.963 118.44 295.616 118.44C296.096 118.44 296.456 118.54 296.696 118.74C296.95 118.927 297.076 119.187 297.076 119.52C297.076 119.747 296.99 119.947 296.816 120.12C296.643 120.293 296.443 120.413 296.216 120.48C295.99 120.533 295.77 120.5 295.556 120.38L294.656 119.86C294.483 119.753 294.283 119.753 294.056 119.86C293.83 119.967 293.61 120.113 293.396 120.3C293.183 120.487 293.003 120.673 292.856 120.86C292.71 121.047 292.623 121.173 292.596 121.24V127.02C292.596 127.447 292.676 127.747 292.836 127.92C292.996 128.08 293.316 128.187 293.796 128.24L294.596 128.34V129H289.196ZM302.825 129.2C301.758 129.2 300.818 128.973 300.005 128.52C299.192 128.067 298.558 127.433 298.105 126.62C297.652 125.807 297.425 124.867 297.425 123.8C297.425 122.76 297.652 121.833 298.105 121.02C298.558 120.207 299.185 119.567 299.985 119.1C300.798 118.633 301.745 118.4 302.825 118.4C303.905 118.4 304.852 118.627 305.665 119.08C306.478 119.533 307.112 120.167 307.565 120.98C308.018 121.78 308.245 122.713 308.245 123.78C308.245 124.82 308.018 125.747 307.565 126.56C307.112 127.373 306.478 128.02 305.665 128.5C304.865 128.967 303.918 129.2 302.825 129.2ZM303.185 128.32C304.105 128.32 304.852 127.987 305.425 127.32C306.012 126.64 306.305 125.64 306.305 124.32C306.305 123.4 306.152 122.56 305.845 121.8C305.552 121.027 305.118 120.413 304.545 119.96C303.985 119.507 303.298 119.28 302.485 119.28C301.565 119.28 300.812 119.62 300.225 120.3C299.652 120.967 299.365 121.967 299.365 123.3C299.365 124.207 299.512 125.047 299.805 125.82C300.112 126.58 300.545 127.187 301.105 127.64C301.678 128.093 302.372 128.32 303.185 128.32ZM314.487 129.2C313.594 129.2 312.794 128.98 312.087 128.54C311.38 128.1 310.827 127.493 310.427 126.72C310.04 125.933 309.847 125.04 309.847 124.04C309.847 122.96 310.08 122 310.547 121.16C311.027 120.307 311.674 119.633 312.487 119.14C313.3 118.647 314.214 118.4 315.227 118.4C315.72 118.4 316.194 118.453 316.647 118.56C317.114 118.667 317.554 118.86 317.967 119.14V115.7C317.967 115.247 317.854 114.94 317.627 114.78C317.414 114.62 317.007 114.507 316.407 114.44V113.88L319.487 113H319.767V126.42C319.767 126.833 319.854 127.14 320.027 127.34C320.214 127.527 320.627 127.653 321.267 127.72L321.367 127.74V128.32L318.307 129.04H318.027V127.66H317.847C317.46 128.06 317.087 128.373 316.727 128.6C316.367 128.827 316.007 128.98 315.647 129.06C315.287 129.153 314.9 129.2 314.487 129.2ZM315.427 127.8C315.907 127.8 316.354 127.727 316.767 127.58C317.194 127.433 317.594 127.173 317.967 126.8V122.16C317.967 121.48 317.827 120.927 317.547 120.5C317.267 120.073 316.907 119.76 316.467 119.56C316.04 119.36 315.58 119.26 315.087 119.26C313.994 119.26 313.16 119.607 312.587 120.3C312.014 120.993 311.727 121.987 311.727 123.28C311.727 124.16 311.88 124.947 312.187 125.64C312.507 126.32 312.94 126.853 313.487 127.24C314.047 127.613 314.694 127.8 315.427 127.8ZM326.563 129.2C325.63 129.2 324.89 128.96 324.343 128.48C323.81 128 323.543 127.333 323.543 126.48V120.54C323.543 120.1 323.43 119.813 323.203 119.68C322.99 119.533 322.616 119.44 322.083 119.4V118.84L325.003 118.44H325.343V125.82C325.343 126.327 325.43 126.733 325.603 127.04C325.79 127.333 326.056 127.553 326.403 127.7C326.763 127.833 327.183 127.9 327.663 127.9C328.183 127.9 328.643 127.813 329.043 127.64C329.456 127.467 329.856 127.18 330.243 126.78V120.54C330.243 120.1 330.13 119.813 329.903 119.68C329.676 119.533 329.27 119.44 328.683 119.4V118.84L331.703 118.44H332.043V126.42C332.043 126.86 332.136 127.173 332.323 127.36C332.523 127.533 332.93 127.653 333.543 127.72L333.643 127.74V128.32L330.583 129.04H330.303V127.66H330.183C329.556 128.207 328.976 128.6 328.443 128.84C327.91 129.08 327.283 129.2 326.563 129.2ZM339.847 129.2C338.874 129.2 338.007 128.973 337.247 128.52C336.5 128.053 335.914 127.427 335.487 126.64C335.06 125.84 334.847 124.94 334.847 123.94C334.847 122.873 335.08 121.927 335.547 121.1C336.027 120.26 336.68 119.6 337.507 119.12C338.334 118.64 339.267 118.4 340.307 118.4C341 118.4 341.6 118.493 342.107 118.68C342.627 118.867 343.027 119.093 343.307 119.36C343.6 119.627 343.747 119.88 343.747 120.12C343.747 120.333 343.64 120.513 343.427 120.66C343.214 120.807 342.974 120.9 342.707 120.94C342.454 120.967 342.267 120.927 342.147 120.82L340.927 119.72C340.754 119.56 340.567 119.453 340.367 119.4C340.18 119.333 339.96 119.3 339.707 119.3C339.094 119.3 338.554 119.473 338.087 119.82C337.634 120.167 337.28 120.64 337.027 121.24C336.787 121.827 336.667 122.493 336.667 123.24C336.667 124.12 336.834 124.9 337.167 125.58C337.514 126.26 337.987 126.8 338.587 127.2C339.2 127.587 339.894 127.78 340.667 127.78C341.134 127.78 341.594 127.7 342.047 127.54C342.5 127.38 342.974 127.113 343.467 126.74L343.867 127.12C343.24 127.853 342.6 128.387 341.947 128.72C341.294 129.04 340.594 129.2 339.847 129.2ZM348.878 129.2C348.052 129.2 347.392 128.987 346.898 128.56C346.418 128.133 346.178 127.44 346.178 126.48V119.86H344.918V119.18C345.918 118.62 346.718 117.867 347.318 116.92H347.998V118.56V119.14V125.9C347.998 126.42 348.085 126.813 348.258 127.08C348.432 127.347 348.665 127.527 348.958 127.62C349.265 127.7 349.598 127.74 349.958 127.74C350.372 127.74 350.752 127.68 351.098 127.56C351.445 127.427 351.758 127.28 352.038 127.12L352.398 127.54C351.972 127.98 351.458 128.367 350.858 128.7C350.258 129.033 349.598 129.2 348.878 129.2ZM347.118 119.86V118.6H352.178V118.96L351.658 119.86H347.118ZM352.907 129V128.34L353.447 128.26C353.874 128.193 354.154 128.073 354.287 127.9C354.434 127.727 354.507 127.433 354.507 127.02V121.18C354.507 120.727 354.394 120.42 354.167 120.26C353.954 120.1 353.547 119.987 352.947 119.92V119.36L356.027 118.48H356.307V127.02C356.307 127.433 356.374 127.727 356.507 127.9C356.654 128.073 356.941 128.193 357.367 128.26L357.907 128.34V129H352.907ZM355.207 116.94C354.874 116.94 354.594 116.833 354.367 116.62C354.141 116.393 354.027 116.107 354.027 115.76C354.027 115.413 354.141 115.133 354.367 114.92C354.594 114.707 354.874 114.6 355.207 114.6C355.527 114.6 355.801 114.707 356.027 114.92C356.254 115.133 356.367 115.413 356.367 115.76C356.367 116.107 356.254 116.393 356.027 116.62C355.801 116.833 355.527 116.94 355.207 116.94ZM364.505 129.2C363.438 129.2 362.498 128.973 361.685 128.52C360.871 128.067 360.238 127.433 359.785 126.62C359.331 125.807 359.105 124.867 359.105 123.8C359.105 122.76 359.331 121.833 359.785 121.02C360.238 120.207 360.865 119.567 361.665 119.1C362.478 118.633 363.425 118.4 364.505 118.4C365.585 118.4 366.531 118.627 367.345 119.08C368.158 119.533 368.791 120.167 369.245 120.98C369.698 121.78 369.925 122.713 369.925 123.78C369.925 124.82 369.698 125.747 369.245 126.56C368.791 127.373 368.158 128.02 367.345 128.5C366.545 128.967 365.598 129.2 364.505 129.2ZM364.865 128.32C365.785 128.32 366.531 127.987 367.105 127.32C367.691 126.64 367.985 125.64 367.985 124.32C367.985 123.4 367.831 122.56 367.525 121.8C367.231 121.027 366.798 120.413 366.225 119.96C365.665 119.507 364.978 119.28 364.165 119.28C363.245 119.28 362.491 119.62 361.905 120.3C361.331 120.967 361.045 121.967 361.045 123.3C361.045 124.207 361.191 125.047 361.485 125.82C361.791 126.58 362.225 127.187 362.785 127.64C363.358 128.093 364.051 128.32 364.865 128.32ZM371.267 129V128.34L371.807 128.26C372.233 128.193 372.513 128.073 372.647 127.9C372.793 127.727 372.867 127.433 372.867 127.02V121.18C372.867 120.727 372.753 120.42 372.527 120.26C372.313 120.1 371.907 119.987 371.307 119.92V119.36L374.327 118.48H374.607V119.94H374.727C375.367 119.38 375.96 118.987 376.507 118.76C377.053 118.52 377.693 118.4 378.427 118.4C379.373 118.4 380.113 118.64 380.647 119.12C381.193 119.587 381.467 120.253 381.467 121.12V127.02C381.467 127.433 381.533 127.727 381.667 127.9C381.813 128.073 382.1 128.193 382.527 128.26L383.067 128.34V129H378.067V128.34L378.607 128.26C379.033 128.193 379.313 128.073 379.447 127.9C379.593 127.727 379.667 127.433 379.667 127.02V121.78C379.667 121.273 379.573 120.873 379.387 120.58C379.2 120.273 378.933 120.053 378.587 119.92C378.253 119.773 377.833 119.7 377.327 119.7C376.793 119.7 376.32 119.787 375.907 119.96C375.507 120.133 375.093 120.4 374.667 120.76V127.02C374.667 127.433 374.733 127.727 374.867 127.9C375.013 128.073 375.3 128.193 375.727 128.26L376.267 128.34V129H371.267Z" fill="black"/>
<path d="M187.293 80.7071C187.683 81.0976 188.317 81.0976 188.707 80.7071L195.071 74.3431C195.462 73.9526 195.462 73.3195 195.071 72.9289C194.681 72.5384 194.047 72.5384 193.657 72.9289L188 78.5858L182.343 72.9289C181.953 72.5384 181.319 72.5384 180.929 72.9289C180.538 73.3195 180.538 73.9526 180.929 74.3431L187.293 80.7071ZM188 59H187V80H188H189V59H188Z" fill="black"/>
<path d="M222.707 58.2929C222.317 57.9024 221.683 57.9024 221.293 58.2929L214.929 64.6569C214.538 65.0474 214.538 65.6805 214.929 66.0711C215.319 66.4616 215.953 66.4616 216.343 66.0711L222 60.4142L227.657 66.0711C228.047 66.4616 228.681 66.4616 229.071 66.0711C229.462 65.6805 229.462 65.0474 229.071 64.6569L222.707 58.2929ZM222 80H223V59H222H221V80H222Z" fill="black"/>
<path d="M52.2929 80.7071C52.6834 81.0976 53.3166 81.0976 53.7071 80.7071L60.0711 74.3431C60.4616 73.9526 60.4616 73.3195 60.0711 72.9289C59.6805 72.5384 59.0474 72.5384 58.6569 72.9289L53 78.5858L47.3431 72.9289C46.9526 72.5384 46.3195 72.5384 45.9289 72.9289C45.5384 73.3195 45.5384 73.9526 45.9289 74.3431L52.2929 80.7071ZM53 59H52V80H53H54V59H53Z" fill="black"/>
<path d="M87.7071 58.2929C87.3166 57.9024 86.6834 57.9024 86.2929 58.2929L79.9289 64.6569C79.5384 65.0474 79.5384 65.6805 79.9289 66.0711C80.3195 66.4616 80.9526 66.4616 81.3431 66.0711L87 60.4142L92.6569 66.0711C93.0474 66.4616 93.6805 66.4616 94.0711 66.0711C94.4616 65.6805 94.4616 65.0474 94.0711 64.6569L87.7071 58.2929ZM87 80H88V59H87H86V80H87Z" fill="black"/>
<path d="M315.293 80.7071C315.683 81.0976 316.317 81.0976 316.707 80.7071L323.071 74.3431C323.462 73.9526 323.462 73.3195 323.071 72.9289C322.681 72.5384 322.047 72.5384 321.657 72.9289L316 78.5858L310.343 72.9289C309.953 72.5384 309.319 72.5384 308.929 72.9289C308.538 73.3195 308.538 73.9526 308.929 74.3431L315.293 80.7071ZM316 59H315V80H316H317V59H316Z" fill="black"/>
<path d="M350.707 58.2929C350.317 57.9024 349.683 57.9024 349.293 58.2929L342.929 64.6569C342.538 65.0474 342.538 65.6805 342.929 66.0711C343.319 66.4616 343.953 66.4616 344.343 66.0711L350 60.4142L355.657 66.0711C356.047 66.4616 356.681 66.4616 357.071 66.0711C357.462 65.6805 357.462 65.0474 357.071 64.6569L350.707 58.2929ZM350 80H351V59H350H349V80H350Z" fill="black"/>
<path d="M52.2929 183.707C52.6834 184.098 53.3166 184.098 53.7071 183.707L60.0711 177.343C60.4616 176.953 60.4616 176.319 60.0711 175.929C59.6805 175.538 59.0474 175.538 58.6569 175.929L53 181.586L47.3431 175.929C46.9526 175.538 46.3195 175.538 45.9289 175.929C45.5384 176.319 45.5384 176.953 45.9289 177.343L52.2929 183.707ZM53 162H52V183H53H54V162H53Z" fill="black"/>
<path d="M87.7071 161.293C87.3166 160.902 86.6834 160.902 86.2929 161.293L79.9289 167.657C79.5384 168.047 79.5384 168.681 79.9289 169.071C80.3195 169.462 80.9526 169.462 81.3431 169.071L87 163.414L92.6569 169.071C93.0474 169.462 93.6805 169.462 94.0711 169.071C94.4616 168.681 94.4616 168.047 94.0711 167.657L87.7071 161.293ZM87 183H88V162H87H86V183H87Z" fill="black"/>
<path d="M183.293 183.707C183.683 184.098 184.317 184.098 184.707 183.707L191.071 177.343C191.462 176.953 191.462 176.319 191.071 175.929C190.681 175.538 190.047 175.538 189.657 175.929L184 181.586L178.343 175.929C177.953 175.538 177.319 175.538 176.929 175.929C176.538 176.319 176.538 176.953 176.929 177.343L183.293 183.707ZM184 162H183V183H184H185V162H184Z" fill="black"/>
<path d="M218.707 161.293C218.317 160.902 217.683 160.902 217.293 161.293L210.929 167.657C210.538 168.047 210.538 168.681 210.929 169.071C211.319 169.462 211.953 169.462 212.343 169.071L218 163.414L223.657 169.071C224.047 169.462 224.681 169.462 225.071 169.071C225.462 168.681 225.462 168.047 225.071 167.657L218.707 161.293ZM218 183H219V162H218H217V183H218Z" fill="black"/>
<path d="M315.293 183.707C315.683 184.098 316.317 184.098 316.707 183.707L323.071 177.343C323.462 176.953 323.462 176.319 323.071 175.929C322.681 175.538 322.047 175.538 321.657 175.929L316 181.586L310.343 175.929C309.953 175.538 309.319 175.538 308.929 175.929C308.538 176.319 308.538 176.953 308.929 177.343L315.293 183.707ZM316 162H315V183H316H317V162H316Z" fill="black"/>
<path d="M350.707 161.293C350.317 160.902 349.683 160.902 349.293 161.293L342.929 167.657C342.538 168.047 342.538 168.681 342.929 169.071C343.319 169.462 343.953 169.462 344.343 169.071L350 163.414L355.657 169.071C356.047 169.462 356.681 169.462 357.071 169.071C357.462 168.681 357.462 168.047 357.071 167.657L350.707 161.293ZM350 183H351V162H350H349V183H350Z" fill="black"/>
</svg>
