<svg width="317" height="84" viewBox="0 0 317 84" fill="none" xmlns="http://www.w3.org/2000/svg">
<path d="M24.1335 49.5682C21.8608 49.5682 19.8544 48.9941 18.1143 47.8459C16.3743 46.6858 15.013 45.0523 14.0305 42.9453C13.0481 40.8265 12.5568 38.3229 12.5568 35.4347C12.5568 32.5701 13.0481 30.0843 14.0305 27.9773C15.013 25.8703 16.3802 24.2427 18.1321 23.0945C19.884 21.9463 21.9081 21.3722 24.2045 21.3722C25.9801 21.3722 27.3828 21.6681 28.4126 22.2599C29.4543 22.84 30.2474 23.5028 30.7919 24.2486C31.3482 24.9825 31.7803 25.5862 32.0881 26.0597H32.4432V12.6364H36.6335V49H32.5852V44.8097H32.0881C31.7803 45.3068 31.3423 45.9342 30.7741 46.6918C30.206 47.4375 29.3951 48.1063 28.3416 48.6982C27.2881 49.2782 25.8854 49.5682 24.1335 49.5682ZM24.7017 45.804C26.3826 45.804 27.803 45.366 28.9631 44.4901C30.1231 43.6023 31.005 42.3771 31.6087 40.8146C32.2124 39.2403 32.5142 37.4233 32.5142 35.3636C32.5142 33.3277 32.2183 31.5462 31.6264 30.0192C31.0346 28.4804 30.1586 27.2848 28.9986 26.4325C27.8385 25.5684 26.4063 25.1364 24.7017 25.1364C22.9261 25.1364 21.4465 25.5921 20.2628 26.5036C19.0909 27.4032 18.209 28.6283 17.6172 30.179C17.0372 31.7178 16.7472 33.446 16.7472 35.3636C16.7472 37.3049 17.0431 39.0687 17.6349 40.6548C18.2386 42.2292 19.1264 43.4839 20.2983 44.419C21.482 45.3423 22.9498 45.804 24.7017 45.804Z" fill="black"/>
<path d="M47.8352 49V21.7273H51.8835V25.8466H52.1676C52.6648 24.4972 53.5644 23.4022 54.8665 22.5618C56.1686 21.7214 57.6364 21.3011 59.2699 21.3011C59.5777 21.3011 59.9624 21.3071 60.424 21.3189C60.8857 21.3307 61.2348 21.3485 61.4716 21.3722V25.6335C61.3295 25.598 61.004 25.5447 60.495 25.4737C59.9979 25.3909 59.4711 25.3494 58.9148 25.3494C57.589 25.3494 56.4053 25.6276 55.3636 26.1839C54.3338 26.7285 53.517 27.486 52.9134 28.4567C52.3215 29.4155 52.0256 30.5104 52.0256 31.7415V49H47.8352ZM73.0572 49L64.7475 21.7273H69.1509L75.0458 42.608H75.3299L81.1538 21.7273H85.6282L91.381 42.5369H91.6651L97.56 21.7273H101.963L93.6538 49H89.5344L83.5685 28.0483H83.1424L77.1765 49H73.0572ZM110.628 21.7273L117.162 32.8778L123.696 21.7273H128.526L119.719 35.3636L128.526 49H123.696L117.162 38.4176L110.628 49H105.799L114.463 35.3636L105.799 21.7273H110.628Z" fill="black"/>
<path d="M225.835 49V21.7273H229.884V25.8466H230.168C230.665 24.4972 231.564 23.4022 232.866 22.5618C234.169 21.7214 235.636 21.3011 237.27 21.3011C237.578 21.3011 237.962 21.3071 238.424 21.3189C238.886 21.3307 239.235 21.3485 239.472 21.3722V25.6335C239.33 25.598 239.004 25.5447 238.495 25.4737C237.998 25.3909 237.471 25.3494 236.915 25.3494C235.589 25.3494 234.405 25.6276 233.364 26.1839C232.334 26.7285 231.517 27.486 230.913 28.4567C230.321 29.4155 230.026 30.5104 230.026 31.7415V49H225.835ZM251.057 49L242.748 21.7273H247.151L253.046 42.608H253.33L259.154 21.7273H263.628L269.381 42.5369H269.665L275.56 21.7273H279.963L271.654 49H267.534L261.569 28.0483H261.142L255.176 49H251.057ZM288.628 21.7273L295.162 32.8778L301.696 21.7273H306.526L297.719 35.3636L306.526 49H301.696L295.162 38.4176L288.628 49H283.799L292.463 35.3636L283.799 21.7273H288.628Z" fill="black"/>
<path d="M136.835 49V21.7273H140.884V25.8466H141.168C141.665 24.4972 142.564 23.4022 143.866 22.5618C145.169 21.7214 146.636 21.3011 148.27 21.3011C148.578 21.3011 148.962 21.3071 149.424 21.3189C149.886 21.3307 150.235 21.3485 150.472 21.3722V25.6335C150.33 25.598 150.004 25.5447 149.495 25.4737C148.998 25.3909 148.471 25.3494 147.915 25.3494C146.589 25.3494 145.405 25.6276 144.364 26.1839C143.334 26.7285 142.517 27.486 141.913 28.4567C141.321 29.4155 141.026 30.5104 141.026 31.7415V49H136.835ZM162.057 49L153.748 21.7273H158.151L164.046 42.608H164.33L170.154 21.7273H174.628L180.381 42.5369H180.665L186.56 21.7273H190.963L182.654 49H178.534L172.569 28.0483H172.142L166.176 49H162.057ZM199.628 21.7273L206.162 32.8778L212.696 21.7273H217.526L208.719 35.3636L217.526 49H212.696L206.162 38.4176L199.628 49H194.799L203.463 35.3636L194.799 21.7273H199.628Z" fill="black"/>
<rect x="7.5" y="5.5" width="35" height="53" rx="17.5" stroke="#3EBC33" stroke-width="3"/>
<rect x="45.5" y="5.5" width="86" height="53" rx="23.5" stroke="#4C33BC" stroke-width="3"/>
<rect x="134.5" y="5.5" width="86" height="53" rx="23.5" stroke="#BC3399" stroke-width="3"/>
<rect x="223.5" y="5.5" width="86" height="53" rx="23.5" stroke="#F2161A" stroke-width="3"/>
<path d="M0.625 79L2.44318 68.0909H4.11932L2.30114 79H0.625ZM3.79261 66.2443C3.46591 66.2443 3.18419 66.133 2.94744 65.9105C2.71544 65.688 2.59943 65.4205 2.59943 65.108C2.59943 64.7955 2.71544 64.5279 2.94744 64.3054C3.18419 64.0829 3.46591 63.9716 3.79261 63.9716C4.11932 63.9716 4.39867 64.0829 4.63068 64.3054C4.86742 64.5279 4.9858 64.7955 4.9858 65.108C4.9858 65.4205 4.86742 65.688 4.63068 65.9105C4.39867 66.133 4.11932 66.2443 3.79261 66.2443ZM14.5188 70.5341L12.9279 70.9602C12.8711 70.7045 12.7717 70.4583 12.6296 70.2216C12.4923 69.9801 12.2792 69.7836 11.9904 69.6321C11.7063 69.4759 11.3181 69.3977 10.8256 69.3977C10.158 69.3977 9.57801 69.5516 9.08558 69.8594C8.59316 70.1624 8.31143 70.5483 8.24041 71.017C8.16939 71.429 8.26409 71.758 8.5245 72.0043C8.78492 72.2505 9.22053 72.4517 9.83132 72.608L11.3938 73.0057C12.3313 73.2472 12.9989 73.6094 13.3967 74.0923C13.7991 74.5705 13.9364 75.1932 13.8086 75.9602C13.7044 76.5852 13.4322 77.1439 12.9918 77.6364C12.5515 78.1288 11.988 78.517 11.3015 78.8011C10.6149 79.0852 9.85026 79.2273 9.00746 79.2273C7.8853 79.2273 6.99988 78.9858 6.35121 78.5028C5.70253 78.0152 5.35689 77.3097 5.31428 76.3864L6.99041 75.9886C7.03303 76.571 7.24136 77.0114 7.61541 77.3097C7.9942 77.6032 8.5245 77.75 9.20632 77.75C9.98757 77.75 10.6386 77.5843 11.1594 77.2528C11.6803 76.9167 11.9762 76.5142 12.0472 76.0455C12.1183 75.6619 12.0425 75.3423 11.82 75.0866C11.6022 74.831 11.2234 74.6392 10.6836 74.5114L8.95064 74.0852C7.98473 73.8437 7.30765 73.4744 6.91939 72.9773C6.53587 72.4801 6.40803 71.8551 6.53587 71.1023C6.64003 70.4867 6.90518 69.9422 7.33132 69.4688C7.76219 68.9953 8.30196 68.6236 8.95064 68.3537C9.60405 68.0838 10.3143 67.9489 11.0813 67.9489C12.1609 67.9489 12.9682 68.1856 13.5032 68.6591C14.0382 69.1278 14.3768 69.7528 14.5188 70.5341ZM28.1214 68.0909L27.8942 69.5114H22.0135L22.2408 68.0909H28.1214ZM22.1839 79L24.2578 66.5852C24.3525 65.9602 24.5798 65.4394 24.9396 65.0227C25.3042 64.6061 25.7375 64.2936 26.2393 64.0852C26.746 63.8769 27.2597 63.7727 27.7805 63.7727C28.1925 63.7727 28.5215 63.8059 28.7678 63.8722C29.0187 63.9384 29.201 64 29.3146 64.0568L28.6044 65.5057C28.5192 65.4773 28.4055 65.4418 28.2635 65.3991C28.1262 65.3565 27.9368 65.3352 27.6953 65.3352C27.1413 65.3352 26.7199 65.4749 26.4311 65.7543C26.1423 66.0336 25.9482 66.4432 25.8487 66.983L23.8601 79H22.1839ZM28.6523 79L30.4705 68.0909H32.1467L30.3285 79H28.6523ZM31.82 66.2443C31.4933 66.2443 31.2115 66.133 30.9748 65.9105C30.7428 65.688 30.6268 65.4205 30.6268 65.108C30.6268 64.7955 30.7428 64.5279 30.9748 64.3054C31.2115 64.0829 31.4933 63.9716 31.82 63.9716C32.1467 63.9716 32.426 64.0829 32.658 64.3054C32.8948 64.5279 33.0131 64.7955 33.0131 65.108C33.0131 65.4205 32.8948 65.688 32.658 65.9105C32.426 66.133 32.1467 66.2443 31.82 66.2443ZM37.4893 64.4545L35.0746 79H33.3984L35.8132 64.4545H37.4893ZM42.69 79.2273C41.6436 79.2273 40.7795 78.9953 40.0977 78.5312C39.4158 78.0625 38.94 77.4091 38.6701 76.571C38.4002 75.7282 38.3576 74.7481 38.5423 73.6307C38.7269 72.5133 39.0939 71.5284 39.6431 70.6761C40.1924 69.8191 40.8765 69.1515 41.6957 68.6733C42.5148 68.1903 43.4144 67.9489 44.3945 67.9489C44.9627 67.9489 45.5096 68.0436 46.0352 68.233C46.5607 68.4223 47.0153 68.7301 47.3988 69.1562C47.7823 69.5777 48.0498 70.1364 48.2013 70.8324C48.3529 71.5284 48.3434 72.3854 48.1729 73.4034L48.0593 74.1136H39.6502L39.8775 72.6648H46.582C46.6909 72.0492 46.6625 71.5 46.4968 71.017C46.3358 70.5341 46.0541 70.1529 45.6516 69.8736C45.2539 69.5942 44.7496 69.4545 44.1388 69.4545C43.5091 69.4545 42.922 69.625 42.3775 69.9659C41.833 70.3021 41.3784 70.7282 41.0138 71.2443C40.6493 71.7557 40.422 72.2765 40.332 72.8068L40.1332 74.0568C39.9911 74.9612 40.0124 75.6809 40.1971 76.2159C40.3865 76.7509 40.7156 77.1368 41.1843 77.3736C41.6531 77.6056 42.2402 77.7216 42.9457 77.7216C43.3955 77.7216 43.8098 77.66 44.1886 77.5369C44.5674 77.4091 44.9059 77.2197 45.2042 76.9688C45.5025 76.7131 45.7534 76.3958 45.957 76.017L47.4911 76.4716C47.2307 77.0208 46.8638 77.5038 46.3903 77.9205C45.9215 78.3324 45.3723 78.6544 44.7425 78.8864C44.1175 79.1136 43.4334 79.2273 42.69 79.2273Z" fill="#3EBC33"/>
<path d="M76.2386 74.5398L77.3182 68.0909H78.9943L77.1761 79H75.5L75.8125 77.1534H75.6989C75.358 77.7074 74.8821 78.1785 74.2713 78.5668C73.6605 78.9503 72.9432 79.142 72.1193 79.142C71.4375 79.142 70.8551 78.9929 70.3722 78.6946C69.8939 78.3916 69.553 77.937 69.3494 77.331C69.1506 76.7202 69.1269 75.9508 69.2784 75.0227L70.4432 68.0909H72.1193L70.983 74.9091C70.8551 75.7045 70.9759 76.339 71.3452 76.8125C71.7145 77.286 72.2472 77.5227 72.9432 77.5227C73.3598 77.5227 73.8002 77.4162 74.2642 77.2031C74.733 76.9901 75.1496 76.6634 75.5142 76.223C75.8835 75.7827 76.125 75.2216 76.2386 74.5398ZM89.3938 70.5341L87.8029 70.9602C87.7461 70.7045 87.6467 70.4583 87.5046 70.2216C87.3673 69.9801 87.1542 69.7836 86.8654 69.6321C86.5813 69.4759 86.1931 69.3977 85.7006 69.3977C85.033 69.3977 84.453 69.5516 83.9606 69.8594C83.4682 70.1624 83.1864 70.5483 83.1154 71.017C83.0444 71.429 83.1391 71.758 83.3995 72.0043C83.6599 72.2505 84.0955 72.4517 84.7063 72.608L86.2688 73.0057C87.2063 73.2472 87.8739 73.6094 88.2717 74.0923C88.6741 74.5705 88.8114 75.1932 88.6836 75.9602C88.5794 76.5852 88.3072 77.1439 87.8668 77.6364C87.4265 78.1288 86.863 78.517 86.1765 78.8011C85.4899 79.0852 84.7253 79.2273 83.8825 79.2273C82.7603 79.2273 81.8749 78.9858 81.2262 78.5028C80.5775 78.0152 80.2319 77.3097 80.1893 76.3864L81.8654 75.9886C81.908 76.571 82.1164 77.0114 82.4904 77.3097C82.8692 77.6032 83.3995 77.75 84.0813 77.75C84.8626 77.75 85.5136 77.5843 86.0344 77.2528C86.5553 76.9167 86.8512 76.5142 86.9222 76.0455C86.9933 75.6619 86.9175 75.3423 86.695 75.0866C86.4772 74.831 86.0984 74.6392 85.5586 74.5114L83.8256 74.0852C82.8597 73.8437 82.1826 73.4744 81.7944 72.9773C81.4109 72.4801 81.283 71.8551 81.4109 71.1023C81.515 70.4867 81.7802 69.9422 82.2063 69.4688C82.6372 68.9953 83.177 68.6236 83.8256 68.3537C84.479 68.0838 85.1893 67.9489 85.9563 67.9489C87.0359 67.9489 87.8432 68.1856 88.3782 68.6591C88.9132 69.1278 89.2518 69.7528 89.3938 70.5341ZM95.2408 79.2273C94.1944 79.2273 93.3303 78.9953 92.6484 78.5312C91.9666 78.0625 91.4908 77.4091 91.2209 76.571C90.951 75.7282 90.9084 74.7481 91.093 73.6307C91.2777 72.5133 91.6446 71.5284 92.1939 70.6761C92.7431 69.8191 93.4273 69.1515 94.2464 68.6733C95.0656 68.1903 95.9652 67.9489 96.9453 67.9489C97.5135 67.9489 98.0604 68.0436 98.5859 68.233C99.1115 68.4223 99.5661 68.7301 99.9496 69.1562C100.333 69.5777 100.601 70.1364 100.752 70.8324C100.904 71.5284 100.894 72.3854 100.724 73.4034L100.61 74.1136H92.201L92.4283 72.6648H99.1328C99.2417 72.0492 99.2133 71.5 99.0476 71.017C98.8866 70.5341 98.6049 70.1529 98.2024 69.8736C97.8047 69.5942 97.3004 69.4545 96.6896 69.4545C96.0599 69.4545 95.4728 69.625 94.9283 69.9659C94.3838 70.3021 93.9292 70.7282 93.5646 71.2443C93.2 71.7557 92.9728 72.2765 92.8828 72.8068L92.6839 74.0568C92.5419 74.9612 92.5632 75.6809 92.7479 76.2159C92.9373 76.7509 93.2663 77.1368 93.7351 77.3736C94.2038 77.6056 94.791 77.7216 95.4964 77.7216C95.9463 77.7216 96.3606 77.66 96.7393 77.5369C97.1181 77.4091 97.4567 77.2197 97.755 76.9688C98.0533 76.7131 98.3042 76.3958 98.5078 76.017L100.042 76.4716C99.7815 77.0208 99.4145 77.5038 98.9411 77.9205C98.4723 78.3324 97.9231 78.6544 97.2933 78.8864C96.6683 79.1136 95.9841 79.2273 95.2408 79.2273ZM102.375 79L104.193 68.0909H105.812L105.528 69.7386H105.642C105.926 69.1989 106.359 68.7609 106.942 68.4247C107.524 68.0885 108.142 67.9205 108.795 67.9205C108.923 67.9205 109.077 67.9228 109.257 67.9276C109.437 67.9276 109.577 67.9347 109.676 67.9489L109.392 69.6534C109.335 69.6392 109.207 69.6179 109.009 69.5895C108.81 69.5563 108.597 69.5398 108.369 69.5398C107.839 69.5398 107.349 69.651 106.899 69.8736C106.449 70.0914 106.073 70.3944 105.77 70.7827C105.467 71.1662 105.273 71.6042 105.188 72.0966L104.051 79H102.375Z" fill="#4C33BC"/>
<path d="M154.347 83.3182C153.532 83.3182 152.85 83.214 152.301 83.0057C151.752 82.8021 151.312 82.5322 150.98 82.196C150.649 81.8646 150.398 81.5095 150.227 81.1307L151.733 80.1932C151.847 80.392 151.993 80.6193 152.173 80.875C152.353 81.1354 152.625 81.3603 152.99 81.5497C153.359 81.7438 153.878 81.8409 154.545 81.8409C155.421 81.8409 156.188 81.6278 156.847 81.2017C157.505 80.7756 157.912 80.108 158.068 79.1989L158.409 76.983H158.267C158.116 77.1818 157.905 77.428 157.635 77.7216C157.365 78.0104 157.003 78.2685 156.548 78.4957C156.094 78.7183 155.511 78.8295 154.801 78.8295C153.916 78.8295 153.158 78.6212 152.528 78.2045C151.899 77.7879 151.446 77.1818 151.172 76.3864C150.902 75.5909 150.862 74.625 151.051 73.4886C151.236 72.3712 151.591 71.3982 152.116 70.5696C152.647 69.7363 153.3 69.0923 154.077 68.6378C154.853 68.1785 155.701 67.9489 156.619 67.9489C157.33 67.9489 157.874 68.0672 158.253 68.304C158.636 68.536 158.916 68.8011 159.091 69.0994C159.266 69.393 159.399 69.6345 159.489 69.8239H159.659L159.943 68.0909H161.562L159.716 79.3125C159.56 80.25 159.221 81.0123 158.7 81.5994C158.179 82.1913 157.54 82.6245 156.783 82.8991C156.025 83.1785 155.213 83.3182 154.347 83.3182ZM155.227 77.3239C155.895 77.3239 156.489 77.17 157.01 76.8622C157.536 76.5545 157.971 76.1117 158.317 75.5341C158.662 74.9564 158.902 74.2652 159.034 73.4602C159.167 72.6742 159.157 71.9806 159.006 71.3793C158.854 70.7779 158.568 70.3068 158.146 69.9659C157.73 69.625 157.183 69.4545 156.506 69.4545C155.791 69.4545 155.173 69.6345 154.652 69.9943C154.136 70.3542 153.717 70.8371 153.395 71.4432C153.073 72.0492 152.85 72.7216 152.727 73.4602C152.604 74.2178 152.609 74.8878 152.741 75.4702C152.874 76.0478 153.144 76.5024 153.551 76.8338C153.963 77.1605 154.522 77.3239 155.227 77.3239ZM162.812 79L164.631 68.0909H166.25L165.966 69.7386H166.08C166.364 69.1989 166.797 68.7609 167.379 68.4247C167.962 68.0885 168.58 67.9205 169.233 67.9205C169.361 67.9205 169.515 67.9228 169.695 67.9276C169.875 67.9276 170.014 67.9347 170.114 67.9489L169.83 69.6534C169.773 69.6392 169.645 69.6179 169.446 69.5895C169.247 69.5563 169.034 69.5398 168.807 69.5398C168.277 69.5398 167.786 69.651 167.337 69.8736C166.887 70.0914 166.51 70.3944 166.207 70.7827C165.904 71.1662 165.71 71.6042 165.625 72.0966L164.489 79H162.812ZM174.464 79.2273C173.46 79.2273 172.62 78.9882 171.942 78.5099C171.265 78.0317 170.787 77.3617 170.508 76.5C170.233 75.6383 170.188 74.6345 170.373 73.4886C170.553 72.3712 170.91 71.3982 171.445 70.5696C171.985 69.7363 172.655 69.0923 173.455 68.6378C174.26 68.1785 175.146 67.9489 176.112 67.9489C177.115 67.9489 177.953 68.1903 178.626 68.6733C179.303 69.1515 179.781 69.8239 180.06 70.6903C180.34 71.5521 180.387 72.5606 180.202 73.7159C180.022 74.8239 179.66 75.7921 179.116 76.6207C178.576 77.4446 177.906 78.0862 177.106 78.5455C176.31 79 175.43 79.2273 174.464 79.2273ZM174.492 77.7216C175.259 77.7216 175.924 77.5251 176.488 77.1321C177.056 76.7391 177.515 76.2206 177.866 75.5767C178.221 74.9328 178.46 74.2367 178.583 73.4886C178.697 72.7784 178.692 72.1179 178.569 71.5071C178.446 70.8916 178.183 70.3968 177.781 70.0227C177.378 69.6439 176.812 69.4545 176.083 69.4545C175.316 69.4545 174.646 69.6534 174.073 70.0511C173.505 70.4489 173.046 70.9721 172.695 71.6207C172.345 72.2694 172.111 72.9678 171.992 73.7159C171.879 74.4261 171.881 75.0866 171.999 75.6974C172.122 76.3035 172.385 76.7936 172.788 77.1676C173.195 77.5369 173.763 77.7216 174.492 77.7216ZM189.508 74.5398L190.588 68.0909H192.264L190.446 79H188.77L189.082 77.1534H188.968C188.627 77.7074 188.152 78.1785 187.541 78.5668C186.93 78.9503 186.213 79.142 185.389 79.142C184.707 79.142 184.125 78.9929 183.642 78.6946C183.163 78.3916 182.823 77.937 182.619 77.331C182.42 76.7202 182.396 75.9508 182.548 75.0227L183.713 68.0909H185.389L184.252 74.9091C184.125 75.7045 184.245 76.339 184.615 76.8125C184.984 77.286 185.517 77.5227 186.213 77.5227C186.629 77.5227 187.07 77.4162 187.534 77.2031C188.002 76.9901 188.419 76.6634 188.784 76.223C189.153 75.7827 189.395 75.2216 189.508 74.5398ZM192.834 83.0909L195.348 68.0909H196.967L196.683 69.8239H196.882C197.034 69.6345 197.242 69.393 197.507 69.0994C197.777 68.8011 198.139 68.536 198.594 68.304C199.053 68.0672 199.638 67.9489 200.348 67.9489C201.267 67.9489 202.036 68.1785 202.656 68.6378C203.277 69.0971 203.714 69.7481 203.97 70.5909C204.226 71.4337 204.259 72.428 204.07 73.5739C203.88 74.7292 203.518 75.7306 202.983 76.5781C202.448 77.4209 201.795 78.0743 201.023 78.5384C200.251 78.9976 199.411 79.2273 198.501 79.2273C197.801 79.2273 197.259 79.1113 196.875 78.8793C196.491 78.6425 196.212 78.375 196.037 78.0767C195.862 77.7737 195.727 77.5227 195.632 77.3239H195.49L194.524 83.0909H192.834ZM196.087 73.5455C195.954 74.3693 195.954 75.0961 196.087 75.7259C196.224 76.3509 196.496 76.8409 196.903 77.196C197.315 77.5464 197.857 77.7216 198.53 77.7216C199.231 77.7216 199.844 77.5369 200.369 77.1676C200.9 76.7936 201.335 76.2917 201.676 75.6619C202.022 75.0275 202.261 74.322 202.393 73.5455C202.517 72.7784 202.512 72.0871 202.379 71.4716C202.247 70.8513 201.977 70.3613 201.57 70.0014C201.162 69.6368 200.604 69.4545 199.893 69.4545C199.212 69.4545 198.608 69.6274 198.082 69.973C197.562 70.3139 197.131 70.7921 196.79 71.4077C196.454 72.0185 196.219 72.7311 196.087 73.5455Z" fill="#BC3399"/>
<path d="M241.128 79.2273C240.124 79.2273 239.284 78.9882 238.607 78.5099C237.929 78.0317 237.451 77.3617 237.172 76.5C236.897 75.6383 236.852 74.6345 237.037 73.4886C237.217 72.3712 237.574 71.3982 238.109 70.5696C238.649 69.7363 239.319 69.0923 240.119 68.6378C240.924 68.1785 241.81 67.9489 242.776 67.9489C243.779 67.9489 244.617 68.1903 245.29 68.6733C245.967 69.1515 246.445 69.8239 246.724 70.6903C247.004 71.5521 247.051 72.5606 246.866 73.7159C246.687 74.8239 246.324 75.7921 245.78 76.6207C245.24 77.4446 244.57 78.0862 243.77 78.5455C242.974 79 242.094 79.2273 241.128 79.2273ZM241.156 77.7216C241.923 77.7216 242.589 77.5251 243.152 77.1321C243.72 76.7391 244.179 76.2206 244.53 75.5767C244.885 74.9328 245.124 74.2367 245.247 73.4886C245.361 72.7784 245.356 72.1179 245.233 71.5071C245.11 70.8916 244.847 70.3968 244.445 70.0227C244.042 69.6439 243.476 69.4545 242.747 69.4545C241.98 69.4545 241.31 69.6534 240.737 70.0511C240.169 70.4489 239.71 70.9721 239.359 71.6207C239.009 72.2694 238.775 72.9678 238.656 73.7159C238.543 74.4261 238.545 75.0866 238.663 75.6974C238.786 76.3035 239.049 76.7936 239.452 77.1676C239.859 77.5369 240.427 77.7216 241.156 77.7216ZM255.121 68.0909L254.894 69.5114H249.24L249.468 68.0909H255.121ZM251.542 65.4773H253.218L251.485 75.875C251.409 76.3485 251.421 76.7036 251.52 76.9403C251.624 77.1723 251.781 77.3286 251.989 77.4091C252.202 77.4848 252.432 77.5227 252.678 77.5227C252.863 77.5227 253.014 77.5133 253.132 77.4943C253.251 77.4706 253.346 77.4517 253.417 77.4375L253.53 78.9432C253.402 78.9858 253.23 79.0284 253.012 79.071C252.799 79.1184 252.536 79.142 252.223 79.142C251.75 79.142 251.305 79.0402 250.888 78.8366C250.471 78.633 250.152 78.3229 249.929 77.9062C249.707 77.4896 249.648 76.964 249.752 76.3295L251.542 65.4773ZM258.814 72.4375L257.735 79H256.059L258.473 64.4545H260.15L259.269 69.7955H259.411C259.752 69.2273 260.206 68.7775 260.775 68.446C261.347 68.1146 262.067 67.9489 262.934 67.9489C263.672 67.9489 264.295 68.098 264.801 68.3963C265.313 68.6899 265.673 69.142 265.881 69.7528C266.094 70.3589 266.125 71.1307 265.973 72.0682L264.809 79H263.132L264.269 72.1818C264.411 71.3153 264.295 70.6454 263.921 70.1719C263.551 69.6937 262.976 69.4545 262.195 69.4545C261.646 69.4545 261.134 69.5705 260.661 69.8026C260.192 70.0346 259.794 70.3731 259.468 70.8182C259.146 71.2633 258.928 71.803 258.814 72.4375ZM272.42 79.2273C271.374 79.2273 270.51 78.9953 269.828 78.5312C269.146 78.0625 268.67 77.4091 268.401 76.571C268.131 75.7282 268.088 74.7481 268.273 73.6307C268.457 72.5133 268.824 71.5284 269.374 70.6761C269.923 69.8191 270.607 69.1515 271.426 68.6733C272.245 68.1903 273.145 67.9489 274.125 67.9489C274.693 67.9489 275.24 68.0436 275.766 68.233C276.291 68.4223 276.746 68.7301 277.129 69.1562C277.513 69.5777 277.78 70.1364 277.932 70.8324C278.083 71.5284 278.074 72.3854 277.903 73.4034L277.79 74.1136H269.381L269.608 72.6648H276.312C276.421 72.0492 276.393 71.5 276.227 71.017C276.066 70.5341 275.785 70.1529 275.382 69.8736C274.984 69.5942 274.48 69.4545 273.869 69.4545C273.24 69.4545 272.652 69.625 272.108 69.9659C271.563 70.3021 271.109 70.7282 270.744 71.2443C270.38 71.7557 270.152 72.2765 270.062 72.8068L269.864 74.0568C269.722 74.9612 269.743 75.6809 269.928 76.2159C270.117 76.7509 270.446 77.1368 270.915 77.3736C271.384 77.6056 271.971 77.7216 272.676 77.7216C273.126 77.7216 273.54 77.66 273.919 77.5369C274.298 77.4091 274.636 77.2197 274.935 76.9688C275.233 76.7131 275.484 76.3958 275.688 76.017L277.222 76.4716C276.961 77.0208 276.594 77.5038 276.121 77.9205C275.652 78.3324 275.103 78.6544 274.473 78.8864C273.848 79.1136 273.164 79.2273 272.42 79.2273ZM279.555 79L281.373 68.0909H282.992L282.708 69.7386H282.822C283.106 69.1989 283.539 68.7609 284.121 68.4247C284.704 68.0885 285.322 67.9205 285.975 67.9205C286.103 67.9205 286.257 67.9228 286.437 67.9276C286.617 67.9276 286.756 67.9347 286.856 67.9489L286.572 69.6534C286.515 69.6392 286.387 69.6179 286.188 69.5895C285.989 69.5563 285.776 69.5398 285.549 69.5398C285.019 69.5398 284.529 69.651 284.079 69.8736C283.629 70.0914 283.253 70.3944 282.95 70.7827C282.647 71.1662 282.452 71.6042 282.367 72.0966L281.231 79H279.555ZM296.183 70.5341L294.592 70.9602C294.535 70.7045 294.436 70.4583 294.294 70.2216C294.156 69.9801 293.943 69.7836 293.654 69.6321C293.37 69.4759 292.982 69.3977 292.49 69.3977C291.822 69.3977 291.242 69.5516 290.75 69.8594C290.257 70.1624 289.975 70.5483 289.904 71.017C289.833 71.429 289.928 71.758 290.189 72.0043C290.449 72.2505 290.885 72.4517 291.495 72.608L293.058 73.0057C293.995 73.2472 294.663 73.6094 295.061 74.0923C295.463 74.5705 295.6 75.1932 295.473 75.9602C295.368 76.5852 295.096 77.1439 294.656 77.6364C294.216 78.1288 293.652 78.517 292.966 78.8011C292.279 79.0852 291.514 79.2273 290.672 79.2273C289.549 79.2273 288.664 78.9858 288.015 78.5028C287.367 78.0152 287.021 77.3097 286.978 76.3864L288.654 75.9886C288.697 76.571 288.905 77.0114 289.279 77.3097C289.658 77.6032 290.189 77.75 290.87 77.75C291.652 77.75 292.303 77.5843 292.824 77.2528C293.344 76.9167 293.64 76.5142 293.711 76.0455C293.782 75.6619 293.707 75.3423 293.484 75.0866C293.266 74.831 292.887 74.6392 292.348 74.5114L290.615 74.0852C289.649 73.8437 288.972 73.4744 288.583 72.9773C288.2 72.4801 288.072 71.8551 288.2 71.1023C288.304 70.4867 288.569 69.9422 288.995 69.4688C289.426 68.9953 289.966 68.6236 290.615 68.3537C291.268 68.0838 291.978 67.9489 292.745 67.9489C293.825 67.9489 294.632 68.1856 295.167 68.6591C295.702 69.1278 296.041 69.7528 296.183 70.5341Z" fill="#F2161A"/>
</svg>
