<?xml version="1.0" encoding="UTF-8"?>
<svg xmlns="http://www.w3.org/2000/svg" xmlns:xlink="http://www.w3.org/1999/xlink"
     width="1860.0" height="420" viewBox="-10 -10 1880.0 440">
<defs>
</defs>
<g>
<circle cx="930.0" cy="30" r="30" stroke="black" stroke-width="2" fill="none" />
<text x="930.0" y="30" font-size="20" text-anchor="middle" dominant-baseline="middle" fill="black">17</text>
</g>
<g>
<circle cx="450.0" cy="120" r="30" stroke="black" stroke-width="2" fill="none" />
<text x="450.0" y="120" font-size="20" text-anchor="middle" dominant-baseline="middle" fill="black">10</text>
</g>
<g>
<circle cx="210.0" cy="210" r="30" stroke="black" stroke-width="2" fill="none" />
<text x="210.0" y="210" font-size="20" text-anchor="middle" dominant-baseline="middle" fill="black">8</text>
</g>
<g>
<circle cx="90.0" cy="300" r="30" stroke="black" stroke-width="2" fill="none" />
<text x="90.0" y="300" font-size="20" text-anchor="middle" dominant-baseline="middle" fill="black">7</text>
</g>
<path d="M186.0,228.0 L114.0,282.0 M114.0,282.0 L119.0,272.0 L125.0,280.0" fill="black" stroke="black" stroke-width="3" />
<path d="M421.91012467292865,130.53370324765174 L238.08987532707133,199.46629675234826 M238.08987532707133,199.46629675234826 L245.69754989481982,191.27341644861912 L249.20878431070372,200.6367082243096" fill="black" stroke="black" stroke-width="3" />
<g>
<circle cx="690.0" cy="210" r="30" stroke="black" stroke-width="2" fill="none" />
<text x="690.0" y="210" font-size="20" text-anchor="middle" dominant-baseline="middle" fill="black">16</text>
</g>
<g>
<circle cx="570.0" cy="300" r="30" stroke="black" stroke-width="2" fill="none" />
<text x="570.0" y="300" font-size="20" text-anchor="middle" dominant-baseline="middle" fill="black">14</text>
</g>
<g>
<circle cx="630.0" cy="390" r="30" stroke="black" stroke-width="2" fill="none" />
<text x="630.0" y="390" font-size="20" text-anchor="middle" dominant-baseline="middle" fill="black">15</text>
</g>
<path d="M586.6410058867568,324.9615088301353 L613.3589941132432,365.0384911698647 M613.3589941132432,365.0384911698647 L603.6517406793016,359.49148920761246 L611.97224362268,353.9444872453601" fill="black" stroke="black" stroke-width="3" />
<path d="M666.0,228.0 L594.0,282.0 M594.0,282.0 L599.0,272.0 L605.0,280.0" fill="black" stroke="black" stroke-width="3" />
<path d="M478.08987532707135,130.53370324765174 L661.9101246729286,199.46629675234826 M661.9101246729286,199.46629675234826 L650.7912156892962,200.6367082243096 L654.3024501051802,191.27341644861912" fill="black" stroke="black" stroke-width="3" />
<path d="M900.5138343919704,35.528656051505564 L479.48616560802964,114.47134394849444 M479.48616560802964,114.47134394849444 L488.3934448021219,107.71409766332097 L490.2363301526238,117.54281953266418" fill="black" stroke="black" stroke-width="3" />
<g>
<circle cx="1410.0" cy="120" r="30" stroke="black" stroke-width="2" fill="none" />
<text x="1410.0" y="120" font-size="20" text-anchor="middle" dominant-baseline="middle" fill="black">18</text>
</g>
<path d="M959.4861656080296,35.528656051505564 L1380.5138343919702,114.47134394849444 M1380.5138343919702,114.47134394849444 L1369.763669847376,117.54281953266418 L1371.606555197878,107.71409766332097" fill="black" stroke="black" stroke-width="3" />
</svg>