<?xml version="1.0" encoding="UTF-8" standalone="no"?>
<!DOCTYPE svg PUBLIC "-//W3C//DTD SVG 1.1//EN"
 "http://www.w3.org/Graphics/SVG/1.1/DTD/svg11.dtd">
<!-- Generated by graphviz version 2.43.0 (0)
 -->
<!-- Title: Tree Pages: 1 -->
<svg width="794pt" height="269pt"
 viewBox="0.00 0.00 794.00 269.00" xmlns="http://www.w3.org/2000/svg" xmlns:xlink="http://www.w3.org/1999/xlink">
<g id="graph0" class="graph" transform="scale(1 1) rotate(0) translate(4 265)">
<title>Tree</title>
<polygon fill="white" stroke="transparent" points="-4,4 -4,-265 790,-265 790,4 -4,4"/>
<!-- 0 -->
<g id="node1" class="node">
<title>0</title>
<path fill="#fae6d8" stroke="black" d="M476.5,-261C476.5,-261 308.5,-261 308.5,-261 302.5,-261 296.5,-255 296.5,-249 296.5,-249 296.5,-205 296.5,-205 296.5,-199 302.5,-193 308.5,-193 308.5,-193 476.5,-193 476.5,-193 482.5,-193 488.5,-199 488.5,-205 488.5,-205 488.5,-249 488.5,-249 488.5,-255 482.5,-261 476.5,-261"/>
<text text-anchor="start" x="349.5" y="-245.8" font-family="Helvetica,sans-Serif" font-size="14.00">x_1 ≤ 3.543</text>
<text text-anchor="start" x="304.5" y="-230.8" font-family="Helvetica,sans-Serif" font-size="14.00">squared_error = 116.479</text>
<text text-anchor="start" x="339.5" y="-215.8" font-family="Helvetica,sans-Serif" font-size="14.00">samples = 500</text>
<text text-anchor="start" x="338" y="-200.8" font-family="Helvetica,sans-Serif" font-size="14.00">value = 17.182</text>
</g>
<!-- 1 -->
<g id="node2" class="node">
<title>1</title>
<path fill="#fceee4" stroke="black" d="M372,-157C372,-157 213,-157 213,-157 207,-157 201,-151 201,-145 201,-145 201,-101 201,-101 201,-95 207,-89 213,-89 213,-89 372,-89 372,-89 378,-89 384,-95 384,-101 384,-101 384,-145 384,-145 384,-151 378,-157 372,-157"/>
<text text-anchor="start" x="247" y="-141.8" font-family="Helvetica,sans-Serif" font-size="14.00">x_1 ≤ &#45;2.498</text>
<text text-anchor="start" x="209" y="-126.8" font-family="Helvetica,sans-Serif" font-size="14.00">squared_error = 97.139</text>
<text text-anchor="start" x="239.5" y="-111.8" font-family="Helvetica,sans-Serif" font-size="14.00">samples = 429</text>
<text text-anchor="start" x="242.5" y="-96.8" font-family="Helvetica,sans-Serif" font-size="14.00">value = 15.24</text>
</g>
<!-- 0&#45;&gt;1 -->
<g id="edge1" class="edge">
<title>0&#45;&gt;1</title>
<path fill="none" stroke="black" d="M360.03,-192.88C351.21,-183.89 341.56,-174.04 332.38,-164.68"/>
<polygon fill="black" stroke="black" points="334.65,-161.99 325.15,-157.3 329.65,-166.89 334.65,-161.99"/>
<text text-anchor="middle" x="324.9" y="-178.6" font-family="Helvetica,sans-Serif" font-size="14.00">True</text>
</g>
<!-- 4 -->
<g id="node5" class="node">
<title>4</title>
<path fill="#f0b489" stroke="black" d="M573,-157C573,-157 414,-157 414,-157 408,-157 402,-151 402,-145 402,-145 402,-101 402,-101 402,-95 408,-89 414,-89 414,-89 573,-89 573,-89 579,-89 585,-95 585,-101 585,-101 585,-145 585,-145 585,-151 579,-157 573,-157"/>
<text text-anchor="start" x="450.5" y="-141.8" font-family="Helvetica,sans-Serif" font-size="14.00">x_2 ≤ 3.996</text>
<text text-anchor="start" x="410" y="-126.8" font-family="Helvetica,sans-Serif" font-size="14.00">squared_error = 72.901</text>
<text text-anchor="start" x="445" y="-111.8" font-family="Helvetica,sans-Serif" font-size="14.00">samples = 71</text>
<text text-anchor="start" x="439" y="-96.8" font-family="Helvetica,sans-Serif" font-size="14.00">value = 28.914</text>
</g>
<!-- 0&#45;&gt;4 -->
<g id="edge4" class="edge">
<title>0&#45;&gt;4</title>
<path fill="none" stroke="black" d="M425.29,-192.88C434.2,-183.89 443.95,-174.04 453.22,-164.68"/>
<polygon fill="black" stroke="black" points="455.98,-166.87 460.53,-157.3 451,-161.94 455.98,-166.87"/>
<text text-anchor="middle" x="460.65" y="-178.6" font-family="Helvetica,sans-Serif" font-size="14.00">False</text>
</g>
<!-- 2 -->
<g id="node3" class="node">
<title>2</title>
<path fill="#f4c9a9" stroke="black" d="M171,-53C171,-53 12,-53 12,-53 6,-53 0,-47 0,-41 0,-41 0,-12 0,-12 0,-6 6,0 12,0 12,0 171,0 171,0 177,0 183,-6 183,-12 183,-12 183,-41 183,-41 183,-47 177,-53 171,-53"/>
<text text-anchor="start" x="8" y="-37.8" font-family="Helvetica,sans-Serif" font-size="14.00">squared_error = 70.886</text>
<text text-anchor="start" x="38.5" y="-22.8" font-family="Helvetica,sans-Serif" font-size="14.00">samples = 133</text>
<text text-anchor="start" x="37" y="-7.8" font-family="Helvetica,sans-Serif" font-size="14.00">value = 24.106</text>
</g>
<!-- 1&#45;&gt;2 -->
<g id="edge2" class="edge">
<title>1&#45;&gt;2</title>
<path fill="none" stroke="black" d="M222.2,-88.95C200.41,-78.7 176.52,-67.47 155.2,-57.45"/>
<polygon fill="black" stroke="black" points="156.46,-54.17 145.92,-53.09 153.48,-60.51 156.46,-54.17"/>
</g>
<!-- 3 -->
<g id="node4" class="node">
<title>3</title>
<path fill="#ffffff" stroke="black" d="M372,-53C372,-53 213,-53 213,-53 207,-53 201,-47 201,-41 201,-41 201,-12 201,-12 201,-6 207,0 213,0 213,0 372,0 372,0 378,0 384,-6 384,-12 384,-12 384,-41 384,-41 384,-47 378,-53 372,-53"/>
<text text-anchor="start" x="209" y="-37.8" font-family="Helvetica,sans-Serif" font-size="14.00">squared_error = 57.741</text>
<text text-anchor="start" x="239.5" y="-22.8" font-family="Helvetica,sans-Serif" font-size="14.00">samples = 296</text>
<text text-anchor="start" x="238" y="-7.8" font-family="Helvetica,sans-Serif" font-size="14.00">value = 11.256</text>
</g>
<!-- 1&#45;&gt;3 -->
<g id="edge3" class="edge">
<title>1&#45;&gt;3</title>
<path fill="none" stroke="black" d="M292.5,-88.95C292.5,-80.72 292.5,-71.85 292.5,-63.48"/>
<polygon fill="black" stroke="black" points="296,-63.24 292.5,-53.24 289,-63.24 296,-63.24"/>
</g>
<!-- 5 -->
<g id="node6" class="node">
<title>5</title>
<path fill="#f1bc95" stroke="black" d="M573,-53C573,-53 414,-53 414,-53 408,-53 402,-47 402,-41 402,-41 402,-12 402,-12 402,-6 408,0 414,0 414,0 573,0 573,0 579,0 585,-6 585,-12 585,-12 585,-41 585,-41 585,-47 579,-53 573,-53"/>
<text text-anchor="start" x="410" y="-37.8" font-family="Helvetica,sans-Serif" font-size="14.00">squared_error = 57.668</text>
<text text-anchor="start" x="445" y="-22.8" font-family="Helvetica,sans-Serif" font-size="14.00">samples = 62</text>
<text text-anchor="start" x="439" y="-7.8" font-family="Helvetica,sans-Serif" font-size="14.00">value = 27.159</text>
</g>
<!-- 4&#45;&gt;5 -->
<g id="edge5" class="edge">
<title>4&#45;&gt;5</title>
<path fill="none" stroke="black" d="M493.5,-88.95C493.5,-80.72 493.5,-71.85 493.5,-63.48"/>
<polygon fill="black" stroke="black" points="497,-63.24 493.5,-53.24 490,-63.24 497,-63.24"/>
</g>
<!-- 6 -->
<g id="node7" class="node">
<title>6</title>
<path fill="#e58139" stroke="black" d="M774,-53C774,-53 615,-53 615,-53 609,-53 603,-47 603,-41 603,-41 603,-12 603,-12 603,-6 609,0 615,0 615,0 774,0 774,0 780,0 786,-6 786,-12 786,-12 786,-41 786,-41 786,-47 780,-53 774,-53"/>
<text text-anchor="start" x="611" y="-37.8" font-family="Helvetica,sans-Serif" font-size="14.00">squared_error = 10.333</text>
<text text-anchor="start" x="650.5" y="-22.8" font-family="Helvetica,sans-Serif" font-size="14.00">samples = 9</text>
<text text-anchor="start" x="640" y="-7.8" font-family="Helvetica,sans-Serif" font-size="14.00">value = 41.009</text>
</g>
<!-- 4&#45;&gt;6 -->
<g id="edge6" class="edge">
<title>4&#45;&gt;6</title>
<path fill="none" stroke="black" d="M563.8,-88.95C585.59,-78.7 609.48,-67.47 630.8,-57.45"/>
<polygon fill="black" stroke="black" points="632.52,-60.51 640.08,-53.09 629.54,-54.17 632.52,-60.51"/>
</g>
</g>
</svg>