<?xml version="1.0" encoding="UTF-8" standalone="no"?>
<!DOCTYPE svg PUBLIC "-//W3C//DTD SVG 1.1//EN"
 "http://www.w3.org/Graphics/SVG/1.1/DTD/svg11.dtd">
<!-- Generated by graphviz version 2.43.0 (0)
 -->
<!-- Title: Tree Pages: 1 -->
<svg width="577pt" height="461pt"
 viewBox="0.00 0.00 577.00 461.00" xmlns="http://www.w3.org/2000/svg" xmlns:xlink="http://www.w3.org/1999/xlink">
<g id="graph0" class="graph" transform="scale(1 1) rotate(0) translate(4 457)">
<title>Tree</title>
<polygon fill="white" stroke="transparent" points="-4,4 -4,-457 573,-457 573,4 -4,4"/>
<!-- 0 -->
<g id="node1" class="node">
<title>0</title>
<path fill="#afd7f4" stroke="black" d="M342,-453C342,-453 217,-453 217,-453 211,-453 205,-447 205,-441 205,-441 205,-401 205,-401 205,-395 211,-389 217,-389 217,-389 342,-389 342,-389 348,-389 354,-395 354,-401 354,-401 354,-441 354,-441 354,-447 348,-453 342,-453"/>
<text text-anchor="start" x="240" y="-438.8" font-family="Helvetica,sans-Serif" font-size="14.00">x</text>
<text text-anchor="start" x="249" y="-438.8" font-family="Helvetica,sans-Serif" baseline-shift="sub" font-size="14.00">7</text>
<text text-anchor="start" x="257" y="-438.8" font-family="Helvetica,sans-Serif" font-size="14.00"> ≤ 0.049</text>
<text text-anchor="start" x="235.5" y="-424.8" font-family="Helvetica,sans-Serif" font-size="14.00">gini = 0.468</text>
<text text-anchor="start" x="226.5" y="-410.8" font-family="Helvetica,sans-Serif" font-size="14.00">samples = 426</text>
<text text-anchor="start" x="213" y="-396.8" font-family="Helvetica,sans-Serif" font-size="14.00">value = [159, 267]</text>
</g>
<!-- 1 -->
<g id="node2" class="node">
<title>1</title>
<path fill="#43a2e6" stroke="black" d="M258.5,-353C258.5,-353 142.5,-353 142.5,-353 136.5,-353 130.5,-347 130.5,-341 130.5,-341 130.5,-301 130.5,-301 130.5,-295 136.5,-289 142.5,-289 142.5,-289 258.5,-289 258.5,-289 264.5,-289 270.5,-295 270.5,-301 270.5,-301 270.5,-341 270.5,-341 270.5,-347 264.5,-353 258.5,-353"/>
<text text-anchor="start" x="157" y="-338.8" font-family="Helvetica,sans-Serif" font-size="14.00">x</text>
<text text-anchor="start" x="166" y="-338.8" font-family="Helvetica,sans-Serif" baseline-shift="sub" font-size="14.00">23</text>
<text text-anchor="start" x="182" y="-338.8" font-family="Helvetica,sans-Serif" font-size="14.00"> ≤ 952.9</text>
<text text-anchor="start" x="156.5" y="-324.8" font-family="Helvetica,sans-Serif" font-size="14.00">gini = 0.095</text>
<text text-anchor="start" x="147.5" y="-310.8" font-family="Helvetica,sans-Serif" font-size="14.00">samples = 260</text>
<text text-anchor="start" x="138.5" y="-296.8" font-family="Helvetica,sans-Serif" font-size="14.00">value = [13, 247]</text>
</g>
<!-- 0&#45;&gt;1 -->
<g id="edge1" class="edge">
<title>0&#45;&gt;1</title>
<path fill="none" stroke="black" d="M254.5,-388.99C247.37,-380.14 239.51,-370.39 232.04,-361.12"/>
<polygon fill="black" stroke="black" points="234.61,-358.73 225.6,-353.14 229.16,-363.12 234.61,-358.73"/>
<text text-anchor="middle" x="222.94" y="-374.3" font-family="Helvetica,sans-Serif" font-size="14.00">True</text>
</g>
<!-- 4 -->
<g id="node5" class="node">
<title>4</title>
<path fill="#e99254" stroke="black" d="M416.5,-353C416.5,-353 300.5,-353 300.5,-353 294.5,-353 288.5,-347 288.5,-341 288.5,-341 288.5,-301 288.5,-301 288.5,-295 294.5,-289 300.5,-289 300.5,-289 416.5,-289 416.5,-289 422.5,-289 428.5,-295 428.5,-301 428.5,-301 428.5,-341 428.5,-341 428.5,-347 422.5,-353 416.5,-353"/>
<text text-anchor="start" x="315" y="-338.8" font-family="Helvetica,sans-Serif" font-size="14.00">x</text>
<text text-anchor="start" x="324" y="-338.8" font-family="Helvetica,sans-Serif" baseline-shift="sub" font-size="14.00">23</text>
<text text-anchor="start" x="340" y="-338.8" font-family="Helvetica,sans-Serif" font-size="14.00"> ≤ 785.8</text>
<text text-anchor="start" x="314.5" y="-324.8" font-family="Helvetica,sans-Serif" font-size="14.00">gini = 0.212</text>
<text text-anchor="start" x="305.5" y="-310.8" font-family="Helvetica,sans-Serif" font-size="14.00">samples = 166</text>
<text text-anchor="start" x="296.5" y="-296.8" font-family="Helvetica,sans-Serif" font-size="14.00">value = [146, 20]</text>
</g>
<!-- 0&#45;&gt;4 -->
<g id="edge4" class="edge">
<title>0&#45;&gt;4</title>
<path fill="none" stroke="black" d="M304.5,-388.99C311.63,-380.14 319.49,-370.39 326.96,-361.12"/>
<polygon fill="black" stroke="black" points="329.84,-363.12 333.4,-353.14 324.39,-358.73 329.84,-363.12"/>
<text text-anchor="middle" x="336.06" y="-374.3" font-family="Helvetica,sans-Serif" font-size="14.00">False</text>
</g>
<!-- 2 -->
<g id="node3" class="node">
<title>2</title>
<path fill="#3fa0e6" stroke="black" d="M119,-247.5C119,-247.5 12,-247.5 12,-247.5 6,-247.5 0,-241.5 0,-235.5 0,-235.5 0,-206.5 0,-206.5 0,-200.5 6,-194.5 12,-194.5 12,-194.5 119,-194.5 119,-194.5 125,-194.5 131,-200.5 131,-206.5 131,-206.5 131,-235.5 131,-235.5 131,-241.5 125,-247.5 119,-247.5"/>
<text text-anchor="start" x="21.5" y="-232.3" font-family="Helvetica,sans-Serif" font-size="14.00">gini = 0.054</text>
<text text-anchor="start" x="12.5" y="-217.3" font-family="Helvetica,sans-Serif" font-size="14.00">samples = 252</text>
<text text-anchor="start" x="8" y="-202.3" font-family="Helvetica,sans-Serif" font-size="14.00">value = [7, 245]</text>
</g>
<!-- 1&#45;&gt;2 -->
<g id="edge2" class="edge">
<title>1&#45;&gt;2</title>
<path fill="none" stroke="black" d="M157.79,-288.99C142.27,-277.73 124.73,-265 109.14,-253.68"/>
<polygon fill="black" stroke="black" points="110.85,-250.6 100.71,-247.56 106.74,-256.26 110.85,-250.6"/>
</g>
<!-- 3 -->
<g id="node4" class="node">
<title>3</title>
<path fill="#eeab7b" stroke="black" d="M250,-247.5C250,-247.5 161,-247.5 161,-247.5 155,-247.5 149,-241.5 149,-235.5 149,-235.5 149,-206.5 149,-206.5 149,-200.5 155,-194.5 161,-194.5 161,-194.5 250,-194.5 250,-194.5 256,-194.5 262,-200.5 262,-206.5 262,-206.5 262,-235.5 262,-235.5 262,-241.5 256,-247.5 250,-247.5"/>
<text text-anchor="start" x="161.5" y="-232.3" font-family="Helvetica,sans-Serif" font-size="14.00">gini = 0.375</text>
<text text-anchor="start" x="161.5" y="-217.3" font-family="Helvetica,sans-Serif" font-size="14.00">samples = 8</text>
<text text-anchor="start" x="157" y="-202.3" font-family="Helvetica,sans-Serif" font-size="14.00">value = [6, 2]</text>
</g>
<!-- 1&#45;&gt;3 -->
<g id="edge3" class="edge">
<title>1&#45;&gt;3</title>
<path fill="none" stroke="black" d="M202.08,-288.99C202.59,-279.09 203.15,-268.04 203.67,-257.82"/>
<polygon fill="black" stroke="black" points="207.18,-257.72 204.2,-247.56 200.19,-257.37 207.18,-257.72"/>
</g>
<!-- 5 -->
<g id="node6" class="node">
<title>5</title>
<path fill="#d0e8f9" stroke="black" d="M408,-253C408,-253 301,-253 301,-253 295,-253 289,-247 289,-241 289,-241 289,-201 289,-201 289,-195 295,-189 301,-189 301,-189 408,-189 408,-189 414,-189 420,-195 420,-201 420,-201 420,-241 420,-241 420,-247 414,-253 408,-253"/>
<text text-anchor="start" x="311" y="-238.8" font-family="Helvetica,sans-Serif" font-size="14.00">x</text>
<text text-anchor="start" x="320" y="-238.8" font-family="Helvetica,sans-Serif" baseline-shift="sub" font-size="14.00">21</text>
<text text-anchor="start" x="336" y="-238.8" font-family="Helvetica,sans-Serif" font-size="14.00"> ≤ 23.74</text>
<text text-anchor="start" x="310.5" y="-224.8" font-family="Helvetica,sans-Serif" font-size="14.00">gini = 0.491</text>
<text text-anchor="start" x="306" y="-210.8" font-family="Helvetica,sans-Serif" font-size="14.00">samples = 30</text>
<text text-anchor="start" x="297" y="-196.8" font-family="Helvetica,sans-Serif" font-size="14.00">value = [13, 17]</text>
</g>
<!-- 4&#45;&gt;5 -->
<g id="edge5" class="edge">
<title>4&#45;&gt;5</title>
<path fill="none" stroke="black" d="M357.23,-288.99C356.9,-280.86 356.54,-271.96 356.19,-263.38"/>
<polygon fill="black" stroke="black" points="359.68,-262.99 355.77,-253.14 352.68,-263.28 359.68,-262.99"/>
</g>
<!-- 10 -->
<g id="node11" class="node">
<title>10</title>
<path fill="#e6843d" stroke="black" d="M557,-247.5C557,-247.5 450,-247.5 450,-247.5 444,-247.5 438,-241.5 438,-235.5 438,-235.5 438,-206.5 438,-206.5 438,-200.5 444,-194.5 450,-194.5 450,-194.5 557,-194.5 557,-194.5 563,-194.5 569,-200.5 569,-206.5 569,-206.5 569,-235.5 569,-235.5 569,-241.5 563,-247.5 557,-247.5"/>
<text text-anchor="start" x="459.5" y="-232.3" font-family="Helvetica,sans-Serif" font-size="14.00">gini = 0.043</text>
<text text-anchor="start" x="450.5" y="-217.3" font-family="Helvetica,sans-Serif" font-size="14.00">samples = 136</text>
<text text-anchor="start" x="446" y="-202.3" font-family="Helvetica,sans-Serif" font-size="14.00">value = [133, 3]</text>
</g>
<!-- 4&#45;&gt;10 -->
<g id="edge10" class="edge">
<title>4&#45;&gt;10</title>
<path fill="none" stroke="black" d="M404.38,-288.99C421.19,-277.63 440.23,-264.76 457.09,-253.37"/>
<polygon fill="black" stroke="black" points="459.36,-256.06 465.69,-247.56 455.44,-250.26 459.36,-256.06"/>
</g>
<!-- 6 -->
<g id="node7" class="node">
<title>6</title>
<path fill="#399de5" stroke="black" d="M333.5,-147.5C333.5,-147.5 235.5,-147.5 235.5,-147.5 229.5,-147.5 223.5,-141.5 223.5,-135.5 223.5,-135.5 223.5,-106.5 223.5,-106.5 223.5,-100.5 229.5,-94.5 235.5,-94.5 235.5,-94.5 333.5,-94.5 333.5,-94.5 339.5,-94.5 345.5,-100.5 345.5,-106.5 345.5,-106.5 345.5,-135.5 345.5,-135.5 345.5,-141.5 339.5,-147.5 333.5,-147.5"/>
<text text-anchor="start" x="249.5" y="-132.3" font-family="Helvetica,sans-Serif" font-size="14.00">gini = 0.0</text>
<text text-anchor="start" x="236" y="-117.3" font-family="Helvetica,sans-Serif" font-size="14.00">samples = 14</text>
<text text-anchor="start" x="231.5" y="-102.3" font-family="Helvetica,sans-Serif" font-size="14.00">value = [0, 14]</text>
</g>
<!-- 5&#45;&gt;6 -->
<g id="edge6" class="edge">
<title>5&#45;&gt;6</title>
<path fill="none" stroke="black" d="M332.35,-188.99C324.83,-178.46 316.39,-166.64 308.71,-155.9"/>
<polygon fill="black" stroke="black" points="311.42,-153.66 302.75,-147.56 305.72,-157.73 311.42,-153.66"/>
</g>
<!-- 7 -->
<g id="node8" class="node">
<title>7</title>
<path fill="#eb9e67" stroke="black" d="M473.5,-153C473.5,-153 375.5,-153 375.5,-153 369.5,-153 363.5,-147 363.5,-141 363.5,-141 363.5,-101 363.5,-101 363.5,-95 369.5,-89 375.5,-89 375.5,-89 473.5,-89 473.5,-89 479.5,-89 485.5,-95 485.5,-101 485.5,-101 485.5,-141 485.5,-141 485.5,-147 479.5,-153 473.5,-153"/>
<text text-anchor="start" x="381" y="-138.8" font-family="Helvetica,sans-Serif" font-size="14.00">x</text>
<text text-anchor="start" x="390" y="-138.8" font-family="Helvetica,sans-Serif" baseline-shift="sub" font-size="14.00">25</text>
<text text-anchor="start" x="406" y="-138.8" font-family="Helvetica,sans-Serif" font-size="14.00"> ≤ 0.263</text>
<text text-anchor="start" x="380.5" y="-124.8" font-family="Helvetica,sans-Serif" font-size="14.00">gini = 0.305</text>
<text text-anchor="start" x="376" y="-110.8" font-family="Helvetica,sans-Serif" font-size="14.00">samples = 16</text>
<text text-anchor="start" x="371.5" y="-96.8" font-family="Helvetica,sans-Serif" font-size="14.00">value = [13, 3]</text>
</g>
<!-- 5&#45;&gt;7 -->
<g id="edge7" class="edge">
<title>5&#45;&gt;7</title>
<path fill="none" stroke="black" d="M376.65,-188.99C382.9,-180.23 389.8,-170.58 396.35,-161.4"/>
<polygon fill="black" stroke="black" points="399.29,-163.31 402.26,-153.14 393.59,-159.25 399.29,-163.31"/>
</g>
<!-- 8 -->
<g id="node9" class="node">
<title>8</title>
<path fill="#399de5" stroke="black" d="M401,-53C401,-53 312,-53 312,-53 306,-53 300,-47 300,-41 300,-41 300,-12 300,-12 300,-6 306,0 312,0 312,0 401,0 401,0 407,0 413,-6 413,-12 413,-12 413,-41 413,-41 413,-47 407,-53 401,-53"/>
<text text-anchor="start" x="321.5" y="-37.8" font-family="Helvetica,sans-Serif" font-size="14.00">gini = 0.0</text>
<text text-anchor="start" x="312.5" y="-22.8" font-family="Helvetica,sans-Serif" font-size="14.00">samples = 3</text>
<text text-anchor="start" x="308" y="-7.8" font-family="Helvetica,sans-Serif" font-size="14.00">value = [0, 3]</text>
</g>
<!-- 7&#45;&gt;8 -->
<g id="edge8" class="edge">
<title>7&#45;&gt;8</title>
<path fill="none" stroke="black" d="M401.67,-88.94C395.11,-80.02 387.93,-70.25 381.26,-61.18"/>
<polygon fill="black" stroke="black" points="384.06,-59.07 375.31,-53.09 378.42,-63.22 384.06,-59.07"/>
</g>
<!-- 9 -->
<g id="node10" class="node">
<title>9</title>
<path fill="#e58139" stroke="black" d="M541.5,-53C541.5,-53 443.5,-53 443.5,-53 437.5,-53 431.5,-47 431.5,-41 431.5,-41 431.5,-12 431.5,-12 431.5,-6 437.5,0 443.5,0 443.5,0 541.5,0 541.5,0 547.5,0 553.5,-6 553.5,-12 553.5,-12 553.5,-41 553.5,-41 553.5,-47 547.5,-53 541.5,-53"/>
<text text-anchor="start" x="457.5" y="-37.8" font-family="Helvetica,sans-Serif" font-size="14.00">gini = 0.0</text>
<text text-anchor="start" x="444" y="-22.8" font-family="Helvetica,sans-Serif" font-size="14.00">samples = 13</text>
<text text-anchor="start" x="439.5" y="-7.8" font-family="Helvetica,sans-Serif" font-size="14.00">value = [13, 0]</text>
</g>
<!-- 7&#45;&gt;9 -->
<g id="edge9" class="edge">
<title>7&#45;&gt;9</title>
<path fill="none" stroke="black" d="M447.33,-88.94C453.89,-80.02 461.07,-70.25 467.74,-61.18"/>
<polygon fill="black" stroke="black" points="470.58,-63.22 473.69,-53.09 464.94,-59.07 470.58,-63.22"/>
</g>
</g>
</svg>
