<svg width="391" height="266" viewBox="0 0 391 266" fill="none" xmlns="http://www.w3.org/2000/svg">
<rect x="61.5" y="47.5" width="275" height="173" rx="23.5" stroke="#FF0000" stroke-width="3"/>
<rect x="86.5" y="101.5" width="55" height="39" rx="19.5" fill="white" stroke="black" stroke-width="3"/>
<rect x="159.5" y="169.5" width="55" height="39" rx="19.5" fill="white" stroke="black" stroke-width="3"/>
<rect x="228.5" y="102.5" width="41" height="39" rx="19.5" fill="white" stroke="black" stroke-width="3"/>
<rect x="277.5" y="57.5" width="41" height="39" rx="19.5" fill="white" stroke="black" stroke-width="3"/>
<path d="M300.5 67.4C300.95 67.35 301.408 67.3667 301.875 67.45C303.475 67.6833 304.717 68.475 305.6 69.825C305.9 70.2917 306.108 70.7167 306.225 71.1C306.525 71.9 306.683 72.7583 306.7 73.675C306.717 74.9583 306.5 76.25 306.05 77.55C305.433 79.4 304.408 81.05 302.975 82.5C301.675 83.7833 300.275 84.6667 298.775 85.15C296.608 85.8667 294.742 85.6583 293.175 84.525C292.942 84.3583 292.725 84.175 292.525 83.975C291.158 82.6083 290.567 80.725 290.75 78.325C290.867 76.8417 291.292 75.3583 292.025 73.875C293.092 71.7583 294.55 70.1 296.4 68.9C297.717 68.0333 299.083 67.5333 300.5 67.4ZM301.175 68.675C300.392 68.5583 299.592 68.7083 298.775 69.125C297.325 69.8083 296.15 71.0667 295.25 72.9C294.8 73.8167 294.417 74.9167 294.1 76.2C293.75 77.6667 293.575 78.9 293.575 79.9C293.575 80.9333 293.733 81.7917 294.05 82.475C294.617 83.6417 295.492 84.2417 296.675 84.275C296.825 84.275 296.983 84.2667 297.15 84.25C298.617 84.0833 299.958 83.175 301.175 81.525C301.625 80.925 302.017 80.2583 302.35 79.525C303.15 77.7417 303.675 75.8667 303.925 73.9C303.992 73.2667 303.992 72.625 303.925 71.975C303.925 71.9417 303.925 71.9083 303.925 71.875C303.742 70.875 303.4 70.1083 302.9 69.575C302.45 69.075 301.875 68.775 301.175 68.675Z" fill="black"/>
<path d="M175.525 178L175.6 177.925H175.925C177.408 178.008 179.292 178.017 181.575 177.95C182.125 177.933 182.433 177.983 182.5 178.1C182.517 178.15 182.483 178.342 182.4 178.675C182.333 178.992 182.267 179.183 182.2 179.25L182.125 179.325H181.775C180.992 179.325 180.45 179.392 180.15 179.525L180.05 179.575V179.75C180.067 179.817 180.2 181.733 180.45 185.5L180.8 191.125L186.375 181.3L186.225 179.5V179.475C186.225 179.458 186.183 179.433 186.1 179.4C185.917 179.35 185.5 179.325 184.85 179.325C184.483 179.325 184.275 179.267 184.225 179.15C184.192 179.1 184.217 178.908 184.3 178.575C184.4 178.225 184.467 178.033 184.5 178L184.575 177.925H184.9C186.367 178.008 188.25 178.017 190.55 177.95C191.1 177.933 191.408 177.983 191.475 178.1C191.492 178.15 191.467 178.342 191.4 178.675C191.317 178.992 191.242 179.183 191.175 179.25L191.1 179.325H190.75C189.983 179.325 189.45 179.392 189.15 179.525L189.025 179.575V179.725C189.042 179.792 189.175 181.708 189.425 185.475C189.658 189.058 189.775 190.942 189.775 191.125C189.808 191.192 191.633 187.983 195.25 181.5C195.717 180.633 195.958 180.183 195.975 180.15C196.042 180 196.008 179.858 195.875 179.725C195.575 179.458 195.1 179.325 194.45 179.325C194.283 179.325 194.175 179.267 194.125 179.15C194.092 179.1 194.117 178.908 194.2 178.575C194.3 178.225 194.367 178.033 194.4 178L194.475 177.925H194.8L196.45 177.975C197.35 177.992 198.117 177.992 198.75 177.975L199.875 177.925C199.975 177.925 200.05 177.95 200.1 178C200.167 178.067 200.2 178.125 200.2 178.175L199.95 179.15V179.175C199.9 179.275 199.783 179.325 199.6 179.325C199.017 179.325 198.508 179.425 198.075 179.625C197.725 179.792 197.433 180.05 197.2 180.4C197.133 180.5 195.725 182.983 192.975 187.85C190.225 192.717 188.817 195.2 188.75 195.3C188.683 195.4 188.617 195.458 188.55 195.475C188.467 195.525 188.275 195.55 187.975 195.55C187.658 195.55 187.475 195.533 187.425 195.5L187.325 195.4C187.308 195.383 187.167 193.392 186.9 189.425C186.65 185.358 186.525 183.367 186.525 183.45C186.525 183.433 186.292 183.825 185.825 184.625C185.342 185.475 184.45 187.05 183.15 189.35C180.867 193.35 179.708 195.367 179.675 195.4C179.575 195.5 179.325 195.55 178.925 195.55L178.475 195.525L178.4 195.45C178.35 195.4 178.325 195.333 178.325 195.25C178.308 195.217 178.133 192.583 177.8 187.35C177.483 182.167 177.308 179.55 177.275 179.5C177.258 179.467 177.208 179.433 177.125 179.4C176.825 179.35 176.408 179.325 175.875 179.325C175.508 179.325 175.292 179.267 175.225 179.15L175.2 179.075L175.325 178.575C175.392 178.258 175.458 178.067 175.525 178Z" fill="black"/>
<path d="M85.7071 121.707C86.0976 121.317 86.0976 120.683 85.7071 120.293L79.3431 113.929C78.9526 113.538 78.3195 113.538 77.9289 113.929C77.5384 114.319 77.5384 114.953 77.9289 115.343L83.5858 121L77.9289 126.657C77.5384 127.047 77.5384 127.681 77.9289 128.071C78.3195 128.462 78.9526 128.462 79.3431 128.071L85.7071 121.707ZM30 121V122H85V121V120H30V121Z" fill="black"/>
<circle cx="186" cy="122" r="13.5" fill="white" stroke="black" stroke-width="3"/>
<path d="M185.244 127.757V116.038H187.233V127.757H185.244ZM180.379 122.892V120.903H192.098V122.892H180.379Z" fill="black"/>
<path d="M171.707 121.707C172.098 121.317 172.098 120.683 171.707 120.293L165.343 113.929C164.953 113.538 164.319 113.538 163.929 113.929C163.538 114.319 163.538 114.953 163.929 115.343L169.586 121L163.929 126.657C163.538 127.047 163.538 127.681 163.929 128.071C164.319 128.462 164.953 128.462 165.343 128.071L171.707 121.707ZM141 121V122H171V121V120H141V121Z" fill="black"/>
<path d="M187.707 134.293C187.317 133.902 186.683 133.902 186.293 134.293L179.929 140.657C179.538 141.047 179.538 141.681 179.929 142.071C180.319 142.462 180.953 142.462 181.343 142.071L187 136.414L192.657 142.071C193.047 142.462 193.681 142.462 194.071 142.071C194.462 141.681 194.462 141.047 194.071 140.657L187.707 134.293ZM187 168L188 168L188 135L187 135L186 135L186 168L187 168Z" fill="black"/>
<path d="M227.707 121.707C228.098 121.317 228.098 120.683 227.707 120.293L221.343 113.929C220.953 113.538 220.319 113.538 219.929 113.929C219.538 114.319 219.538 114.953 219.929 115.343L225.586 121L219.929 126.657C219.538 127.047 219.538 127.681 219.929 128.071C220.319 128.462 220.953 128.462 221.343 128.071L227.707 121.707ZM200 121V122H227V121V120H200V121Z" fill="black"/>
<path d="M252.7 108.4C252.783 108.383 252.95 108.375 253.2 108.375C253.583 108.392 253.933 108.483 254.25 108.65C254.9 108.983 255.225 109.517 255.225 110.25C255.225 110.55 255.158 110.833 255.025 111.1C254.958 111.267 254.858 111.408 254.725 111.525C254.558 111.692 254.417 111.8 254.3 111.85C253.833 112.067 253.392 112.075 252.975 111.875C252.558 111.658 252.408 111.275 252.525 110.725C252.542 110.658 252.558 110.592 252.575 110.525C252.692 110.142 252.9 109.858 253.2 109.675C253.283 109.625 253.225 109.583 253.025 109.55C252.908 109.55 252.825 109.567 252.775 109.6C252.642 109.7 252.55 109.817 252.5 109.95C252.433 110.083 252.258 110.85 251.975 112.25C251.592 114.083 251.4 115.067 251.4 115.2C251.4 115.217 251.85 115.225 252.75 115.225H254.1L254.2 115.3C254.267 115.383 254.258 115.608 254.175 115.975C254.092 116.342 254.017 116.542 253.95 116.575C253.9 116.608 253.417 116.625 252.5 116.625C251.583 116.625 251.125 116.642 251.125 116.675L250.475 119.975L249.725 123.85C249.275 126.017 248.842 127.567 248.425 128.5C247.892 129.733 247.208 130.542 246.375 130.925C246.142 131.042 245.892 131.108 245.625 131.125C244.892 131.158 244.308 130.933 243.875 130.45C243.842 130.433 243.817 130.408 243.8 130.375C243.567 130.042 243.45 129.675 243.45 129.275C243.45 128.958 243.517 128.667 243.65 128.4C243.717 128.233 243.817 128.092 243.95 127.975C244.117 127.808 244.258 127.7 244.375 127.65C244.842 127.433 245.283 127.425 245.7 127.625C246.117 127.842 246.267 128.225 246.15 128.775C246.133 128.842 246.117 128.908 246.1 128.975C245.983 129.358 245.775 129.642 245.475 129.825C245.375 129.892 245.433 129.925 245.65 129.925C245.783 129.925 245.883 129.9 245.95 129.85C246.167 129.683 246.333 129.25 246.45 128.55C246.617 127.5 246.867 126.317 247.2 125L247.7 122.75C248.483 118.567 248.875 116.533 248.875 116.65C248.875 116.633 248.492 116.625 247.725 116.625C246.908 116.625 246.467 116.567 246.4 116.45C246.367 116.4 246.392 116.208 246.475 115.875C246.558 115.542 246.625 115.35 246.675 115.3L246.75 115.225H247.95H249.15V115.175L249.4 113.95C249.733 112.217 250.058 111.008 250.375 110.325C250.892 109.275 251.667 108.633 252.7 108.4Z" fill="black"/>
<path d="M361.707 121.707C362.098 121.317 362.098 120.683 361.707 120.293L355.343 113.929C354.953 113.538 354.319 113.538 353.929 113.929C353.538 114.319 353.538 114.953 353.929 115.343L359.586 121L353.929 126.657C353.538 127.047 353.538 127.681 353.929 128.071C354.319 128.462 354.953 128.462 355.343 128.071L361.707 121.707ZM271 121V122H361V121V120H271V121Z" fill="black"/>
<path d="M298.707 97.2929C298.317 96.9024 297.683 96.9024 297.293 97.2929L290.929 103.657C290.538 104.047 290.538 104.681 290.929 105.071C291.319 105.462 291.953 105.462 292.343 105.071L298 99.4142L303.657 105.071C304.047 105.462 304.681 105.462 305.071 105.071C305.462 104.681 305.462 104.047 305.071 103.657L298.707 97.2929ZM298 120L299 120L299 98L298 98L297 98L297 120L298 120Z" fill="black"/>
<path d="M5.7 109.8C7 109.7 7.64167 109.65 7.625 109.65C7.775 109.65 7.875 109.708 7.925 109.825C7.95833 109.908 7.675 111.125 7.075 113.475L6.175 117.025L6.25 116.975C6.6 116.708 6.91667 116.508 7.2 116.375C7.71667 116.125 8.29167 115.983 8.925 115.95C9.84167 115.917 10.575 116.125 11.125 116.575C11.4917 116.858 11.75 117.275 11.9 117.825C11.9333 117.975 11.95 118.25 11.95 118.65C11.95 119.083 11.9417 119.358 11.925 119.475C11.7417 120.425 11.2917 121.9 10.575 123.9C10.3083 124.617 10.15 125.108 10.1 125.375C10.05 125.792 10.1 126.025 10.25 126.075C10.45 126.142 10.6833 126.1 10.95 125.95C11.4667 125.633 11.9 124.858 12.25 123.625C12.3333 123.358 12.4167 123.217 12.5 123.2C12.55 123.183 12.725 123.175 13.025 123.175C13.3917 123.175 13.5917 123.192 13.625 123.225C13.725 123.292 13.725 123.467 13.625 123.75C13.4417 124.4 13.1667 125.008 12.8 125.575C12.1333 126.575 11.375 127.133 10.525 127.25C10.225 127.317 9.91667 127.3 9.6 127.2C9.11667 127.1 8.75 126.875 8.5 126.525C8.18333 126.142 8.025 125.692 8.025 125.175C8.025 124.858 8.15 124.342 8.4 123.625C9.21667 121.425 9.675 119.867 9.775 118.95C9.84167 118.55 9.83333 118.175 9.75 117.825C9.63333 117.492 9.46667 117.283 9.25 117.2C9.08333 117.117 8.825 117.1 8.475 117.15C7.375 117.317 6.425 118.15 5.625 119.65L5.45 119.975L4.65 123.15C4.11667 125.283 3.81667 126.408 3.75 126.525C3.46667 126.975 3.075 127.225 2.575 127.275C2.09167 127.275 1.79167 127.075 1.675 126.675C1.64167 126.592 1.625 126.517 1.625 126.45C1.625 126.333 2.21667 123.9 3.4 119.15C4.63333 114.217 5.21667 111.675 5.15 111.525C5.03333 111.408 4.675 111.342 4.075 111.325C3.675 111.325 3.44167 111.267 3.375 111.15L3.35 111.075L3.475 110.575C3.54167 110.258 3.60833 110.067 3.675 110C3.725 109.95 3.775 109.925 3.825 109.925L5.7 109.8Z" fill="black"/>
<path d="M16.752 123.264C16.8827 123.217 17.018 123.222 17.158 123.278C17.2793 123.325 17.368 123.404 17.424 123.516C17.4707 123.619 17.4567 123.815 17.382 124.104C17.354 124.225 17.2933 124.482 17.2 124.874C17.004 125.593 16.9107 125.947 16.92 125.938C16.92 125.957 17.1207 125.966 17.522 125.966H18.124L18.166 126.008C18.222 126.045 18.222 126.167 18.166 126.372C18.138 126.512 18.11 126.61 18.082 126.666C18.054 126.713 17.9653 126.741 17.816 126.75C17.7507 126.75 17.5967 126.75 17.354 126.75H16.724L16.71 126.806C16.0847 129.242 15.758 130.567 15.73 130.782C15.7113 130.894 15.702 130.997 15.702 131.09C15.702 131.351 15.7767 131.487 15.926 131.496C15.982 131.496 16.0473 131.487 16.122 131.468C16.2527 131.459 16.3927 131.393 16.542 131.272C16.8687 131.02 17.1393 130.614 17.354 130.054C17.4007 129.942 17.452 129.881 17.508 129.872C17.536 129.863 17.6293 129.858 17.788 129.858C17.9933 129.858 18.1053 129.867 18.124 129.886C18.18 129.933 18.18 130.026 18.124 130.166C17.9467 130.595 17.7367 130.95 17.494 131.23C17.1207 131.706 16.6913 132 16.206 132.112C16.1313 132.131 16.01 132.14 15.842 132.14C15.674 132.14 15.5573 132.131 15.492 132.112C15.2307 132.037 15.0207 131.925 14.862 131.776C14.7127 131.627 14.6053 131.445 14.54 131.23C14.5213 131.155 14.512 131.029 14.512 130.852V130.586L14.988 128.682C15.3053 127.431 15.464 126.792 15.464 126.764C15.464 126.755 15.268 126.75 14.876 126.75C14.4653 126.75 14.2413 126.717 14.204 126.652C14.1853 126.624 14.1947 126.521 14.232 126.344C14.288 126.157 14.3207 126.059 14.33 126.05C14.358 125.994 14.456 125.966 14.624 125.966C14.6893 125.966 14.8293 125.966 15.044 125.966H15.674L15.94 124.874C16.1173 124.155 16.2293 123.749 16.276 123.656C16.36 123.469 16.5187 123.339 16.752 123.264ZM19.0764 128.444C19.1044 128.425 19.6551 128.416 20.7284 128.416H22.3384L22.3944 128.458C22.4224 128.505 22.4364 128.542 22.4364 128.57L22.1984 129.48L22.1424 129.536C22.1238 129.545 21.5824 129.55 20.5184 129.55C19.4264 129.55 18.8664 129.527 18.8384 129.48C18.8198 129.461 18.8104 129.433 18.8104 129.396L19.0204 128.514C19.0298 128.495 19.0484 128.472 19.0764 128.444ZM28.952 122.69L29.078 122.676H29.092C29.1947 122.676 29.26 122.709 29.288 122.774C29.2973 122.811 28.9613 124.207 28.28 126.96C27.58 129.723 27.23 131.109 27.23 131.118C27.2207 131.146 27.286 131.169 27.426 131.188C27.566 131.197 27.7947 131.207 28.112 131.216C28.476 131.216 28.672 131.249 28.7 131.314C28.7187 131.342 28.7047 131.449 28.658 131.636C28.602 131.832 28.5647 131.939 28.546 131.958L28.504 132H28.28C27.2533 131.953 26.054 131.949 24.682 131.986C24.3647 131.995 24.1873 131.967 24.15 131.902C24.1407 131.874 24.1547 131.767 24.192 131.58C24.248 131.393 24.2853 131.286 24.304 131.258L24.36 131.216H24.892C25.4613 131.207 25.7927 131.169 25.886 131.104C25.9233 131.085 26.1987 130.031 26.712 127.94L27.496 124.804L27.314 124.902C26.9033 125.107 26.4973 125.224 26.096 125.252C25.9187 125.271 25.8067 125.243 25.76 125.168L25.746 125.126L25.802 124.874C25.858 124.65 25.9093 124.524 25.956 124.496C25.9653 124.496 26.0447 124.487 26.194 124.468C26.5393 124.44 26.8987 124.337 27.272 124.16C27.8787 123.852 28.4013 123.404 28.84 122.816C28.868 122.779 28.9053 122.737 28.952 122.69Z" fill="black"/>
<path d="M371.7 111.8C373 111.7 373.642 111.65 373.625 111.65C373.775 111.65 373.875 111.708 373.925 111.825C373.958 111.908 373.675 113.125 373.075 115.475L372.175 119.025L372.25 118.975C372.6 118.708 372.917 118.508 373.2 118.375C373.717 118.125 374.292 117.983 374.925 117.95C375.842 117.917 376.575 118.125 377.125 118.575C377.492 118.858 377.75 119.275 377.9 119.825C377.933 119.975 377.95 120.25 377.95 120.65C377.95 121.083 377.942 121.358 377.925 121.475C377.742 122.425 377.292 123.9 376.575 125.9C376.308 126.617 376.15 127.108 376.1 127.375C376.05 127.792 376.1 128.025 376.25 128.075C376.45 128.142 376.683 128.1 376.95 127.95C377.467 127.633 377.9 126.858 378.25 125.625C378.333 125.358 378.417 125.217 378.5 125.2C378.55 125.183 378.725 125.175 379.025 125.175C379.392 125.175 379.592 125.192 379.625 125.225C379.725 125.292 379.725 125.467 379.625 125.75C379.442 126.4 379.167 127.008 378.8 127.575C378.133 128.575 377.375 129.133 376.525 129.25C376.225 129.317 375.917 129.3 375.6 129.2C375.117 129.1 374.75 128.875 374.5 128.525C374.183 128.142 374.025 127.692 374.025 127.175C374.025 126.858 374.15 126.342 374.4 125.625C375.217 123.425 375.675 121.867 375.775 120.95C375.842 120.55 375.833 120.175 375.75 119.825C375.633 119.492 375.467 119.283 375.25 119.2C375.083 119.117 374.825 119.1 374.475 119.15C373.375 119.317 372.425 120.15 371.625 121.65L371.45 121.975L370.65 125.15C370.117 127.283 369.817 128.408 369.75 128.525C369.467 128.975 369.075 129.225 368.575 129.275C368.092 129.275 367.792 129.075 367.675 128.675C367.642 128.592 367.625 128.517 367.625 128.45C367.625 128.333 368.217 125.9 369.4 121.15C370.633 116.217 371.217 113.675 371.15 113.525C371.033 113.408 370.675 113.342 370.075 113.325C369.675 113.325 369.442 113.267 369.375 113.15L369.35 113.075L369.475 112.575C369.542 112.258 369.608 112.067 369.675 112C369.725 111.95 369.775 111.925 369.825 111.925L371.7 111.8Z" fill="black"/>
<path d="M382.752 125.264C382.883 125.217 383.018 125.222 383.158 125.278C383.279 125.325 383.368 125.404 383.424 125.516C383.471 125.619 383.457 125.815 383.382 126.104C383.354 126.225 383.293 126.482 383.2 126.874C383.004 127.593 382.911 127.947 382.92 127.938C382.92 127.957 383.121 127.966 383.522 127.966H384.124L384.166 128.008C384.222 128.045 384.222 128.167 384.166 128.372C384.138 128.512 384.11 128.61 384.082 128.666C384.054 128.713 383.965 128.741 383.816 128.75C383.751 128.75 383.597 128.75 383.354 128.75H382.724L382.71 128.806C382.085 131.242 381.758 132.567 381.73 132.782C381.711 132.894 381.702 132.997 381.702 133.09C381.702 133.351 381.777 133.487 381.926 133.496C381.982 133.496 382.047 133.487 382.122 133.468C382.253 133.459 382.393 133.393 382.542 133.272C382.869 133.02 383.139 132.614 383.354 132.054C383.401 131.942 383.452 131.881 383.508 131.872C383.536 131.863 383.629 131.858 383.788 131.858C383.993 131.858 384.105 131.867 384.124 131.886C384.18 131.933 384.18 132.026 384.124 132.166C383.947 132.595 383.737 132.95 383.494 133.23C383.121 133.706 382.691 134 382.206 134.112C382.131 134.131 382.01 134.14 381.842 134.14C381.674 134.14 381.557 134.131 381.492 134.112C381.231 134.037 381.021 133.925 380.862 133.776C380.713 133.627 380.605 133.445 380.54 133.23C380.521 133.155 380.512 133.029 380.512 132.852V132.586L380.988 130.682C381.305 129.431 381.464 128.792 381.464 128.764C381.464 128.755 381.268 128.75 380.876 128.75C380.465 128.75 380.241 128.717 380.204 128.652C380.185 128.624 380.195 128.521 380.232 128.344C380.288 128.157 380.321 128.059 380.33 128.05C380.358 127.994 380.456 127.966 380.624 127.966C380.689 127.966 380.829 127.966 381.044 127.966H381.674L381.94 126.874C382.117 126.155 382.229 125.749 382.276 125.656C382.36 125.469 382.519 125.339 382.752 125.264Z" fill="black"/>
<path d="M195.752 253.264C195.883 253.217 196.018 253.222 196.158 253.278C196.279 253.325 196.368 253.404 196.424 253.516C196.471 253.619 196.457 253.815 196.382 254.104C196.354 254.225 196.293 254.482 196.2 254.874C196.004 255.593 195.911 255.947 195.92 255.938C195.92 255.957 196.121 255.966 196.522 255.966H197.124L197.166 256.008C197.222 256.045 197.222 256.167 197.166 256.372C197.138 256.512 197.11 256.61 197.082 256.666C197.054 256.713 196.965 256.741 196.816 256.75C196.751 256.75 196.597 256.75 196.354 256.75H195.724L195.71 256.806C195.085 259.242 194.758 260.567 194.73 260.782C194.711 260.894 194.702 260.997 194.702 261.09C194.702 261.351 194.777 261.487 194.926 261.496C194.982 261.496 195.047 261.487 195.122 261.468C195.253 261.459 195.393 261.393 195.542 261.272C195.869 261.02 196.139 260.614 196.354 260.054C196.401 259.942 196.452 259.881 196.508 259.872C196.536 259.863 196.629 259.858 196.788 259.858C196.993 259.858 197.105 259.867 197.124 259.886C197.18 259.933 197.18 260.026 197.124 260.166C196.947 260.595 196.737 260.95 196.494 261.23C196.121 261.706 195.691 262 195.206 262.112C195.131 262.131 195.01 262.14 194.842 262.14C194.674 262.14 194.557 262.131 194.492 262.112C194.231 262.037 194.021 261.925 193.862 261.776C193.713 261.627 193.605 261.445 193.54 261.23C193.521 261.155 193.512 261.029 193.512 260.852V260.586L193.988 258.682C194.305 257.431 194.464 256.792 194.464 256.764C194.464 256.755 194.268 256.75 193.876 256.75C193.465 256.75 193.241 256.717 193.204 256.652C193.185 256.624 193.195 256.521 193.232 256.344C193.288 256.157 193.321 256.059 193.33 256.05C193.358 255.994 193.456 255.966 193.624 255.966C193.689 255.966 193.829 255.966 194.044 255.966H194.674L194.94 254.874C195.117 254.155 195.229 253.749 195.276 253.656C195.36 253.469 195.519 253.339 195.752 253.264ZM198.076 258.444C198.104 258.425 198.655 258.416 199.728 258.416H201.338L201.394 258.458C201.422 258.505 201.436 258.542 201.436 258.57L201.198 259.48L201.142 259.536C201.124 259.545 200.582 259.55 199.518 259.55C198.426 259.55 197.866 259.527 197.838 259.48C197.82 259.461 197.81 259.433 197.81 259.396L198.02 258.514C198.03 258.495 198.048 258.472 198.076 258.444ZM207.952 252.69L208.078 252.676H208.092C208.195 252.676 208.26 252.709 208.288 252.774C208.297 252.811 207.961 254.207 207.28 256.96C206.58 259.723 206.23 261.109 206.23 261.118C206.221 261.146 206.286 261.169 206.426 261.188C206.566 261.197 206.795 261.207 207.112 261.216C207.476 261.216 207.672 261.249 207.7 261.314C207.719 261.342 207.705 261.449 207.658 261.636C207.602 261.832 207.565 261.939 207.546 261.958L207.504 262H207.28C206.253 261.953 205.054 261.949 203.682 261.986C203.365 261.995 203.187 261.967 203.15 261.902C203.141 261.874 203.155 261.767 203.192 261.58C203.248 261.393 203.285 261.286 203.304 261.258L203.36 261.216H203.892C204.461 261.207 204.793 261.169 204.886 261.104C204.923 261.085 205.199 260.031 205.712 257.94L206.496 254.804L206.314 254.902C205.903 255.107 205.497 255.224 205.096 255.252C204.919 255.271 204.807 255.243 204.76 255.168L204.746 255.126L204.802 254.874C204.858 254.65 204.909 254.524 204.956 254.496C204.965 254.496 205.045 254.487 205.194 254.468C205.539 254.44 205.899 254.337 206.272 254.16C206.879 253.852 207.401 253.404 207.84 252.816C207.868 252.779 207.905 252.737 207.952 252.69Z" fill="black"/>
<path d="M200.286 188.69L200.412 188.676H200.426C200.529 188.676 200.594 188.709 200.622 188.774C200.631 188.811 200.295 190.207 199.614 192.96C198.914 195.723 198.564 197.109 198.564 197.118C198.555 197.146 198.62 197.169 198.76 197.188C198.9 197.197 199.129 197.207 199.446 197.216C199.81 197.216 200.006 197.249 200.034 197.314C200.053 197.342 200.039 197.449 199.992 197.636C199.936 197.832 199.899 197.939 199.88 197.958L199.838 198H199.614C198.587 197.953 197.388 197.949 196.016 197.986C195.699 197.995 195.521 197.967 195.484 197.902C195.475 197.874 195.489 197.767 195.526 197.58C195.582 197.393 195.619 197.286 195.638 197.258L195.694 197.216H196.226C196.795 197.207 197.127 197.169 197.22 197.104C197.257 197.085 197.533 196.031 198.046 193.94L198.83 190.804L198.648 190.902C198.237 191.107 197.831 191.224 197.43 191.252C197.253 191.271 197.141 191.243 197.094 191.168L197.08 191.126L197.136 190.874C197.192 190.65 197.243 190.524 197.29 190.496C197.299 190.496 197.379 190.487 197.528 190.468C197.873 190.44 198.233 190.337 198.606 190.16C199.213 189.852 199.735 189.404 200.174 188.816C200.202 188.779 200.239 188.737 200.286 188.69Z" fill="black"/>
<path d="M101.525 111L101.6 110.925H101.925C103.408 111.008 105.292 111.017 107.575 110.95C108.125 110.933 108.433 110.983 108.5 111.1C108.517 111.15 108.483 111.342 108.4 111.675C108.333 111.992 108.267 112.183 108.2 112.25L108.125 112.325H107.775C106.992 112.325 106.45 112.392 106.15 112.525L106.05 112.575V112.75C106.067 112.817 106.2 114.733 106.45 118.5L106.8 124.125L112.375 114.3L112.225 112.5V112.475C112.225 112.458 112.183 112.433 112.1 112.4C111.917 112.35 111.5 112.325 110.85 112.325C110.483 112.325 110.275 112.267 110.225 112.15C110.192 112.1 110.217 111.908 110.3 111.575C110.4 111.225 110.467 111.033 110.5 111L110.575 110.925H110.9C112.367 111.008 114.25 111.017 116.55 110.95C117.1 110.933 117.408 110.983 117.475 111.1C117.492 111.15 117.467 111.342 117.4 111.675C117.317 111.992 117.242 112.183 117.175 112.25L117.1 112.325H116.75C115.983 112.325 115.45 112.392 115.15 112.525L115.025 112.575V112.725C115.042 112.792 115.175 114.708 115.425 118.475C115.658 122.058 115.775 123.942 115.775 124.125C115.808 124.192 117.633 120.983 121.25 114.5C121.717 113.633 121.958 113.183 121.975 113.15C122.042 113 122.008 112.858 121.875 112.725C121.575 112.458 121.1 112.325 120.45 112.325C120.283 112.325 120.175 112.267 120.125 112.15C120.092 112.1 120.117 111.908 120.2 111.575C120.3 111.225 120.367 111.033 120.4 111L120.475 110.925H120.8L122.45 110.975C123.35 110.992 124.117 110.992 124.75 110.975L125.875 110.925C125.975 110.925 126.05 110.95 126.1 111C126.167 111.067 126.2 111.125 126.2 111.175L125.95 112.15V112.175C125.9 112.275 125.783 112.325 125.6 112.325C125.017 112.325 124.508 112.425 124.075 112.625C123.725 112.792 123.433 113.05 123.2 113.4C123.133 113.5 121.725 115.983 118.975 120.85C116.225 125.717 114.817 128.2 114.75 128.3C114.683 128.4 114.617 128.458 114.55 128.475C114.467 128.525 114.275 128.55 113.975 128.55C113.658 128.55 113.475 128.533 113.425 128.5L113.325 128.4C113.308 128.383 113.167 126.392 112.9 122.425C112.65 118.358 112.525 116.367 112.525 116.45C112.525 116.433 112.292 116.825 111.825 117.625C111.342 118.475 110.45 120.05 109.15 122.35C106.867 126.35 105.708 128.367 105.675 128.4C105.575 128.5 105.325 128.55 104.925 128.55L104.475 128.525L104.4 128.45C104.35 128.4 104.325 128.333 104.325 128.25C104.308 128.217 104.133 125.583 103.8 120.35C103.483 115.167 103.308 112.55 103.275 112.5C103.258 112.467 103.208 112.433 103.125 112.4C102.825 112.35 102.408 112.325 101.875 112.325C101.508 112.325 101.292 112.267 101.225 112.15L101.2 112.075L101.325 111.575C101.392 111.258 101.458 111.067 101.525 111Z" fill="black"/>
<path d="M125.208 121.69L125.572 121.676H125.586C125.903 121.685 126.202 121.755 126.482 121.886C126.893 122.091 127.205 122.404 127.42 122.824C127.607 123.188 127.7 123.603 127.7 124.07C127.7 124.313 127.677 124.546 127.63 124.77C127.537 125.237 127.327 125.675 127 126.086C126.897 126.226 126.678 126.45 126.342 126.758C125.931 127.085 125.39 127.453 124.718 127.864C124.494 127.985 124.293 128.107 124.116 128.228C123.575 128.545 123.085 128.97 122.646 129.502C122.655 129.577 122.674 129.619 122.702 129.628C122.879 129.628 123.262 129.684 123.85 129.796C124.634 129.945 125.147 130.001 125.39 129.964C125.81 129.899 126.155 129.628 126.426 129.152C126.491 129.031 126.547 128.909 126.594 128.788C126.631 128.667 126.673 128.601 126.72 128.592C126.748 128.583 126.846 128.578 127.014 128.578H127.322L127.364 128.62C127.392 128.648 127.406 128.681 127.406 128.718C127.387 128.821 127.322 129.017 127.21 129.306C126.818 130.295 126.267 130.925 125.558 131.196C125.474 131.224 125.395 131.247 125.32 131.266C125.245 131.285 125.124 131.294 124.956 131.294C124.788 131.294 124.662 131.285 124.578 131.266C124.317 131.201 124.004 131.047 123.64 130.804C123.164 130.496 122.786 130.323 122.506 130.286C122.319 130.258 122.17 130.319 122.058 130.468C121.993 130.561 121.913 130.757 121.82 131.056C121.773 131.205 121.727 131.285 121.68 131.294C121.643 131.303 121.54 131.308 121.372 131.308H121.078L121.036 131.266C120.999 131.219 121.003 131.121 121.05 130.972C121.386 129.796 122.095 128.802 123.178 127.99C123.374 127.841 123.575 127.705 123.78 127.584C124.844 126.949 125.567 126.24 125.95 125.456C126.062 125.223 126.174 124.845 126.286 124.322C126.351 124.005 126.384 123.72 126.384 123.468C126.384 123.207 126.347 122.997 126.272 122.838C126.151 122.595 125.955 122.437 125.684 122.362C125.544 122.325 125.362 122.325 125.138 122.362C124.942 122.409 124.793 122.46 124.69 122.516C124.279 122.712 123.92 123.053 123.612 123.538C123.481 123.725 123.337 124 123.178 124.364C122.889 125.073 122.837 125.493 123.024 125.624C123.08 125.661 123.178 125.652 123.318 125.596C123.626 125.493 123.878 125.19 124.074 124.686C124.083 124.658 124.093 124.635 124.102 124.616C124.242 124.252 124.256 123.963 124.144 123.748C124.088 123.655 124.074 123.585 124.102 123.538C124.205 123.435 124.34 123.328 124.508 123.216C124.564 123.179 124.615 123.193 124.662 123.258C124.718 123.323 124.769 123.431 124.816 123.58C124.928 123.897 124.9 124.285 124.732 124.742C124.443 125.498 124.023 125.983 123.472 126.198C123.425 126.217 123.374 126.235 123.318 126.254C123.141 126.301 122.973 126.31 122.814 126.282C122.45 126.198 122.235 125.951 122.17 125.54C122.142 125.353 122.151 125.162 122.198 124.966C122.301 124.481 122.501 123.995 122.8 123.51C123.332 122.595 124.018 122.017 124.858 121.774C124.979 121.737 125.096 121.709 125.208 121.69Z" fill="black"/>
<path d="M185.5 245.975C186.067 245.892 186.642 245.975 187.225 246.225C187.675 246.425 188.017 246.708 188.25 247.075L188.35 247.2L188.45 247.05C188.867 246.55 189.375 246.208 189.975 246.025C190.708 245.825 191.375 245.958 191.975 246.425C192.092 246.508 192.192 246.6 192.275 246.7C192.475 246.933 192.608 247.208 192.675 247.525C192.842 248.075 192.8 248.617 192.55 249.15C192.283 249.717 191.833 250.033 191.2 250.1C190.667 250.15 190.3 249.958 190.1 249.525C190.05 249.442 190.017 249.308 190 249.125C190 248.842 190.058 248.583 190.175 248.35C190.308 248.05 190.55 247.808 190.9 247.625C191.05 247.558 191.125 247.508 191.125 247.475C191.058 247.375 190.942 247.283 190.775 247.2C190.692 247.167 190.567 247.15 190.4 247.15C190.233 247.15 190.108 247.167 190.025 247.2C189.608 247.433 189.283 247.875 189.05 248.525L187.6 254.3C187.483 254.817 187.458 255.2 187.525 255.45C187.658 255.9 188.017 256.117 188.6 256.1C188.8 256.083 188.992 256.042 189.175 255.975C189.842 255.725 190.392 255.15 190.825 254.25C190.942 254.017 191.033 253.783 191.1 253.55C191.167 253.333 191.242 253.217 191.325 253.2C191.375 253.183 191.55 253.175 191.85 253.175C192.217 253.175 192.417 253.192 192.45 253.225C192.533 253.292 192.542 253.433 192.475 253.65C192.342 254.2 192.108 254.708 191.775 255.175C190.908 256.442 189.85 257.142 188.6 257.275C188.567 257.275 188.533 257.275 188.5 257.275C187.533 257.325 186.758 257.008 186.175 256.325C186.142 256.308 186.117 256.283 186.1 256.25C186 256.133 185.942 256.067 185.925 256.05L185.775 256.225C185.542 256.492 185.308 256.692 185.075 256.825C184.575 257.142 184.083 257.292 183.6 257.275C183.283 257.258 182.967 257.175 182.65 257.025C182.117 256.775 181.767 256.325 181.6 255.675C181.417 254.842 181.567 254.15 182.05 253.6C182.517 253.15 183.025 253.008 183.575 253.175C183.775 253.242 183.933 253.342 184.05 253.475C184.367 253.825 184.383 254.292 184.1 254.875C183.95 255.192 183.717 255.433 183.4 255.6C183.25 255.683 183.167 255.725 183.15 255.725C183.15 255.792 183.275 255.892 183.525 256.025C183.592 256.058 183.708 256.075 183.875 256.075C184.042 256.075 184.167 256.058 184.25 256.025C184.667 255.808 184.983 255.375 185.2 254.725L186.7 248.825C186.733 248.658 186.75 248.425 186.75 248.125C186.75 247.892 186.733 247.733 186.7 247.65C186.5 247.217 186.075 247.058 185.425 247.175C184.808 247.292 184.258 247.708 183.775 248.425C183.492 248.875 183.283 249.342 183.15 249.825C183.1 249.925 183.067 249.983 183.05 250C183.017 250.033 182.817 250.05 182.45 250.05H181.9L181.825 249.975C181.775 249.925 181.75 249.858 181.75 249.775C181.817 249.342 182.05 248.817 182.45 248.2C182.467 248.167 182.483 248.133 182.5 248.1C183.233 246.95 184.175 246.25 185.325 246C185.392 246 185.45 245.992 185.5 245.975Z" fill="black"/>
<path d="M187.707 209.293C187.317 208.902 186.683 208.902 186.293 209.293L179.929 215.657C179.538 216.047 179.538 216.681 179.929 217.071C180.319 217.462 180.953 217.462 181.343 217.071L187 211.414L192.657 217.071C193.047 217.462 193.681 217.462 194.071 217.071C194.462 216.681 194.462 216.047 194.071 215.657L187.707 209.293ZM187 241H188V210H187H186V241H187Z" fill="black"/>
<path d="M303.752 16.264C303.883 16.2173 304.018 16.222 304.158 16.278C304.279 16.3247 304.368 16.404 304.424 16.516C304.471 16.6187 304.457 16.8147 304.382 17.104C304.354 17.2253 304.293 17.482 304.2 17.874C304.004 18.5927 303.911 18.9473 303.92 18.938C303.92 18.9567 304.121 18.966 304.522 18.966H305.124L305.166 19.008C305.222 19.0453 305.222 19.1667 305.166 19.372C305.138 19.512 305.11 19.61 305.082 19.666C305.054 19.7127 304.965 19.7407 304.816 19.75C304.751 19.75 304.597 19.75 304.354 19.75H303.724L303.71 19.806C303.085 22.242 302.758 23.5673 302.73 23.782C302.711 23.894 302.702 23.9967 302.702 24.09C302.702 24.3513 302.777 24.4867 302.926 24.496C302.982 24.496 303.047 24.4867 303.122 24.468C303.253 24.4587 303.393 24.3933 303.542 24.272C303.869 24.02 304.139 23.614 304.354 23.054C304.401 22.942 304.452 22.8813 304.508 22.872C304.536 22.8627 304.629 22.858 304.788 22.858C304.993 22.858 305.105 22.8673 305.124 22.886C305.18 22.9327 305.18 23.026 305.124 23.166C304.947 23.5953 304.737 23.95 304.494 24.23C304.121 24.706 303.691 25 303.206 25.112C303.131 25.1307 303.01 25.14 302.842 25.14C302.674 25.14 302.557 25.1307 302.492 25.112C302.231 25.0373 302.021 24.9253 301.862 24.776C301.713 24.6267 301.605 24.4447 301.54 24.23C301.521 24.1553 301.512 24.0293 301.512 23.852V23.586L301.988 21.682C302.305 20.4313 302.464 19.792 302.464 19.764C302.464 19.7547 302.268 19.75 301.876 19.75C301.465 19.75 301.241 19.7173 301.204 19.652C301.185 19.624 301.195 19.5213 301.232 19.344C301.288 19.1573 301.321 19.0593 301.33 19.05C301.358 18.994 301.456 18.966 301.624 18.966C301.689 18.966 301.829 18.966 302.044 18.966H302.674L302.94 17.874C303.117 17.1553 303.229 16.7493 303.276 16.656C303.36 16.4693 303.519 16.3387 303.752 16.264Z" fill="black"/>
<path d="M296.65 8.975C296.683 8.95833 296.858 8.95 297.175 8.95C297.625 8.96667 298.025 9.03333 298.375 9.15C299.758 9.61667 300.617 10.625 300.95 12.175C300.983 12.375 301 12.6917 301 13.125C301.017 13.675 300.967 14.175 300.85 14.625C300.617 15.5583 300.217 16.425 299.65 17.225C298.617 18.675 297.325 19.625 295.775 20.075C295.358 20.1917 294.95 20.2583 294.55 20.275C293.117 20.325 292.017 19.8083 291.25 18.725C291.15 18.6083 291.067 18.4833 291 18.35C290.2 16.9167 290.225 15.2333 291.075 13.3C291.475 12.4333 292.008 11.6667 292.675 11C293.308 10.3667 293.967 9.89167 294.65 9.575C295.317 9.24167 295.983 9.04167 296.65 8.975ZM297.425 10.175C297.075 10.125 296.792 10.1167 296.575 10.15C295.758 10.3 295.083 10.7 294.55 11.35C294.067 11.9333 293.65 12.9083 293.3 14.275C293.267 14.3917 293.233 14.5083 293.2 14.625C292.933 15.725 292.8 16.5417 292.8 17.075C292.8 17.425 292.817 17.6583 292.85 17.775C293.05 18.5583 293.533 18.9917 294.3 19.075C294.633 19.1083 294.983 19.0667 295.35 18.95C296.233 18.6667 296.933 18.025 297.45 17.025C297.733 16.5083 298.017 15.6583 298.3 14.475C298.667 13.025 298.767 11.9917 298.6 11.375C298.433 10.7583 298.042 10.3583 297.425 10.175Z" fill="black"/>
<path d="M297.707 26.2929C297.317 25.9024 296.683 25.9024 296.293 26.2929L289.929 32.6569C289.538 33.0474 289.538 33.6805 289.929 34.0711C290.319 34.4616 290.953 34.4616 291.343 34.0711L297 28.4142L302.657 34.0711C303.047 34.4616 303.681 34.4616 304.071 34.0711C304.462 33.6805 304.462 33.0474 304.071 32.6569L297.707 26.2929ZM297 57H298V27H297H296V57H297Z" fill="black"/>
</svg>
