<?xml version="1.0" encoding="utf-8"?>
<svg width="1920" height="275" viewBox="0 0 1920 275" fill="none" xmlns="http://www.w3.org/2000/svg">
  <path d="M500.947 230.1C501.206 228.541 502.209 226.741 503.954 224.699C505.698 222.657 507.851 221.618 510.413 221.581C511.712 221.581 512.9 221.915 513.976 222.583C515.053 223.251 515.851 224.087 516.371 225.089C517.93 222.75 519.805 221.581 521.995 221.581C523.368 221.581 524.556 221.989 525.559 222.806C526.561 223.623 527.081 224.718 527.118 226.091C527.118 227.168 526.858 228.04 526.338 228.708C525.818 229.377 525.317 229.785 524.835 229.933C524.352 230.082 523.925 230.156 523.554 230.156C522.849 230.156 522.273 229.952 521.828 229.544C521.382 229.135 521.16 228.597 521.16 227.929C521.16 226.221 522.088 225.052 523.944 224.421C523.535 223.938 522.793 223.697 521.716 223.697C521.234 223.697 520.881 223.734 520.658 223.808C519.248 224.402 518.208 225.627 517.54 227.483C515.313 235.687 514.199 240.476 514.199 241.85C514.199 242.889 514.496 243.632 515.09 244.077C515.684 244.523 516.334 244.745 517.039 244.745C518.413 244.745 519.768 244.133 521.104 242.908C522.44 241.683 523.35 240.179 523.832 238.397C523.944 238.026 524.055 237.822 524.167 237.785C524.278 237.748 524.575 237.711 525.057 237.673H525.28C525.837 237.673 526.115 237.822 526.115 238.119C526.115 238.156 526.078 238.36 526.004 238.731C525.41 240.847 524.259 242.722 522.552 244.356C520.844 245.989 518.858 246.806 516.594 246.806C513.995 246.806 512.028 245.636 510.691 243.298C509.169 245.599 507.424 246.75 505.457 246.75H505.123C503.304 246.75 502.005 246.267 501.225 245.302C500.445 244.337 500.037 243.316 500 242.24C500 241.052 500.353 240.086 501.058 239.344C501.763 238.602 502.599 238.23 503.564 238.23C505.16 238.23 505.958 239.01 505.958 240.569C505.958 241.311 505.735 241.961 505.29 242.518C504.844 243.075 504.418 243.446 504.009 243.632C503.601 243.817 503.36 243.91 503.285 243.91L503.118 243.966C503.118 244.003 503.23 244.077 503.452 244.189C503.675 244.3 503.972 244.43 504.343 244.578C504.715 244.727 505.067 244.782 505.401 244.745C506.738 244.745 507.888 243.91 508.854 242.24C509.188 241.646 509.615 240.383 510.134 238.453C510.654 236.523 511.174 234.518 511.693 232.439C512.213 230.36 512.51 229.135 512.584 228.764C512.77 227.762 512.863 227.038 512.863 226.592C512.863 225.553 512.584 224.81 512.028 224.365C511.471 223.92 510.84 223.697 510.134 223.697C508.649 223.697 507.257 224.291 505.958 225.479C504.659 226.667 503.749 228.189 503.23 230.045C503.155 230.379 503.063 230.564 502.951 230.602C502.84 230.639 502.543 230.676 502.06 230.713H501.281C501.058 230.49 500.947 230.286 500.947 230.1Z" style="fill: rgb(0, 0, 0);"/>
  <path d="M538.288 231.791L537.776 231.988C537.409 232.119 536.884 232.25 536.201 232.381C535.519 232.513 534.758 232.604 533.918 232.657H533.17V230.846H533.918C535.151 230.793 536.293 230.597 537.343 230.255C538.393 229.914 539.128 229.599 539.548 229.311C539.967 229.022 540.335 228.733 540.65 228.444C540.702 228.366 540.86 228.326 541.122 228.326C541.358 228.326 541.582 228.405 541.792 228.563V240.334L541.831 252.144C542.015 252.328 542.172 252.446 542.303 252.499C542.435 252.551 542.749 252.604 543.248 252.656C543.747 252.709 544.56 252.735 545.689 252.735H546.713V254.546H546.279C545.728 254.467 543.642 254.428 540.02 254.428C536.451 254.428 534.39 254.467 533.839 254.546H533.367V252.735H534.39C534.968 252.735 535.466 252.735 535.886 252.735C536.306 252.735 536.634 252.722 536.871 252.696C537.107 252.669 537.317 252.63 537.5 252.577C537.684 252.525 537.789 252.499 537.815 252.499C537.842 252.499 537.92 252.433 538.052 252.302C538.183 252.171 538.262 252.118 538.288 252.144V231.791Z" style="fill: rgb(0, 0, 0);"/>
  <path d="M735.269 230.1C735.529 228.541 736.531 226.741 738.276 224.699C740.021 222.657 742.174 221.618 744.735 221.581C746.034 221.581 747.222 221.915 748.299 222.583C749.375 223.251 750.173 224.087 750.693 225.089C752.252 222.75 754.127 221.581 756.317 221.581C757.691 221.581 758.879 221.989 759.881 222.806C760.883 223.623 761.403 224.718 761.44 226.091C761.44 227.168 761.18 228.04 760.66 228.708C760.141 229.377 759.64 229.785 759.157 229.933C758.674 230.082 758.248 230.156 757.876 230.156C757.171 230.156 756.596 229.952 756.15 229.544C755.705 229.135 755.482 228.597 755.482 227.929C755.482 226.221 756.41 225.052 758.266 224.421C757.858 223.938 757.115 223.697 756.039 223.697C755.556 223.697 755.203 223.734 754.981 223.808C753.57 224.402 752.531 225.627 751.862 227.483C749.635 235.687 748.521 240.476 748.521 241.85C748.521 242.889 748.818 243.632 749.412 244.077C750.006 244.523 750.656 244.745 751.361 244.745C752.735 244.745 754.09 244.133 755.426 242.908C756.763 241.683 757.672 240.179 758.155 238.397C758.266 238.026 758.377 237.822 758.489 237.785C758.6 237.748 758.897 237.711 759.38 237.673H759.602C760.159 237.673 760.438 237.822 760.438 238.119C760.438 238.156 760.401 238.36 760.326 238.731C759.732 240.847 758.582 242.722 756.874 244.356C755.166 245.989 753.18 246.806 750.916 246.806C748.317 246.806 746.35 245.636 745.013 243.298C743.491 245.599 741.747 246.75 739.779 246.75H739.445C737.626 246.75 736.327 246.267 735.547 245.302C734.768 244.337 734.359 243.316 734.322 242.24C734.322 241.052 734.675 240.086 735.38 239.344C736.086 238.602 736.921 238.23 737.886 238.23C739.482 238.23 740.28 239.01 740.28 240.569C740.28 241.311 740.058 241.961 739.612 242.518C739.167 243.075 738.74 243.446 738.331 243.632C737.923 243.817 737.682 243.91 737.608 243.91L737.441 243.966C737.441 244.003 737.552 244.077 737.775 244.189C737.997 244.3 738.294 244.43 738.666 244.578C739.037 244.727 739.389 244.782 739.724 244.745C741.06 244.745 742.211 243.91 743.176 242.24C743.51 241.646 743.937 240.383 744.457 238.453C744.976 236.523 745.496 234.518 746.016 232.439C746.535 230.36 746.832 229.135 746.907 228.764C747.092 227.762 747.185 227.038 747.185 226.592C747.185 225.553 746.907 224.81 746.35 224.365C745.793 223.92 745.162 223.697 744.457 223.697C742.972 223.697 741.58 224.291 740.28 225.479C738.981 226.667 738.072 228.189 737.552 230.045C737.478 230.379 737.385 230.564 737.273 230.602C737.162 230.639 736.865 230.676 736.383 230.713H735.603C735.38 230.49 735.269 230.286 735.269 230.1Z" style="fill: rgb(0, 0, 0);"/>
  <path d="M768.514 237.657C767.805 237.657 767.241 237.421 766.821 236.948C766.401 236.476 766.191 235.898 766.191 235.216C766.191 233.352 766.887 231.738 768.278 230.374C769.669 229.009 771.401 228.326 773.474 228.326C775.863 228.326 777.857 229.061 779.458 230.531C781.059 232.001 781.873 233.904 781.899 236.239C781.899 237.368 781.637 238.444 781.112 239.468C780.587 240.491 779.957 241.384 779.222 242.145C778.487 242.906 777.438 243.877 776.073 245.058C775.128 245.872 773.816 247.079 772.136 248.68L769.813 250.885L772.805 250.924C776.926 250.924 779.117 250.858 779.38 250.727C779.563 250.675 779.878 249.507 780.325 247.223V247.105H781.899V247.223C781.873 247.302 781.702 248.496 781.387 250.806C781.073 253.116 780.876 254.323 780.797 254.428V254.546H766.191V253.798V253.325C766.191 253.142 766.27 252.945 766.428 252.735C766.585 252.525 766.979 252.066 767.609 251.357C768.37 250.517 769.026 249.782 769.577 249.152C769.813 248.89 770.259 248.404 770.916 247.696C771.572 246.987 772.018 246.502 772.254 246.239C772.49 245.977 772.871 245.544 773.396 244.94C773.921 244.336 774.288 243.89 774.498 243.601C774.708 243.313 775.01 242.919 775.404 242.42C775.797 241.922 776.073 241.502 776.23 241.161C776.388 240.819 776.585 240.439 776.821 240.019C777.057 239.599 777.228 239.179 777.333 238.759C777.438 238.339 777.529 237.945 777.608 237.578C777.687 237.211 777.726 236.778 777.726 236.279C777.726 234.625 777.28 233.195 776.388 231.988C775.495 230.78 774.222 230.177 772.569 230.177C771.703 230.177 770.942 230.4 770.286 230.846C769.63 231.292 769.17 231.725 768.908 232.145C768.645 232.565 768.514 232.814 768.514 232.893C768.514 232.919 768.58 232.933 768.711 232.933C769.183 232.933 769.669 233.116 770.168 233.484C770.666 233.851 770.916 234.455 770.916 235.295C770.916 235.951 770.706 236.502 770.286 236.948C769.866 237.394 769.275 237.63 768.514 237.657Z" style="fill: rgb(0, 0, 0);"/>
  <path d="M1259.59 230.102C1259.85 228.543 1260.85 226.743 1262.6 224.701C1264.34 222.659 1266.49 221.62 1269.06 221.583C1270.35 221.583 1271.54 221.917 1272.62 222.585C1273.7 223.253 1274.49 224.089 1275.01 225.091C1276.57 222.752 1278.45 221.583 1280.64 221.583C1282.01 221.583 1283.2 221.991 1284.2 222.808C1285.2 223.624 1285.72 224.72 1285.76 226.093C1285.76 227.17 1285.5 228.042 1284.98 228.71C1284.46 229.378 1283.96 229.787 1283.48 229.935C1282.99 230.084 1282.57 230.158 1282.2 230.158C1281.49 230.158 1280.92 229.954 1280.47 229.546C1280.02 229.137 1279.8 228.599 1279.8 227.931C1279.8 226.223 1280.73 225.054 1282.59 224.423C1282.18 223.94 1281.44 223.699 1280.36 223.699C1279.88 223.699 1279.52 223.736 1279.3 223.81C1277.89 224.404 1276.85 225.629 1276.18 227.485C1273.96 235.689 1272.84 240.478 1272.84 241.852C1272.84 242.891 1273.14 243.634 1273.73 244.079C1274.33 244.525 1274.98 244.747 1275.68 244.747C1277.06 244.747 1278.41 244.135 1279.75 242.91C1281.08 241.685 1281.99 240.181 1282.48 238.399C1282.59 238.028 1282.7 237.824 1282.81 237.787C1282.92 237.75 1283.22 237.713 1283.7 237.675H1283.92C1284.48 237.675 1284.76 237.824 1284.76 238.121C1284.76 238.158 1284.72 238.362 1284.65 238.733C1284.05 240.849 1282.9 242.724 1281.19 244.358C1279.49 245.991 1277.5 246.808 1275.24 246.808C1272.64 246.808 1270.67 245.638 1269.33 243.3C1267.81 245.601 1266.07 246.752 1264.1 246.752H1263.77C1261.95 246.752 1260.65 246.269 1259.87 245.304C1259.09 244.339 1258.68 243.318 1258.64 242.242C1258.64 241.054 1259 240.088 1259.7 239.346C1260.41 238.603 1261.24 238.232 1262.21 238.232C1263.8 238.232 1264.6 239.012 1264.6 240.571C1264.6 241.313 1264.38 241.963 1263.93 242.52C1263.49 243.077 1263.06 243.448 1262.65 243.634C1262.24 243.819 1262 243.912 1261.93 243.912L1261.76 243.968C1261.76 244.005 1261.87 244.079 1262.09 244.19C1262.32 244.302 1262.61 244.432 1262.99 244.58C1263.36 244.729 1263.71 244.784 1264.04 244.747C1265.38 244.747 1266.53 243.912 1267.5 242.242C1267.83 241.648 1268.26 240.385 1268.78 238.455C1269.3 236.525 1269.82 234.52 1270.34 232.441C1270.86 230.362 1271.15 229.137 1271.23 228.766C1271.41 227.764 1271.51 227.04 1271.51 226.594C1271.51 225.555 1271.23 224.812 1270.67 224.367C1270.11 223.921 1269.48 223.699 1268.78 223.699C1267.29 223.699 1265.9 224.293 1264.6 225.481C1263.3 226.669 1262.39 228.191 1261.87 230.047C1261.8 230.381 1261.71 230.566 1261.59 230.604C1261.48 230.641 1261.19 230.678 1260.7 230.715H1259.92C1259.7 230.492 1259.59 230.288 1259.59 230.102Z" style="fill: rgb(0, 0, 0);"/>
  <path d="M1289.57 239.39C1289.38 239.206 1289.29 239.075 1289.29 238.996C1289.29 238.891 1289.33 238.681 1289.41 238.366C1289.49 238.051 1289.56 237.867 1289.61 237.815C1289.66 237.684 1289.78 237.618 1289.96 237.618C1290.15 237.618 1290.82 237.605 1291.97 237.579H1294.06L1294.8 234.429C1294.88 234.14 1294.98 233.76 1295.08 233.287C1295.19 232.815 1295.28 232.474 1295.36 232.264C1295.43 232.054 1295.51 231.791 1295.59 231.476C1295.67 231.161 1295.78 230.938 1295.91 230.807C1296.04 230.676 1296.17 230.518 1296.3 230.335C1296.43 230.151 1296.62 230.033 1296.85 229.98C1297.09 229.928 1297.32 229.902 1297.56 229.902C1298.03 229.928 1298.36 230.072 1298.54 230.335C1298.73 230.597 1298.82 230.847 1298.82 231.083C1298.82 231.266 1298.7 231.883 1298.47 232.933C1298.23 233.983 1297.97 235.02 1297.68 236.043L1297.28 237.5C1297.28 237.552 1297.94 237.579 1299.25 237.579H1301.26C1301.44 237.762 1301.54 237.907 1301.54 238.012C1301.54 238.589 1301.37 239.048 1301.02 239.39H1296.81L1295.4 245.098C1294.37 249.297 1293.86 251.554 1293.86 251.869C1293.86 252.972 1294.21 253.523 1294.92 253.523C1295.84 253.523 1296.73 253.077 1297.6 252.184C1298.47 251.292 1299.16 250.19 1299.69 248.877C1299.74 248.72 1299.8 248.628 1299.88 248.602C1299.96 248.576 1300.16 248.549 1300.47 248.523H1300.63C1301.02 248.523 1301.22 248.628 1301.22 248.838C1301.22 248.917 1301.18 249.074 1301.1 249.31C1300.97 249.73 1300.74 250.229 1300.39 250.806C1300.05 251.384 1299.61 252.001 1299.06 252.657C1298.51 253.313 1297.84 253.864 1297.05 254.31C1296.26 254.756 1295.46 254.979 1294.65 254.979C1293.86 254.979 1293.11 254.783 1292.4 254.389C1291.69 253.995 1291.18 253.313 1290.87 252.342C1290.82 252.132 1290.79 251.778 1290.79 251.279V250.57L1292.17 245.059C1293.09 241.358 1293.56 239.494 1293.58 239.468C1293.58 239.416 1292.91 239.39 1291.58 239.39H1289.57Z" style="fill: rgb(0, 0, 0);"/>
  <path d="M1137.35 20.5731C1137.38 20.5731 1138.64 20.4861 1141.1 20.3123C1143.57 20.1384 1144.84 20.0341 1144.91 19.9994C1145.33 19.9994 1145.54 20.1558 1145.54 20.4688C1145.54 20.8512 1144.91 23.4764 1143.66 28.3444C1142.34 33.4904 1141.68 36.1156 1141.68 36.22C1141.68 36.2895 1141.8 36.2026 1142.04 35.9592C1144.16 34.0816 1146.42 33.1427 1148.82 33.1427C1150.7 33.1427 1152.21 33.6121 1153.36 34.551C1154.51 35.4898 1155.1 36.8632 1155.13 38.6713C1155.13 40.4446 1154.47 43.1915 1153.15 46.912C1151.83 50.6325 1151.17 52.8578 1151.17 53.588C1151.2 54.0748 1151.29 54.4051 1151.43 54.579C1151.57 54.7528 1151.83 54.8397 1152.21 54.8397C1153.19 54.8397 1154.09 54.3182 1154.93 53.2751C1155.76 52.2319 1156.44 50.8063 1156.96 48.9982C1157.06 48.6158 1157.17 48.3898 1157.27 48.3202C1157.38 48.2507 1157.65 48.2159 1158.11 48.2159C1158.8 48.2159 1159.15 48.355 1159.15 48.6332C1159.15 48.6679 1159.08 48.9287 1158.94 49.4155C1158.38 51.467 1157.5 53.1534 1156.28 54.4747C1155.1 55.9698 1153.69 56.7174 1152.06 56.7174H1151.8C1150.16 56.7174 1148.98 56.248 1148.25 55.3092C1147.52 54.3703 1147.15 53.3794 1147.15 52.3362C1147.15 51.7799 1147.78 49.7284 1149.03 46.1818C1150.28 42.6352 1150.93 39.9752 1150.96 38.2019C1150.96 36.1504 1150.2 35.1247 1148.67 35.1247H1148.41C1145.52 35.1247 1143.02 36.8284 1140.9 40.236L1140.53 40.914L1138.76 47.9551C1137.64 52.4753 1137 54.9441 1136.83 55.3613C1136.38 56.3001 1135.61 56.7695 1134.53 56.7695C1134.05 56.7695 1133.63 56.6131 1133.28 56.3001C1132.93 55.9872 1132.74 55.6742 1132.71 55.3613C1132.71 54.8745 1133.98 49.5894 1136.51 39.5058L1140.37 24.0675C1140.37 23.6155 1140.25 23.3374 1140.01 23.233C1139.77 23.1287 1139.09 23.0418 1137.97 22.9723H1136.88C1136.67 22.7636 1136.57 22.6246 1136.57 22.555C1136.57 22.4855 1136.6 22.1551 1136.67 21.564C1136.84 20.9034 1137.07 20.5731 1137.35 20.5731Z" style="fill: rgb(0, 0, 0);"/>
  <path d="M1161.21 49.8215C1161.03 49.6494 1160.95 49.5265 1160.95 49.4528C1160.95 49.3545 1160.98 49.1578 1161.06 48.8628C1161.13 48.5678 1161.19 48.3957 1161.24 48.3465C1161.29 48.2236 1161.4 48.1622 1161.57 48.1622C1161.75 48.1622 1162.37 48.1499 1163.45 48.1253H1165.41L1166.11 45.1753C1166.18 44.9049 1166.27 44.5485 1166.37 44.106C1166.47 43.6635 1166.55 43.3439 1166.63 43.1472C1166.7 42.9506 1166.77 42.7048 1166.85 42.4098C1166.92 42.1148 1167.02 41.9058 1167.14 41.7829C1167.26 41.66 1167.39 41.5125 1167.51 41.3404C1167.63 41.1683 1167.81 41.0577 1168.03 41.0085C1168.25 40.9594 1168.47 40.9348 1168.69 40.9348C1169.13 40.9594 1169.44 41.0946 1169.61 41.3404C1169.78 41.5862 1169.87 41.8198 1169.87 42.041C1169.87 42.2131 1169.76 42.7908 1169.54 43.7741C1169.32 44.7574 1169.07 45.7285 1168.8 46.6872L1168.43 48.0516C1168.43 48.1007 1169.05 48.1253 1170.28 48.1253H1172.16C1172.33 48.2974 1172.42 48.4326 1172.42 48.5309C1172.42 49.0717 1172.26 49.502 1171.94 49.8215H1167.99L1166.66 55.1683C1165.7 59.1016 1165.22 61.2157 1165.22 61.5107C1165.22 62.5432 1165.56 63.0595 1166.22 63.0595C1167.08 63.0595 1167.92 62.6416 1168.73 61.8057C1169.54 60.9699 1170.19 59.9374 1170.68 58.7083C1170.73 58.5608 1170.79 58.4747 1170.87 58.4502C1170.94 58.4256 1171.12 58.401 1171.42 58.3764H1171.57C1171.94 58.3764 1172.12 58.4747 1172.12 58.6714C1172.12 58.7452 1172.08 58.8927 1172.01 59.1139C1171.89 59.5072 1171.67 59.9743 1171.35 60.5151C1171.03 61.056 1170.61 61.6337 1170.09 62.2482C1169.58 62.8628 1168.95 63.3791 1168.21 63.797C1167.47 64.2149 1166.72 64.4238 1165.96 64.4238C1165.22 64.4238 1164.52 64.2395 1163.86 63.8707C1163.2 63.502 1162.72 62.8628 1162.42 61.9532C1162.37 61.7566 1162.35 61.4247 1162.35 60.9576V60.2939L1163.64 55.1315C1164.5 51.6653 1164.94 49.9199 1164.97 49.8953C1164.97 49.8461 1164.34 49.8215 1163.09 49.8215H1161.21Z" style="fill: rgb(0, 0, 0);"/>
  <path d="M1176.65 55.279C1176.65 55.279 1176.65 55.1192 1176.65 54.7996C1176.65 54.48 1176.83 54.2342 1177.17 54.0621H1198.59C1198.96 54.2588 1199.15 54.5046 1199.15 54.7996C1199.15 55.0946 1198.96 55.3404 1198.59 55.5371H1177.17C1176.83 55.365 1176.65 55.1192 1176.65 54.7996V55.279Z" fill="#F5F5F5"/>
  <path d="M1210.1 42.7041L1209.62 42.8885C1209.28 43.0114 1208.79 43.1343 1208.15 43.2572C1207.51 43.3802 1206.79 43.4662 1206.01 43.5154H1205.31V41.8191H1206.01C1207.16 41.77 1208.23 41.5856 1209.22 41.266C1210.2 40.9464 1210.89 40.6514 1211.28 40.381C1211.67 40.1106 1212.02 39.8402 1212.31 39.5698C1212.36 39.496 1212.51 39.4592 1212.76 39.4592C1212.98 39.4592 1213.19 39.5329 1213.38 39.6804V50.7059L1213.42 61.7682C1213.59 61.9403 1213.74 62.0509 1213.86 62.1001C1213.98 62.1493 1214.28 62.1984 1214.75 62.2476C1215.21 62.2968 1215.98 62.3214 1217.03 62.3214H1217.99V64.0176H1217.59C1217.07 63.9438 1215.12 63.907 1211.72 63.907C1208.38 63.907 1206.45 63.9438 1205.93 64.0176H1205.49V62.3214H1206.45C1206.99 62.3214 1207.46 62.3214 1207.85 62.3214C1208.24 62.3214 1208.55 62.3091 1208.77 62.2845C1208.99 62.2599 1209.19 62.223 1209.36 62.1739C1209.53 62.1247 1209.63 62.1001 1209.66 62.1001C1209.68 62.1001 1209.76 62.0386 1209.88 61.9157C1210 61.7928 1210.08 61.7437 1210.1 61.7682V42.7041Z" fill="#F5F5F5"/>
  <path d="M1380.44 20.5741C1380.48 20.5741 1381.73 20.4871 1384.2 20.3133C1386.67 20.1394 1387.94 20.0351 1388.01 20.0003C1388.42 20.0003 1388.63 20.1568 1388.63 20.4697C1388.63 20.8522 1388.01 23.4774 1386.75 28.3453C1385.43 33.4914 1384.77 36.1166 1384.77 36.2209C1384.77 36.2905 1384.89 36.2035 1385.14 35.9602C1387.26 34.0825 1389.52 33.1437 1391.92 33.1437C1393.79 33.1437 1395.31 33.6131 1396.45 34.5519C1397.6 35.4907 1398.19 36.8642 1398.23 38.6723C1398.23 40.4456 1397.57 43.1925 1396.25 46.913C1394.92 50.6335 1394.26 52.8588 1394.26 53.589C1394.3 54.0758 1394.39 54.4061 1394.52 54.5799C1394.66 54.7538 1394.92 54.8407 1395.31 54.8407C1396.28 54.8407 1397.18 54.3192 1398.02 53.276C1398.85 52.2329 1399.53 50.8073 1400.05 48.9992C1400.16 48.6167 1400.26 48.3907 1400.37 48.3212C1400.47 48.2516 1400.75 48.2169 1401.2 48.2169C1401.9 48.2169 1402.24 48.356 1402.24 48.6341C1402.24 48.6689 1402.17 48.9297 1402.03 49.4165C1401.48 51.468 1400.59 53.1543 1399.38 54.4756C1398.19 55.9708 1396.78 56.7184 1395.15 56.7184H1394.89C1393.26 56.7184 1392.07 56.2489 1391.34 55.3101C1390.61 54.3713 1390.25 53.3803 1390.25 52.3372C1390.25 51.7809 1390.87 49.7294 1392.13 46.1828C1393.38 42.6362 1394.02 39.9762 1394.06 38.2029C1394.06 36.1514 1393.29 35.1257 1391.76 35.1257H1391.5C1388.61 35.1257 1386.11 36.8294 1383.99 40.237L1383.62 40.915L1381.85 47.9561C1380.74 52.4763 1380.09 54.945 1379.92 55.3623C1379.47 56.3011 1378.7 56.7705 1377.63 56.7705C1377.14 56.7705 1376.72 56.614 1376.37 56.3011C1376.03 55.9882 1375.84 55.6752 1375.8 55.3623C1375.8 54.8755 1377.07 49.5903 1379.61 39.5068L1383.47 24.0685C1383.47 23.6165 1383.35 23.3383 1383.1 23.234C1382.86 23.1297 1382.18 23.0428 1381.07 22.9732H1379.97C1379.76 22.7646 1379.66 22.6255 1379.66 22.556C1379.66 22.4864 1379.7 22.1561 1379.76 21.565C1379.94 20.9044 1380.16 20.5741 1380.44 20.5741Z" style="fill: rgb(0, 0, 0);"/>
  <path d="M1404.3 49.8225C1404.13 49.6504 1404.04 49.5275 1404.04 49.4538C1404.04 49.3554 1404.08 49.1588 1404.15 48.8638C1404.23 48.5688 1404.29 48.3967 1404.34 48.3475C1404.39 48.2246 1404.5 48.1632 1404.67 48.1632C1404.84 48.1632 1405.47 48.1509 1406.55 48.1263H1408.5L1409.2 45.1763C1409.28 44.9059 1409.36 44.5495 1409.46 44.107C1409.56 43.6645 1409.65 43.3449 1409.72 43.1482C1409.79 42.9516 1409.87 42.7057 1409.94 42.4107C1410.01 42.1157 1410.11 41.9068 1410.24 41.7839C1410.36 41.661 1410.48 41.5135 1410.6 41.3414C1410.73 41.1693 1410.9 41.0587 1411.12 41.0095C1411.34 40.9603 1411.56 40.9358 1411.78 40.9358C1412.23 40.9603 1412.53 41.0955 1412.71 41.3414C1412.88 41.5872 1412.96 41.8207 1412.96 42.042C1412.96 42.2141 1412.85 42.7918 1412.63 43.7751C1412.41 44.7584 1412.17 45.7294 1411.9 46.6882L1411.53 48.0525C1411.53 48.1017 1412.14 48.1263 1413.37 48.1263H1415.25C1415.42 48.2984 1415.51 48.4336 1415.51 48.5319C1415.51 49.0727 1415.35 49.5029 1415.03 49.8225H1411.08L1409.76 55.1693C1408.8 59.1026 1408.32 61.2167 1408.32 61.5117C1408.32 62.5442 1408.65 63.0604 1409.31 63.0604C1410.17 63.0604 1411.01 62.6425 1411.82 61.8067C1412.63 60.9709 1413.28 59.9384 1413.78 58.7093C1413.82 58.5618 1413.89 58.4757 1413.96 58.4511C1414.03 58.4266 1414.22 58.402 1414.51 58.3774H1414.66C1415.03 58.3774 1415.21 58.4757 1415.21 58.6724C1415.21 58.7461 1415.18 58.8936 1415.1 59.1149C1414.98 59.5082 1414.76 59.9753 1414.44 60.5161C1414.12 61.0569 1413.7 61.6346 1413.19 62.2492C1412.67 62.8638 1412.04 63.38 1411.31 63.7979C1410.57 64.2158 1409.82 64.4248 1409.06 64.4248C1408.32 64.4248 1407.62 64.2404 1406.95 63.8717C1406.29 63.5029 1405.81 62.8638 1405.52 61.9542C1405.47 61.7575 1405.44 61.4257 1405.44 60.9586V60.2949L1406.73 55.1324C1407.59 51.6662 1408.04 49.9208 1408.06 49.8963C1408.06 49.8471 1407.43 49.8225 1406.18 49.8225H1404.3Z" style="fill: rgb(0, 0, 0);"/>
  <path d="M998.959 80.1455C998.959 79.5693 999.135 79.0762 999.486 78.666C999.838 78.2559 1000.37 78.0508 1001.08 78.0508C1001.79 78.0508 1002.32 78.2559 1002.68 78.666C1003.05 79.0664 1003.24 79.5596 1003.24 80.1455C1003.24 80.7217 1003.05 81.2051 1002.68 81.5957C1002.31 81.9863 1001.78 82.1816 1001.08 82.1816C1000.38 82.1816 999.848 81.9863 999.486 81.5957C999.135 81.1953 998.959 80.7119 998.959 80.1455ZM1016.98 80.1455C1016.98 79.5693 1017.15 79.0762 1017.5 78.666C1017.86 78.2559 1018.39 78.0508 1019.1 78.0508C1019.8 78.0508 1020.34 78.2559 1020.7 78.666C1021.07 79.0664 1021.25 79.5596 1021.25 80.1455C1021.25 80.7217 1021.07 81.2051 1020.7 81.5957C1020.33 81.9863 1019.79 82.1816 1019.1 82.1816C1018.4 82.1816 1017.87 81.9863 1017.5 81.5957C1017.15 81.1953 1016.98 80.7119 1016.98 80.1455ZM1034.99 80.1455C1034.99 79.5693 1035.17 79.0762 1035.52 78.666C1035.87 78.2559 1036.41 78.0508 1037.12 78.0508C1037.82 78.0508 1038.35 78.2559 1038.71 78.666C1039.09 79.0664 1039.27 79.5596 1039.27 80.1455C1039.27 80.7217 1039.09 81.2051 1038.71 81.5957C1038.34 81.9863 1037.81 82.1816 1037.12 82.1816C1036.42 82.1816 1035.88 81.9863 1035.52 81.5957C1035.17 81.1953 1034.99 80.7119 1034.99 80.1455Z" style="fill: rgb(0, 0, 0);"/>
  <rect x="470" y="42.2646" width="100" height="80" rx="10" fill="#0083FC"/>
  <path d="M502.109 85.5635H497.847V94.2646H495.151V72.9365H501.406C502.402 72.9561 503.34 73.0977 504.219 73.3613C505.098 73.625 505.869 74.0205 506.533 74.5479C507.188 75.0752 507.7 75.7393 508.071 76.54C508.452 77.3311 508.643 78.2637 508.643 79.3379C508.643 80.0312 508.54 80.666 508.335 81.2422C508.14 81.8184 507.866 82.3408 507.515 82.8096C507.163 83.2783 506.743 83.6934 506.255 84.0547C505.767 84.416 505.229 84.7236 504.644 84.9775L509.17 94.0889L509.155 94.2646H506.299L502.109 85.5635ZM497.847 83.3369H501.479C502.085 83.3271 502.656 83.2344 503.193 83.0586C503.73 82.873 504.204 82.6094 504.614 82.2676C505.015 81.9258 505.332 81.5107 505.566 81.0225C505.801 80.5244 505.918 79.9531 505.918 79.3086C505.918 78.625 505.806 78.0293 505.581 77.5215C505.356 77.0039 505.044 76.5693 504.644 76.2178C504.243 75.876 503.765 75.6172 503.208 75.4414C502.661 75.2656 502.061 75.1729 501.406 75.1631H497.847V83.3369ZM526.426 94.2646H523.672L515.396 78.3271L515.352 94.2646H512.612V72.9365H515.366L523.643 88.8447L523.687 72.9365H526.426V94.2646ZM544.443 94.2646H541.689L533.413 78.3271L533.369 94.2646H530.63V72.9365H533.384L541.66 88.8447L541.704 72.9365H544.443V94.2646Z" fill="#F5F5F5"/>
  <rect x="710" y="42.2646" width="100" height="80" rx="10" fill="#0083FC"/>
  <path d="M742.109 85.5635H737.847V94.2646H735.151V72.9365H741.406C742.402 72.9561 743.34 73.0977 744.219 73.3613C745.098 73.625 745.869 74.0205 746.533 74.5479C747.188 75.0752 747.7 75.7393 748.071 76.54C748.452 77.3311 748.643 78.2637 748.643 79.3379C748.643 80.0312 748.54 80.666 748.335 81.2422C748.14 81.8184 747.866 82.3408 747.515 82.8096C747.163 83.2783 746.743 83.6934 746.255 84.0547C745.767 84.416 745.229 84.7236 744.644 84.9775L749.17 94.0889L749.155 94.2646H746.299L742.109 85.5635ZM737.847 83.3369H741.479C742.085 83.3271 742.656 83.2344 743.193 83.0586C743.73 82.873 744.204 82.6094 744.614 82.2676C745.015 81.9258 745.332 81.5107 745.566 81.0225C745.801 80.5244 745.918 79.9531 745.918 79.3086C745.918 78.625 745.806 78.0293 745.581 77.5215C745.356 77.0039 745.044 76.5693 744.644 76.2178C744.243 75.876 743.765 75.6172 743.208 75.4414C742.661 75.2656 742.061 75.1729 741.406 75.1631H737.847V83.3369ZM766.426 94.2646H763.672L755.396 78.3271L755.352 94.2646H752.612V72.9365H755.366L763.643 88.8447L763.687 72.9365H766.426V94.2646ZM784.443 94.2646H781.689L773.413 78.3271L773.369 94.2646H770.63V72.9365H773.384L781.66 88.8447L781.704 72.9365H784.443V94.2646Z" fill="#F5F5F5"/>
  <rect x="1230" y="42.2646" width="100" height="80" rx="10" fill="#0083FC"/>
  <path d="M1262.11 85.5635H1257.85V94.2646H1255.15V72.9365H1261.41C1262.4 72.9561 1263.34 73.0977 1264.22 73.3613C1265.1 73.625 1265.87 74.0205 1266.53 74.5479C1267.19 75.0752 1267.7 75.7393 1268.07 76.54C1268.45 77.3311 1268.64 78.2637 1268.64 79.3379C1268.64 80.0312 1268.54 80.666 1268.33 81.2422C1268.14 81.8184 1267.87 82.3408 1267.51 82.8096C1267.16 83.2783 1266.74 83.6934 1266.25 84.0547C1265.77 84.416 1265.23 84.7236 1264.64 84.9775L1269.17 94.0889L1269.16 94.2646H1266.3L1262.11 85.5635ZM1257.85 83.3369H1261.48C1262.08 83.3271 1262.66 83.2344 1263.19 83.0586C1263.73 82.873 1264.2 82.6094 1264.61 82.2676C1265.01 81.9258 1265.33 81.5107 1265.57 81.0225C1265.8 80.5244 1265.92 79.9531 1265.92 79.3086C1265.92 78.625 1265.81 78.0293 1265.58 77.5215C1265.36 77.0039 1265.04 76.5693 1264.64 76.2178C1264.24 75.876 1263.76 75.6172 1263.21 75.4414C1262.66 75.2656 1262.06 75.1729 1261.41 75.1631H1257.85V83.3369ZM1286.43 94.2646H1283.67L1275.4 78.3271L1275.35 94.2646H1272.61V72.9365H1275.37L1283.64 88.8447L1283.69 72.9365H1286.43V94.2646ZM1304.44 94.2646H1301.69L1293.41 78.3271L1293.37 94.2646H1290.63V72.9365H1293.38L1301.66 88.8447L1301.7 72.9365H1304.44V94.2646Z" fill="#F5F5F5"/>
  <path d="M590 84.7646C588.619 84.7646 587.5 83.6454 587.5 82.2646C587.5 80.8839 588.619 79.7646 590 79.7646V84.7646ZM691.768 80.4969C692.744 81.4732 692.744 83.0561 691.768 84.0324L675.858 99.9423C674.882 100.919 673.299 100.919 672.322 99.9423C671.346 98.966 671.346 97.3831 672.322 96.4068L686.464 82.2646L672.322 68.1225C671.346 67.1462 671.346 65.5633 672.322 64.587C673.299 63.6107 674.882 63.6107 675.858 64.587L691.768 80.4969ZM590 79.7646L690 79.7646V84.7646L590 84.7646V79.7646Z" fill="#FD553C"/>
  <path d="M830 84.7646C828.619 84.7646 827.5 83.6454 827.5 82.2646C827.5 80.8839 828.619 79.7646 830 79.7646V84.7646ZM931.768 80.4969C932.744 81.4732 932.744 83.0561 931.768 84.0324L915.858 99.9423C914.882 100.919 913.299 100.919 912.322 99.9423C911.346 98.966 911.346 97.3831 912.322 96.4068L926.464 82.2646L912.322 68.1225C911.346 67.1462 911.346 65.5633 912.322 64.587C913.299 63.6107 914.882 63.6107 915.858 64.587L931.768 80.4969ZM830 79.7646L930 79.7646V84.7646L830 84.7646V79.7646Z" fill="#FD553C"/>
  <path d="M1110 84.7646C1108.62 84.7646 1107.5 83.6454 1107.5 82.2646C1107.5 80.8839 1108.62 79.7646 1110 79.7646V84.7646ZM1211.77 80.4969C1212.74 81.4732 1212.74 83.0561 1211.77 84.0324L1195.86 99.9423C1194.88 100.919 1193.3 100.919 1192.32 99.9423C1191.35 98.966 1191.35 97.3831 1192.32 96.4068L1206.46 82.2646L1192.32 68.1225C1191.35 67.1462 1191.35 65.5633 1192.32 64.587C1193.3 63.6107 1194.88 63.6107 1195.86 64.587L1211.77 80.4969ZM1110 79.7646L1210 79.7646V84.7646L1110 84.7646V79.7646Z" fill="#FD553C"/>
  <path d="M1350 84.7646C1348.62 84.7646 1347.5 83.6454 1347.5 82.2646C1347.5 80.8839 1348.62 79.7646 1350 79.7646V84.7646ZM1451.77 80.4969C1452.74 81.4732 1452.74 83.0561 1451.77 84.0324L1435.86 99.9423C1434.88 100.919 1433.3 100.919 1432.32 99.9423C1431.35 98.966 1431.35 97.3831 1432.32 96.4068L1446.46 82.2646L1432.32 68.1225C1431.35 67.1462 1431.35 65.5633 1432.32 64.587C1433.3 63.6107 1434.88 63.6107 1435.86 64.587L1451.77 80.4969ZM1350 79.7646L1450 79.7646V84.7646L1350 84.7646V79.7646Z" fill="#FD553C"/>
  <path d="M522.5 192.265C522.5 193.645 521.381 194.765 520 194.765C518.619 194.765 517.5 193.645 517.5 192.265H522.5ZM518.232 140.497C519.209 139.521 520.791 139.521 521.768 140.497L537.678 156.407C538.654 157.383 538.654 158.966 537.678 159.942C536.701 160.919 535.118 160.919 534.142 159.942L520 145.8L505.858 159.942C504.882 160.919 503.299 160.919 502.322 159.942C501.346 158.966 501.346 157.383 502.322 156.407L518.232 140.497ZM517.5 192.265V142.265H522.5V192.265H517.5Z" fill="#FD553C"/>
  <path d="M762.5 192.265C762.5 193.645 761.381 194.765 760 194.765C758.619 194.765 757.5 193.645 757.5 192.265H762.5ZM758.232 140.497C759.209 139.521 760.791 139.521 761.768 140.497L777.678 156.407C778.654 157.383 778.654 158.966 777.678 159.942C776.701 160.919 775.118 160.919 774.142 159.942L760 145.8L745.858 159.942C744.882 160.919 743.299 160.919 742.322 159.942C741.346 158.966 741.346 157.383 742.322 156.407L758.232 140.497ZM757.5 192.265V142.265H762.5V192.265H757.5Z" fill="#FD553C"/>
  <path d="M1282.5 192.265C1282.5 193.645 1281.38 194.765 1280 194.765C1278.62 194.765 1277.5 193.645 1277.5 192.265H1282.5ZM1278.23 140.497C1279.21 139.521 1280.79 139.521 1281.77 140.497L1297.68 156.407C1298.65 157.383 1298.65 158.966 1297.68 159.942C1296.7 160.919 1295.12 160.919 1294.14 159.942L1280 145.8L1265.86 159.942C1264.88 160.919 1263.3 160.919 1262.32 159.942C1261.35 158.966 1261.35 157.383 1262.32 156.407L1278.23 140.497ZM1277.5 192.265V142.265H1282.5V192.265H1277.5Z" fill="#FD553C"/>
  <path d="M619.39 20.5792C619.425 20.5792 620.688 20.4914 623.179 20.316C625.671 20.1405 626.952 20.0353 627.022 20.0002C627.443 20.0002 627.653 20.1581 627.653 20.4739C627.653 20.8599 627.022 23.5092 625.759 28.4219C624.425 33.6153 623.758 36.2646 623.758 36.3699C623.758 36.4401 623.881 36.3524 624.127 36.1067C626.267 34.2118 628.548 33.2644 630.97 33.2644C632.864 33.2644 634.391 33.7381 635.549 34.6856C636.707 35.633 637.303 37.0191 637.338 38.8438C637.338 40.6334 636.672 43.4056 635.338 47.1602C634.005 50.9149 633.338 53.1607 633.338 53.8976C633.373 54.3889 633.461 54.7222 633.601 54.8977C633.742 55.0731 634.005 55.1609 634.391 55.1609C635.373 55.1609 636.286 54.6345 637.128 53.5818C637.97 52.5291 638.654 51.0904 639.181 49.2657C639.286 48.8797 639.391 48.6516 639.497 48.5814C639.602 48.5112 639.883 48.4761 640.339 48.4761C641.041 48.4761 641.391 48.6165 641.391 48.8972C641.391 48.9323 641.321 49.1955 641.181 49.6868C640.619 51.7571 639.725 53.459 638.496 54.7924C637.303 56.3013 635.882 57.0558 634.233 57.0558H633.97C632.321 57.0558 631.127 56.582 630.391 55.6346C629.654 54.6872 629.285 53.6871 629.285 52.6344C629.285 52.0729 629.917 50.0026 631.18 46.4233C632.443 42.8441 633.093 40.1597 633.128 38.3701C633.128 36.2997 632.356 35.2646 630.812 35.2646H630.548C627.636 35.2646 625.109 36.984 622.969 40.4229L622.6 41.1071L620.811 48.213C619.688 52.7747 619.039 55.2661 618.863 55.6872C618.407 56.6347 617.635 57.1084 616.547 57.1084C616.056 57.1084 615.635 56.9505 615.284 56.6347C614.933 56.3189 614.74 56.003 614.705 55.6872C614.705 55.196 615.986 49.8622 618.547 39.686L622.443 24.1058C622.443 23.6496 622.32 23.3689 622.074 23.2636C621.828 23.1583 621.144 23.0706 620.021 23.0004H618.916C618.705 22.7899 618.6 22.6495 618.6 22.5793C618.6 22.5091 618.635 22.1758 618.705 21.5792C618.881 20.9125 619.109 20.5792 619.39 20.5792Z" style="fill: rgb(0, 0, 0);"/>
  <path d="M650.424 42.9154L649.94 43.1015C649.593 43.2255 649.096 43.3496 648.451 43.4736C647.806 43.5977 647.087 43.6845 646.293 43.7341H645.586V42.0223H646.293C647.459 41.9727 648.538 41.7866 649.531 41.4641C650.523 41.1416 651.218 40.8439 651.615 40.571C652.011 40.2981 652.359 40.0252 652.657 39.7523C652.706 39.6778 652.855 39.6406 653.103 39.6406C653.326 39.6406 653.537 39.715 653.736 39.8639V50.9907L653.773 62.1548C653.947 62.3284 654.095 62.4401 654.219 62.4897C654.344 62.5393 654.641 62.5889 655.113 62.6386C655.584 62.6882 656.353 62.713 657.42 62.713H658.387V64.4248H657.978C657.457 64.3504 655.485 64.3132 652.061 64.3132C648.687 64.3132 646.74 64.3504 646.219 64.4248H645.772V62.713H646.74C647.285 62.713 647.757 62.713 648.154 62.713C648.551 62.713 648.861 62.7006 649.084 62.6758C649.307 62.651 649.506 62.6137 649.679 62.5641C649.853 62.5145 649.952 62.4897 649.977 62.4897C650.002 62.4897 650.076 62.4277 650.2 62.3036C650.324 62.1796 650.399 62.13 650.424 62.1548V42.9154Z" style="fill: rgb(0, 0, 0);"/>
  <path d="M858.071 20.5792C858.106 20.5792 859.37 20.4914 861.861 20.316C864.353 20.1405 865.633 20.0353 865.703 20.0002C866.125 20.0002 866.335 20.1581 866.335 20.4739C866.335 20.8599 865.703 23.5092 864.44 28.4219C863.107 33.6153 862.44 36.2646 862.44 36.3699C862.44 36.4401 862.563 36.3524 862.809 36.1067C864.949 34.2118 867.23 33.2644 869.651 33.2644C871.546 33.2644 873.072 33.7381 874.23 34.6856C875.388 35.633 875.985 37.0191 876.02 38.8438C876.02 40.6334 875.353 43.4056 874.02 47.1602C872.687 50.9149 872.02 53.1607 872.02 53.8976C872.055 54.3889 872.143 54.7222 872.283 54.8977C872.423 55.0731 872.687 55.1609 873.072 55.1609C874.055 55.1609 874.967 54.6345 875.81 53.5818C876.652 52.5291 877.336 51.0904 877.862 49.2657C877.968 48.8797 878.073 48.6516 878.178 48.5814C878.283 48.5112 878.564 48.4761 879.02 48.4761C879.722 48.4761 880.073 48.6165 880.073 48.8972C880.073 48.9323 880.003 49.1955 879.863 49.6868C879.301 51.7571 878.406 53.459 877.178 54.7924C875.985 56.3013 874.564 57.0558 872.915 57.0558H872.651C871.002 57.0558 869.809 56.582 869.072 55.6346C868.335 54.6872 867.967 53.6871 867.967 52.6344C867.967 52.0729 868.598 50.0026 869.862 46.4233C871.125 42.8441 871.774 40.1597 871.809 38.3701C871.809 36.2997 871.037 35.2646 869.493 35.2646H869.23C866.318 35.2646 863.791 36.984 861.651 40.4229L861.282 41.1071L859.492 48.213C858.37 52.7747 857.72 55.2661 857.545 55.6872C857.089 56.6347 856.317 57.1084 855.229 57.1084C854.738 57.1084 854.317 56.9505 853.966 56.6347C853.615 56.3189 853.422 56.003 853.387 55.6872C853.387 55.196 854.668 49.8622 857.229 39.686L861.124 24.1058C861.124 23.6496 861.001 23.3689 860.756 23.2636C860.51 23.1583 859.826 23.0706 858.703 23.0004H857.598C857.387 22.7899 857.282 22.6495 857.282 22.5793C857.282 22.5091 857.317 22.1758 857.387 21.5792C857.562 20.9125 857.791 20.5792 858.071 20.5792Z" style="fill: rgb(0, 0, 0);"/>
  <path d="M885.235 48.4602C884.565 48.4602 884.031 48.2369 883.634 47.7904C883.238 47.3438 883.039 46.798 883.039 46.153C883.039 44.3915 883.697 42.8658 885.011 41.5757C886.326 40.2857 887.964 39.6406 889.924 39.6406C892.181 39.6406 894.067 40.3353 895.58 41.7246C897.093 43.1139 897.862 44.9125 897.887 47.1205C897.887 48.1873 897.639 49.2045 897.143 50.172C896.647 51.1396 896.051 51.9831 895.357 52.7026C894.662 53.422 893.67 54.3399 892.38 55.4564C891.487 56.2254 890.246 57.3666 888.658 58.88L886.463 60.9639L889.291 61.0012C893.186 61.0012 895.257 60.9391 895.506 60.8151C895.679 60.7655 895.977 59.6615 896.399 57.5031V57.3915H897.887V57.5031C897.862 57.5775 897.701 58.7063 897.403 60.8895C897.106 63.0727 896.92 64.2139 896.845 64.3132V64.4248H883.039V63.7177V63.2712C883.039 63.0975 883.113 62.9115 883.262 62.713C883.411 62.5145 883.783 62.0804 884.379 61.4105C885.098 60.6166 885.718 59.922 886.239 59.3266C886.463 59.0785 886.884 58.6195 887.505 57.9497C888.125 57.2798 888.547 56.8208 888.77 56.5728C888.993 56.3247 889.353 55.9153 889.849 55.3447C890.345 54.7741 890.693 54.3524 890.891 54.0795C891.09 53.8066 891.375 53.4344 891.747 52.963C892.119 52.4917 892.38 52.0947 892.529 51.7722C892.677 51.4497 892.863 51.09 893.087 50.693C893.31 50.2961 893.471 49.8991 893.57 49.5022C893.67 49.1053 893.757 48.7331 893.831 48.3858C893.905 48.0385 893.943 47.6291 893.943 47.1577C893.943 45.5948 893.521 44.2427 892.677 43.1015C891.834 41.9603 890.631 41.3897 889.068 41.3897C888.249 41.3897 887.529 41.6005 886.909 42.0223C886.289 42.444 885.855 42.8534 885.607 43.2503C885.359 43.6473 885.235 43.883 885.235 43.9574C885.235 43.9822 885.297 43.9946 885.421 43.9946C885.867 43.9946 886.326 44.1683 886.798 44.5156C887.269 44.8629 887.505 45.4335 887.505 46.2274C887.505 46.8476 887.306 47.3686 886.909 47.7904C886.512 48.2121 885.954 48.4354 885.235 48.4602Z" style="fill: rgb(0, 0, 0);"/>
</svg>