<svg width="615" height="348" viewBox="0 0 615 348" fill="none" xmlns="http://www.w3.org/2000/svg">
<rect width="177" height="78" fill="#F28030"/>
<rect x="219" width="177" height="78" fill="#308AF2"/>
<rect x="438" width="177" height="78" fill="#C6CACF"/>
<path d="M468.408 33.2C468.075 33.2 467.781 33.0867 467.528 32.86C467.288 32.6333 467.168 32.3267 467.168 31.94C467.168 31.5933 467.288 31.3067 467.528 31.08C467.781 30.8533 468.075 30.74 468.408 30.74C468.755 30.74 469.048 30.8533 469.288 31.08C469.528 31.3067 469.648 31.5933 469.648 31.94C469.648 32.3267 469.528 32.6333 469.288 32.86C469.048 33.0867 468.755 33.2 468.408 33.2ZM475.021 38.14C473.887 38.14 472.974 37.9133 472.281 37.46C471.601 37.0067 471.261 36.42 471.261 35.7C471.261 35.42 471.334 35.1 471.481 34.74C471.641 34.3933 471.947 33.9933 472.401 33.54L473.501 32.44L474.321 32.56C473.854 33.0933 473.494 33.5267 473.241 33.86C473.001 34.1933 472.881 34.5533 472.881 34.94C472.881 35.54 473.161 35.9933 473.721 36.3C474.281 36.6067 475.041 36.76 476.001 36.76C477.147 36.76 478.041 36.5467 478.681 36.12C479.321 35.6933 479.641 35.1333 479.641 34.44C479.641 34 479.494 33.68 479.201 33.48C478.907 33.28 478.387 33.1533 477.641 33.1L473.901 32.82C473.234 32.7667 472.701 32.6133 472.301 32.36C471.914 32.0933 471.721 31.7533 471.721 31.34C471.721 30.9933 471.841 30.7067 472.081 30.48C472.321 30.2533 472.627 29.9667 473.001 29.62L473.621 29.02H474.521L473.921 29.7C473.707 29.9267 473.567 30.0933 473.501 30.2C473.447 30.2933 473.421 30.3933 473.421 30.5C473.421 30.6733 473.494 30.8133 473.641 30.92C473.787 31.0133 474.034 31.0733 474.381 31.1L478.141 31.42C479.847 31.5533 480.701 32.32 480.701 33.72C480.701 34.5467 480.441 35.2933 479.921 35.96C479.414 36.6267 478.727 37.1533 477.861 37.54C477.007 37.94 476.061 38.14 475.021 38.14ZM475.421 29.48C474.661 29.48 473.987 29.3333 473.401 29.04C472.814 28.7333 472.354 28.3133 472.021 27.78C471.687 27.2467 471.521 26.6333 471.521 25.94C471.521 25.26 471.687 24.6533 472.021 24.12C472.367 23.5867 472.834 23.1667 473.421 22.86C474.021 22.5533 474.701 22.4 475.461 22.4L476.361 22.56C477.241 22.7067 477.961 23.08 478.521 23.68C479.081 24.2667 479.361 25.0067 479.361 25.9C479.361 26.58 479.187 27.1933 478.841 27.74C478.507 28.2733 478.041 28.7 477.441 29.02C476.854 29.3267 476.181 29.48 475.421 29.48ZM475.621 28.64C476.247 28.64 476.734 28.4333 477.081 28.02C477.427 27.5933 477.601 26.9933 477.601 26.22C477.601 25.6467 477.507 25.14 477.321 24.7C477.134 24.2467 476.867 23.8933 476.521 23.64C476.174 23.3733 475.754 23.24 475.261 23.24C474.634 23.24 474.147 23.4533 473.801 23.88C473.454 24.2933 473.281 24.8933 473.281 25.68C473.281 26.24 473.367 26.7467 473.541 27.2C473.727 27.64 473.994 27.9933 474.341 28.26C474.701 28.5133 475.127 28.64 475.621 28.64ZM475.461 22.76V22.4L480.361 21.46H480.801V22.76H475.461ZM481.532 33V32.34L482.072 32.26C482.499 32.1933 482.779 32.0733 482.912 31.9C483.059 31.7267 483.132 31.4333 483.132 31.02V25.18C483.132 24.7267 483.019 24.42 482.792 24.26C482.579 24.1 482.172 23.9867 481.572 23.92V23.36L484.652 22.48H484.932V31.02C484.932 31.4333 484.999 31.7267 485.132 31.9C485.279 32.0733 485.566 32.1933 485.992 32.26L486.532 32.34V33H481.532ZM483.832 20.94C483.499 20.94 483.219 20.8333 482.992 20.62C482.766 20.3933 482.652 20.1067 482.652 19.76C482.652 19.4133 482.766 19.1333 482.992 18.92C483.219 18.7067 483.499 18.6 483.832 18.6C484.152 18.6 484.426 18.7067 484.652 18.92C484.879 19.1333 484.992 19.4133 484.992 19.76C484.992 20.1067 484.879 20.3933 484.652 20.62C484.426 20.8333 484.152 20.94 483.832 20.94ZM491.41 33.2C490.583 33.2 489.923 32.9867 489.43 32.56C488.95 32.1333 488.71 31.44 488.71 30.48V23.86H487.45V23.18C488.45 22.62 489.25 21.8667 489.85 20.92H490.53V22.56V23.14V29.9C490.53 30.42 490.616 30.8133 490.79 31.08C490.963 31.3467 491.196 31.5267 491.49 31.62C491.796 31.7 492.13 31.74 492.49 31.74C492.903 31.74 493.283 31.68 493.63 31.56C493.976 31.4267 494.29 31.28 494.57 31.12L494.93 31.54C494.503 31.98 493.99 32.3667 493.39 32.7C492.79 33.0333 492.13 33.2 491.41 33.2ZM489.65 23.86V22.6H494.71V22.96L494.19 23.86H489.65ZM504.811 33.2C503.918 33.2 503.118 32.98 502.411 32.54C501.704 32.1 501.151 31.4933 500.751 30.72C500.364 29.9333 500.171 29.04 500.171 28.04C500.171 26.96 500.404 26 500.871 25.16C501.351 24.3067 501.998 23.6333 502.811 23.14C503.624 22.6467 504.538 22.4 505.551 22.4C506.044 22.4 506.518 22.4533 506.971 22.56C507.438 22.6667 507.878 22.86 508.291 23.14V19.7C508.291 19.2467 508.178 18.94 507.951 18.78C507.738 18.62 507.331 18.5067 506.731 18.44V17.88L509.811 17H510.091V30.42C510.091 30.8333 510.178 31.14 510.351 31.34C510.538 31.5267 510.951 31.6533 511.591 31.72L511.691 31.74V32.32L508.631 33.04H508.351V31.66H508.171C507.784 32.06 507.411 32.3733 507.051 32.6C506.691 32.8267 506.331 32.98 505.971 33.06C505.611 33.1533 505.224 33.2 504.811 33.2ZM505.751 31.8C506.231 31.8 506.678 31.7267 507.091 31.58C507.518 31.4333 507.918 31.1733 508.291 30.8V26.16C508.291 25.48 508.151 24.9267 507.871 24.5C507.591 24.0733 507.231 23.76 506.791 23.56C506.364 23.36 505.904 23.26 505.411 23.26C504.318 23.26 503.484 23.6067 502.911 24.3C502.338 24.9933 502.051 25.9867 502.051 27.28C502.051 28.16 502.204 28.9467 502.511 29.64C502.831 30.32 503.264 30.8533 503.811 31.24C504.371 31.6133 505.018 31.8 505.751 31.8ZM512.567 33V32.34L513.107 32.26C513.534 32.1933 513.814 32.0733 513.947 31.9C514.094 31.7267 514.167 31.4333 514.167 31.02V25.18C514.167 24.7267 514.054 24.42 513.827 24.26C513.614 24.1 513.207 23.9867 512.607 23.92V23.36L515.687 22.48H515.967V31.02C515.967 31.4333 516.034 31.7267 516.167 31.9C516.314 32.0733 516.601 32.1933 517.027 32.26L517.567 32.34V33H512.567ZM514.867 20.94C514.534 20.94 514.254 20.8333 514.027 20.62C513.801 20.3933 513.687 20.1067 513.687 19.76C513.687 19.4133 513.801 19.1333 514.027 18.92C514.254 18.7067 514.534 18.6 514.867 18.6C515.187 18.6 515.461 18.7067 515.687 18.92C515.914 19.1333 516.027 19.4133 516.027 19.76C516.027 20.1067 515.914 20.3933 515.687 20.62C515.461 20.8333 515.187 20.94 514.867 20.94ZM518.505 33V32.34L519.045 32.26C519.472 32.1933 519.752 32.08 519.885 31.92C520.032 31.7467 520.105 31.4467 520.105 31.02V25.18C520.105 24.74 519.998 24.44 519.785 24.28C519.572 24.1067 519.158 23.9867 518.545 23.92V23.36L521.565 22.48H521.845V24.08H522.025C522.345 23.6267 522.745 23.24 523.225 22.92C523.705 22.6 524.272 22.44 524.925 22.44C525.405 22.44 525.765 22.54 526.005 22.74C526.258 22.9267 526.385 23.1867 526.385 23.52C526.385 23.7467 526.298 23.9467 526.125 24.12C525.952 24.2933 525.752 24.4133 525.525 24.48C525.298 24.5333 525.078 24.5 524.865 24.38L523.965 23.86C523.792 23.7533 523.592 23.7533 523.365 23.86C523.138 23.9667 522.918 24.1133 522.705 24.3C522.492 24.4867 522.312 24.6733 522.165 24.86C522.018 25.0467 521.932 25.1733 521.905 25.24V31.02C521.905 31.4467 521.985 31.7467 522.145 31.92C522.305 32.08 522.625 32.1867 523.105 32.24L523.905 32.34V33H518.505ZM531.694 33.2C530.707 33.2 529.84 32.9733 529.094 32.52C528.347 32.0533 527.767 31.42 527.354 30.62C526.94 29.82 526.734 28.92 526.734 27.92C526.734 26.8533 526.967 25.9067 527.434 25.08C527.914 24.2533 528.554 23.6 529.354 23.12C530.154 22.64 531.04 22.4 532.014 22.4C533.054 22.4 533.894 22.7 534.534 23.3C535.174 23.9 535.494 24.7733 535.494 25.92C535.494 26 535.494 26.0867 535.494 26.18C535.494 26.26 535.48 26.3733 535.454 26.52L535.414 26.8H528.254V26H533.514C533.554 25.76 533.574 25.5333 533.574 25.32C533.574 24.6933 533.4 24.1933 533.054 23.82C532.72 23.4467 532.24 23.26 531.614 23.26C530.694 23.26 529.954 23.62 529.394 24.34C528.834 25.0467 528.554 25.9867 528.554 27.16C528.554 28.0267 528.72 28.8067 529.054 29.5C529.387 30.1933 529.86 30.74 530.474 31.14C531.087 31.5267 531.814 31.72 532.654 31.72C533.107 31.72 533.554 31.6467 533.994 31.5C534.434 31.34 534.887 31.0867 535.354 30.74L535.754 31.12C535.14 31.8533 534.514 32.3867 533.874 32.72C533.234 33.04 532.507 33.2 531.694 33.2ZM542.241 33.2C541.268 33.2 540.401 32.9733 539.641 32.52C538.895 32.0533 538.308 31.4267 537.881 30.64C537.455 29.84 537.241 28.94 537.241 27.94C537.241 26.8733 537.475 25.9267 537.941 25.1C538.421 24.26 539.075 23.6 539.901 23.12C540.728 22.64 541.661 22.4 542.701 22.4C543.395 22.4 543.995 22.4933 544.501 22.68C545.021 22.8667 545.421 23.0933 545.701 23.36C545.995 23.6267 546.141 23.88 546.141 24.12C546.141 24.3333 546.035 24.5133 545.821 24.66C545.608 24.8067 545.368 24.9 545.101 24.94C544.848 24.9667 544.661 24.9267 544.541 24.82L543.321 23.72C543.148 23.56 542.961 23.4533 542.761 23.4C542.575 23.3333 542.355 23.3 542.101 23.3C541.488 23.3 540.948 23.4733 540.481 23.82C540.028 24.1667 539.675 24.64 539.421 25.24C539.181 25.8267 539.061 26.4933 539.061 27.24C539.061 28.12 539.228 28.9 539.561 29.58C539.908 30.26 540.381 30.8 540.981 31.2C541.595 31.5867 542.288 31.78 543.061 31.78C543.528 31.78 543.988 31.7 544.441 31.54C544.895 31.38 545.368 31.1133 545.861 30.74L546.261 31.12C545.635 31.8533 544.995 32.3867 544.341 32.72C543.688 33.04 542.988 33.2 542.241 33.2ZM551.273 33.2C550.446 33.2 549.786 32.9867 549.293 32.56C548.813 32.1333 548.573 31.44 548.573 30.48V23.86H547.313V23.18C548.313 22.62 549.113 21.8667 549.713 20.92H550.393V22.56V23.14V29.9C550.393 30.42 550.48 30.8133 550.653 31.08C550.826 31.3467 551.06 31.5267 551.353 31.62C551.66 31.7 551.993 31.74 552.353 31.74C552.766 31.74 553.146 31.68 553.493 31.56C553.84 31.4267 554.153 31.28 554.433 31.12L554.793 31.54C554.366 31.98 553.853 32.3667 553.253 32.7C552.653 33.0333 551.993 33.2 551.273 33.2ZM549.513 23.86V22.6H554.573V22.96L554.053 23.86H549.513ZM560.727 33.2C559.661 33.2 558.721 32.9733 557.907 32.52C557.094 32.0667 556.461 31.4333 556.007 30.62C555.554 29.8067 555.327 28.8667 555.327 27.8C555.327 26.76 555.554 25.8333 556.007 25.02C556.461 24.2067 557.087 23.5667 557.887 23.1C558.701 22.6333 559.647 22.4 560.727 22.4C561.807 22.4 562.754 22.6267 563.567 23.08C564.381 23.5333 565.014 24.1667 565.467 24.98C565.921 25.78 566.147 26.7133 566.147 27.78C566.147 28.82 565.921 29.7467 565.467 30.56C565.014 31.3733 564.381 32.02 563.567 32.5C562.767 32.9667 561.821 33.2 560.727 33.2ZM561.087 32.32C562.007 32.32 562.754 31.9867 563.327 31.32C563.914 30.64 564.207 29.64 564.207 28.32C564.207 27.4 564.054 26.56 563.747 25.8C563.454 25.0267 563.021 24.4133 562.447 23.96C561.887 23.5067 561.201 23.28 560.387 23.28C559.467 23.28 558.714 23.62 558.127 24.3C557.554 24.9667 557.267 25.9667 557.267 27.3C557.267 28.2067 557.414 29.0467 557.707 29.82C558.014 30.58 558.447 31.1867 559.007 31.64C559.581 32.0933 560.274 32.32 561.087 32.32ZM567.489 33V32.34L568.029 32.26C568.456 32.1933 568.736 32.08 568.869 31.92C569.016 31.7467 569.089 31.4467 569.089 31.02V25.18C569.089 24.74 568.983 24.44 568.769 24.28C568.556 24.1067 568.143 23.9867 567.529 23.92V23.36L570.549 22.48H570.829V24.08H571.009C571.329 23.6267 571.729 23.24 572.209 22.92C572.689 22.6 573.256 22.44 573.909 22.44C574.389 22.44 574.749 22.54 574.989 22.74C575.243 22.9267 575.369 23.1867 575.369 23.52C575.369 23.7467 575.283 23.9467 575.109 24.12C574.936 24.2933 574.736 24.4133 574.509 24.48C574.283 24.5333 574.063 24.5 573.849 24.38L572.949 23.86C572.776 23.7533 572.576 23.7533 572.349 23.86C572.123 23.9667 571.903 24.1133 571.689 24.3C571.476 24.4867 571.296 24.6733 571.149 24.86C571.003 25.0467 570.916 25.1733 570.889 25.24V31.02C570.889 31.4467 570.969 31.7467 571.129 31.92C571.289 32.08 571.609 32.1867 572.089 32.24L572.889 32.34V33H567.489ZM577.419 37.94V37.58L580.899 32.54L577.419 24.76C577.219 24.32 577.012 23.9867 576.799 23.76C576.585 23.52 576.332 23.3733 576.039 23.32L575.699 23.26V22.6H580.639V23.26L580.139 23.3C579.179 23.38 578.892 23.8667 579.279 24.76L582.039 31.26L581.459 31.28L583.939 25.04C584.165 24.4667 584.205 24.0467 584.059 23.78C583.912 23.5133 583.585 23.3533 583.079 23.3L582.659 23.26V22.6H586.899V23.26L586.479 23.32C586.265 23.3467 586.072 23.4133 585.899 23.52C585.739 23.6267 585.585 23.8 585.439 24.04C585.292 24.2667 585.132 24.58 584.959 24.98L579.479 37.94H577.419ZM472.73 53.9C472.73 52.5933 472.89 51.4133 473.21 50.36C473.53 49.2933 474.017 48.2933 474.67 47.36C475.337 46.4267 476.177 45.5067 477.19 44.6L477.61 44.98C476.93 45.7933 476.363 46.6533 475.91 47.56C475.457 48.4533 475.11 49.42 474.87 50.46C474.643 51.4867 474.53 52.6333 474.53 53.9H472.73ZM477.19 63.2C476.177 62.28 475.337 61.3533 474.67 60.42C474.017 59.5 473.53 58.5067 473.21 57.44C472.89 56.3733 472.73 55.1933 472.73 53.9H474.53C474.53 55.1533 474.643 56.3 474.87 57.34C475.11 58.38 475.457 59.3467 475.91 60.24C476.363 61.1333 476.93 61.9933 477.61 62.82L477.19 63.2ZM477.997 60V59.34L478.537 59.26C478.964 59.1933 479.244 59.08 479.377 58.92C479.524 58.7467 479.597 58.4467 479.597 58.02V52.18C479.597 51.74 479.49 51.44 479.277 51.28C479.064 51.1067 478.65 50.9867 478.037 50.92V50.36L481.057 49.48H481.337V51.08H481.517C481.837 50.6267 482.237 50.24 482.717 49.92C483.197 49.6 483.764 49.44 484.417 49.44C484.897 49.44 485.257 49.54 485.497 49.74C485.75 49.9267 485.877 50.1867 485.877 50.52C485.877 50.7467 485.79 50.9467 485.617 51.12C485.444 51.2933 485.244 51.4133 485.017 51.48C484.79 51.5333 484.57 51.5 484.357 51.38L483.457 50.86C483.284 50.7533 483.084 50.7533 482.857 50.86C482.63 50.9667 482.41 51.1133 482.197 51.3C481.984 51.4867 481.804 51.6733 481.657 51.86C481.51 52.0467 481.424 52.1733 481.397 52.24V58.02C481.397 58.4467 481.477 58.7467 481.637 58.92C481.797 59.08 482.117 59.1867 482.597 59.24L483.397 59.34V60H477.997ZM491.186 60.2C490.199 60.2 489.332 59.9733 488.586 59.52C487.839 59.0533 487.259 58.42 486.846 57.62C486.432 56.82 486.226 55.92 486.226 54.92C486.226 53.8533 486.459 52.9067 486.926 52.08C487.406 51.2533 488.046 50.6 488.846 50.12C489.646 49.64 490.532 49.4 491.506 49.4C492.546 49.4 493.386 49.7 494.026 50.3C494.666 50.9 494.986 51.7733 494.986 52.92C494.986 53 494.986 53.0867 494.986 53.18C494.986 53.26 494.972 53.3733 494.946 53.52L494.906 53.8H487.746V53H493.006C493.046 52.76 493.066 52.5333 493.066 52.32C493.066 51.6933 492.892 51.1933 492.546 50.82C492.212 50.4467 491.732 50.26 491.106 50.26C490.186 50.26 489.446 50.62 488.886 51.34C488.326 52.0467 488.046 52.9867 488.046 54.16C488.046 55.0267 488.212 55.8067 488.546 56.5C488.879 57.1933 489.352 57.74 489.966 58.14C490.579 58.5267 491.306 58.72 492.146 58.72C492.599 58.72 493.046 58.6467 493.486 58.5C493.926 58.34 494.379 58.0867 494.846 57.74L495.246 58.12C494.632 58.8533 494.006 59.3867 493.366 59.72C492.726 60.04 491.999 60.2 491.186 60.2ZM496.274 64.94V64.28L496.814 64.2C497.227 64.1333 497.507 64.0267 497.654 63.88C497.8 63.7333 497.874 63.4733 497.874 63.1V52.18C497.874 51.7267 497.76 51.42 497.534 51.26C497.32 51.1 496.914 50.9867 496.314 50.92V50.36L499.334 49.48H499.614V50.94H499.754C500.127 50.5667 500.487 50.2667 500.834 50.04C501.194 49.8133 501.554 49.6533 501.914 49.56C502.287 49.4533 502.694 49.4 503.134 49.4C504.054 49.4 504.86 49.62 505.554 50.06C506.26 50.5 506.807 51.1067 507.194 51.88C507.594 52.64 507.794 53.5267 507.794 54.54C507.794 55.6333 507.547 56.6067 507.054 57.46C506.574 58.3133 505.92 58.9867 505.094 59.48C504.267 59.96 503.327 60.2 502.274 60.2C501.794 60.2 501.334 60.1467 500.894 60.04C500.467 59.9333 500.06 59.7667 499.674 59.54V62.84C499.674 63.28 499.754 63.6 499.914 63.8C500.087 64 500.427 64.1267 500.934 64.18L501.674 64.28V64.94H496.274ZM502.514 59.34C503.594 59.34 504.427 58.9867 505.014 58.28C505.614 57.56 505.914 56.5467 505.914 55.24C505.914 54.3733 505.76 53.6067 505.454 52.94C505.16 52.2733 504.74 51.7533 504.194 51.38C503.66 50.9933 503.027 50.8 502.294 50.8C501.76 50.8 501.274 50.88 500.834 51.04C500.407 51.2 500.02 51.44 499.674 51.76V56.38C499.674 56.98 499.787 57.5067 500.014 57.96C500.254 58.4 500.587 58.74 501.014 58.98C501.44 59.22 501.94 59.34 502.514 59.34ZM514.79 60.2C513.723 60.2 512.783 59.9733 511.97 59.52C511.157 59.0667 510.523 58.4333 510.07 57.62C509.617 56.8067 509.39 55.8667 509.39 54.8C509.39 53.76 509.617 52.8333 510.07 52.02C510.523 51.2067 511.15 50.5667 511.95 50.1C512.763 49.6333 513.71 49.4 514.79 49.4C515.87 49.4 516.817 49.6267 517.63 50.08C518.443 50.5333 519.077 51.1667 519.53 51.98C519.983 52.78 520.21 53.7133 520.21 54.78C520.21 55.82 519.983 56.7467 519.53 57.56C519.077 58.3733 518.443 59.02 517.63 59.5C516.83 59.9667 515.883 60.2 514.79 60.2ZM515.15 59.32C516.07 59.32 516.817 58.9867 517.39 58.32C517.977 57.64 518.27 56.64 518.27 55.32C518.27 54.4 518.117 53.56 517.81 52.8C517.517 52.0267 517.083 51.4133 516.51 50.96C515.95 50.5067 515.263 50.28 514.45 50.28C513.53 50.28 512.777 50.62 512.19 51.3C511.617 51.9667 511.33 52.9667 511.33 54.3C511.33 55.2067 511.477 56.0467 511.77 56.82C512.077 57.58 512.51 58.1867 513.07 58.64C513.643 59.0933 514.337 59.32 515.15 59.32ZM525.052 60.2C524.545 60.2 524.025 60.1333 523.492 60C522.972 59.88 522.492 59.7067 522.052 59.48V56.84H522.712C522.845 57.72 523.145 58.3667 523.612 58.78C524.092 59.1933 524.658 59.4 525.312 59.4C525.925 59.4 526.405 59.24 526.752 58.92C527.098 58.6 527.272 58.1933 527.272 57.7C527.272 57.2467 527.132 56.8933 526.852 56.64C526.585 56.3733 526.218 56.12 525.752 55.88L524.372 55.14C523.518 54.6867 522.938 54.24 522.632 53.8C522.338 53.36 522.192 52.8867 522.192 52.38C522.192 51.78 522.352 51.26 522.672 50.82C523.005 50.38 523.458 50.0333 524.032 49.78C524.605 49.5267 525.252 49.4 525.972 49.4C526.492 49.4 526.965 49.4533 527.392 49.56C527.818 49.6667 528.205 49.8 528.552 49.96V52.28H527.912C527.845 51.9333 527.725 51.6067 527.552 51.3C527.378 50.98 527.138 50.72 526.832 50.52C526.525 50.3067 526.125 50.2 525.632 50.2C525.045 50.2 524.592 50.3533 524.272 50.66C523.952 50.9667 523.792 51.34 523.792 51.78C523.792 52.1267 523.905 52.44 524.132 52.72C524.372 53 524.752 53.28 525.272 53.56L526.592 54.24C527.338 54.6133 527.898 55 528.272 55.4C528.658 55.8 528.852 56.3467 528.852 57.04C528.852 57.72 528.672 58.2933 528.312 58.76C527.952 59.2267 527.478 59.5867 526.892 59.84C526.318 60.08 525.705 60.2 525.052 60.2ZM530.321 60V59.34L530.861 59.26C531.288 59.1933 531.568 59.0733 531.701 58.9C531.848 58.7267 531.921 58.4333 531.921 58.02V52.18C531.921 51.7267 531.808 51.42 531.581 51.26C531.368 51.1 530.961 50.9867 530.361 50.92V50.36L533.441 49.48H533.721V58.02C533.721 58.4333 533.788 58.7267 533.921 58.9C534.068 59.0733 534.355 59.1933 534.781 59.26L535.321 59.34V60H530.321ZM532.621 47.94C532.288 47.94 532.008 47.8333 531.781 47.62C531.555 47.3933 531.441 47.1067 531.441 46.76C531.441 46.4133 531.555 46.1333 531.781 45.92C532.008 45.7067 532.288 45.6 532.621 45.6C532.941 45.6 533.215 45.7067 533.441 45.92C533.668 46.1333 533.781 46.4133 533.781 46.76C533.781 47.1067 533.668 47.3933 533.441 47.62C533.215 47.8333 532.941 47.94 532.621 47.94ZM540.199 60.2C539.372 60.2 538.712 59.9867 538.219 59.56C537.739 59.1333 537.499 58.44 537.499 57.48V50.86H536.239V50.18C537.239 49.62 538.039 48.8667 538.639 47.92H539.319V49.56V50.14V56.9C539.319 57.42 539.405 57.8133 539.579 58.08C539.752 58.3467 539.985 58.5267 540.279 58.62C540.585 58.7 540.919 58.74 541.279 58.74C541.692 58.74 542.072 58.68 542.419 58.56C542.765 58.4267 543.079 58.28 543.359 58.12L543.719 58.54C543.292 58.98 542.779 59.3667 542.179 59.7C541.579 60.0333 540.919 60.2 540.199 60.2ZM538.439 50.86V49.6H543.499V49.96L542.979 50.86H538.439ZM549.653 60.2C548.586 60.2 547.646 59.9733 546.833 59.52C546.02 59.0667 545.386 58.4333 544.933 57.62C544.48 56.8067 544.253 55.8667 544.253 54.8C544.253 53.76 544.48 52.8333 544.933 52.02C545.386 51.2067 546.013 50.5667 546.813 50.1C547.626 49.6333 548.573 49.4 549.653 49.4C550.733 49.4 551.68 49.6267 552.493 50.08C553.306 50.5333 553.94 51.1667 554.393 51.98C554.846 52.78 555.073 53.7133 555.073 54.78C555.073 55.82 554.846 56.7467 554.393 57.56C553.94 58.3733 553.306 59.02 552.493 59.5C551.693 59.9667 550.746 60.2 549.653 60.2ZM550.013 59.32C550.933 59.32 551.68 58.9867 552.253 58.32C552.84 57.64 553.133 56.64 553.133 55.32C553.133 54.4 552.98 53.56 552.673 52.8C552.38 52.0267 551.946 51.4133 551.373 50.96C550.813 50.5067 550.126 50.28 549.313 50.28C548.393 50.28 547.64 50.62 547.053 51.3C546.48 51.9667 546.193 52.9667 546.193 54.3C546.193 55.2067 546.34 56.0467 546.633 56.82C546.94 57.58 547.373 58.1867 547.933 58.64C548.506 59.0933 549.2 59.32 550.013 59.32ZM556.415 60V59.34L556.955 59.26C557.382 59.1933 557.662 59.08 557.795 58.92C557.942 58.7467 558.015 58.4467 558.015 58.02V52.18C558.015 51.74 557.908 51.44 557.695 51.28C557.482 51.1067 557.068 50.9867 556.455 50.92V50.36L559.475 49.48H559.755V51.08H559.935C560.255 50.6267 560.655 50.24 561.135 49.92C561.615 49.6 562.182 49.44 562.835 49.44C563.315 49.44 563.675 49.54 563.915 49.74C564.168 49.9267 564.295 50.1867 564.295 50.52C564.295 50.7467 564.208 50.9467 564.035 51.12C563.862 51.2933 563.662 51.4133 563.435 51.48C563.208 51.5333 562.988 51.5 562.775 51.38L561.875 50.86C561.702 50.7533 561.502 50.7533 561.275 50.86C561.048 50.9667 560.828 51.1133 560.615 51.3C560.402 51.4867 560.222 51.6733 560.075 51.86C559.928 52.0467 559.842 52.1733 559.815 52.24V58.02C559.815 58.4467 559.895 58.7467 560.055 58.92C560.215 59.08 560.535 59.1867 561.015 59.24L561.815 59.34V60H556.415ZM566.345 64.94V64.58L569.825 59.54L566.345 51.76C566.145 51.32 565.938 50.9867 565.725 50.76C565.511 50.52 565.258 50.3733 564.965 50.32L564.625 50.26V49.6H569.565V50.26L569.065 50.3C568.105 50.38 567.818 50.8667 568.205 51.76L570.965 58.26L570.385 58.28L572.865 52.04C573.091 51.4667 573.131 51.0467 572.985 50.78C572.838 50.5133 572.511 50.3533 572.005 50.3L571.585 50.26V49.6H575.825V50.26L575.405 50.32C575.191 50.3467 574.998 50.4133 574.825 50.52C574.665 50.6267 574.511 50.8 574.365 51.04C574.218 51.2667 574.058 51.58 573.885 51.98L568.405 64.94H566.345ZM580.294 53.9H578.494C578.494 52.6333 578.374 51.4867 578.134 50.46C577.907 49.42 577.56 48.4533 577.094 47.56C576.64 46.6533 576.074 45.7933 575.394 44.98L575.814 44.6C576.84 45.5067 577.68 46.4267 578.334 47.36C579 48.2933 579.494 49.2933 579.814 50.36C580.134 51.4133 580.294 52.5933 580.294 53.9ZM575.814 63.2L575.394 62.82C576.074 61.9933 576.64 61.1333 577.094 60.24C577.56 59.3467 577.907 58.38 578.134 57.34C578.374 56.3 578.494 55.1533 578.494 53.9H580.294C580.294 55.1933 580.134 56.3733 579.814 57.44C579.494 58.5067 579 59.5 578.334 60.42C577.68 61.3533 576.84 62.28 575.814 63.2Z" fill="black"/>
<path d="M278.278 33.2C277.665 33.2 277.058 33.1267 276.458 32.98C275.858 32.8333 275.232 32.56 274.578 32.16V28.82H275.258C275.365 29.94 275.712 30.8067 276.298 31.42C276.885 32.02 277.672 32.32 278.658 32.32C279.498 32.32 280.178 32.0933 280.698 31.64C281.232 31.1733 281.498 30.56 281.498 29.8C281.498 29.2667 281.345 28.8067 281.038 28.42C280.732 28.02 280.212 27.62 279.478 27.22L277.258 26C276.378 25.5067 275.732 25.0067 275.318 24.5C274.905 23.9933 274.698 23.38 274.698 22.66C274.698 21.9267 274.898 21.2733 275.298 20.7C275.712 20.1133 276.272 19.6533 276.978 19.32C277.698 18.9733 278.525 18.8 279.458 18.8C280.018 18.8 280.558 18.86 281.078 18.98C281.598 19.0867 282.118 19.28 282.638 19.56V22.08H281.978C281.845 21.28 281.525 20.68 281.018 20.28C280.525 19.88 279.872 19.68 279.058 19.68C278.205 19.68 277.532 19.8867 277.038 20.3C276.558 20.7 276.318 21.2333 276.318 21.9C276.318 22.38 276.472 22.82 276.778 23.22C277.085 23.6067 277.525 23.9533 278.098 24.26L280.418 25.52C281.125 25.8933 281.685 26.26 282.098 26.62C282.512 26.98 282.805 27.36 282.978 27.76C283.152 28.1467 283.238 28.5933 283.238 29.1C283.238 29.9133 283.025 30.6267 282.598 31.24C282.172 31.8533 281.585 32.3333 280.838 32.68C280.092 33.0267 279.238 33.2 278.278 33.2ZM288.562 33.2C287.735 33.2 287.075 32.9867 286.582 32.56C286.102 32.1333 285.862 31.44 285.862 30.48V23.86H284.602V23.18C285.602 22.62 286.402 21.8667 287.002 20.92H287.682V22.56V23.14V29.9C287.682 30.42 287.769 30.8133 287.942 31.08C288.115 31.3467 288.349 31.5267 288.642 31.62C288.949 31.7 289.282 31.74 289.642 31.74C290.055 31.74 290.435 31.68 290.782 31.56C291.129 31.4267 291.442 31.28 291.722 31.12L292.082 31.54C291.655 31.98 291.142 32.3667 290.542 32.7C289.942 33.0333 289.282 33.2 288.562 33.2ZM286.802 23.86V22.6H291.862V22.96L291.342 23.86H286.802ZM295.291 33.2C294.691 33.2 294.217 33.1 293.871 32.9C293.524 32.7 293.277 32.4467 293.131 32.14C292.984 31.8333 292.911 31.5267 292.911 31.22C292.911 30.7533 293.071 30.2867 293.391 29.82C293.724 29.3533 294.264 28.8933 295.011 28.44C295.771 27.9733 296.791 27.5133 298.071 27.06L298.571 26.88L298.631 25.02C298.644 24.5267 298.491 24.12 298.171 23.8C297.851 23.4667 297.411 23.3 296.851 23.3C296.384 23.3 295.984 23.4533 295.651 23.76C295.331 24.0533 295.097 24.5133 294.951 25.14C294.924 25.2733 294.777 25.4 294.511 25.52C294.257 25.64 293.924 25.7 293.511 25.7C293.284 25.7 293.111 25.6733 292.991 25.62C292.871 25.5533 292.837 25.4267 292.891 25.24C293.104 24.72 293.457 24.2467 293.951 23.82C294.444 23.3933 295.004 23.0533 295.631 22.8C296.257 22.5333 296.877 22.4 297.491 22.4C298.357 22.4 299.064 22.6067 299.611 23.02C300.171 23.4333 300.437 24.0133 300.411 24.76L300.211 30.82C300.197 31.34 300.324 31.6733 300.591 31.82C300.871 31.9667 301.397 32.0667 302.171 32.12V32.62L301.471 32.8C301.044 32.92 300.704 33.0067 300.451 33.06C300.211 33.1133 300.024 33.14 299.891 33.14C299.531 33.14 299.257 33.06 299.071 32.9C298.897 32.74 298.771 32.5533 298.691 32.34C298.624 32.1267 298.577 31.9533 298.551 31.82H298.391C297.817 32.38 297.284 32.7533 296.791 32.94C296.297 33.1133 295.797 33.2 295.291 33.2ZM296.391 31.84C296.871 31.84 297.264 31.7667 297.571 31.62C297.891 31.46 298.177 31.2933 298.431 31.12L298.551 27.64L298.391 27.7C297.417 28.0333 296.677 28.38 296.171 28.74C295.677 29.0867 295.337 29.4267 295.151 29.76C294.977 30.08 294.891 30.3667 294.891 30.62C294.891 31.4333 295.391 31.84 296.391 31.84ZM306.665 38.14C305.532 38.14 304.618 37.9133 303.925 37.46C303.245 37.0067 302.905 36.42 302.905 35.7C302.905 35.42 302.978 35.1 303.125 34.74C303.285 34.3933 303.592 33.9933 304.045 33.54L305.145 32.44L305.965 32.56C305.498 33.0933 305.138 33.5267 304.885 33.86C304.645 34.1933 304.525 34.5533 304.525 34.94C304.525 35.54 304.805 35.9933 305.365 36.3C305.925 36.6067 306.685 36.76 307.645 36.76C308.792 36.76 309.685 36.5467 310.325 36.12C310.965 35.6933 311.285 35.1333 311.285 34.44C311.285 34 311.138 33.68 310.845 33.48C310.552 33.28 310.032 33.1533 309.285 33.1L305.545 32.82C304.878 32.7667 304.345 32.6133 303.945 32.36C303.558 32.0933 303.365 31.7533 303.365 31.34C303.365 30.9933 303.485 30.7067 303.725 30.48C303.965 30.2533 304.272 29.9667 304.645 29.62L305.265 29.02H306.165L305.565 29.7C305.352 29.9267 305.212 30.0933 305.145 30.2C305.092 30.2933 305.065 30.3933 305.065 30.5C305.065 30.6733 305.138 30.8133 305.285 30.92C305.432 31.0133 305.678 31.0733 306.025 31.1L309.785 31.42C311.492 31.5533 312.345 32.32 312.345 33.72C312.345 34.5467 312.085 35.2933 311.565 35.96C311.058 36.6267 310.372 37.1533 309.505 37.54C308.652 37.94 307.705 38.14 306.665 38.14ZM307.065 29.48C306.305 29.48 305.632 29.3333 305.045 29.04C304.458 28.7333 303.998 28.3133 303.665 27.78C303.332 27.2467 303.165 26.6333 303.165 25.94C303.165 25.26 303.332 24.6533 303.665 24.12C304.012 23.5867 304.478 23.1667 305.065 22.86C305.665 22.5533 306.345 22.4 307.105 22.4L308.005 22.56C308.885 22.7067 309.605 23.08 310.165 23.68C310.725 24.2667 311.005 25.0067 311.005 25.9C311.005 26.58 310.832 27.1933 310.485 27.74C310.152 28.2733 309.685 28.7 309.085 29.02C308.498 29.3267 307.825 29.48 307.065 29.48ZM307.265 28.64C307.892 28.64 308.378 28.4333 308.725 28.02C309.072 27.5933 309.245 26.9933 309.245 26.22C309.245 25.6467 309.152 25.14 308.965 24.7C308.778 24.2467 308.512 23.8933 308.165 23.64C307.818 23.3733 307.398 23.24 306.905 23.24C306.278 23.24 305.792 23.4533 305.445 23.88C305.098 24.2933 304.925 24.8933 304.925 25.68C304.925 26.24 305.012 26.7467 305.185 27.2C305.372 27.64 305.638 27.9933 305.985 28.26C306.345 28.5133 306.772 28.64 307.265 28.64ZM307.105 22.76V22.4L312.005 21.46H312.445V22.76H307.105ZM313.177 33V32.34L313.717 32.26C314.143 32.1933 314.423 32.0733 314.557 31.9C314.703 31.7267 314.777 31.4333 314.777 31.02V25.18C314.777 24.7267 314.663 24.42 314.437 24.26C314.223 24.1 313.817 23.9867 313.217 23.92V23.36L316.297 22.48H316.577V31.02C316.577 31.4333 316.643 31.7267 316.777 31.9C316.923 32.0733 317.21 32.1933 317.637 32.26L318.177 32.34V33H313.177ZM315.477 20.94C315.143 20.94 314.863 20.8333 314.637 20.62C314.41 20.3933 314.297 20.1067 314.297 19.76C314.297 19.4133 314.41 19.1333 314.637 18.92C314.863 18.7067 315.143 18.6 315.477 18.6C315.797 18.6 316.07 18.7067 316.297 18.92C316.523 19.1333 316.637 19.4133 316.637 19.76C316.637 20.1067 316.523 20.3933 316.297 20.62C316.07 20.8333 315.797 20.94 315.477 20.94ZM319.114 33V32.34L319.654 32.26C320.081 32.1933 320.361 32.0733 320.494 31.9C320.641 31.7267 320.714 31.4333 320.714 31.02V25.18C320.714 24.7267 320.601 24.42 320.374 24.26C320.161 24.1 319.754 23.9867 319.154 23.92V23.36L322.174 22.48H322.454V23.94H322.574C323.214 23.38 323.808 22.9867 324.354 22.76C324.901 22.52 325.541 22.4 326.274 22.4C327.221 22.4 327.961 22.64 328.494 23.12C329.041 23.5867 329.314 24.2533 329.314 25.12V31.02C329.314 31.4333 329.381 31.7267 329.514 31.9C329.661 32.0733 329.948 32.1933 330.374 32.26L330.914 32.34V33H325.914V32.34L326.454 32.26C326.881 32.1933 327.161 32.0733 327.294 31.9C327.441 31.7267 327.514 31.4333 327.514 31.02V25.78C327.514 25.2733 327.421 24.8733 327.234 24.58C327.048 24.2733 326.781 24.0533 326.434 23.92C326.101 23.7733 325.681 23.7 325.174 23.7C324.641 23.7 324.168 23.7867 323.754 23.96C323.354 24.1333 322.941 24.4 322.514 24.76V31.02C322.514 31.4333 322.581 31.7267 322.714 31.9C322.861 32.0733 323.148 32.1933 323.574 32.26L324.114 32.34V33H319.114ZM335.63 38.14C334.497 38.14 333.583 37.9133 332.89 37.46C332.21 37.0067 331.87 36.42 331.87 35.7C331.87 35.42 331.943 35.1 332.09 34.74C332.25 34.3933 332.557 33.9933 333.01 33.54L334.11 32.44L334.93 32.56C334.463 33.0933 334.103 33.5267 333.85 33.86C333.61 34.1933 333.49 34.5533 333.49 34.94C333.49 35.54 333.77 35.9933 334.33 36.3C334.89 36.6067 335.65 36.76 336.61 36.76C337.757 36.76 338.65 36.5467 339.29 36.12C339.93 35.6933 340.25 35.1333 340.25 34.44C340.25 34 340.103 33.68 339.81 33.48C339.517 33.28 338.997 33.1533 338.25 33.1L334.51 32.82C333.843 32.7667 333.31 32.6133 332.91 32.36C332.523 32.0933 332.33 31.7533 332.33 31.34C332.33 30.9933 332.45 30.7067 332.69 30.48C332.93 30.2533 333.237 29.9667 333.61 29.62L334.23 29.02H335.13L334.53 29.7C334.317 29.9267 334.177 30.0933 334.11 30.2C334.057 30.2933 334.03 30.3933 334.03 30.5C334.03 30.6733 334.103 30.8133 334.25 30.92C334.397 31.0133 334.643 31.0733 334.99 31.1L338.75 31.42C340.457 31.5533 341.31 32.32 341.31 33.72C341.31 34.5467 341.05 35.2933 340.53 35.96C340.023 36.6267 339.337 37.1533 338.47 37.54C337.617 37.94 336.67 38.14 335.63 38.14ZM336.03 29.48C335.27 29.48 334.597 29.3333 334.01 29.04C333.423 28.7333 332.963 28.3133 332.63 27.78C332.297 27.2467 332.13 26.6333 332.13 25.94C332.13 25.26 332.297 24.6533 332.63 24.12C332.977 23.5867 333.443 23.1667 334.03 22.86C334.63 22.5533 335.31 22.4 336.07 22.4L336.97 22.56C337.85 22.7067 338.57 23.08 339.13 23.68C339.69 24.2667 339.97 25.0067 339.97 25.9C339.97 26.58 339.797 27.1933 339.45 27.74C339.117 28.2733 338.65 28.7 338.05 29.02C337.463 29.3267 336.79 29.48 336.03 29.48ZM336.23 28.64C336.857 28.64 337.343 28.4333 337.69 28.02C338.037 27.5933 338.21 26.9933 338.21 26.22C338.21 25.6467 338.117 25.14 337.93 24.7C337.743 24.2467 337.477 23.8933 337.13 23.64C336.783 23.3733 336.363 23.24 335.87 23.24C335.243 23.24 334.757 23.4533 334.41 23.88C334.063 24.2933 333.89 24.8933 333.89 25.68C333.89 26.24 333.977 26.7467 334.15 27.2C334.337 27.64 334.603 27.9933 334.95 28.26C335.31 28.5133 335.737 28.64 336.23 28.64ZM336.07 22.76V22.4L340.97 21.46H341.41V22.76H336.07ZM285.797 60V59.34L285.977 59.3C286.417 59.2333 286.757 59.14 286.997 59.02C287.25 58.9 287.457 58.7133 287.617 58.46C287.79 58.1933 287.977 57.8133 288.177 57.32L292.817 45.9H293.557L298.177 57.52C298.404 58.1067 298.657 58.54 298.937 58.82C299.23 59.0867 299.684 59.2533 300.297 59.32L300.437 59.34V60H294.677V59.34L295.437 59.24C295.917 59.1867 296.217 59.0267 296.337 58.76C296.457 58.4933 296.41 58.1067 296.197 57.6L292.357 47.78H292.957L289.217 57.44C288.977 58.04 288.937 58.4867 289.097 58.78C289.257 59.06 289.597 59.2267 290.117 59.28L290.697 59.34V60H285.797ZM289.977 54.64V53.78H296.017V54.64H289.977ZM300.872 60V59.34L301.412 59.26C301.839 59.1933 302.119 59.08 302.252 58.92C302.399 58.7467 302.472 58.4467 302.472 58.02V52.18C302.472 51.74 302.365 51.44 302.152 51.28C301.939 51.1067 301.525 50.9867 300.912 50.92V50.36L303.932 49.48H304.212V51.08H304.392C304.712 50.6267 305.112 50.24 305.592 49.92C306.072 49.6 306.639 49.44 307.292 49.44C307.772 49.44 308.132 49.54 308.372 49.74C308.625 49.9267 308.752 50.1867 308.752 50.52C308.752 50.7467 308.665 50.9467 308.492 51.12C308.319 51.2933 308.119 51.4133 307.892 51.48C307.665 51.5333 307.445 51.5 307.232 51.38L306.332 50.86C306.159 50.7533 305.959 50.7533 305.732 50.86C305.505 50.9667 305.285 51.1133 305.072 51.3C304.859 51.4867 304.679 51.6733 304.532 51.86C304.385 52.0467 304.299 52.1733 304.272 52.24V58.02C304.272 58.4467 304.352 58.7467 304.512 58.92C304.672 59.08 304.992 59.1867 305.472 59.24L306.272 59.34V60H300.872ZM314.061 60.2C313.074 60.2 312.207 59.9733 311.461 59.52C310.714 59.0533 310.134 58.42 309.721 57.62C309.307 56.82 309.101 55.92 309.101 54.92C309.101 53.8533 309.334 52.9067 309.801 52.08C310.281 51.2533 310.921 50.6 311.721 50.12C312.521 49.64 313.407 49.4 314.381 49.4C315.421 49.4 316.261 49.7 316.901 50.3C317.541 50.9 317.861 51.7733 317.861 52.92C317.861 53 317.861 53.0867 317.861 53.18C317.861 53.26 317.847 53.3733 317.821 53.52L317.781 53.8H310.621V53H315.881C315.921 52.76 315.941 52.5333 315.941 52.32C315.941 51.6933 315.767 51.1933 315.421 50.82C315.087 50.4467 314.607 50.26 313.981 50.26C313.061 50.26 312.321 50.62 311.761 51.34C311.201 52.0467 310.921 52.9867 310.921 54.16C310.921 55.0267 311.087 55.8067 311.421 56.5C311.754 57.1933 312.227 57.74 312.841 58.14C313.454 58.5267 314.181 58.72 315.021 58.72C315.474 58.72 315.921 58.6467 316.361 58.5C316.801 58.34 317.254 58.0867 317.721 57.74L318.121 58.12C317.507 58.8533 316.881 59.3867 316.241 59.72C315.601 60.04 314.874 60.2 314.061 60.2ZM322.049 60.2C321.449 60.2 320.975 60.1 320.629 59.9C320.282 59.7 320.035 59.4467 319.889 59.14C319.742 58.8333 319.669 58.5267 319.669 58.22C319.669 57.7533 319.829 57.2867 320.149 56.82C320.482 56.3533 321.022 55.8933 321.769 55.44C322.529 54.9733 323.549 54.5133 324.829 54.06L325.329 53.88L325.389 52.02C325.402 51.5267 325.249 51.12 324.929 50.8C324.609 50.4667 324.169 50.3 323.609 50.3C323.142 50.3 322.742 50.4533 322.409 50.76C322.089 51.0533 321.855 51.5133 321.709 52.14C321.682 52.2733 321.535 52.4 321.269 52.52C321.015 52.64 320.682 52.7 320.269 52.7C320.042 52.7 319.869 52.6733 319.749 52.62C319.629 52.5533 319.595 52.4267 319.649 52.24C319.862 51.72 320.215 51.2467 320.709 50.82C321.202 50.3933 321.762 50.0533 322.389 49.8C323.015 49.5333 323.635 49.4 324.249 49.4C325.115 49.4 325.822 49.6067 326.369 50.02C326.929 50.4333 327.195 51.0133 327.169 51.76L326.969 57.82C326.955 58.34 327.082 58.6733 327.349 58.82C327.629 58.9667 328.155 59.0667 328.929 59.12V59.62L328.229 59.8C327.802 59.92 327.462 60.0067 327.209 60.06C326.969 60.1133 326.782 60.14 326.649 60.14C326.289 60.14 326.015 60.06 325.829 59.9C325.655 59.74 325.529 59.5533 325.449 59.34C325.382 59.1267 325.335 58.9533 325.309 58.82H325.149C324.575 59.38 324.042 59.7533 323.549 59.94C323.055 60.1133 322.555 60.2 322.049 60.2ZM323.149 58.84C323.629 58.84 324.022 58.7667 324.329 58.62C324.649 58.46 324.935 58.2933 325.189 58.12L325.309 54.64L325.149 54.7C324.175 55.0333 323.435 55.38 322.929 55.74C322.435 56.0867 322.095 56.4267 321.909 56.76C321.735 57.08 321.649 57.3667 321.649 57.62C321.649 58.4333 322.149 58.84 323.149 58.84Z" fill="white"/>
<line x1="309.039" y1="78.0001" x2="309.003" y2="342" stroke="black" stroke-width="2"/>
<line x1="529.039" y1="78.0039" x2="528" y2="342.004" stroke="black" stroke-width="2"/>
<line x1="89" y1="77.9963" x2="89.9888" y2="341.996" stroke="black" stroke-width="2"/>
<path d="M50.3 33.1L46.1 21.62C45.9267 21.14 45.7533 20.7667 45.58 20.5C45.42 20.2333 45.22 20.04 44.98 19.92C44.7533 19.8 44.4467 19.72 44.06 19.68L43.92 19.66V19H49.78V19.66L49.12 19.7C48.6133 19.7267 48.2733 19.9067 48.1 20.24C47.9267 20.5733 47.94 21.0333 48.14 21.62L51.14 30.38L54.02 21.8C53.82 21.0933 53.6 20.58 53.36 20.26C53.12 19.94 52.7667 19.7533 52.3 19.7L51.84 19.66V19H57.5V19.66L56.84 19.7C56.3467 19.7267 56.0133 19.9 55.84 20.22C55.6667 20.5267 55.6733 20.9933 55.86 21.62L58.48 30.38L61.46 21.62C61.6733 20.9933 61.7 20.5267 61.54 20.22C61.3933 19.9133 61.0333 19.74 60.46 19.7L59.88 19.66V19H64.86V19.66L64.66 19.7C64.3 19.7533 63.9867 19.8467 63.72 19.98C63.4667 20.1133 63.2467 20.3133 63.06 20.58C62.8733 20.8333 62.7 21.18 62.54 21.62L58.48 33.1H57.64L54.32 22.72L54.72 22.74L51.14 33.1H50.3ZM69.5555 33.2C68.4888 33.2 67.5488 32.9733 66.7355 32.52C65.9221 32.0667 65.2888 31.4333 64.8355 30.62C64.3821 29.8067 64.1555 28.8667 64.1555 27.8C64.1555 26.76 64.3821 25.8333 64.8355 25.02C65.2888 24.2067 65.9155 23.5667 66.7155 23.1C67.5288 22.6333 68.4755 22.4 69.5555 22.4C70.6355 22.4 71.5821 22.6267 72.3955 23.08C73.2088 23.5333 73.8421 24.1667 74.2955 24.98C74.7488 25.78 74.9755 26.7133 74.9755 27.78C74.9755 28.82 74.7488 29.7467 74.2955 30.56C73.8421 31.3733 73.2088 32.02 72.3955 32.5C71.5955 32.9667 70.6488 33.2 69.5555 33.2ZM69.9155 32.32C70.8355 32.32 71.5821 31.9867 72.1555 31.32C72.7421 30.64 73.0355 29.64 73.0355 28.32C73.0355 27.4 72.8821 26.56 72.5755 25.8C72.2821 25.0267 71.8488 24.4133 71.2755 23.96C70.7155 23.5067 70.0288 23.28 69.2155 23.28C68.2955 23.28 67.5421 23.62 66.9555 24.3C66.3821 24.9667 66.0955 25.9667 66.0955 27.3C66.0955 28.2067 66.2421 29.0467 66.5355 29.82C66.8421 30.58 67.2755 31.1867 67.8355 31.64C68.4088 32.0933 69.1021 32.32 69.9155 32.32ZM76.3173 33V32.34L76.8573 32.26C77.284 32.1933 77.564 32.08 77.6973 31.92C77.844 31.7467 77.9173 31.4467 77.9173 31.02V25.18C77.9173 24.74 77.8107 24.44 77.5973 24.28C77.384 24.1067 76.9707 23.9867 76.3573 23.92V23.36L79.3773 22.48H79.6573V24.08H79.8373C80.1573 23.6267 80.5573 23.24 81.0373 22.92C81.5173 22.6 82.084 22.44 82.7373 22.44C83.2173 22.44 83.5773 22.54 83.8173 22.74C84.0707 22.9267 84.1973 23.1867 84.1973 23.52C84.1973 23.7467 84.1107 23.9467 83.9373 24.12C83.764 24.2933 83.564 24.4133 83.3373 24.48C83.1107 24.5333 82.8907 24.5 82.6773 24.38L81.7773 23.86C81.604 23.7533 81.404 23.7533 81.1773 23.86C80.9507 23.9667 80.7307 24.1133 80.5173 24.3C80.304 24.4867 80.124 24.6733 79.9773 24.86C79.8307 25.0467 79.744 25.1733 79.7173 25.24V31.02C79.7173 31.4467 79.7973 31.7467 79.9573 31.92C80.1173 32.08 80.4373 32.1867 80.9173 32.24L81.7173 32.34V33H76.3173ZM84.673 33V32.34L85.213 32.26C85.6396 32.1933 85.9196 32.0733 86.053 31.9C86.1996 31.7267 86.273 31.4333 86.273 31.02V19.7C86.273 19.2467 86.1596 18.94 85.933 18.78C85.7196 18.62 85.313 18.5067 84.713 18.44V17.88L87.793 17H88.073V31.02C88.073 31.4333 88.1396 31.7267 88.273 31.9C88.4063 32.0733 88.693 32.1933 89.133 32.26L89.673 32.34V33H84.673ZM90.873 33V32.34L91.313 32.32C91.713 32.2933 91.9663 32.2067 92.073 32.06C92.1796 31.9133 92.193 31.7267 92.113 31.5C92.033 31.2733 91.9063 31.0333 91.733 30.78L89.493 27.2L90.793 26.04L93.733 30.78C94.053 31.2867 94.353 31.66 94.633 31.9C94.9263 32.14 95.2263 32.2733 95.533 32.3L95.933 32.34V33H90.873ZM87.513 29.62L86.873 29.12L91.653 24.64C92.1196 24.2133 92.3263 23.8867 92.273 23.66C92.233 23.42 91.953 23.2933 91.433 23.28L90.953 23.26V22.6H95.933V23.26L95.713 23.28C95.1796 23.3067 94.7263 23.4067 94.353 23.58C93.993 23.7533 93.6263 24.0133 93.253 24.36L87.513 29.62ZM96.747 33V32.34L97.287 32.26C97.7137 32.1933 97.9937 32.0733 98.127 31.9C98.2737 31.7267 98.347 31.4333 98.347 31.02V25.18C98.347 24.7267 98.2337 24.42 98.007 24.26C97.7937 24.1 97.387 23.9867 96.787 23.92V23.36L99.867 22.48H100.147V31.02C100.147 31.4333 100.214 31.7267 100.347 31.9C100.494 32.0733 100.78 32.1933 101.207 32.26L101.747 32.34V33H96.747ZM99.047 20.94C98.7137 20.94 98.4337 20.8333 98.207 20.62C97.9804 20.3933 97.867 20.1067 97.867 19.76C97.867 19.4133 97.9804 19.1333 98.207 18.92C98.4337 18.7067 98.7137 18.6 99.047 18.6C99.367 18.6 99.6404 18.7067 99.867 18.92C100.094 19.1333 100.207 19.4133 100.207 19.76C100.207 20.1067 100.094 20.3933 99.867 20.62C99.6404 20.8333 99.367 20.94 99.047 20.94ZM102.685 33V32.34L103.225 32.26C103.651 32.1933 103.931 32.0733 104.065 31.9C104.211 31.7267 104.285 31.4333 104.285 31.02V25.18C104.285 24.7267 104.171 24.42 103.945 24.26C103.731 24.1 103.325 23.9867 102.725 23.92V23.36L105.745 22.48H106.025V23.94H106.145C106.785 23.38 107.378 22.9867 107.925 22.76C108.471 22.52 109.111 22.4 109.845 22.4C110.791 22.4 111.531 22.64 112.065 23.12C112.611 23.5867 112.885 24.2533 112.885 25.12V31.02C112.885 31.4333 112.951 31.7267 113.085 31.9C113.231 32.0733 113.518 32.1933 113.945 32.26L114.485 32.34V33H109.485V32.34L110.025 32.26C110.451 32.1933 110.731 32.0733 110.865 31.9C111.011 31.7267 111.085 31.4333 111.085 31.02V25.78C111.085 25.2733 110.991 24.8733 110.805 24.58C110.618 24.2733 110.351 24.0533 110.005 23.92C109.671 23.7733 109.251 23.7 108.745 23.7C108.211 23.7 107.738 23.7867 107.325 23.96C106.925 24.1333 106.511 24.4 106.085 24.76V31.02C106.085 31.4333 106.151 31.7267 106.285 31.9C106.431 32.0733 106.718 32.1933 107.145 32.26L107.685 32.34V33H102.685ZM119.2 38.14C118.067 38.14 117.154 37.9133 116.46 37.46C115.78 37.0067 115.44 36.42 115.44 35.7C115.44 35.42 115.514 35.1 115.66 34.74C115.82 34.3933 116.127 33.9933 116.58 33.54L117.68 32.44L118.5 32.56C118.034 33.0933 117.674 33.5267 117.42 33.86C117.18 34.1933 117.06 34.5533 117.06 34.94C117.06 35.54 117.34 35.9933 117.9 36.3C118.46 36.6067 119.22 36.76 120.18 36.76C121.327 36.76 122.22 36.5467 122.86 36.12C123.5 35.6933 123.82 35.1333 123.82 34.44C123.82 34 123.674 33.68 123.38 33.48C123.087 33.28 122.567 33.1533 121.82 33.1L118.08 32.82C117.414 32.7667 116.88 32.6133 116.48 32.36C116.094 32.0933 115.9 31.7533 115.9 31.34C115.9 30.9933 116.02 30.7067 116.26 30.48C116.5 30.2533 116.807 29.9667 117.18 29.62L117.8 29.02H118.7L118.1 29.7C117.887 29.9267 117.747 30.0933 117.68 30.2C117.627 30.2933 117.6 30.3933 117.6 30.5C117.6 30.6733 117.674 30.8133 117.82 30.92C117.967 31.0133 118.214 31.0733 118.56 31.1L122.32 31.42C124.027 31.5533 124.88 32.32 124.88 33.72C124.88 34.5467 124.62 35.2933 124.1 35.96C123.594 36.6267 122.907 37.1533 122.04 37.54C121.187 37.94 120.24 38.14 119.2 38.14ZM119.6 29.48C118.84 29.48 118.167 29.3333 117.58 29.04C116.994 28.7333 116.534 28.3133 116.2 27.78C115.867 27.2467 115.7 26.6333 115.7 25.94C115.7 25.26 115.867 24.6533 116.2 24.12C116.547 23.5867 117.014 23.1667 117.6 22.86C118.2 22.5533 118.88 22.4 119.64 22.4L120.54 22.56C121.42 22.7067 122.14 23.08 122.7 23.68C123.26 24.2667 123.54 25.0067 123.54 25.9C123.54 26.58 123.367 27.1933 123.02 27.74C122.687 28.2733 122.22 28.7 121.62 29.02C121.034 29.3267 120.36 29.48 119.6 29.48ZM119.8 28.64C120.427 28.64 120.914 28.4333 121.26 28.02C121.607 27.5933 121.78 26.9933 121.78 26.22C121.78 25.6467 121.687 25.14 121.5 24.7C121.314 24.2467 121.047 23.8933 120.7 23.64C120.354 23.3733 119.934 23.24 119.44 23.24C118.814 23.24 118.327 23.4533 117.98 23.88C117.634 24.2933 117.46 24.8933 117.46 25.68C117.46 26.24 117.547 26.7467 117.72 27.2C117.907 27.64 118.174 27.9933 118.52 28.26C118.88 28.5133 119.307 28.64 119.8 28.64ZM119.64 22.76V22.4L124.54 21.46H124.98V22.76H119.64ZM44.68 60V59.34L45.38 59.28C45.9 59.24 46.26 59.12 46.46 58.92C46.66 58.72 46.76 58.3867 46.76 57.92V48.08C46.76 47.6133 46.66 47.28 46.46 47.08C46.26 46.88 45.9 46.76 45.38 46.72L44.68 46.66V46H51.18C52.8467 46 54.2667 46.26 55.44 46.78C56.6133 47.3 57.5133 48.0667 58.14 49.08C58.7667 50.08 59.08 51.32 59.08 52.8C59.08 54.28 58.7533 55.56 58.1 56.64C57.46 57.7067 56.5533 58.5333 55.38 59.12C54.2067 59.7067 52.8267 60 51.24 60H44.68ZM51.36 59.14C53.12 59.14 54.5067 58.6467 55.52 57.66C56.5467 56.66 57.06 55.2267 57.06 53.36C57.06 52.0267 56.8 50.8733 56.28 49.9C55.7733 48.9133 55.0667 48.1533 54.16 47.62C53.2533 47.0733 52.2267 46.8 51.08 46.8C50.7067 46.8 50.3333 46.8133 49.96 46.84C49.5867 46.8533 49.1467 46.88 48.64 46.92V57.88C48.64 58.2267 48.7133 58.4933 48.86 58.68C49.0067 58.8533 49.2733 58.9733 49.66 59.04C50.06 59.1067 50.6267 59.14 51.36 59.14ZM60.5166 60V59.34L61.0566 59.26C61.4832 59.1933 61.7632 59.0733 61.8966 58.9C62.0432 58.7267 62.1166 58.4333 62.1166 58.02V52.18C62.1166 51.7267 62.0032 51.42 61.7766 51.26C61.5632 51.1 61.1566 50.9867 60.5566 50.92V50.36L63.6366 49.48H63.9166V58.02C63.9166 58.4333 63.9832 58.7267 64.1166 58.9C64.2632 59.0733 64.5499 59.1933 64.9766 59.26L65.5166 59.34V60H60.5166ZM62.8166 47.94C62.4832 47.94 62.2032 47.8333 61.9766 47.62C61.7499 47.3933 61.6366 47.1067 61.6366 46.76C61.6366 46.4133 61.7499 46.1333 61.9766 45.92C62.2032 45.7067 62.4832 45.6 62.8166 45.6C63.1366 45.6 63.4099 45.7067 63.6366 45.92C63.8632 46.1333 63.9766 46.4133 63.9766 46.76C63.9766 47.1067 63.8632 47.3933 63.6366 47.62C63.4099 47.8333 63.1366 47.94 62.8166 47.94ZM66.4541 60V59.34L66.9941 59.26C67.4207 59.1933 67.7007 59.08 67.8341 58.92C67.9807 58.7467 68.0541 58.4467 68.0541 58.02V52.18C68.0541 51.74 67.9474 51.44 67.7341 51.28C67.5207 51.1067 67.1074 50.9867 66.4941 50.92V50.36L69.5141 49.48H69.7941V51.08H69.9741C70.2941 50.6267 70.6941 50.24 71.1741 49.92C71.6541 49.6 72.2207 49.44 72.8741 49.44C73.3541 49.44 73.7141 49.54 73.9541 49.74C74.2074 49.9267 74.3341 50.1867 74.3341 50.52C74.3341 50.7467 74.2474 50.9467 74.0741 51.12C73.9007 51.2933 73.7007 51.4133 73.4741 51.48C73.2474 51.5333 73.0274 51.5 72.8141 51.38L71.9141 50.86C71.7407 50.7533 71.5407 50.7533 71.3141 50.86C71.0874 50.9667 70.8674 51.1133 70.6541 51.3C70.4407 51.4867 70.2607 51.6733 70.1141 51.86C69.9674 52.0467 69.8807 52.1733 69.8541 52.24V58.02C69.8541 58.4467 69.9341 58.7467 70.0941 58.92C70.2541 59.08 70.5741 59.1867 71.0541 59.24L71.8541 59.34V60H66.4541ZM79.6428 60.2C78.6561 60.2 77.7895 59.9733 77.0428 59.52C76.2961 59.0533 75.7161 58.42 75.3028 57.62C74.8895 56.82 74.6828 55.92 74.6828 54.92C74.6828 53.8533 74.9161 52.9067 75.3828 52.08C75.8628 51.2533 76.5028 50.6 77.3028 50.12C78.1028 49.64 78.9895 49.4 79.9628 49.4C81.0028 49.4 81.8428 49.7 82.4828 50.3C83.1228 50.9 83.4428 51.7733 83.4428 52.92C83.4428 53 83.4428 53.0867 83.4428 53.18C83.4428 53.26 83.4295 53.3733 83.4028 53.52L83.3628 53.8H76.2028V53H81.4628C81.5028 52.76 81.5228 52.5333 81.5228 52.32C81.5228 51.6933 81.3495 51.1933 81.0028 50.82C80.6695 50.4467 80.1895 50.26 79.5628 50.26C78.6428 50.26 77.9028 50.62 77.3428 51.34C76.7828 52.0467 76.5028 52.9867 76.5028 54.16C76.5028 55.0267 76.6695 55.8067 77.0028 56.5C77.3361 57.1933 77.8095 57.74 78.4228 58.14C79.0361 58.5267 79.7628 58.72 80.6028 58.72C81.0561 58.72 81.5028 58.6467 81.9428 58.5C82.3828 58.34 82.8361 58.0867 83.3028 57.74L83.7028 58.12C83.0895 58.8533 82.4628 59.3867 81.8228 59.72C81.1828 60.04 80.4561 60.2 79.6428 60.2ZM90.1906 60.2C89.2173 60.2 88.3506 59.9733 87.5906 59.52C86.844 59.0533 86.2573 58.4267 85.8306 57.64C85.404 56.84 85.1906 55.94 85.1906 54.94C85.1906 53.8733 85.424 52.9267 85.8906 52.1C86.3706 51.26 87.024 50.6 87.8506 50.12C88.6773 49.64 89.6106 49.4 90.6506 49.4C91.344 49.4 91.944 49.4933 92.4506 49.68C92.9706 49.8667 93.3706 50.0933 93.6506 50.36C93.944 50.6267 94.0906 50.88 94.0906 51.12C94.0906 51.3333 93.984 51.5133 93.7706 51.66C93.5573 51.8067 93.3173 51.9 93.0506 51.94C92.7973 51.9667 92.6106 51.9267 92.4906 51.82L91.2706 50.72C91.0973 50.56 90.9106 50.4533 90.7106 50.4C90.524 50.3333 90.304 50.3 90.0506 50.3C89.4373 50.3 88.8973 50.4733 88.4306 50.82C87.9773 51.1667 87.624 51.64 87.3706 52.24C87.1306 52.8267 87.0106 53.4933 87.0106 54.24C87.0106 55.12 87.1773 55.9 87.5106 56.58C87.8573 57.26 88.3306 57.8 88.9306 58.2C89.544 58.5867 90.2373 58.78 91.0106 58.78C91.4773 58.78 91.9373 58.7 92.3906 58.54C92.844 58.38 93.3173 58.1133 93.8106 57.74L94.2106 58.12C93.584 58.8533 92.944 59.3867 92.2906 59.72C91.6373 60.04 90.9373 60.2 90.1906 60.2ZM99.2222 60.2C98.3955 60.2 97.7355 59.9867 97.2422 59.56C96.7622 59.1333 96.5222 58.44 96.5222 57.48V50.86H95.2622V50.18C96.2622 49.62 97.0622 48.8667 97.6622 47.92H98.3422V49.56V50.14V56.9C98.3422 57.42 98.4289 57.8133 98.6022 58.08C98.7755 58.3467 99.0089 58.5267 99.3022 58.62C99.6089 58.7 99.9422 58.74 100.302 58.74C100.716 58.74 101.096 58.68 101.442 58.56C101.789 58.4267 102.102 58.28 102.382 58.12L102.742 58.54C102.316 58.98 101.802 59.3667 101.202 59.7C100.602 60.0333 99.9422 60.2 99.2222 60.2ZM97.4622 50.86V49.6H102.522V49.96L102.002 50.86H97.4622ZM108.677 60.2C107.61 60.2 106.67 59.9733 105.857 59.52C105.043 59.0667 104.41 58.4333 103.957 57.62C103.503 56.8067 103.277 55.8667 103.277 54.8C103.277 53.76 103.503 52.8333 103.957 52.02C104.41 51.2067 105.037 50.5667 105.837 50.1C106.65 49.6333 107.597 49.4 108.677 49.4C109.757 49.4 110.703 49.6267 111.517 50.08C112.33 50.5333 112.963 51.1667 113.417 51.98C113.87 52.78 114.097 53.7133 114.097 54.78C114.097 55.82 113.87 56.7467 113.417 57.56C112.963 58.3733 112.33 59.02 111.517 59.5C110.717 59.9667 109.77 60.2 108.677 60.2ZM109.037 59.32C109.957 59.32 110.703 58.9867 111.277 58.32C111.863 57.64 112.157 56.64 112.157 55.32C112.157 54.4 112.003 53.56 111.697 52.8C111.403 52.0267 110.97 51.4133 110.397 50.96C109.837 50.5067 109.15 50.28 108.337 50.28C107.417 50.28 106.663 50.62 106.077 51.3C105.503 51.9667 105.217 52.9667 105.217 54.3C105.217 55.2067 105.363 56.0467 105.657 56.82C105.963 57.58 106.397 58.1867 106.957 58.64C107.53 59.0933 108.223 59.32 109.037 59.32ZM115.438 60V59.34L115.978 59.26C116.405 59.1933 116.685 59.08 116.818 58.92C116.965 58.7467 117.038 58.4467 117.038 58.02V52.18C117.038 51.74 116.932 51.44 116.718 51.28C116.505 51.1067 116.092 50.9867 115.478 50.92V50.36L118.498 49.48H118.778V51.08H118.958C119.278 50.6267 119.678 50.24 120.158 49.92C120.638 49.6 121.205 49.44 121.858 49.44C122.338 49.44 122.698 49.54 122.938 49.74C123.192 49.9267 123.318 50.1867 123.318 50.52C123.318 50.7467 123.232 50.9467 123.058 51.12C122.885 51.2933 122.685 51.4133 122.458 51.48C122.232 51.5333 122.012 51.5 121.798 51.38L120.898 50.86C120.725 50.7533 120.525 50.7533 120.298 50.86C120.072 50.9667 119.852 51.1133 119.638 51.3C119.425 51.4867 119.245 51.6733 119.098 51.86C118.952 52.0467 118.865 52.1733 118.838 52.24V58.02C118.838 58.4467 118.918 58.7467 119.078 58.92C119.238 59.08 119.558 59.1867 120.038 59.24L120.838 59.34V60H115.438ZM125.368 64.94V64.58L128.848 59.54L125.368 51.76C125.168 51.32 124.961 50.9867 124.748 50.76C124.535 50.52 124.281 50.3733 123.988 50.32L123.648 50.26V49.6H128.588V50.26L128.088 50.3C127.128 50.38 126.841 50.8667 127.228 51.76L129.988 58.26L129.408 58.28L131.888 52.04C132.115 51.4667 132.155 51.0467 132.008 50.78C131.861 50.5133 131.535 50.3533 131.028 50.3L130.608 50.26V49.6H134.848V50.26L134.428 50.32C134.215 50.3467 134.021 50.4133 133.848 50.52C133.688 50.6267 133.535 50.8 133.388 51.04C133.241 51.2667 133.081 51.58 132.908 51.98L127.428 64.94H125.368Z" fill="white"/>
<path d="M302.819 221.718L182.18 257.737C178.626 258.868 175 256.216 175 252.487V250.466V236.604C175 236.604 174.999 236.604 174.999 236.604H97C93.6863 236.604 91 233.917 91 230.604V201.396C91 198.083 93.6863 195.396 97 195.396H174.999C175 195.396 175 195.396 175 195.396V180.004C175 175.943 178.95 173.055 182.819 174.286L302.819 210.282C308.394 212.056 308.394 219.944 302.819 221.718Z" fill="#D4D1D1" stroke="black" stroke-width="4" stroke-linecap="round"/>
<path d="M144.177 213.42C144.116 212.883 143.866 212.466 143.427 212.17C142.987 211.871 142.434 211.722 141.768 211.722C141.291 211.722 140.878 211.797 140.529 211.949C140.181 212.097 139.91 212.301 139.717 212.562C139.527 212.82 139.433 213.114 139.433 213.443C139.433 213.72 139.497 213.958 139.626 214.159C139.758 214.36 139.931 214.528 140.143 214.665C140.359 214.797 140.59 214.909 140.836 215C141.082 215.087 141.319 215.159 141.546 215.216L142.683 215.511C143.054 215.602 143.434 215.725 143.825 215.881C144.215 216.036 144.576 216.241 144.91 216.494C145.243 216.748 145.512 217.062 145.717 217.438C145.925 217.812 146.029 218.261 146.029 218.784C146.029 219.443 145.859 220.028 145.518 220.54C145.181 221.051 144.69 221.455 144.046 221.75C143.406 222.045 142.631 222.193 141.722 222.193C140.851 222.193 140.097 222.055 139.461 221.778C138.825 221.502 138.326 221.11 137.967 220.602C137.607 220.091 137.408 219.485 137.37 218.784H139.131C139.166 219.205 139.302 219.555 139.541 219.835C139.783 220.112 140.092 220.318 140.467 220.455C140.845 220.587 141.26 220.653 141.711 220.653C142.207 220.653 142.648 220.576 143.035 220.42C143.425 220.261 143.732 220.042 143.955 219.761C144.179 219.477 144.291 219.146 144.291 218.767C144.291 218.422 144.192 218.14 143.995 217.92C143.802 217.701 143.539 217.519 143.205 217.375C142.876 217.231 142.503 217.104 142.086 216.994L140.711 216.619C139.779 216.366 139.041 215.992 138.495 215.5C137.953 215.008 137.683 214.356 137.683 213.545C137.683 212.875 137.864 212.29 138.228 211.79C138.592 211.29 139.084 210.902 139.705 210.625C140.326 210.345 141.027 210.205 141.808 210.205C142.595 210.205 143.291 210.343 143.893 210.619C144.499 210.896 144.976 211.277 145.325 211.761C145.673 212.242 145.855 212.795 145.87 213.42H144.177ZM151.889 213.273V214.636H147.122V213.273H151.889ZM148.4 211.182H150.099V219.438C150.099 219.767 150.148 220.015 150.247 220.182C150.345 220.345 150.472 220.456 150.627 220.517C150.786 220.574 150.959 220.602 151.144 220.602C151.281 220.602 151.4 220.593 151.502 220.574C151.605 220.555 151.684 220.54 151.741 220.528L152.048 221.932C151.949 221.97 151.809 222.008 151.627 222.045C151.445 222.087 151.218 222.11 150.945 222.114C150.499 222.121 150.082 222.042 149.695 221.875C149.309 221.708 148.997 221.451 148.758 221.102C148.519 220.754 148.4 220.316 148.4 219.79V211.182ZM156.132 222.193C155.579 222.193 155.079 222.091 154.632 221.886C154.185 221.678 153.831 221.377 153.569 220.983C153.312 220.589 153.183 220.106 153.183 219.534C153.183 219.042 153.278 218.636 153.467 218.318C153.656 218 153.912 217.748 154.234 217.562C154.556 217.377 154.916 217.237 155.314 217.142C155.711 217.047 156.117 216.975 156.529 216.926C157.052 216.866 157.476 216.816 157.802 216.778C158.128 216.737 158.365 216.67 158.512 216.58C158.66 216.489 158.734 216.341 158.734 216.136V216.097C158.734 215.6 158.594 215.216 158.314 214.943C158.037 214.67 157.624 214.534 157.075 214.534C156.503 214.534 156.052 214.661 155.723 214.915C155.397 215.165 155.171 215.443 155.046 215.75L153.45 215.386C153.639 214.856 153.916 214.428 154.279 214.102C154.647 213.773 155.069 213.534 155.546 213.386C156.024 213.235 156.526 213.159 157.052 213.159C157.401 213.159 157.77 213.201 158.16 213.284C158.554 213.364 158.921 213.511 159.262 213.727C159.607 213.943 159.889 214.252 160.109 214.653C160.329 215.051 160.439 215.568 160.439 216.205V222H158.779V220.807H158.711C158.601 221.027 158.437 221.242 158.217 221.455C157.997 221.667 157.715 221.843 157.37 221.983C157.026 222.123 156.613 222.193 156.132 222.193ZM156.501 220.83C156.971 220.83 157.372 220.737 157.706 220.551C158.043 220.366 158.298 220.123 158.473 219.824C158.651 219.521 158.74 219.197 158.74 218.852V217.727C158.679 217.788 158.562 217.845 158.387 217.898C158.217 217.947 158.022 217.991 157.802 218.028C157.582 218.062 157.368 218.095 157.16 218.125C156.952 218.152 156.778 218.174 156.637 218.193C156.308 218.235 156.007 218.305 155.734 218.403C155.465 218.502 155.249 218.644 155.086 218.83C154.927 219.011 154.848 219.254 154.848 219.557C154.848 219.977 155.003 220.295 155.314 220.511C155.624 220.723 156.02 220.83 156.501 220.83ZM166.184 225.455C165.491 225.455 164.895 225.364 164.395 225.182C163.898 225 163.493 224.759 163.179 224.46C162.864 224.161 162.629 223.833 162.474 223.477L163.934 222.875C164.037 223.042 164.173 223.218 164.343 223.403C164.518 223.593 164.753 223.754 165.048 223.886C165.347 224.019 165.732 224.085 166.201 224.085C166.845 224.085 167.378 223.928 167.798 223.614C168.218 223.303 168.429 222.807 168.429 222.125V220.409H168.321C168.218 220.595 168.071 220.801 167.878 221.028C167.688 221.256 167.427 221.453 167.093 221.619C166.76 221.786 166.326 221.869 165.792 221.869C165.103 221.869 164.482 221.708 163.929 221.386C163.379 221.061 162.944 220.581 162.622 219.949C162.304 219.312 162.145 218.53 162.145 217.602C162.145 216.674 162.302 215.879 162.616 215.216C162.934 214.553 163.37 214.045 163.923 213.693C164.476 213.337 165.103 213.159 165.804 213.159C166.345 213.159 166.783 213.25 167.116 213.432C167.45 213.61 167.709 213.818 167.895 214.057C168.084 214.295 168.23 214.506 168.332 214.688H168.457V213.273H170.122V222.193C170.122 222.943 169.948 223.559 169.599 224.04C169.251 224.521 168.779 224.877 168.184 225.108C167.593 225.339 166.927 225.455 166.184 225.455ZM166.167 220.46C166.656 220.46 167.069 220.347 167.406 220.119C167.747 219.888 168.004 219.559 168.179 219.131C168.357 218.699 168.446 218.182 168.446 217.58C168.446 216.992 168.359 216.475 168.184 216.028C168.01 215.581 167.754 215.233 167.417 214.983C167.08 214.729 166.664 214.602 166.167 214.602C165.656 214.602 165.23 214.735 164.889 215C164.548 215.261 164.29 215.617 164.116 216.068C163.946 216.519 163.861 217.023 163.861 217.58C163.861 218.152 163.948 218.653 164.122 219.085C164.296 219.517 164.554 219.854 164.895 220.097C165.239 220.339 165.664 220.46 166.167 220.46ZM175.986 222.176C175.126 222.176 174.385 221.992 173.764 221.625C173.147 221.254 172.669 220.733 172.332 220.062C171.999 219.388 171.832 218.598 171.832 217.693C171.832 216.799 171.999 216.011 172.332 215.33C172.669 214.648 173.139 214.116 173.741 213.733C174.347 213.35 175.056 213.159 175.866 213.159C176.359 213.159 176.836 213.241 177.298 213.403C177.76 213.566 178.175 213.822 178.542 214.17C178.91 214.519 179.2 214.972 179.412 215.528C179.624 216.081 179.73 216.754 179.73 217.545V218.148H172.792V216.875H178.065C178.065 216.428 177.974 216.032 177.792 215.688C177.611 215.339 177.355 215.064 177.025 214.864C176.7 214.663 176.317 214.562 175.878 214.562C175.4 214.562 174.984 214.68 174.628 214.915C174.275 215.146 174.003 215.449 173.81 215.824C173.62 216.195 173.525 216.598 173.525 217.034V218.028C173.525 218.612 173.628 219.108 173.832 219.517C174.041 219.926 174.33 220.239 174.702 220.455C175.073 220.667 175.506 220.773 176.003 220.773C176.325 220.773 176.618 220.727 176.883 220.636C177.149 220.542 177.378 220.402 177.571 220.216C177.764 220.03 177.912 219.801 178.014 219.528L179.622 219.818C179.493 220.292 179.262 220.706 178.929 221.062C178.599 221.415 178.185 221.689 177.685 221.886C177.188 222.08 176.622 222.176 175.986 222.176ZM185.634 222V210.364H192.85V211.875H187.389V215.42H192.333V216.926H187.389V222H185.634ZM194.696 222V213.273H196.395V222H194.696ZM195.554 211.926C195.259 211.926 195.005 211.828 194.793 211.631C194.585 211.43 194.48 211.191 194.48 210.915C194.48 210.634 194.585 210.396 194.793 210.199C195.005 209.998 195.259 209.898 195.554 209.898C195.85 209.898 196.102 209.998 196.31 210.199C196.522 210.396 196.628 210.634 196.628 210.915C196.628 211.191 196.522 211.43 196.31 211.631C196.102 211.828 195.85 211.926 195.554 211.926ZM199.846 213.273L201.772 216.67L203.715 213.273H205.573L202.851 217.636L205.596 222H203.738L201.772 218.739L199.811 222H197.948L200.664 217.636L197.982 213.273H199.846ZM210.559 222.176C209.699 222.176 208.958 221.992 208.337 221.625C207.72 221.254 207.243 220.733 206.905 220.062C206.572 219.388 206.405 218.598 206.405 217.693C206.405 216.799 206.572 216.011 206.905 215.33C207.243 214.648 207.712 214.116 208.314 213.733C208.921 213.35 209.629 213.159 210.439 213.159C210.932 213.159 211.409 213.241 211.871 213.403C212.333 213.566 212.748 213.822 213.116 214.17C213.483 214.519 213.773 214.972 213.985 215.528C214.197 216.081 214.303 216.754 214.303 217.545V218.148H207.366V216.875H212.638C212.638 216.428 212.547 216.032 212.366 215.688C212.184 215.339 211.928 215.064 211.599 214.864C211.273 214.663 210.89 214.562 210.451 214.562C209.974 214.562 209.557 214.68 209.201 214.915C208.849 215.146 208.576 215.449 208.383 215.824C208.193 216.195 208.099 216.598 208.099 217.034V218.028C208.099 218.612 208.201 219.108 208.405 219.517C208.614 219.926 208.903 220.239 209.275 220.455C209.646 220.667 210.08 220.773 210.576 220.773C210.898 220.773 211.191 220.727 211.457 220.636C211.722 220.542 211.951 220.402 212.144 220.216C212.337 220.03 212.485 219.801 212.587 219.528L214.195 219.818C214.066 220.292 213.835 220.706 213.502 221.062C213.172 221.415 212.758 221.689 212.258 221.886C211.761 222.08 211.195 222.176 210.559 222.176ZM222.552 215.403L221.012 215.676C220.948 215.479 220.845 215.292 220.705 215.114C220.569 214.936 220.383 214.79 220.148 214.676C219.914 214.562 219.62 214.506 219.268 214.506C218.787 214.506 218.385 214.614 218.063 214.83C217.741 215.042 217.58 215.316 217.58 215.653C217.58 215.945 217.688 216.18 217.904 216.358C218.12 216.536 218.468 216.682 218.95 216.795L220.336 217.114C221.139 217.299 221.737 217.585 222.131 217.972C222.525 218.358 222.722 218.86 222.722 219.477C222.722 220 222.571 220.466 222.268 220.875C221.968 221.28 221.55 221.598 221.012 221.83C220.478 222.061 219.859 222.176 219.154 222.176C218.177 222.176 217.379 221.968 216.762 221.551C216.145 221.131 215.766 220.534 215.626 219.761L217.268 219.511C217.37 219.939 217.58 220.263 217.898 220.483C218.217 220.699 218.631 220.807 219.143 220.807C219.7 220.807 220.145 220.691 220.478 220.46C220.811 220.225 220.978 219.939 220.978 219.602C220.978 219.33 220.876 219.1 220.671 218.915C220.47 218.729 220.162 218.589 219.745 218.494L218.268 218.17C217.453 217.985 216.851 217.689 216.461 217.284C216.075 216.879 215.881 216.366 215.881 215.744C215.881 215.229 216.025 214.778 216.313 214.392C216.601 214.006 216.999 213.705 217.506 213.489C218.014 213.269 218.595 213.159 219.251 213.159C220.194 213.159 220.936 213.364 221.478 213.773C222.02 214.178 222.378 214.722 222.552 215.403Z" fill="white" fill-opacity="0.8"/>
<path d="M522.819 305.718L402.18 341.737C398.626 342.868 395 340.216 395 336.487V334.466V320.604C395 320.604 394.999 320.604 394.999 320.604H318C314.686 320.604 312 317.917 312 314.604V285.396C312 282.083 314.686 279.396 318 279.396H394.999C395 279.396 395 279.396 395 279.396V264.004C395 259.943 398.95 257.055 402.819 258.286L522.819 294.282C528.394 296.056 528.394 303.944 522.819 305.718Z" fill="#D4D1D1" stroke="black" stroke-width="4" stroke-linecap="round"/>
<path d="M382.071 298.148H380.298C380.23 297.769 380.103 297.436 379.917 297.148C379.732 296.86 379.504 296.616 379.235 296.415C378.967 296.214 378.665 296.062 378.332 295.96C378.003 295.858 377.652 295.807 377.281 295.807C376.61 295.807 376.01 295.975 375.48 296.312C374.953 296.65 374.537 297.144 374.23 297.795C373.927 298.447 373.775 299.242 373.775 300.182C373.775 301.129 373.927 301.928 374.23 302.58C374.537 303.231 374.955 303.723 375.485 304.057C376.016 304.39 376.612 304.557 377.275 304.557C377.643 304.557 377.991 304.508 378.321 304.409C378.654 304.307 378.955 304.157 379.224 303.96C379.493 303.763 379.72 303.523 379.906 303.239C380.095 302.951 380.226 302.621 380.298 302.25L382.071 302.256C381.976 302.828 381.792 303.354 381.52 303.835C381.251 304.312 380.904 304.725 380.48 305.074C380.059 305.419 379.578 305.686 379.037 305.875C378.495 306.064 377.904 306.159 377.264 306.159C376.256 306.159 375.359 305.92 374.571 305.443C373.783 304.962 373.162 304.275 372.707 303.381C372.256 302.487 372.031 301.42 372.031 300.182C372.031 298.939 372.258 297.873 372.713 296.983C373.167 296.089 373.788 295.403 374.576 294.926C375.364 294.445 376.26 294.205 377.264 294.205C377.881 294.205 378.457 294.294 378.991 294.472C379.529 294.646 380.012 294.903 380.44 295.244C380.868 295.581 381.222 295.994 381.503 296.483C381.783 296.968 381.972 297.523 382.071 298.148ZM387.535 306.176C386.717 306.176 386.003 305.989 385.393 305.614C384.783 305.239 384.31 304.714 383.973 304.04C383.636 303.366 383.467 302.578 383.467 301.676C383.467 300.771 383.636 299.979 383.973 299.301C384.31 298.623 384.783 298.097 385.393 297.722C386.003 297.347 386.717 297.159 387.535 297.159C388.353 297.159 389.068 297.347 389.677 297.722C390.287 298.097 390.761 298.623 391.098 299.301C391.435 299.979 391.603 300.771 391.603 301.676C391.603 302.578 391.435 303.366 391.098 304.04C390.761 304.714 390.287 305.239 389.677 305.614C389.068 305.989 388.353 306.176 387.535 306.176ZM387.541 304.75C388.071 304.75 388.511 304.61 388.859 304.33C389.208 304.049 389.465 303.676 389.632 303.21C389.802 302.744 389.888 302.231 389.888 301.67C389.888 301.114 389.802 300.602 389.632 300.136C389.465 299.667 389.208 299.29 388.859 299.006C388.511 298.722 388.071 298.58 387.541 298.58C387.007 298.58 386.564 298.722 386.211 299.006C385.863 299.29 385.603 299.667 385.433 300.136C385.266 300.602 385.183 301.114 385.183 301.67C385.183 302.231 385.266 302.744 385.433 303.21C385.603 303.676 385.863 304.049 386.211 304.33C386.564 304.61 387.007 304.75 387.541 304.75ZM393.324 306V297.273H394.954V298.693H395.062C395.244 298.212 395.542 297.837 395.954 297.568C396.367 297.295 396.862 297.159 397.437 297.159C398.021 297.159 398.509 297.295 398.903 297.568C399.301 297.841 399.595 298.216 399.784 298.693H399.875C400.083 298.227 400.415 297.856 400.869 297.58C401.324 297.299 401.865 297.159 402.494 297.159C403.286 297.159 403.932 297.407 404.432 297.903C404.936 298.4 405.187 299.148 405.187 300.148V306H403.489V300.307C403.489 299.716 403.328 299.288 403.006 299.023C402.684 298.758 402.299 298.625 401.852 298.625C401.299 298.625 400.869 298.795 400.562 299.136C400.256 299.473 400.102 299.907 400.102 300.438V306H398.409V300.199C398.409 299.725 398.261 299.345 397.966 299.057C397.67 298.769 397.286 298.625 396.812 298.625C396.49 298.625 396.193 298.71 395.92 298.881C395.651 299.047 395.434 299.28 395.267 299.58C395.104 299.879 395.023 300.225 395.023 300.619V306H393.324ZM407.288 306V297.273H408.919V298.693H409.027C409.209 298.212 409.506 297.837 409.919 297.568C410.332 297.295 410.826 297.159 411.402 297.159C411.985 297.159 412.474 297.295 412.868 297.568C413.266 297.841 413.559 298.216 413.749 298.693H413.84C414.048 298.227 414.379 297.856 414.834 297.58C415.288 297.299 415.83 297.159 416.459 297.159C417.251 297.159 417.896 297.407 418.396 297.903C418.9 298.4 419.152 299.148 419.152 300.148V306H417.453V300.307C417.453 299.716 417.292 299.288 416.97 299.023C416.648 298.758 416.264 298.625 415.817 298.625C415.264 298.625 414.834 298.795 414.527 299.136C414.22 299.473 414.067 299.907 414.067 300.438V306H412.374V300.199C412.374 299.725 412.226 299.345 411.93 299.057C411.635 298.769 411.251 298.625 410.777 298.625C410.455 298.625 410.158 298.71 409.885 298.881C409.616 299.047 409.398 299.28 409.232 299.58C409.069 299.879 408.987 300.225 408.987 300.619V306H407.288ZM421.253 306V297.273H422.952V306H421.253ZM422.111 295.926C421.816 295.926 421.562 295.828 421.35 295.631C421.141 295.43 421.037 295.191 421.037 294.915C421.037 294.634 421.141 294.396 421.35 294.199C421.562 293.998 421.816 293.898 422.111 293.898C422.406 293.898 422.658 293.998 422.867 294.199C423.079 294.396 423.185 294.634 423.185 294.915C423.185 295.191 423.079 295.43 422.867 295.631C422.658 295.828 422.406 295.926 422.111 295.926ZM429.135 297.273V298.636H424.368V297.273H429.135ZM425.647 295.182H427.346V303.438C427.346 303.767 427.395 304.015 427.493 304.182C427.592 304.345 427.719 304.456 427.874 304.517C428.033 304.574 428.205 304.602 428.391 304.602C428.527 304.602 428.647 304.593 428.749 304.574C428.851 304.555 428.931 304.54 428.988 304.528L429.294 305.932C429.196 305.97 429.056 306.008 428.874 306.045C428.692 306.087 428.465 306.11 428.192 306.114C427.745 306.121 427.328 306.042 426.942 305.875C426.556 305.708 426.243 305.451 426.005 305.102C425.766 304.754 425.647 304.316 425.647 303.79V295.182Z" fill="white" fill-opacity="0.8"/>
<path d="M94.2599 128.258L214.26 94.2615C218.113 93.0939 222 95.9776 222 100.004V114.377C222 114.377 222.001 114.377 222.001 114.377H520C523.314 114.377 526 117.064 526 120.377V147.623C526 150.936 523.314 153.623 520 153.623H222.001C222 153.623 222 153.623 222 153.623V167.996C222 172.022 218.113 174.906 214.26 173.738L94.26 139.742C88.58 138.021 88.58 129.979 94.2599 128.258Z" fill="#D4D1D1" stroke="black" stroke-width="4" stroke-linecap="round"/>
<path d="M259.17 132.148H257.397C257.329 131.769 257.202 131.436 257.016 131.148C256.831 130.86 256.604 130.616 256.335 130.415C256.066 130.214 255.765 130.062 255.431 129.96C255.102 129.858 254.751 129.807 254.38 129.807C253.71 129.807 253.109 129.975 252.579 130.312C252.052 130.65 251.636 131.144 251.329 131.795C251.026 132.447 250.874 133.242 250.874 134.182C250.874 135.129 251.026 135.928 251.329 136.58C251.636 137.231 252.054 137.723 252.585 138.057C253.115 138.39 253.712 138.557 254.374 138.557C254.742 138.557 255.09 138.508 255.42 138.409C255.753 138.307 256.054 138.157 256.323 137.96C256.592 137.763 256.819 137.523 257.005 137.239C257.194 136.951 257.325 136.621 257.397 136.25L259.17 136.256C259.075 136.828 258.891 137.354 258.619 137.835C258.35 138.312 258.003 138.725 257.579 139.074C257.159 139.419 256.677 139.686 256.136 139.875C255.594 140.064 255.003 140.159 254.363 140.159C253.355 140.159 252.458 139.92 251.67 139.443C250.882 138.962 250.261 138.275 249.806 137.381C249.355 136.487 249.13 135.42 249.13 134.182C249.13 132.939 249.357 131.873 249.812 130.983C250.266 130.089 250.888 129.403 251.676 128.926C252.463 128.445 253.359 128.205 254.363 128.205C254.98 128.205 255.556 128.294 256.09 128.472C256.628 128.646 257.111 128.903 257.539 129.244C257.967 129.581 258.321 129.994 258.602 130.483C258.882 130.968 259.071 131.523 259.17 132.148ZM262.657 134.818V140H260.958V128.364H262.634V132.693H262.742C262.947 132.223 263.259 131.85 263.68 131.574C264.1 131.297 264.65 131.159 265.328 131.159C265.926 131.159 266.449 131.282 266.896 131.528C267.347 131.775 267.695 132.142 267.941 132.631C268.191 133.116 268.316 133.722 268.316 134.449V140H266.617V134.653C266.617 134.013 266.453 133.517 266.123 133.165C265.794 132.809 265.335 132.631 264.748 132.631C264.347 132.631 263.987 132.716 263.669 132.886C263.354 133.057 263.106 133.307 262.924 133.636C262.746 133.962 262.657 134.356 262.657 134.818ZM274.169 140.176C273.309 140.176 272.568 139.992 271.947 139.625C271.33 139.254 270.852 138.733 270.515 138.062C270.182 137.388 270.015 136.598 270.015 135.693C270.015 134.799 270.182 134.011 270.515 133.33C270.852 132.648 271.322 132.116 271.924 131.733C272.53 131.35 273.239 131.159 274.049 131.159C274.542 131.159 275.019 131.241 275.481 131.403C275.943 131.566 276.358 131.822 276.726 132.17C277.093 132.519 277.383 132.972 277.595 133.528C277.807 134.081 277.913 134.754 277.913 135.545V136.148H270.976V134.875H276.248C276.248 134.428 276.157 134.032 275.976 133.688C275.794 133.339 275.538 133.064 275.208 132.864C274.883 132.663 274.5 132.562 274.061 132.562C273.583 132.562 273.167 132.68 272.811 132.915C272.458 133.146 272.186 133.449 271.993 133.824C271.803 134.195 271.708 134.598 271.708 135.034V136.028C271.708 136.612 271.811 137.108 272.015 137.517C272.224 137.926 272.513 138.239 272.885 138.455C273.256 138.667 273.69 138.773 274.186 138.773C274.508 138.773 274.801 138.727 275.066 138.636C275.332 138.542 275.561 138.402 275.754 138.216C275.947 138.03 276.095 137.801 276.197 137.528L277.805 137.818C277.676 138.292 277.445 138.706 277.112 139.062C276.782 139.415 276.368 139.689 275.868 139.886C275.371 140.08 274.805 140.176 274.169 140.176ZM283.298 140.176C282.453 140.176 281.726 139.985 281.116 139.602C280.51 139.216 280.044 138.684 279.719 138.006C279.393 137.328 279.23 136.551 279.23 135.676C279.23 134.79 279.397 134.008 279.73 133.33C280.063 132.648 280.533 132.116 281.139 131.733C281.745 131.35 282.459 131.159 283.281 131.159C283.944 131.159 284.535 131.282 285.054 131.528C285.573 131.771 285.991 132.112 286.309 132.551C286.631 132.991 286.823 133.504 286.883 134.091H285.23C285.139 133.682 284.931 133.33 284.605 133.034C284.283 132.739 283.851 132.591 283.309 132.591C282.836 132.591 282.421 132.716 282.065 132.966C281.713 133.212 281.438 133.564 281.241 134.023C281.044 134.477 280.946 135.015 280.946 135.636C280.946 136.273 281.042 136.822 281.236 137.284C281.429 137.746 281.702 138.104 282.054 138.358C282.41 138.612 282.828 138.739 283.309 138.739C283.631 138.739 283.923 138.68 284.184 138.562C284.45 138.441 284.671 138.269 284.849 138.045C285.031 137.822 285.158 137.553 285.23 137.239H286.883C286.823 137.803 286.639 138.307 286.332 138.75C286.025 139.193 285.614 139.542 285.099 139.795C284.588 140.049 283.988 140.176 283.298 140.176ZM290.087 137.04L290.075 134.966H290.371L293.848 131.273H295.882L291.916 135.477H291.649L290.087 137.04ZM288.524 140V128.364H290.223V140H288.524ZM294.035 140L290.91 135.852L292.081 134.665L296.121 140H294.035ZM300.571 140.176C299.753 140.176 299.039 139.989 298.429 139.614C297.819 139.239 297.346 138.714 297.009 138.04C296.671 137.366 296.503 136.578 296.503 135.676C296.503 134.771 296.671 133.979 297.009 133.301C297.346 132.623 297.819 132.097 298.429 131.722C299.039 131.347 299.753 131.159 300.571 131.159C301.389 131.159 302.103 131.347 302.713 131.722C303.323 132.097 303.796 132.623 304.134 133.301C304.471 133.979 304.639 134.771 304.639 135.676C304.639 136.578 304.471 137.366 304.134 138.04C303.796 138.714 303.323 139.239 302.713 139.614C302.103 139.989 301.389 140.176 300.571 140.176ZM300.577 138.75C301.107 138.75 301.546 138.61 301.895 138.33C302.243 138.049 302.501 137.676 302.668 137.21C302.838 136.744 302.923 136.231 302.923 135.67C302.923 135.114 302.838 134.602 302.668 134.136C302.501 133.667 302.243 133.29 301.895 133.006C301.546 132.722 301.107 132.58 300.577 132.58C300.043 132.58 299.6 132.722 299.247 133.006C298.899 133.29 298.639 133.667 298.469 134.136C298.302 134.602 298.219 135.114 298.219 135.67C298.219 136.231 298.302 136.744 298.469 137.21C298.639 137.676 298.899 138.049 299.247 138.33C299.6 138.61 300.043 138.75 300.577 138.75ZM311.888 136.381V131.273H313.593V140H311.922V138.489H311.831C311.63 138.955 311.308 139.343 310.865 139.653C310.426 139.96 309.879 140.114 309.223 140.114C308.663 140.114 308.166 139.991 307.735 139.744C307.307 139.494 306.969 139.125 306.723 138.636C306.481 138.148 306.36 137.544 306.36 136.824V131.273H308.058V136.619C308.058 137.214 308.223 137.687 308.553 138.04C308.882 138.392 309.31 138.568 309.837 138.568C310.155 138.568 310.471 138.489 310.786 138.33C311.104 138.17 311.367 137.93 311.576 137.608C311.788 137.286 311.892 136.877 311.888 136.381ZM319.773 131.273V132.636H315.006V131.273H319.773ZM316.284 129.182H317.983V137.438C317.983 137.767 318.033 138.015 318.131 138.182C318.23 138.345 318.356 138.456 318.512 138.517C318.671 138.574 318.843 138.602 319.029 138.602C319.165 138.602 319.284 138.593 319.387 138.574C319.489 138.555 319.569 138.54 319.625 138.528L319.932 139.932C319.834 139.97 319.694 140.008 319.512 140.045C319.33 140.087 319.103 140.11 318.83 140.114C318.383 140.121 317.966 140.042 317.58 139.875C317.194 139.708 316.881 139.451 316.642 139.102C316.404 138.754 316.284 138.316 316.284 137.79V129.182ZM329.609 131.273V132.636H324.842V131.273H329.609ZM326.12 129.182H327.819V137.438C327.819 137.767 327.868 138.015 327.967 138.182C328.065 138.345 328.192 138.456 328.347 138.517C328.506 138.574 328.679 138.602 328.864 138.602C329.001 138.602 329.12 138.593 329.222 138.574C329.325 138.555 329.404 138.54 329.461 138.528L329.768 139.932C329.669 139.97 329.529 140.008 329.347 140.045C329.165 140.087 328.938 140.11 328.665 140.114C328.218 140.121 327.802 140.042 327.415 139.875C327.029 139.708 326.717 139.451 326.478 139.102C326.239 138.754 326.12 138.316 326.12 137.79V129.182ZM333.198 134.818V140H331.499V128.364H333.175V132.693H333.283C333.488 132.223 333.8 131.85 334.221 131.574C334.641 131.297 335.191 131.159 335.869 131.159C336.467 131.159 336.99 131.282 337.437 131.528C337.888 131.775 338.236 132.142 338.482 132.631C338.732 133.116 338.857 133.722 338.857 134.449V140H337.158V134.653C337.158 134.013 336.994 133.517 336.664 133.165C336.335 132.809 335.876 132.631 335.289 132.631C334.888 132.631 334.528 132.716 334.21 132.886C333.895 133.057 333.647 133.307 333.465 133.636C333.287 133.962 333.198 134.356 333.198 134.818ZM344.71 140.176C343.85 140.176 343.109 139.992 342.488 139.625C341.871 139.254 341.393 138.733 341.056 138.062C340.723 137.388 340.556 136.598 340.556 135.693C340.556 134.799 340.723 134.011 341.056 133.33C341.393 132.648 341.863 132.116 342.465 131.733C343.071 131.35 343.78 131.159 344.59 131.159C345.083 131.159 345.56 131.241 346.022 131.403C346.484 131.566 346.899 131.822 347.267 132.17C347.634 132.519 347.924 132.972 348.136 133.528C348.348 134.081 348.454 134.754 348.454 135.545V136.148H341.517V134.875H346.789C346.789 134.428 346.698 134.032 346.517 133.688C346.335 133.339 346.079 133.064 345.749 132.864C345.424 132.663 345.041 132.562 344.602 132.562C344.124 132.562 343.708 132.68 343.352 132.915C342.999 133.146 342.727 133.449 342.534 133.824C342.344 134.195 342.249 134.598 342.249 135.034V136.028C342.249 136.612 342.352 137.108 342.556 137.517C342.765 137.926 343.054 138.239 343.426 138.455C343.797 138.667 344.231 138.773 344.727 138.773C345.049 138.773 345.342 138.727 345.607 138.636C345.873 138.542 346.102 138.402 346.295 138.216C346.488 138.03 346.636 137.801 346.738 137.528L348.346 137.818C348.217 138.292 347.986 138.706 347.653 139.062C347.323 139.415 346.909 139.689 346.409 139.886C345.912 140.08 345.346 140.176 344.71 140.176ZM354.221 143.273V131.273H355.88V132.688H356.022C356.121 132.506 356.263 132.295 356.449 132.057C356.634 131.818 356.892 131.61 357.221 131.432C357.551 131.25 357.987 131.159 358.528 131.159C359.233 131.159 359.862 131.337 360.415 131.693C360.968 132.049 361.401 132.562 361.716 133.233C362.034 133.903 362.193 134.71 362.193 135.653C362.193 136.597 362.036 137.405 361.721 138.08C361.407 138.75 360.975 139.267 360.426 139.631C359.877 139.991 359.25 140.17 358.545 140.17C358.015 140.17 357.581 140.081 357.244 139.903C356.911 139.725 356.649 139.517 356.46 139.278C356.271 139.04 356.125 138.828 356.022 138.642H355.92V143.273H354.221ZM355.886 135.636C355.886 136.25 355.975 136.788 356.153 137.25C356.331 137.712 356.589 138.074 356.926 138.335C357.263 138.593 357.676 138.722 358.165 138.722C358.672 138.722 359.096 138.587 359.437 138.318C359.778 138.045 360.036 137.676 360.21 137.21C360.388 136.744 360.477 136.22 360.477 135.636C360.477 135.061 360.39 134.544 360.216 134.085C360.045 133.627 359.788 133.265 359.443 133C359.102 132.735 358.676 132.602 358.165 132.602C357.672 132.602 357.255 132.729 356.915 132.983C356.577 133.237 356.322 133.591 356.147 134.045C355.973 134.5 355.886 135.03 355.886 135.636ZM363.92 140V131.273H365.562V132.659H365.653C365.812 132.189 366.093 131.82 366.494 131.551C366.9 131.278 367.358 131.142 367.869 131.142C367.975 131.142 368.1 131.146 368.244 131.153C368.392 131.161 368.507 131.17 368.591 131.182V132.807C368.523 132.788 368.401 132.767 368.227 132.744C368.053 132.718 367.879 132.705 367.704 132.705C367.303 132.705 366.945 132.79 366.631 132.96C366.32 133.127 366.074 133.36 365.892 133.659C365.71 133.955 365.619 134.292 365.619 134.67V140H363.92ZM373.249 140.176C372.43 140.176 371.716 139.989 371.107 139.614C370.497 139.239 370.023 138.714 369.686 138.04C369.349 137.366 369.18 136.578 369.18 135.676C369.18 134.771 369.349 133.979 369.686 133.301C370.023 132.623 370.497 132.097 371.107 131.722C371.716 131.347 372.43 131.159 373.249 131.159C374.067 131.159 374.781 131.347 375.391 131.722C376.001 132.097 376.474 132.623 376.811 133.301C377.148 133.979 377.317 134.771 377.317 135.676C377.317 136.578 377.148 137.366 376.811 138.04C376.474 138.714 376.001 139.239 375.391 139.614C374.781 139.989 374.067 140.176 373.249 140.176ZM373.254 138.75C373.785 138.75 374.224 138.61 374.572 138.33C374.921 138.049 375.179 137.676 375.345 137.21C375.516 136.744 375.601 136.231 375.601 135.67C375.601 135.114 375.516 134.602 375.345 134.136C375.179 133.667 374.921 133.29 374.572 133.006C374.224 132.722 373.785 132.58 373.254 132.58C372.72 132.58 372.277 132.722 371.925 133.006C371.576 133.29 371.317 133.667 371.146 134.136C370.98 134.602 370.896 135.114 370.896 135.67C370.896 136.231 370.98 136.744 371.146 137.21C371.317 137.676 371.576 138.049 371.925 138.33C372.277 138.61 372.72 138.75 373.254 138.75ZM379.037 131.273H380.736V140.568C380.736 141.152 380.63 141.644 380.418 142.045C380.209 142.447 379.899 142.752 379.486 142.96C379.077 143.169 378.571 143.273 377.969 143.273C377.908 143.273 377.852 143.273 377.798 143.273C377.742 143.273 377.683 143.271 377.622 143.267V141.807C377.675 141.807 377.723 141.807 377.764 141.807C377.802 141.807 377.846 141.807 377.895 141.807C378.297 141.807 378.586 141.699 378.764 141.483C378.946 141.271 379.037 140.962 379.037 140.557V131.273ZM379.878 129.926C379.583 129.926 379.329 129.828 379.117 129.631C378.908 129.43 378.804 129.191 378.804 128.915C378.804 128.634 378.908 128.396 379.117 128.199C379.329 127.998 379.583 127.898 379.878 127.898C380.173 127.898 380.425 127.998 380.634 128.199C380.846 128.396 380.952 128.634 380.952 128.915C380.952 129.191 380.846 129.43 380.634 129.631C380.425 129.828 380.173 129.926 379.878 129.926ZM386.607 140.176C385.747 140.176 385.006 139.992 384.385 139.625C383.768 139.254 383.291 138.733 382.953 138.062C382.62 137.388 382.453 136.598 382.453 135.693C382.453 134.799 382.62 134.011 382.953 133.33C383.291 132.648 383.76 132.116 384.363 131.733C384.969 131.35 385.677 131.159 386.488 131.159C386.98 131.159 387.457 131.241 387.919 131.403C388.381 131.566 388.796 131.822 389.164 132.17C389.531 132.519 389.821 132.972 390.033 133.528C390.245 134.081 390.351 134.754 390.351 135.545V136.148H383.414V134.875H388.686C388.686 134.428 388.595 134.032 388.414 133.688C388.232 133.339 387.976 133.064 387.647 132.864C387.321 132.663 386.938 132.562 386.499 132.562C386.022 132.562 385.605 132.68 385.249 132.915C384.897 133.146 384.624 133.449 384.431 133.824C384.241 134.195 384.147 134.598 384.147 135.034V136.028C384.147 136.612 384.249 137.108 384.453 137.517C384.662 137.926 384.952 138.239 385.323 138.455C385.694 138.667 386.128 138.773 386.624 138.773C386.946 138.773 387.239 138.727 387.505 138.636C387.77 138.542 387.999 138.402 388.192 138.216C388.385 138.03 388.533 137.801 388.635 137.528L390.243 137.818C390.114 138.292 389.883 138.706 389.55 139.062C389.22 139.415 388.806 139.689 388.306 139.886C387.809 140.08 387.243 140.176 386.607 140.176ZM395.736 140.176C394.892 140.176 394.164 139.985 393.554 139.602C392.948 139.216 392.482 138.684 392.157 138.006C391.831 137.328 391.668 136.551 391.668 135.676C391.668 134.79 391.835 134.008 392.168 133.33C392.501 132.648 392.971 132.116 393.577 131.733C394.183 131.35 394.897 131.159 395.719 131.159C396.382 131.159 396.973 131.282 397.492 131.528C398.011 131.771 398.429 132.112 398.748 132.551C399.07 132.991 399.261 133.504 399.321 134.091H397.668C397.577 133.682 397.369 133.33 397.043 133.034C396.721 132.739 396.289 132.591 395.748 132.591C395.274 132.591 394.859 132.716 394.503 132.966C394.151 133.212 393.876 133.564 393.679 134.023C393.482 134.477 393.384 135.015 393.384 135.636C393.384 136.273 393.481 136.822 393.674 137.284C393.867 137.746 394.14 138.104 394.492 138.358C394.848 138.612 395.267 138.739 395.748 138.739C396.07 138.739 396.361 138.68 396.623 138.562C396.888 138.441 397.109 138.269 397.287 138.045C397.469 137.822 397.596 137.553 397.668 137.239H399.321C399.261 137.803 399.077 138.307 398.77 138.75C398.464 139.193 398.053 139.542 397.537 139.795C397.026 140.049 396.426 140.176 395.736 140.176ZM405.036 131.273V132.636H400.269V131.273H405.036ZM401.547 129.182H403.246V137.438C403.246 137.767 403.296 138.015 403.394 138.182C403.493 138.345 403.619 138.456 403.775 138.517C403.934 138.574 404.106 138.602 404.292 138.602C404.428 138.602 404.547 138.593 404.65 138.574C404.752 138.555 404.832 138.54 404.888 138.528L405.195 139.932C405.097 139.97 404.957 140.008 404.775 140.045C404.593 140.087 404.366 140.11 404.093 140.114C403.646 140.121 403.229 140.042 402.843 139.875C402.457 139.708 402.144 139.451 401.905 139.102C401.667 138.754 401.547 138.316 401.547 137.79V129.182Z" fill="white" fill-opacity="0.8"/>
</svg>
